<svg width="128" height="38" viewBox="0 0 128 38" fill="none" xmlns="http://www.w3.org/2000/svg">
<g clip-path="url(#clip0_1041_1279)">
<path d="M0 5.05679C0 2.264 2.26512 0 5.05929 0H122.941C125.735 0 128 2.26401 128 5.05679V32.8692C128 35.6619 125.735 37.9259 122.941 37.9259H5.05929C2.26512 37.9259 0 35.6619 0 32.8692V5.05679Z" fill="white"/>
<path fill-rule="evenodd" clip-rule="evenodd" d="M0 32.8692V5.05679C0 2.26401 2.26512 0 5.05929 0H122.941C125.735 0 128 2.264 128 5.05679V32.8692C128 35.6619 125.735 37.9259 122.941 37.9259H5.05929C2.26512 37.9259 0 35.6619 0 32.8692ZM0.758893 32.8692V5.05679C0.758893 2.68292 2.68425 0.758519 5.05929 0.758519H122.941C125.316 0.758519 127.241 2.68292 127.241 5.05679V32.8692C127.241 35.2431 125.316 37.1674 122.941 37.1674H5.05929C2.68425 37.1674 0.758893 35.2431 0.758893 32.8692Z" fill="black" fill-opacity="0.1"/>
<path d="M28.925 19.7353C28.9119 17.5124 29.9195 15.8371 31.9543 14.6019C30.8162 12.9723 29.0945 12.076 26.8249 11.9033C24.676 11.7337 22.3249 13.1548 21.4641 13.1548C20.5543 13.1548 18.4738 11.962 16.8369 11.962C13.4587 12.0141 9.86841 14.654 9.86841 20.0253C9.86841 21.6126 10.1586 23.252 10.7391 24.9403C11.5152 27.1632 14.3129 32.6093 17.2314 32.5213C18.7576 32.4855 19.8369 31.4393 21.8228 31.4393C23.75 31.4393 24.7478 32.5213 26.4499 32.5213C29.3945 32.4789 31.9249 27.5282 32.6619 25.2988C28.7129 23.4378 28.925 19.8493 28.925 19.7353ZM25.4978 9.7945C27.1511 7.83244 27.0011 6.04636 26.9521 5.4043C25.4912 5.48903 23.8021 6.39836 22.8401 7.5163C21.7804 8.7157 21.1575 10.1987 21.2912 11.8707C22.8695 11.9913 24.3108 11.1797 25.4978 9.7945Z" fill="black"/>
<path d="M46.7355 27.4453H45.0607L44.1433 24.5506H40.9545L40.0806 27.4453H38.45L41.6094 17.5903H43.5608L46.7355 27.4453ZM43.8668 23.3361L43.0371 20.7627C42.9494 20.4998 42.7849 19.8808 42.5423 18.9063H42.5128C42.4161 19.3253 42.2606 19.9445 42.0467 20.7627L41.2317 23.3361H43.8668Z" fill="black"/>
<path d="M54.8605 23.8045C54.8605 25.0131 54.5352 25.9683 53.8848 26.6696C53.3022 27.2938 52.5787 27.6057 51.7151 27.6057C50.7829 27.6057 50.1133 27.2695 49.7055 26.597H49.676V30.3404H48.1037V22.6782C48.1037 21.9183 48.0838 21.1386 48.0454 20.3388H49.4282L49.516 21.4652H49.5455C50.0698 20.6165 50.8656 20.1929 51.9334 20.1929C52.7682 20.1929 53.4651 20.524 54.0227 21.1867C54.5817 21.8502 54.8605 22.7225 54.8605 23.8045ZM53.2587 23.8623C53.2587 23.1706 53.1038 22.6004 52.7926 22.1517C52.4526 21.6836 51.9961 21.4496 51.4238 21.4496C51.0359 21.4496 50.6833 21.5799 50.3685 21.8369C50.0528 22.0961 49.8463 22.4345 49.7497 22.8537C49.7011 23.0492 49.6767 23.2091 49.6767 23.335V24.5198C49.6767 25.0368 49.8346 25.4729 50.1502 25.8291C50.4658 26.1853 50.8759 26.363 51.3803 26.363C51.9725 26.363 52.4334 26.1335 52.7631 25.6758C53.0934 25.2174 53.2587 24.6131 53.2587 23.8623Z" fill="black"/>
<path d="M63.0003 23.8045C63.0003 25.0131 62.6751 25.9683 62.0239 26.6696C61.442 27.2938 60.7186 27.6057 59.855 27.6057C58.9228 27.6057 58.2532 27.2695 57.8461 26.597H57.8166V30.3404H56.2443V22.6782C56.2443 21.9183 56.2243 21.1386 56.186 20.3388H57.5688L57.6565 21.4652H57.686C58.2097 20.6165 59.0054 20.1929 60.074 20.1929C60.9081 20.1929 61.605 20.524 62.164 21.1867C62.7209 21.8502 63.0003 22.7225 63.0003 23.8045ZM61.3985 23.8623C61.3985 23.1706 61.2429 22.6004 60.9317 22.1517C60.5917 21.6836 60.1367 21.4496 59.5636 21.4496C59.175 21.4496 58.8232 21.5799 58.5076 21.8369C58.1919 22.0961 57.9862 22.4345 57.8896 22.8537C57.8417 23.0492 57.8166 23.2091 57.8166 23.335V24.5198C57.8166 25.0368 57.9744 25.4729 58.2886 25.8291C58.6042 26.1846 59.0143 26.363 59.5202 26.363C60.1123 26.363 60.5733 26.1335 60.903 25.6758C61.2333 25.2174 61.3985 24.6131 61.3985 23.8623Z" fill="black"/>
<path d="M72.1008 24.6815C72.1008 25.5199 71.811 26.2019 71.2291 26.7284C70.5897 27.3038 69.6996 27.5911 68.5557 27.5911C67.4997 27.5911 66.6531 27.3867 66.0122 26.9772L66.3765 25.6612C67.0667 26.0804 67.8241 26.2907 68.6494 26.2907C69.2416 26.2907 69.7025 26.156 70.0337 25.8878C70.3633 25.6198 70.5278 25.2599 70.5278 24.8111C70.5278 24.4113 70.3921 24.0743 70.12 23.8011C69.8493 23.5278 69.3972 23.2738 68.7659 23.039C67.0476 22.3955 66.1891 21.4529 66.1891 20.2132C66.1891 19.4031 66.4901 18.7388 67.0926 18.2219C67.6929 17.7043 68.4938 17.4458 69.4953 17.4458C70.3884 17.4458 71.1303 17.6021 71.7225 17.9138L71.3294 19.2008C70.7763 18.8987 70.1509 18.7477 69.451 18.7477C68.8979 18.7477 68.4657 18.8846 68.1561 19.1572C67.8942 19.4008 67.763 19.6977 67.763 20.0495C67.763 20.439 67.9127 20.7612 68.2135 21.0144C68.4754 21.2484 68.951 21.5017 69.6413 21.775C70.4858 22.1164 71.1059 22.5155 71.5049 22.9731C71.9024 23.4293 72.1008 24.0003 72.1008 24.6815Z" fill="black"/>
<path d="M77.299 21.5238H75.5659V24.974C75.5659 25.8516 75.8713 26.2899 76.4834 26.2899C76.7644 26.2899 76.9974 26.2654 77.1818 26.2166L77.2253 27.4155C76.9155 27.5318 76.5077 27.5903 76.0026 27.5903C75.3816 27.5903 74.8964 27.4 74.546 27.0201C74.1972 26.6395 74.0217 26.0011 74.0217 25.1043V21.5224H72.9893V20.3375H74.0217V19.0364L75.5659 18.5684V20.3375H77.299V21.5238Z" fill="black"/>
<path d="M85.1188 23.8336C85.1188 24.9259 84.8076 25.8226 84.1867 26.524C83.5355 27.246 82.6711 27.6059 81.5937 27.6059C80.5553 27.6059 79.7286 27.26 79.112 26.5683C78.4955 25.8768 78.1873 25.0036 78.1873 23.9514C78.1873 22.8502 78.5043 21.9482 79.1408 21.247C79.7758 20.5449 80.6327 20.1938 81.7102 20.1938C82.7485 20.1938 83.5841 20.5397 84.2146 21.2321C84.8179 21.9037 85.1188 22.7709 85.1188 23.8336ZM83.4875 23.8847C83.4875 23.2293 83.3481 22.6673 83.0657 22.1985C82.736 21.6312 82.2648 21.3484 81.6542 21.3484C81.0221 21.3484 80.542 21.632 80.2123 22.1985C79.9299 22.668 79.7905 23.2389 79.7905 23.9143C79.7905 24.5696 79.9299 25.1317 80.2123 25.5998C80.5523 26.167 81.0272 26.4499 81.6401 26.4499C82.2404 26.4499 82.7116 26.1611 83.0516 25.5849C83.3415 25.1073 83.4875 24.5393 83.4875 23.8847Z" fill="black"/>
<path d="M90.2293 21.7273C90.0737 21.6984 89.9078 21.6836 89.7337 21.6836C89.1807 21.6836 88.7529 21.8932 88.452 22.313C88.1903 22.6834 88.0589 23.1514 88.0589 23.7164V27.445H86.4874L86.5022 22.5767C86.5022 21.7577 86.4822 21.012 86.4431 20.3396H87.8126L87.8702 21.6992H87.9137C88.0796 21.2319 88.3414 20.8557 88.6998 20.5736C89.0501 20.3195 89.4284 20.1929 89.8362 20.1929C89.9816 20.1929 90.1128 20.2033 90.2293 20.2218V21.7273Z" fill="black"/>
<path d="M97.2611 23.5559C97.2611 23.8387 97.2421 24.0771 97.2033 24.2719H92.4864C92.5048 24.9739 92.7328 25.5108 93.1708 25.8811C93.5683 26.2121 94.0824 26.378 94.7136 26.378C95.4122 26.378 96.0494 26.2661 96.6221 26.0418L96.8686 27.1378C96.1992 27.431 95.4084 27.5769 94.496 27.5769C93.3986 27.5769 92.5374 27.2526 91.9104 26.6046C91.285 25.9567 90.9717 25.0865 90.9717 23.9949C90.9717 22.9234 91.263 22.031 91.8463 21.3194C92.457 20.5596 93.2822 20.1797 94.3205 20.1797C95.3402 20.1797 96.1129 20.5596 96.6372 21.3194C97.0525 21.923 97.2611 22.6694 97.2611 23.5559ZM95.7611 23.1463C95.7716 22.6783 95.6692 22.274 95.4558 21.9325C95.1837 21.4934 94.766 21.2742 94.2032 21.2742C93.6893 21.2742 93.2711 21.4882 92.9518 21.9177C92.69 22.2592 92.5344 22.6687 92.4864 23.1456H95.7611V23.1463Z" fill="black"/>
<path d="M43.5473 10.9633C43.5473 12.0285 43.2292 12.8304 42.5938 13.3689C42.0052 13.8658 41.1688 14.1147 40.0853 14.1147C39.5481 14.1147 39.0885 14.0911 38.7036 14.0441V8.22367C39.2057 8.14222 39.7465 8.10059 40.3305 8.10059C41.3625 8.10059 42.1404 8.32594 42.665 8.77666C43.2526 9.28621 43.5473 10.0148 43.5473 10.9633ZM42.5514 10.9896C42.5514 10.2989 42.3693 9.76948 42.0052 9.40024C41.6411 9.03189 41.1093 8.84725 40.409 8.84725C40.1115 8.84725 39.8583 8.86716 39.6483 8.9088V13.3337C39.7645 13.3517 39.9772 13.3598 40.2864 13.3598C41.0092 13.3598 41.5671 13.1581 41.9601 12.7543C42.3531 12.3507 42.5514 11.7625 42.5514 10.9896Z" fill="black"/>
<path d="M48.8284 11.8938C48.8284 12.55 48.6418 13.0876 48.2686 13.5094C47.8775 13.9428 47.3593 14.1592 46.7121 14.1592C46.0884 14.1592 45.5917 13.9519 45.2213 13.5356C44.8517 13.1201 44.667 12.5962 44.667 11.9644C44.667 11.3038 44.8571 10.7616 45.2393 10.3407C45.6215 9.91985 46.1352 9.70898 46.7824 9.70898C47.4061 9.70898 47.9072 9.91625 48.2866 10.3317C48.6472 10.7354 48.8284 11.2566 48.8284 11.8938ZM47.8486 11.9246C47.8486 11.5309 47.7639 11.1933 47.5953 10.9118C47.3971 10.5715 47.1149 10.4014 46.7481 10.4014C46.3686 10.4014 46.0802 10.5715 45.882 10.9118C45.7125 11.1933 45.6287 11.5363 45.6287 11.9418C45.6287 12.3354 45.7134 12.6731 45.882 12.9546C46.0866 13.2949 46.3714 13.465 46.7391 13.465C47.0997 13.465 47.3827 13.2921 47.5863 12.9455C47.7612 12.6586 47.8486 12.3183 47.8486 11.9246Z" fill="black"/>
<path d="M55.9095 9.79541L54.58 14.0619H53.7147L53.164 12.2092C53.0243 11.7467 52.9108 11.2869 52.8224 10.8308H52.8053C52.7232 11.2996 52.6097 11.7585 52.4637 12.2092L51.8787 14.0619H51.0036L49.7534 9.79541H50.7241L51.2046 11.8237C51.3208 12.3034 51.4164 12.7604 51.493 13.193H51.5101C51.5804 12.8364 51.6966 12.3821 51.8607 11.8327L52.4637 9.79636H53.2334L53.8111 11.7893C53.9509 12.2753 54.0645 12.7432 54.1519 13.194H54.1779C54.2419 12.755 54.3385 12.287 54.4664 11.7893L54.982 9.79636H55.9095V9.79541Z" fill="black"/>
<path d="M60.806 14.0621H59.8615V11.6185C59.8615 10.8655 59.5766 10.4889 59.0052 10.4889C58.7249 10.4889 58.4987 10.5922 58.3229 10.7994C58.1489 11.0066 58.0607 11.2511 58.0607 11.5307V14.0613H57.116V11.0148C57.116 10.6401 57.1044 10.2338 57.0818 9.79385H57.9119L57.9561 10.4609H57.9822C58.0921 10.2537 58.2562 10.0826 58.4716 9.94594C58.7276 9.78665 59.0142 9.70605 59.3279 9.70605C59.7245 9.70605 60.0543 9.83462 60.3166 10.0925C60.6429 10.4084 60.806 10.88 60.806 11.5063V14.0621Z" fill="black"/>
<path d="M63.4106 14.0619H62.467V7.83789H63.4106V14.0619Z" fill="black"/>
<path d="M68.972 11.8938C68.972 12.55 68.7854 13.0876 68.4122 13.5094C68.0211 13.9428 67.5019 14.1592 66.8556 14.1592C66.231 14.1592 65.7343 13.9519 65.3648 13.5356C64.9952 13.1201 64.8105 12.5962 64.8105 11.9644C64.8105 11.3038 65.0007 10.7616 65.3828 10.3407C65.765 9.91985 66.2788 9.70898 66.925 9.70898C67.5497 9.70898 68.0499 9.91625 68.4302 10.3317C68.7908 10.7354 68.972 11.2566 68.972 11.8938ZM67.9913 11.9246C67.9913 11.5309 67.9065 11.1933 67.738 10.9118C67.5406 10.5715 67.2576 10.4014 66.8916 10.4014C66.5113 10.4014 66.2229 10.5715 66.0255 10.9118C65.8561 11.1933 65.7723 11.5363 65.7723 11.9418C65.7723 12.3354 65.8569 12.6731 66.0255 12.9546C66.2301 13.2949 66.5149 13.465 66.8826 13.465C67.2432 13.465 67.5253 13.2921 67.729 12.9455C67.9047 12.6586 67.9913 12.3183 67.9913 11.9246Z" fill="black"/>
<path d="M73.5435 14.0623H72.6953L72.6251 13.5709H72.5989C72.3087 13.9628 71.895 14.1592 71.3578 14.1592C70.9567 14.1592 70.6323 14.0298 70.3879 13.7727C70.1663 13.5392 70.0554 13.2487 70.0554 12.9039C70.0554 12.3826 70.2717 11.9852 70.7071 11.7101C71.1415 11.435 71.7526 11.3001 72.5395 11.3064V11.2268C72.5395 10.6647 72.2456 10.3842 71.657 10.3842C71.2379 10.3842 70.8684 10.4901 70.5493 10.7001L70.3573 10.0773C70.7521 9.83215 71.2398 9.70898 71.8148 9.70898C72.9252 9.70898 73.4822 10.2973 73.4822 11.4739V13.045C73.4822 13.4713 73.503 13.8108 73.5435 14.0623ZM72.5629 12.5962V11.9382C71.521 11.9201 71 12.207 71 12.798C71 13.0206 71.0594 13.1872 71.1812 13.2985C71.3028 13.4098 71.4578 13.465 71.6426 13.465C71.8499 13.465 72.0437 13.3989 72.2203 13.2677C72.3979 13.1356 72.5069 12.9681 72.5475 12.7627C72.5575 12.7165 72.5629 12.6604 72.5629 12.5962Z" fill="black"/>
<path d="M78.9107 14.062H78.0725L78.0283 13.3769H78.0021C77.7345 13.8982 77.2784 14.1588 76.6375 14.1588C76.1256 14.1588 75.6993 13.957 75.3612 13.5533C75.0233 13.1497 74.8547 12.6257 74.8547 11.9822C74.8547 11.2916 75.0377 10.7323 75.4054 10.3051C75.7614 9.90684 76.1977 9.70773 76.7169 9.70773C77.2874 9.70773 77.6867 9.90049 77.9138 10.287H77.9319V7.83789H78.8774V12.9126C78.8774 13.328 78.8882 13.7108 78.9107 14.062ZM77.9319 12.2627V11.5513C77.9319 11.4282 77.9229 11.3287 77.9057 11.2526C77.8525 11.0246 77.7381 10.8327 77.5641 10.678C77.3884 10.5232 77.1766 10.4454 76.9322 10.4454C76.5799 10.4454 76.3041 10.5856 76.1013 10.8671C75.9003 11.1486 75.7984 11.5079 75.7984 11.9469C75.7984 12.3686 75.8949 12.7107 76.0887 12.9741C76.2933 13.2547 76.5691 13.3949 76.9142 13.3949C77.2244 13.3949 77.4722 13.2782 77.6606 13.0438C77.8426 12.8274 77.9319 12.5668 77.9319 12.2627Z" fill="black"/>
<path d="M86.9898 11.8938C86.9898 12.55 86.8032 13.0876 86.43 13.5094C86.0389 13.9428 85.5215 14.1592 84.8734 14.1592C84.2506 14.1592 83.754 13.9519 83.3827 13.5356C83.0131 13.1201 82.8284 12.5962 82.8284 11.9644C82.8284 11.3038 83.0185 10.7616 83.4007 10.3407C83.7829 9.91985 84.2966 9.70898 84.9446 9.70898C85.5675 9.70898 86.0695 9.91625 86.448 10.3317C86.8086 10.7354 86.9898 11.2566 86.9898 11.8938ZM86.0109 11.9246C86.0109 11.5309 85.9262 11.1933 85.7577 10.9118C85.5585 10.5715 85.2772 10.4014 84.9095 10.4014C84.531 10.4014 84.2425 10.5715 84.0433 10.9118C83.8739 11.1933 83.7901 11.5363 83.7901 11.9418C83.7901 12.3354 83.8747 12.6731 84.0433 12.9546C84.2479 13.2949 84.5328 13.465 84.9005 13.465C85.261 13.465 85.5449 13.2921 85.7487 12.9455C85.9226 12.6586 86.0109 12.3183 86.0109 11.9246Z" fill="black"/>
<path d="M92.0684 14.0621H91.1247V11.6185C91.1247 10.8655 90.8398 10.4889 90.2675 10.4889C89.9872 10.4889 89.7609 10.5922 89.5861 10.7994C89.4113 11.0066 89.3238 11.2511 89.3238 11.5307V14.0613H88.3783V11.0148C88.3783 10.6401 88.3675 10.2338 88.345 9.79385H89.1742L89.2183 10.4609H89.2445C89.3553 10.2537 89.5194 10.0826 89.7339 9.94594C89.9908 9.78665 90.2765 9.70605 90.591 9.70605C90.9868 9.70605 91.3167 9.83462 91.5789 10.0925C91.9061 10.4084 92.0684 10.88 92.0684 11.5063V14.0621Z" fill="black"/>
<path d="M98.4254 10.5059H97.3853V12.5785C97.3853 13.1053 97.5702 13.3686 97.9361 13.3686C98.1049 13.3686 98.2462 13.3542 98.3571 13.3243L98.3808 14.0438C98.195 14.1144 97.9494 14.1497 97.647 14.1497C97.2743 14.1497 96.9842 14.0356 96.7737 13.8076C96.5632 13.5794 96.4589 13.1957 96.4589 12.6573V10.5059H95.8379V9.79548H96.4589V9.01348L97.3843 8.73291V9.79453H98.4244V10.5059H98.4254Z" fill="black"/>
<path d="M103.426 14.0619H102.48V11.6365C102.48 10.8717 102.196 10.4888 101.625 10.4888C101.187 10.4888 100.888 10.7105 100.724 11.154C100.696 11.2472 100.68 11.3613 100.68 11.4952V14.0611H99.7356V7.83789H100.68V10.4092H100.698C100.995 9.94126 101.421 9.70773 101.974 9.70773C102.365 9.70773 102.689 9.8363 102.946 10.0942C103.266 10.4155 103.426 10.8934 103.426 11.5251V14.0619Z" fill="black"/>
<path d="M108.585 11.7271C108.585 11.8973 108.572 12.0402 108.55 12.157H105.717C105.729 12.5787 105.865 12.9 106.127 13.1226C106.367 13.3218 106.676 13.4213 107.054 13.4213C107.474 13.4213 107.856 13.3544 108.2 13.2195L108.348 13.8784C107.945 14.054 107.471 14.1418 106.922 14.1418C106.264 14.1418 105.746 13.9472 105.371 13.558C104.994 13.1688 104.807 12.6466 104.807 11.9913C104.807 11.3479 104.981 10.8121 105.332 10.3849C105.698 9.92871 106.193 9.70068 106.817 9.70068C107.428 9.70068 107.893 9.92871 108.206 10.3849C108.46 10.7469 108.585 11.1949 108.585 11.7271ZM107.683 11.4818C107.691 11.2004 107.628 10.9577 107.5 10.7532C107.336 10.4898 107.087 10.3578 106.749 10.3578C106.441 10.3578 106.189 10.4862 105.997 10.7442C105.84 10.9497 105.748 11.1949 105.717 11.4818H107.683Z" fill="black"/>
</g>
<defs>
<clipPath id="clip0_1041_1279">
<rect width="128" height="37.9259" fill="white"/>
</clipPath>
</defs>
</svg>
