<svg width="150" height="45" viewBox="0 0 150 45" fill="none" xmlns="http://www.w3.org/2000/svg">
<g clip-path="url(#clip0_975_492)">
<path d="M144.347 43.5659H5.65256C2.82627 43.5659 0.551453 41.2911 0.551453 38.4648V5.65237C0.551453 2.82608 2.82627 0.55127 5.65256 0.55127H144.347C147.174 0.55127 149.449 2.82608 149.449 5.65237V38.5338C149.449 41.2911 147.174 43.5659 144.347 43.5659Z" fill="black"/>
<path d="M144.347 44.1866H5.65257C2.55055 44.1866 0 41.636 0 38.534V5.65257C0 2.55055 2.55055 0 5.65257 0H144.347C147.449 0 150 2.55055 150 5.65257V38.534C150 41.636 147.449 44.1866 144.347 44.1866ZM5.65257 1.10294C3.17096 1.10294 1.10294 3.10202 1.10294 5.65257V38.534C1.10294 41.0156 3.10202 43.0836 5.65257 43.0836H144.347C146.829 43.0836 148.897 41.0845 148.897 38.534V5.65257C148.897 3.17095 146.898 1.10294 144.347 1.10294H5.65257V1.10294Z" fill="#A7A9AC"/>
<path d="M49.9081 12.546L49.2877 14.614H47.9091L50.2528 7.37598H51.9761L54.3198 14.614H52.8722L52.1829 12.546H49.9081ZM52.045 11.5809L51.4936 9.78866C51.3557 9.37505 51.2178 8.82358 51.1489 8.40998C51.011 8.82358 50.9421 9.30612 50.8042 9.78866L50.2528 11.5809H52.045Z" fill="white"/>
<path d="M56.319 9.375L57.1462 12.0634C57.284 12.546 57.4219 12.9596 57.4908 13.3732C57.5598 12.9596 57.6976 12.546 57.8355 12.0634L58.6627 9.375H60.0414L58.0423 14.614H56.7326L54.8024 9.375H56.319Z" fill="white"/>
<path d="M65.4182 13.3733C65.4182 13.8559 65.4182 14.3384 65.4872 14.6141H64.3153L64.2463 14.0627C63.9017 14.4763 63.4191 14.752 62.7298 14.752C61.6958 14.752 61.0754 13.9937 61.0754 13.1665C61.0754 11.8568 62.2473 11.1675 64.1774 11.1675V11.0985C64.1774 10.7538 64.0395 10.2024 63.1434 10.2024C62.6609 10.2024 62.1094 10.3402 61.7647 10.616L61.3511 9.71984C61.7647 9.51304 62.3851 9.2373 63.2123 9.2373C64.8667 9.2373 65.3493 10.2713 65.3493 11.4432V13.3733H65.4182ZM64.1085 12.0636C63.1434 12.0636 62.2473 12.2704 62.2473 13.0287C62.2473 13.5112 62.5919 13.7869 63.0055 13.7869C63.557 13.7869 63.9017 13.4423 64.0395 13.0976C64.0395 13.0287 64.0395 12.8908 64.0395 12.8219V12.0636H64.1085Z" fill="white"/>
<path d="M67.8998 8.61696C67.4862 8.61696 67.1415 8.27229 67.1415 7.92762C67.1415 7.51402 67.4173 7.23828 67.8998 7.23828C68.3824 7.23828 68.6581 7.58295 68.6581 7.92762C68.6581 8.27229 68.3824 8.61696 67.8998 8.61696ZM67.2794 14.6142V9.37523H68.5892V14.6142H67.2794Z" fill="white"/>
<path d="M70.5193 6.9624H71.8291V14.6141H70.5193V6.9624Z" fill="white"/>
<path d="M77.8263 13.3732C77.8263 13.8558 77.8263 14.3383 77.8952 14.6141H76.7233L76.6544 14.0626C76.3097 14.4762 75.8272 14.7519 75.1379 14.7519C74.1039 14.7519 73.4835 13.9937 73.4835 13.1664C73.4835 11.8567 74.6553 11.1674 76.5855 11.1674V11.0984C76.5855 10.7538 76.4476 10.2023 75.5515 10.2023C75.0689 10.2023 74.5175 10.3402 74.1728 10.6159L73.8971 9.78869C74.3107 9.58189 74.9311 9.30615 75.7583 9.30615C77.4127 9.30615 77.8952 10.3402 77.8952 11.512V13.3732H77.8263ZM76.5165 12.0635C75.5515 12.0635 74.6553 12.2703 74.6553 13.0286C74.6553 13.5111 75 13.7869 75.4136 13.7869C75.9651 13.7869 76.3097 13.4422 76.4476 13.0975C76.4476 13.0286 76.4476 12.8907 76.4476 12.8218V12.0635H76.5165Z" fill="white"/>
<path d="M79.6875 6.9624H80.9973V10.0644C81.3419 9.58188 81.8934 9.23721 82.6517 9.23721C83.9614 9.23721 84.8576 10.2712 84.8576 11.9256C84.8576 13.7868 83.6857 14.7519 82.5138 14.7519C81.8245 14.7519 81.2041 14.4762 80.8594 13.8558L80.7904 14.614H79.6875C79.6875 14.2694 79.7564 13.649 79.7564 13.1664V6.9624H79.6875ZM80.9973 12.4771C80.9973 12.615 80.9973 12.6839 80.9973 12.8218C81.1351 13.3732 81.6177 13.7179 82.1691 13.7179C82.9963 13.7179 83.4789 13.0286 83.4789 11.9946C83.4789 11.0984 83.0653 10.3402 82.1691 10.3402C81.6177 10.3402 81.1351 10.7538 80.9973 11.3052C80.9973 11.3742 80.9283 11.512 80.9283 11.6499V12.4771H80.9973Z" fill="white"/>
<path d="M86.4431 6.9624H87.7529V14.6141H86.4431V6.9624Z" fill="white"/>
<path d="M90.648 12.3392C90.648 13.3043 91.4063 13.7179 92.2335 13.7179C92.8539 13.7179 93.2675 13.649 93.6811 13.5111L93.8879 14.4073C93.4054 14.6141 92.785 14.7519 92.0267 14.7519C90.3033 14.7519 89.3383 13.7179 89.3383 12.1324C89.3383 10.6848 90.2344 9.30615 91.8888 9.30615C93.6122 9.30615 94.1636 10.6848 94.1636 11.8567C94.1636 12.1324 94.1636 12.2703 94.0947 12.4082H90.648V12.3392ZM92.9228 11.4431C92.9228 10.9606 92.716 10.1334 91.8199 10.1334C90.9927 10.1334 90.648 10.8916 90.5791 11.4431H92.9228Z" fill="white"/>
<path d="M100.712 14.7519C99.2648 14.7519 98.093 13.7179 98.093 12.0635C98.093 10.3402 99.1959 9.30615 100.781 9.30615C102.367 9.30615 103.401 10.4091 103.401 11.9946C103.401 13.8558 102.022 14.7519 100.712 14.7519ZM100.712 13.7869C101.471 13.7869 102.022 13.0286 102.022 11.9946C102.022 11.1674 101.677 10.2023 100.781 10.2023C99.8163 10.2023 99.4716 11.0984 99.4716 11.9946C99.4027 13.0286 99.9542 13.7869 100.712 13.7869Z" fill="white"/>
<path d="M104.917 10.9607C104.917 10.3402 104.917 9.85771 104.848 9.37517H106.02L106.089 10.1334C106.296 9.71984 106.916 9.2373 107.744 9.2373C108.64 9.2373 109.605 9.85771 109.605 11.5121V14.6141H108.295V11.65C108.295 10.8917 108.019 10.3402 107.261 10.3402C106.71 10.3402 106.365 10.6849 106.227 11.0985C106.158 11.2364 106.158 11.3743 106.158 11.5121V14.6141H104.848V10.9607H104.917Z" fill="white"/>
<path d="M115.809 7.99658V9.37526H117.05V10.3403H115.809V12.6151C115.809 13.2355 116.016 13.5802 116.498 13.5802C116.705 13.5802 116.843 13.5802 116.981 13.5113V14.5453C116.774 14.6142 116.429 14.6831 116.016 14.6831C115.533 14.6831 115.119 14.5453 114.844 14.2695C114.568 13.9938 114.43 13.5113 114.43 12.8219V10.3403H113.741V9.37526H114.499V8.41018L115.809 7.99658Z" fill="white"/>
<path d="M118.497 6.9624H119.807V10.0644C119.945 9.78869 120.221 9.58188 120.496 9.44402C120.772 9.30615 121.048 9.23721 121.393 9.23721C122.289 9.23721 123.254 9.85762 123.254 11.512V14.614H121.944V11.6499C121.944 10.8916 121.668 10.3402 120.91 10.3402C120.427 10.3402 120.014 10.6848 119.876 11.0984C119.807 11.2363 119.807 11.3742 119.807 11.512V14.683H118.497V6.9624Z" fill="white"/>
<path d="M126.08 12.3392C126.08 13.3043 126.838 13.7179 127.665 13.7179C128.286 13.7179 128.7 13.649 129.113 13.5111L129.32 14.4073C128.837 14.6141 128.217 14.7519 127.459 14.7519C125.735 14.7519 124.77 13.7179 124.77 12.1324C124.77 10.6848 125.666 9.30615 127.321 9.30615C129.044 9.30615 129.596 10.6848 129.596 11.8567C129.596 12.1324 129.596 12.2703 129.527 12.4082H126.08V12.3392ZM128.355 11.4431C128.355 10.9606 128.148 10.1334 127.252 10.1334C126.425 10.1334 126.08 10.8916 126.011 11.4431H128.355Z" fill="white"/>
<path d="M33.5018 21.6454C33.5018 18.0609 36.466 16.3375 36.6039 16.1997C34.9495 13.7181 32.33 13.4423 31.3649 13.3734C29.159 13.1666 27.0221 14.6831 25.9191 14.6831C24.7473 14.6831 23.0928 13.3734 21.2316 13.4423C18.8189 13.5113 16.6131 14.8899 15.3723 17.0269C12.8217 21.3697 14.7519 27.8495 17.1645 31.3651C18.4053 33.0884 19.784 35.0186 21.6452 34.9496C23.4375 34.8807 24.1268 33.7778 26.2638 33.7778C28.4007 33.7778 29.0901 34.9496 30.9513 34.8807C32.8814 34.8807 34.1223 33.1574 35.2941 31.3651C36.6728 29.366 37.2243 27.4359 37.2932 27.298C37.2243 27.3669 33.5018 25.9193 33.5018 21.6454Z" fill="white"/>
<path d="M29.9173 11.0985C30.8824 9.85765 31.5717 8.20324 31.3649 6.54883C29.9862 6.61776 28.1939 7.5139 27.1599 8.68577C26.2638 9.71978 25.4366 11.4431 25.6434 13.0975C27.2978 13.2354 28.8833 12.2703 29.9173 11.0985Z" fill="white"/>
<path d="M59.6278 34.6869H57.0772L55.6985 30.3441H50.8731L49.6323 34.6869H47.1507L51.9071 19.9351H54.8713L59.6278 34.6869ZM55.2849 28.4828L54.0441 24.6226C53.9062 24.209 53.6305 23.3128 53.2858 21.8652H53.2169C53.079 22.4856 52.8033 23.4507 52.5275 24.6226L51.2867 28.4828H55.2849Z" fill="white"/>
<path d="M71.898 29.2281C71.898 31.0204 71.4155 32.468 70.4504 33.502C69.5543 34.4671 68.4513 34.8807 67.2105 34.8807C65.8318 34.8807 64.7978 34.3981 64.1774 33.3641H64.1085V38.9478H61.7647V27.5047C61.7647 26.3329 61.7647 25.2299 61.6958 23.9891H63.7638L63.9017 25.6435H63.9706C64.7289 24.4027 65.9697 23.7134 67.5552 23.7134C68.796 23.7134 69.83 24.1959 70.7261 25.2299C71.4155 26.2639 71.898 27.5737 71.898 29.2281ZM69.4853 29.297C69.4853 28.263 69.2785 27.4358 68.796 26.7465C68.3134 26.0571 67.6241 25.7125 66.728 25.7125C66.1765 25.7125 65.625 25.9193 65.1425 26.2639C64.66 26.6775 64.3842 27.1601 64.1774 27.7805C64.1085 28.0562 64.0396 28.3319 64.0396 28.4698V30.2621C64.0396 31.0204 64.2464 31.7097 64.7289 32.1922C65.2114 32.7437 65.8318 33.0194 66.5901 33.0194C67.4862 33.0194 68.1756 32.6748 68.6581 31.9854C69.2096 31.2961 69.4853 30.4 69.4853 29.297Z" fill="white"/>
<path d="M84.0993 29.2281C84.0993 31.0204 83.6167 32.468 82.6517 33.502C81.7555 34.4671 80.7215 34.8807 79.4118 34.8807C78.0331 34.8807 76.9991 34.3981 76.3787 33.3641H76.3097V38.9478H73.966V27.5047C73.966 26.3329 73.966 25.2299 73.897 23.9891H75.9651L76.1029 25.6435H76.1719C76.9301 24.4027 78.1709 23.7134 79.7564 23.7134C80.9972 23.7134 82.0313 24.1959 82.9274 25.2299C83.6857 26.2639 84.0993 27.5737 84.0993 29.2281ZM81.6866 29.297C81.6866 28.263 81.4798 27.4358 80.9972 26.7465C80.5147 26.0571 79.8254 25.7125 78.9292 25.7125C78.3778 25.7125 77.8263 25.9193 77.3437 26.2639C76.8612 26.6775 76.5855 27.1601 76.4476 27.7805C76.3787 28.0562 76.3097 28.3319 76.3097 28.4698V30.2621C76.3097 31.0204 76.5165 31.7097 76.9991 32.1922C77.4816 32.7437 78.102 33.0194 78.8603 33.0194C79.7564 33.0194 80.4458 32.6748 80.9283 31.9854C81.4798 31.2961 81.6866 30.4 81.6866 29.297Z" fill="white"/>
<path d="M97.8171 30.5379C97.8171 31.7787 97.4035 32.8127 96.5074 33.6399C95.5423 34.536 94.2326 34.9496 92.5092 34.9496C90.9237 34.9496 89.614 34.6739 88.6489 34.0535L89.2004 32.0544C90.2344 32.6748 91.4063 33.0195 92.6471 33.0195C93.5432 33.0195 94.2326 32.8127 94.7151 32.3991C95.1976 31.9855 95.4734 31.434 95.4734 30.8136C95.4734 30.1932 95.2666 29.7107 94.853 29.2971C94.4394 28.8835 93.75 28.5388 92.785 28.1252C90.1655 27.1601 88.9247 25.7125 88.9247 23.9202C88.9247 22.6794 89.4072 21.7143 90.3033 20.9561C91.1995 20.1978 92.4403 19.7842 93.8879 19.7842C95.2666 19.7842 96.3695 19.991 97.2656 20.4735L96.6452 22.4037C95.818 21.9211 94.853 21.7143 93.819 21.7143C92.9918 21.7143 92.3024 21.9211 91.8888 22.3347C91.4752 22.6794 91.2684 23.1619 91.2684 23.6445C91.2684 24.1959 91.4752 24.6785 91.9577 25.0921C92.3713 25.4368 93.0607 25.8504 94.0947 26.264C95.3355 26.7465 96.3006 27.3669 96.921 28.0563C97.5414 28.6077 97.8171 29.5039 97.8171 30.5379Z" fill="white"/>
<path d="M105.676 25.7814H103.056V30.9514C103.056 32.2611 103.539 32.9505 104.435 32.9505C104.848 32.9505 105.193 32.8815 105.469 32.8126L105.538 34.6049C105.055 34.8117 104.435 34.8806 103.677 34.8806C102.711 34.8806 102.022 34.6049 101.471 34.0534C100.919 33.502 100.712 32.5369 100.712 31.1582V25.7814H99.1269V23.9891H100.712V22.059L103.056 21.3696V23.9891H105.676V25.7814V25.7814Z" fill="white"/>
<path d="M117.463 29.228C117.463 30.8824 116.981 32.1921 116.084 33.2951C115.119 34.398 113.81 34.9495 112.155 34.9495C110.57 34.9495 109.329 34.398 108.433 33.364C107.537 32.33 107.054 31.0203 107.054 29.4348C107.054 27.7804 107.537 26.4017 108.502 25.3677C109.467 24.3337 110.777 23.7822 112.362 23.7822C113.948 23.7822 115.188 24.3337 116.153 25.3677C116.981 26.3328 117.463 27.6425 117.463 29.228ZM114.982 29.2969C114.982 28.3319 114.775 27.5046 114.361 26.7464C113.879 25.9192 113.189 25.4366 112.224 25.4366C111.259 25.4366 110.57 25.8502 110.087 26.7464C109.674 27.4357 109.467 28.3319 109.467 29.2969C109.467 30.262 109.674 31.0892 110.087 31.8475C110.57 32.6747 111.328 33.0883 112.224 33.0883C113.12 33.0883 113.81 32.6747 114.361 31.7785C114.775 31.1581 114.982 30.3309 114.982 29.2969Z" fill="white"/>
<path d="M125.115 26.057C124.908 25.988 124.632 25.988 124.357 25.988C123.529 25.988 122.909 26.3327 122.426 26.9531C122.013 27.5046 121.806 28.1939 121.806 29.09V34.6737H119.462V27.3667C119.462 26.1259 119.462 25.0229 119.393 23.9889H121.461L121.53 26.057H121.599C121.875 25.3676 122.22 24.8161 122.771 24.4025C123.323 23.9889 123.874 23.8511 124.495 23.8511C124.701 23.8511 124.908 23.8511 125.115 23.92V26.057V26.057Z" fill="white"/>
<path d="M135.731 28.8143C135.731 29.2279 135.731 29.5726 135.662 29.9173H128.561C128.561 30.9513 128.906 31.7785 129.595 32.3299C130.216 32.8125 130.974 33.0882 131.939 33.0882C132.973 33.0882 133.938 32.9503 134.835 32.6057L135.179 34.2601C134.145 34.6737 132.973 34.9494 131.595 34.9494C129.94 34.9494 128.63 34.4669 127.734 33.5018C126.769 32.5367 126.287 31.227 126.287 29.5726C126.287 27.9871 126.7 26.6084 127.596 25.5744C128.493 24.4025 129.733 23.8511 131.319 23.8511C132.835 23.8511 134.007 24.4025 134.835 25.5744C135.386 26.4016 135.731 27.5046 135.731 28.8143ZM133.456 28.1939C133.456 27.5046 133.318 26.8842 132.973 26.4016C132.56 25.7123 131.939 25.4366 131.112 25.4366C130.354 25.4366 129.733 25.7812 129.251 26.4016C128.837 26.8842 128.63 27.5046 128.561 28.2628H133.456V28.1939Z" fill="white"/>
</g>
<defs>
<clipPath id="clip0_975_492">
<rect width="150" height="44.1866" fill="white"/>
</clipPath>
</defs>
</svg>
