<svg width="13" height="13" viewBox="0 0 13 13" fill="none" xmlns="http://www.w3.org/2000/svg">
<path d="M12.1875 8.125C12.0808 8.12494 11.9751 8.14592 11.8765 8.18673C11.7779 8.22754 11.6883 8.28738 11.6128 8.36284C11.5374 8.4383 11.4775 8.52789 11.4367 8.6265C11.3959 8.7251 11.3749 8.83078 11.375 8.9375V11.375H1.625V1.625H4.0625C4.27799 1.625 4.48465 1.5394 4.63702 1.38702C4.7894 1.23465 4.875 1.02799 4.875 0.8125C4.875 0.597012 4.7894 0.390349 4.63702 0.237976C4.48465 0.0856026 4.27799 1.30611e-07 4.0625 1.30611e-07H0.8125C0.705784 -6.03933e-05 0.600103 0.0209142 0.501498 0.0617247C0.402894 0.102535 0.313301 0.162381 0.237841 0.237841C0.162381 0.313301 0.102535 0.402894 0.0617247 0.501498C0.0209142 0.600103 -6.03933e-05 0.705784 1.30611e-07 0.8125V12.1875C-6.03933e-05 12.2942 0.0209142 12.3999 0.0617247 12.4985C0.102535 12.5971 0.162381 12.6867 0.237841 12.7622C0.313301 12.8376 0.402894 12.8975 0.501498 12.9383C0.600103 12.9791 0.705784 13.0001 0.8125 13H12.1875C12.2942 13.0001 12.3999 12.9791 12.4985 12.9383C12.5971 12.8975 12.6867 12.8376 12.7622 12.7622C12.8376 12.6867 12.8975 12.5971 12.9383 12.4985C12.9791 12.3999 13.0001 12.2942 13 12.1875V8.9375C13.0001 8.83078 12.9791 8.7251 12.9383 8.6265C12.8975 8.52789 12.8376 8.4383 12.7622 8.36284C12.6867 8.28738 12.5971 8.22754 12.4985 8.18673C12.3999 8.14592 12.2942 8.12494 12.1875 8.125Z" fill="#13273F"/>
<path d="M12.1875 1.30611e-07H8.93755C8.72206 1.30611e-07 8.5154 0.0856026 8.36302 0.237976C8.21065 0.390349 8.12505 0.597012 8.12505 0.8125C8.12505 1.02799 8.21065 1.23465 8.36302 1.38702C8.5154 1.5394 8.72206 1.625 8.93755 1.625H10.2261L5.11309 6.73804C5.0373 6.8134 4.97713 6.90298 4.93603 7.00163C4.89492 7.10029 4.87368 7.20609 4.87354 7.31297C4.87339 7.41985 4.89433 7.5257 4.93516 7.62448C4.97599 7.72325 5.03591 7.81299 5.11149 7.88857C5.18706 7.96414 5.27681 8.02406 5.37558 8.06489C5.47435 8.10572 5.58021 8.12667 5.68708 8.12652C5.79396 8.12637 5.89976 8.10513 5.99842 8.06403C6.09707 8.02292 6.18665 7.96275 6.26202 7.88696L11.375 2.77393V4.0625C11.375 4.27799 11.4606 4.48465 11.613 4.63702C11.7654 4.7894 11.9721 4.875 12.1875 4.875C12.403 4.875 12.6097 4.7894 12.7621 4.63702C12.9144 4.48465 13 4.27799 13 4.0625V0.8125C13.0001 0.705784 12.9791 0.600103 12.9383 0.501498C12.8975 0.402894 12.8377 0.313301 12.7622 0.237841C12.6867 0.162381 12.5971 0.102535 12.4985 0.0617247C12.3999 0.0209142 12.2943 -6.03933e-05 12.1875 1.30611e-07Z" fill="#13273F"/>
</svg>
