<svg width="70" height="70" viewBox="0 0 70 70" fill="none" xmlns="http://www.w3.org/2000/svg">
<circle cx="35" cy="35" r="35" fill="#FFCE00" fill-opacity="0.17"/>
<g clip-path="url(#clip0_901_378)">
<path d="M23.4337 44.5069H30.1655C30.5978 44.5069 30.9683 44.1375 30.9683 43.7065C30.9683 43.2755 30.5978 42.9061 30.1655 42.9061H23.4337C23.0014 42.9061 22.6309 43.2755 22.6309 43.7065C22.6309 44.1375 23.0014 44.5069 23.4337 44.5069Z" fill="#FFCE00"/>
<path d="M31.9565 46.9696H23.4337C23.0014 46.9696 22.6309 47.2774 22.6309 47.7084C22.6309 48.1394 23.0014 48.5088 23.4337 48.5088H32.0182C32.4505 48.5088 32.8211 48.1394 32.8211 47.7084C32.8211 47.2774 32.3888 46.9696 31.9565 46.9696Z" fill="#FFCE00"/>
<path d="M52.7693 41.8594C52.7693 38.8425 51.2871 36.1951 49.002 34.5943V23.5734C49.002 23.3887 48.9402 23.204 48.8167 23.0193L41.4056 15.3232C41.2821 15.1385 41.0351 15.0769 40.8498 15.0769H21.581C19.79 15.0769 18.3077 16.5546 18.3077 18.3401V51.8952C18.3077 53.6807 19.79 55.0968 21.581 55.0968H45.8523C47.6433 55.0968 49.1255 53.6191 49.1255 51.8336V49.063C51.2871 47.4622 52.7693 44.8147 52.7693 41.8594ZM46.7787 23.1424H43.0114C42.085 23.1424 41.2821 22.4036 41.2821 21.4185V17.4165L46.7787 23.1424ZM47.5198 51.8952C47.5198 52.8187 46.7787 53.6191 45.7905 53.6191H21.581C20.6546 53.6191 19.8517 52.8803 19.8517 51.8952V18.3401C19.8517 17.4165 20.5928 16.6161 21.581 16.6161H39.7999V21.4801C39.7999 23.2656 41.2821 24.7432 43.0731 24.7432H47.5198V33.7323C46.4699 33.2398 45.2964 32.9935 44.0613 32.9319V28.2527C44.0613 27.1444 43.1349 26.2209 42.0232 26.2209H24.6689C23.5573 26.2209 22.6309 27.1444 22.6309 28.2527V36.9955C22.6309 38.1037 23.5573 39.0272 24.6689 39.0272H35.3532C35.0444 39.9508 34.8592 40.9359 34.8592 41.921C34.8592 46.8465 38.8735 50.8485 43.8142 50.8485C45.1112 50.8485 46.3463 50.5407 47.5198 50.0481V51.8952ZM36.0326 37.4265H31.0919V33.3629H36.7119C37.1442 33.3629 37.5148 32.9935 37.5148 32.5625V27.7601H42.085C42.332 27.7601 42.579 27.9448 42.579 28.2527V33.0551C39.7381 33.3629 37.3295 35.0868 36.0326 37.4265ZM24.6689 37.4265C24.4219 37.4265 24.1748 37.2417 24.1748 36.9339V33.3629H29.5479V37.4265H24.6689ZM35.9091 27.7601V31.8237H31.0919V27.7601H35.9091ZM29.5479 31.8237H24.1748V28.2527C24.1748 28.0064 24.3601 27.7601 24.6689 27.7601H29.5479V31.8237V31.8237ZM43.8142 49.2477C39.7381 49.2477 36.4031 45.923 36.4031 41.8594C36.4031 37.7959 39.7381 34.4711 43.8142 34.4711C47.8903 34.4711 51.2253 37.7959 51.2253 41.8594C51.2253 45.923 47.8903 49.2477 43.8142 49.2477Z" fill="#FFCE00"/>
<path d="M44.0613 41.1206C43.2584 41.1206 42.579 40.6896 42.579 40.1971C42.579 39.7045 43.2584 39.2736 44.0613 39.2736C44.4936 39.2736 44.9259 39.3967 45.2347 39.643C45.3582 39.7661 45.5435 39.8277 45.7288 39.8277C45.914 39.8277 46.0993 39.7045 46.2228 39.5814C46.3463 39.4583 46.4081 39.2736 46.4081 39.0888C46.4081 38.9041 46.2846 38.7194 46.1611 38.5963C45.7905 38.2884 45.2964 38.0422 44.8024 37.919V37.4881C44.8024 37.1186 44.4936 36.8108 44.123 36.8108C43.7525 36.8108 43.4437 37.1186 43.4437 37.4881V37.919C42.2085 38.1653 41.2821 39.0888 41.2821 40.1355C41.2821 41.4285 42.579 42.4136 44.123 42.4136C44.9259 42.4136 45.6052 42.8446 45.6052 43.3371C45.6052 43.8297 44.9259 44.2606 44.123 44.2606C43.6907 44.2606 43.2584 44.1375 42.9496 43.8912C42.8261 43.7681 42.6408 43.7065 42.4555 43.7065C42.2702 43.7065 42.085 43.8297 41.9615 43.9528C41.8379 44.0759 41.7762 44.2606 41.7762 44.4453C41.7762 44.6301 41.8997 44.8148 42.0232 44.9379C42.3938 45.2457 42.8878 45.492 43.3819 45.6152V46.0461C43.3819 46.4156 43.6907 46.7234 44.0613 46.7234C44.4318 46.7234 44.7406 46.4156 44.7406 46.0461V45.6152C45.9758 45.3689 46.9022 44.4453 46.9022 43.3987C46.9022 42.1673 45.667 41.1206 44.0613 41.1206Z" fill="#FFCE00"/>
</g>
<defs>
<clipPath id="clip0_901_378">
<rect width="34.4615" height="40.0199" fill="white" transform="translate(18.3077 15.0769)"/>
</clipPath>
</defs>
</svg>
