<svg width="70" height="70" viewBox="0 0 70 70" fill="none" xmlns="http://www.w3.org/2000/svg">
<circle cx="35" cy="35" r="35" fill="#2CD19E" fill-opacity="0.18"/>
<g clip-path="url(#clip0_907_480)">
<path d="M47.8787 16H27.8506C26.1599 16 24.7293 17.4306 24.7293 19.1213V26.8594H17.5764C15.6257 26.8594 14 28.4851 14 30.4359V43.5062C14 45.4569 15.6257 47.0826 17.5764 47.0826H24.7293V55.1459C24.7293 56.8366 26.1599 58.2671 27.8506 58.2671H47.8137C49.5044 58.2671 50.935 56.8366 50.935 55.1459V19.1213C51 17.4306 49.5694 16 47.8787 16ZM17.5764 28.4851H25.3146C25.3796 28.4851 25.4446 28.5501 25.5747 28.5501C25.7047 28.5501 25.7698 28.5501 25.8348 28.4851H37.0844V31.1511H15.6257V30.4359C15.6257 29.3304 16.471 28.4851 17.5764 28.4851ZM37.0844 41.8805H33.2478C32.8576 41.8805 32.5325 41.5554 32.5325 41.1652V40.9051C32.5325 40.5149 32.8576 40.1898 33.2478 40.1898H37.0844V41.8805ZM15.6257 32.7768H37.0844V34.1424H15.6257V32.7768ZM15.6257 43.5062V35.768H37.0844V38.4341H33.2478C31.9473 38.4341 30.9069 39.4745 30.9069 40.775V41.0352C30.9069 42.3357 31.9473 43.3761 33.2478 43.3761H37.0844V45.3269H17.5764C16.471 45.4569 15.6257 44.5466 15.6257 43.5062ZM37.0844 47.0826V48.058C37.0844 48.5132 37.4745 48.9033 37.9297 48.9033C38.3849 48.9033 38.71 48.5132 38.71 48.058V46.3023V42.6608V39.2794V27.6397V25.0387C38.71 24.5835 38.3199 24.1933 37.8647 24.1933C37.4095 24.1933 37.0193 24.5835 37.0193 25.0387V26.7944H26.355V19.1213C26.355 18.2759 27.0053 17.6257 27.8506 17.6257H47.8137C48.659 17.6257 49.3093 18.2759 49.3093 19.1213V53H26.355V47.0826H37.0844ZM47.8787 56.6415H27.8506C27.0053 56.6415 26.355 55.9912 26.355 55.1459V54.6257H49.3093V55.1459C49.3743 55.9912 48.7241 56.6415 47.8787 56.6415Z" fill="#2CD19E"/>
<path d="M24.6643 40.3849H18.0316C17.5764 40.3849 17.1863 40.775 17.1863 41.2302C17.1863 41.6854 17.5764 42.0105 18.0316 42.0105H24.7293C25.1845 42.0105 25.5747 41.6204 25.5747 41.1652C25.5747 40.71 25.1195 40.3849 24.6643 40.3849Z" fill="#2CD19E"/>
</g>
<defs>
<clipPath id="clip0_907_480">
<rect width="37" height="42.2671" fill="white" transform="translate(14 16)"/>
</clipPath>
</defs>
</svg>
