<svg width="16" height="16" viewBox="0 0 16 16" fill="none" xmlns="http://www.w3.org/2000/svg">
<path d="M16 5.85916C16 5.78404 16 5.63381 15.9249 5.55869C15.8498 5.48357 15.8498 5.33334 15.7746 5.25822C15.6995 5.1831 15.6244 5.10799 15.4742 5.10799L15.3991 5.33334L15.4742 5.10799C15.3991 5.03287 15.2488 5.03287 15.1737 5.03287H10.1408C10.0657 5.03287 9.91548 5.03287 9.84037 5.10799C9.76525 5.1831 9.61501 5.1831 9.5399 5.25822C9.46478 5.33334 9.38966 5.40845 9.38966 5.55869C9.31454 5.63381 9.31454 5.78404 9.31454 5.85916C9.31454 5.93428 9.31454 6.08451 9.38966 6.15963C9.46478 6.23475 9.46478 6.38498 9.5399 6.4601C9.61501 6.53522 9.69013 6.61033 9.84037 6.61033C9.91548 6.68545 9.9906 6.76057 10.1408 6.76057H13.2206L5.33332 14.5728C5.18309 14.723 5.10797 14.9484 5.10797 15.1737C5.10797 15.3991 5.18309 15.6244 5.33332 15.7747C5.48356 15.9249 5.70891 16 5.93426 16C6.15961 16 6.38497 15.9249 6.5352 15.7747L14.4225 7.88733V10.9671C14.4225 11.1925 14.4976 11.4178 14.6479 11.5681C14.7981 11.7183 15.0235 11.7934 15.2488 11.7934C15.4742 11.7934 15.6995 11.7183 15.8498 11.5681C16 11.4178 16.0751 11.1925 16.0751 10.9671L16 5.85916Z" fill="white"/>
<path d="M6.23474 10.892C6.30986 10.8169 6.46009 10.8169 6.53521 10.7418C6.61033 10.6667 6.68545 10.5915 6.68545 10.4413C6.68545 10.2911 6.76056 10.216 6.76056 10.1408C6.76056 10.0657 6.76056 9.91549 6.68545 9.84038C6.61033 9.76526 6.61033 9.61502 6.53521 9.53991C6.46009 9.46479 6.38498 9.38967 6.23474 9.38967C6.15962 9.31455 6.00939 9.31455 5.93427 9.31455V9.53991V9.31455H2.85446L10.6667 1.42723C10.8169 1.277 10.892 1.05164 10.892 0.826291C10.892 0.600939 10.8169 0.375587 10.6667 0.225352C10.5164 0.0751174 10.3662 0 10.1408 0C9.91549 0 9.69014 0.0751174 9.53991 0.225352L1.65258 8.11268V5.03286C1.65258 4.95775 1.65258 4.80751 1.57746 4.73239C1.57746 4.65728 1.50235 4.50704 1.42723 4.43193C1.35211 4.35681 1.277 4.35681 1.12676 4.28169C1.05164 4.20657 0.976526 4.20657 0.826291 4.20657C0.751174 4.20657 0.600939 4.20657 0.525822 4.28169C0.450704 4.35681 0.30047 4.35681 0.225352 4.43193C0.150235 4.50704 0.0751174 4.65728 0.0751174 4.73239C0 4.80751 0 4.95775 0 5.03286V10.0657C0 10.1408 0 10.2911 0.0751174 10.3662C0.150235 10.4413 0.150235 10.5915 0.225352 10.6667C0.30047 10.7418 0.375587 10.8169 0.525822 10.8169C0.600939 10.892 0.751174 10.892 0.826291 10.892H5.85916C6.00939 10.9671 6.08451 10.892 6.23474 10.892Z" fill="white"/>
</svg>
