<svg width="128" height="38" viewBox="0 0 128 38" fill="none" xmlns="http://www.w3.org/2000/svg">
<g clip-path="url(#clip0_1041_1264)">
<path d="M0 5.05679C0 2.264 2.26512 0 5.05929 0H122.941C125.735 0 128 2.26401 128 5.05679V32.8692C128 35.6619 125.735 37.9259 122.941 37.9259H5.05929C2.26512 37.9259 0 35.6619 0 32.8692V5.05679Z" fill="white"/>
<path fill-rule="evenodd" clip-rule="evenodd" d="M0 32.8692V5.05679C0 2.26401 2.26512 0 5.05929 0H122.941C125.735 0 128 2.264 128 5.05679V32.8692C128 35.6619 125.735 37.9259 122.941 37.9259H5.05929C2.26512 37.9259 0 35.6619 0 32.8692ZM0.758893 32.8692V5.05679C0.758893 2.68292 2.68425 0.758519 5.05929 0.758519H122.941C125.316 0.758519 127.241 2.68292 127.241 5.05679V32.8692C127.241 35.2431 125.316 37.1674 122.941 37.1674H5.05929C2.68425 37.1674 0.758893 35.2431 0.758893 32.8692Z" fill="black" fill-opacity="0.1"/>
<path d="M64.8563 20.6036C62.5785 20.6036 60.6965 22.3816 60.6965 24.8195C60.6965 27.2374 62.5588 29.0353 64.8566 29.0353C67.1541 29.0353 69.0162 27.2573 69.0162 24.8195C69.0162 22.3816 67.1541 20.6036 64.8563 20.6036ZM64.8563 27.3577C63.6081 27.3577 62.5193 26.2984 62.5193 24.8006C62.5193 23.2821 63.6089 22.2436 64.8563 22.2436C66.1037 22.2436 67.1934 23.2821 67.1934 24.8006C67.1934 26.2984 66.1037 27.3577 64.8563 27.3577ZM55.8037 20.6036C53.5059 20.6036 51.6436 22.3816 51.6436 24.8195C51.6436 27.2374 53.5059 29.0353 55.8037 29.0353C58.1013 29.0353 59.9636 27.2573 59.9636 24.8195C59.9636 22.3816 58.1013 20.6036 55.8035 20.6036H55.8037ZM55.8037 27.3577C54.5552 27.3577 53.4666 26.2984 53.4666 24.8006C53.4666 23.2821 54.5563 22.2436 55.8037 22.2436C57.0519 22.2436 58.1408 23.2821 58.1408 24.8006C58.1408 26.2984 57.0706 27.3577 55.8037 27.3577ZM45.0473 21.9025V23.6805H49.2465C49.1272 24.6795 48.7914 25.4187 48.2958 25.9186C47.682 26.5377 46.7311 27.2175 45.0473 27.2175C42.4519 27.2175 40.4519 25.0997 40.4519 22.482C40.4519 19.8643 42.453 17.7065 45.0473 17.7065C46.4532 17.7065 47.4642 18.2662 48.2169 18.9857L49.4643 17.7264C48.414 16.7078 47.0081 15.9287 45.0473 15.9287C41.501 15.9287 38.5295 18.8654 38.5295 22.4422C38.5295 26.0193 41.501 28.9559 45.0473 28.9559C46.9686 28.9559 48.3953 28.3168 49.544 27.1173C50.7127 25.9385 51.0693 24.2797 51.0693 22.9412C51.0693 22.5218 51.03 22.142 50.9699 21.8222L45.0473 21.9025ZM89.0629 23.281C88.7258 22.3418 87.6568 20.6036 85.5166 20.6036C83.3768 20.6036 81.6141 22.3022 81.6141 24.8195C81.6141 27.1768 83.3768 29.0353 85.7149 29.0353C87.6164 29.0353 88.7061 27.8565 89.1614 27.1768L87.7555 26.2179C87.2796 26.9176 86.6461 27.3766 85.7149 27.3766C84.7837 27.3766 84.1305 26.9571 83.7138 26.0976L89.2404 23.7601L89.0629 23.281ZM83.4369 24.7002C83.3976 23.0813 84.6853 22.2424 85.5956 22.2424C86.3287 22.2424 86.923 22.6022 87.1405 23.1418L83.4369 24.7002ZM78.9401 28.7559H80.7629V16.4076H78.9401V28.7559ZM75.9695 21.5428H75.9103C75.4945 21.0429 74.7222 20.6036 73.7309 20.6036C71.6508 20.6036 69.769 22.4621 69.769 24.8195C69.769 27.1768 71.6706 29.0156 73.7309 29.0156C74.721 29.0156 75.4937 28.5761 75.9103 28.0563H75.9695V28.6557C75.9695 30.2747 75.1171 31.1332 73.7506 31.1332C72.6412 31.1332 71.9476 30.3143 71.6706 29.6346L70.0864 30.3143C70.5414 31.4334 71.7504 32.8119 73.7506 32.8119C75.8897 32.8119 77.6927 31.5329 77.6927 28.4361V20.8631H75.9695V21.5428ZM73.8895 27.3577C72.6412 27.3577 71.5919 26.2984 71.5919 24.8205C71.5919 23.3427 72.6421 22.2632 73.8895 22.2632C75.1182 22.2632 76.1084 23.3427 76.1084 24.8205C76.1074 26.2785 75.1171 27.3577 73.8895 27.3577ZM97.5606 16.4078H93.2031V28.7559H95.0262V24.0799H97.5606C99.582 24.0799 101.563 22.601 101.563 20.2439C101.563 17.8865 99.582 16.4076 97.5606 16.4076V16.4078ZM97.6203 22.3627H95.0442V18.1259H97.6203C98.9667 18.1259 99.7593 19.2649 99.7593 20.2437C99.7404 21.2028 98.9676 22.3627 97.6203 22.3627ZM108.833 20.5836C107.526 20.5836 106.158 21.1632 105.604 22.482L107.209 23.1618C107.565 22.482 108.199 22.2623 108.873 22.2623C109.824 22.2623 110.775 22.8417 110.794 23.8603V23.9807C110.457 23.7809 109.765 23.5006 108.893 23.5006C107.15 23.5006 105.386 24.4797 105.386 26.2785C105.386 27.937 106.813 28.9957 108.397 28.9957C109.626 28.9957 110.299 28.4361 110.714 27.7772H110.774V28.7363H112.537V24.0003C112.517 21.8229 110.912 20.5835 108.833 20.5835V20.5836ZM108.615 27.3378C108.021 27.3378 107.188 27.0377 107.188 26.2993C107.188 25.3401 108.218 24.9805 109.109 24.9805C109.902 24.9805 110.278 25.1604 110.774 25.3999C110.635 26.5389 109.665 27.3378 108.615 27.3378ZM118.896 20.8641L116.816 26.1989H116.756L114.598 20.8639H112.637L115.885 28.3366L114.042 32.5128H115.944L120.915 20.8639H118.895L118.896 20.8641ZM102.573 28.7559H104.396V16.4076H102.573V28.7559Z" fill="black"/>
<path d="M42.1115 12.5187C41.561 12.5187 41.0538 12.3866 40.5896 12.1223C40.1255 11.8581 39.7558 11.4966 39.4807 11.0381C39.2109 10.5743 39.0759 10.0591 39.0759 9.4928C39.0759 8.92643 39.2109 8.414 39.4807 7.95552C39.7558 7.49164 40.1255 7.12755 40.5896 6.86326C41.0538 6.59895 41.561 6.4668 42.1115 6.4668C42.5486 6.4668 42.956 6.54501 43.3338 6.70144C43.7116 6.85786 44.0273 7.07631 44.2809 7.35679L43.6495 7.98788C43.4606 7.77752 43.2339 7.61571 42.9696 7.50243C42.7106 7.38916 42.4218 7.33252 42.1034 7.33252C41.731 7.33252 41.383 7.42153 41.0592 7.59952C40.7354 7.77752 40.4763 8.03103 40.2821 8.36006C40.0878 8.68909 39.9906 9.06667 39.9906 9.4928C39.9906 9.9189 40.0878 10.2965 40.2821 10.6255C40.4763 10.9546 40.7354 11.208 41.0592 11.3861C41.383 11.564 41.7338 11.6531 42.1115 11.6531C42.4568 11.6531 42.7455 11.6018 42.9777 11.4993C43.2097 11.3969 43.4175 11.2593 43.601 11.0866C43.7197 10.968 43.8195 10.8196 43.9005 10.6417C43.9868 10.4637 44.0435 10.2695 44.0705 10.0591H42.1034V9.25006H44.9285C44.9555 9.40109 44.969 9.55747 44.969 9.71932C44.969 10.0862 44.9123 10.4394 44.799 10.7793C44.6856 11.1137 44.5048 11.4049 44.2566 11.6531C43.7116 12.2302 42.9965 12.5187 42.1115 12.5187Z" fill="black"/>
<path d="M45.8132 6.59619H49.3345V7.46191H46.7199V9.0639H49.0754V9.92149H46.7199V11.5235H49.3345V12.3892H45.8132V6.59619Z" fill="black"/>
<path d="M51.4327 7.46191H49.8137V6.59619H53.9583V7.46191H52.3393V12.3892H51.4327V7.46191Z" fill="black"/>
<path d="M56.3286 6.59619H57.2352V12.3892H56.3286V6.59619Z" fill="black"/>
<path d="M59.5292 7.46191H57.9102V6.59619H62.0548V7.46191H60.4358V12.3892H59.5292V7.46191Z" fill="black"/>
<path d="M66.9787 12.5187C66.4175 12.5187 65.9075 12.3866 65.4488 12.1223C64.9901 11.8526 64.6286 11.4858 64.3641 11.022C64.1051 10.558 63.9756 10.0483 63.9756 9.4928C63.9756 8.93721 64.1051 8.43018 64.3641 7.9717C64.6286 7.50783 64.9901 7.14103 65.4488 6.87134C65.9075 6.60164 66.4175 6.4668 66.9787 6.4668C67.54 6.4668 68.0473 6.60164 68.5006 6.87134C68.9593 7.14103 69.3209 7.50783 69.5853 7.9717C69.8497 8.43018 69.982 8.93721 69.982 9.4928C69.982 10.0483 69.8497 10.558 69.5853 11.022C69.3263 11.4858 68.9674 11.8526 68.5087 12.1223C68.05 12.3866 67.54 12.5187 66.9787 12.5187ZM66.9787 11.6531C67.3619 11.6531 67.7127 11.5614 68.0311 11.3779C68.3495 11.1945 68.6005 10.941 68.7839 10.6174C68.9674 10.2884 69.0592 9.9135 69.0592 9.4928C69.0592 9.07206 68.9674 8.69988 68.7839 8.37624C68.6005 8.04722 68.3495 7.791 68.0311 7.60761C67.7127 7.42422 67.3619 7.33252 66.9787 7.33252C66.5956 7.33252 66.2449 7.42422 65.9265 7.60761C65.608 7.791 65.3544 8.04722 65.1655 8.37624C64.982 8.69988 64.8903 9.07206 64.8903 9.4928C64.8903 9.9135 64.982 10.2884 65.1655 10.6174C65.3544 10.941 65.608 11.1945 65.9265 11.3779C66.2449 11.5614 66.5956 11.6531 66.9787 11.6531Z" fill="black"/>
<path d="M70.8157 6.59619H71.8923L74.4827 10.8115H74.5312L74.4827 9.69498V6.59619H75.3812V12.3892H74.4341L71.7142 7.95546H71.6656L71.7142 9.07199V12.3892H70.8157V6.59619Z" fill="black"/>
<path d="M26.9887 23.0295C30.0195 21.3508 32.3172 20.0718 32.5153 19.9725C33.1486 19.6325 33.8029 18.7331 32.5153 18.0346C32.0995 17.8149 29.8608 16.5755 26.9887 14.9775L23.0073 19.0332L26.9885 23.0295H26.9887Z" fill="#FFD900"/>
<path d="M23.0091 19.0327L10.3315 31.9208C10.6289 31.9606 10.9649 31.881 11.3611 31.6613C12.1928 31.2023 21.0079 26.3464 26.9908 23.0298L23.0091 19.0327Z" fill="#F43249"/>
<path d="M23.0082 19.0331L26.9893 14.9971C26.9893 14.9971 12.2518 6.88455 11.36 6.40587C11.0244 6.20459 10.6479 6.14508 10.311 6.20459L23.0082 19.033V19.0331Z" fill="#00EE76"/>
<path d="M23.0076 19.0329L10.3103 6.20459C9.79487 6.32469 9.35938 6.78391 9.35938 7.72269V30.4022C9.35938 31.262 9.69645 31.8812 10.3298 31.9407L23.0074 19.0327L23.0076 19.0329Z" fill="#00D3FF"/>
</g>
<defs>
<clipPath id="clip0_1041_1264">
<rect width="128" height="37.9259" fill="white"/>
</clipPath>
</defs>
</svg>
