<svg width="39" height="39" viewBox="0 0 39 39" fill="none" xmlns="http://www.w3.org/2000/svg">
<circle cx="19.5" cy="19.5" r="19" stroke="#C2CEDB"/>
<path d="M15.7516 17.4266C15.9266 17.1493 16.1322 16.8917 16.3673 16.6566C16.7739 16.25 17.2476 15.9307 17.7753 15.7075C18.322 15.4762 18.9022 15.359 19.5 15.359C20.0977 15.359 20.678 15.4763 21.2247 15.7075C21.7523 15.9307 22.2261 16.25 22.6327 16.6566C22.8677 16.8917 23.0734 17.1493 23.2484 17.4266H26V15.7142C26 14.2176 24.7824 13 23.2858 13H15.7142C14.2176 13 13 14.2176 13 15.7142V17.4266H15.7516V17.4266ZM24.1756 15.5936H23.4139V14.8319H24.1756V15.5936Z" fill="#13273F"/>
<path d="M23.6318 18.1885C23.8298 18.6987 23.9303 19.2366 23.9303 19.7895C23.9303 20.3872 23.8131 20.9675 23.5818 21.5142C23.3587 22.0418 23.0393 22.5156 22.6327 22.9222C22.2261 23.3288 21.7524 23.6481 21.2247 23.8713C20.678 24.1026 20.0977 24.2198 19.5 24.2198C18.9023 24.2198 18.322 24.1025 17.7753 23.8713C17.2476 23.6481 16.7739 23.3288 16.3673 22.9222C15.9607 22.5155 15.6413 22.0418 15.4182 21.5142C15.1869 20.9675 15.0697 20.3872 15.0697 19.7895C15.0697 19.2366 15.1702 18.6987 15.3682 18.1885H13V23.2859C13 24.7825 14.2176 26.0001 15.7142 26.0001H23.2858C24.7824 26.0001 26 24.7825 26 23.2859V18.1885H23.6318Z" fill="#13273F"/>
<path d="M19.5001 18.2373C18.6444 18.2373 17.9482 18.9335 17.9482 19.7891C17.9482 20.6448 18.6444 21.341 19.5001 21.341C20.3557 21.341 21.0519 20.6448 21.0519 19.7892C21.0519 18.9335 20.3557 18.2373 19.5001 18.2373Z" fill="#13273F"/>
<path d="M19.5001 16.1206C17.474 16.1206 15.8315 17.7631 15.8315 19.7892C15.8315 21.8153 17.474 23.4578 19.5001 23.4578C21.5263 23.4578 23.1687 21.8153 23.1687 19.7892C23.1687 17.7631 21.5263 16.1206 19.5001 16.1206ZM21.8137 19.7892C21.8137 21.0649 20.7758 22.1027 19.5001 22.1027C18.2244 22.1027 17.1866 21.0649 17.1866 19.7892C17.1866 18.5135 18.2244 17.4757 19.5001 17.4757C20.7758 17.4757 21.8137 18.5135 21.8137 19.7892Z" fill="#13273F"/>
</svg>
