<svg width="39" height="39" viewBox="0 0 39 39" fill="none" xmlns="http://www.w3.org/2000/svg">
<circle cx="19.5" cy="19.5" r="19" stroke="#C2CEDB"/>
<g clip-path="url(#clip0_1041_1248)">
<path d="M25.9969 26V25.9994H26.0002V21.2317C26.0002 18.8992 25.4981 17.1025 22.7713 17.1025C21.4605 17.1025 20.5808 17.8219 20.2217 18.5038H20.1838V17.3203H17.5984V25.9994H20.2905V21.7018C20.2905 20.5703 20.505 19.4761 21.9063 19.4761C23.287 19.4761 23.3076 20.7675 23.3076 21.7744V26H25.9969Z" fill="#13273F"/>
<path d="M13.2146 17.3208H15.9099V25.9999H13.2146V17.3208Z" fill="#13273F"/>
<path d="M14.5611 13C13.6993 13 13 13.6993 13 14.5611C13 15.4229 13.6993 16.1368 14.5611 16.1368C15.4229 16.1368 16.1222 15.4229 16.1222 14.5611C16.1216 13.6993 15.4223 13 14.5611 13V13Z" fill="#13273F"/>
</g>
<defs>
<clipPath id="clip0_1041_1248">
<rect width="13" height="13" fill="white" transform="translate(13 13)"/>
</clipPath>
</defs>
</svg>
