<svg width="102" height="29" viewBox="0 0 102 29" fill="none" xmlns="http://www.w3.org/2000/svg">
<path d="M0 10.4734H2.25997C2.38706 8.58609 2.75721 6.97182 3.37042 5.63056C3.98363 4.2893 4.78811 3.20672 5.78385 2.38283C6.80037 1.54496 7.97321 0.928443 9.23053 0.571051C10.6024 0.18081 12.0207 -0.0113982 13.4445 -1.04465e-05V5.76625C12.8057 5.77254 12.1697 5.85311 11.5486 6.00639C10.8831 6.16042 10.2483 6.43017 9.67185 6.80392C9.09599 7.1771 8.60593 7.67366 8.23542 8.2594C7.85415 8.85747 7.64985 9.60879 7.62252 10.5134L12.8697 10.4734L12.7935 15.8081H7.62538V28.3617H1.99213L2.03026 15.8482H0V10.4734Z" fill="#13273F"/>
<path d="M27.3093 28.6019C25.7971 28.6064 24.299 28.3035 22.9019 27.7108C21.5048 27.1181 20.2364 26.2474 19.1702 25.1491C18.1268 24.0629 17.2948 22.7831 16.7187 21.3782C16.1252 19.9249 15.8196 18.3654 15.8196 16.7902C15.8196 15.2149 16.1252 13.6554 16.7187 12.2021C17.8718 9.37438 20.0672 7.12636 22.8285 5.94583C24.2475 5.33798 25.7703 5.02496 27.3084 5.02496C28.8465 5.02496 30.3693 5.33798 31.7883 5.94583C33.1588 6.53599 34.4076 7.38696 35.4685 8.45363C36.5413 9.54539 37.3917 10.8445 37.9703 12.2756C38.5489 13.7067 38.8441 15.2413 38.8389 16.7902V19.1037H21.9087C22.3372 20.1937 23.072 21.129 24.0199 21.7911C24.9847 22.4822 26.1369 22.8459 27.3141 22.8307C28.0547 22.8355 28.7893 22.6957 29.4788 22.4188C30.1377 22.1531 30.7406 21.76 31.2545 21.261L35.4294 25.1853C34.3864 26.2547 33.1509 27.107 31.7912 27.695C30.373 28.3065 28.848 28.6151 27.3093 28.6019ZM21.679 15.1024H32.9397C32.5955 13.8685 31.8697 12.7823 30.8713 12.0069C29.8508 11.1954 28.6635 10.7899 27.3093 10.7906C26.6648 10.7873 26.0242 10.8932 25.4135 11.1039C24.8197 11.3102 24.2633 11.6153 23.7664 12.0069C23.273 12.3926 22.8403 12.8535 22.4834 13.3735C22.124 13.9004 21.8522 14.4846 21.679 15.1024Z" fill="#13273F"/>
<path d="M59.2159 17.0635C59.2159 16.0184 59.0624 15.1164 58.7555 14.3576C58.4804 13.645 58.0478 13.0075 57.4916 12.495C56.9457 12.0073 56.3065 11.6416 55.6148 11.4212C54.8714 11.1814 54.096 11.0622 53.3167 11.0678C52.542 11.0612 51.7717 11.1872 51.0376 11.4407C50.3623 11.6739 49.734 12.0312 49.1837 12.495C48.6463 12.9551 48.2147 13.5311 47.9198 14.1818C47.6052 14.8893 47.4483 15.6596 47.4604 16.4368L47.4223 28.3627H41.9024L41.8262 17.0645V5.88436H47.5328L47.4566 8.0417C48.1569 7.13748 49.0742 6.43457 50.1188 6.0015C51.1334 5.56725 52.2175 5.32801 53.3167 5.29572C61.0056 5.06079 64.8501 9.08816 64.8501 17.3778L64.8882 28.3618H59.3302L59.2159 17.0635Z" fill="#13273F"/>
<path d="M91.62 17.2207V28.3618H85.8743L85.9896 26.7687C84.2275 28.2511 82.2611 28.9924 80.0904 28.9924C78.5513 29.0008 77.0268 28.6869 75.6105 28.0699C72.8345 26.8747 70.6268 24.6124 69.4616 21.7687C68.8681 20.3154 68.5626 18.7559 68.5626 17.1807C68.5626 15.6054 68.8681 14.0459 69.4616 12.5926C70.6279 9.75132 72.835 7.49127 75.6095 6.29728C77.0284 5.68879 78.5512 5.37543 80.0895 5.37543C81.6277 5.37543 83.1505 5.68879 84.5694 6.29728C87.345 7.49064 89.5533 9.75077 90.7202 12.5926C91.3221 14.0433 91.6283 15.6045 91.62 17.1807V17.2207ZM85.9896 17.2012C85.9951 16.3894 85.8381 15.5851 85.5283 14.8378C84.9263 13.3857 83.7961 12.2304 82.3771 11.6165C81.2952 11.1427 80.0992 11.0132 78.9445 11.2447C77.7897 11.4763 76.7297 12.0582 75.9022 12.9148C75.3729 13.471 74.9492 14.1231 74.6526 14.8378C74.3487 15.5862 74.1923 16.3887 74.1923 17.1992C74.1923 18.0097 74.3487 18.8122 74.6526 19.5606C75.2407 21.0011 76.3591 22.1464 77.7656 22.7488C78.4964 23.06 79.28 23.2202 80.0714 23.2202C80.8628 23.2202 81.6463 23.06 82.3771 22.7488C83.0766 22.4479 83.7154 22.0163 84.2606 21.4758C84.8028 20.9305 85.2338 20.2801 85.5283 19.5625C85.8379 18.8159 85.9949 18.0123 85.9896 17.2012Z" fill="#13273F"/>
<path d="M98.8212 28.7972C98.4024 28.8019 97.9868 28.7208 97.5989 28.5589C97.2111 28.3969 96.8587 28.1572 96.5625 27.8538C96.2663 27.5505 96.0322 27.1896 95.8741 26.7924C95.7159 26.3952 95.6368 25.9696 95.6414 25.5406V23.5756H102V25.5367C102.006 25.9661 101.928 26.3924 101.77 26.7904C101.613 27.1884 101.379 27.55 101.082 27.8539C100.786 28.1578 100.433 28.3978 100.045 28.5598C99.6567 28.7219 99.2405 28.8025 98.8212 28.7972Z" fill="#13273F"/>
</svg>
