<svg width="619" height="638" viewBox="0 0 619 638" fill="none" xmlns="http://www.w3.org/2000/svg">
<path d="M246.5 637.5C382.362 637.5 492.5 527.362 492.5 391.5C492.5 255.638 382.362 145.5 246.5 145.5C110.638 145.5 0.5 255.638 0.5 391.5C0.5 527.362 110.638 637.5 246.5 637.5Z" stroke="white"/>
<g filter="url(#filter0_i_59_149)">
<path d="M533.185 102H369C346.909 102 329 119.909 329 142V521C329 543.091 346.909 561 369 561H533.185C555.276 561 573.185 543.091 573.185 521V142C573.185 119.909 555.276 102 533.185 102Z" fill="#C2CEDB"/>
</g>
<g filter="url(#filter1_d_59_149)">
<path d="M534.794 110.391H367.392C350.824 110.391 337.392 123.823 337.392 140.391V522.609C337.392 539.178 350.824 552.609 367.392 552.609H534.794C551.363 552.609 564.794 539.178 564.794 522.609V140.391C564.794 123.823 551.363 110.391 534.794 110.391Z" fill="#F2F4F7"/>
</g>
<path d="M534.794 110.391H367.392C350.824 110.391 337.392 123.823 337.392 140.391V522.609C337.392 539.178 350.824 552.609 367.392 552.609H534.794C551.363 552.609 564.794 539.178 564.794 522.609V140.391C564.794 123.823 551.363 110.391 534.794 110.391Z" fill="url(#paint0_linear_59_149)"/>
<path d="M407.649 177.875H414.574V176.625H407.649V174.525C407.649 171.65 409.274 170 412.624 170C414.374 170 415.899 170.325 417.099 171.2L417.774 169.675C416.424 168.75 414.799 168.35 412.774 168.35C408.224 168.35 405.824 170.825 405.824 174.525V176.625H402.999V177.875H405.824V184.4H402.999V186H417.449V184.4H407.649V177.875ZM424.935 168.5V170.1H429.06V186H430.86V168.5H424.935ZM433.968 168.5V170.1H438.093V186H439.893V168.5H433.968ZM443.576 168.5V173.375H445.351V170.1H454.351L447.151 186H449.101L456.426 169.775V168.5H443.576ZM458.83 186.125C459.555 186.125 460.18 185.525 460.18 184.75C460.18 183.975 459.555 183.4 458.83 183.4C458.105 183.4 457.505 183.975 457.505 184.75C457.505 185.525 458.105 186.125 458.83 186.125ZM477.335 179.8H473.835V175.75H472.085V179.8H464.485L473.435 168.5H471.435L462.16 180.1V181.4H472.035V186H473.835V181.4H477.335V179.8ZM483.491 175.675H481.241L481.841 170.1H489.841V168.5H480.266L479.366 177.275H483.091C487.541 177.275 488.941 178.675 488.941 180.925C488.941 183.05 487.366 184.5 484.391 184.5C482.141 184.5 480.141 183.65 479.016 182.475L478.141 183.9C479.491 185.275 481.891 186.15 484.416 186.15C488.691 186.15 490.766 183.825 490.766 180.85C490.766 177.75 488.766 175.675 483.491 175.675Z" fill="white"/>
<path d="M414.357 203H415.097V196.64H417.557V196H411.897V196.64H414.357V203ZM422.633 200.37C422.633 198.79 421.563 197.7 420.083 197.7C418.603 197.7 417.513 198.81 417.513 200.37C417.513 201.93 418.633 203.05 420.273 203.05C421.103 203.05 421.833 202.75 422.303 202.19L421.903 201.73C421.503 202.19 420.933 202.42 420.293 202.42C419.143 202.42 418.303 201.69 418.223 200.59H422.623C422.623 200.51 422.633 200.43 422.633 200.37ZM420.083 198.31C421.113 198.31 421.863 199.03 421.953 200.06H418.223C418.313 199.03 419.063 198.31 420.083 198.31ZM424.758 198.77V197.74H424.078V203H424.788V200.32C424.788 199.08 425.458 198.38 426.558 198.38C426.608 198.38 426.668 198.39 426.728 198.39V197.7C425.758 197.7 425.088 198.07 424.758 198.77ZM434.573 197.7C433.623 197.7 432.873 198.13 432.493 198.81C432.173 198.07 431.493 197.7 430.623 197.7C429.743 197.7 429.063 198.07 428.693 198.7V197.74H428.013V203H428.723V200.24C428.723 199.04 429.413 198.34 430.483 198.34C431.443 198.34 432.003 198.91 432.003 200.02V203H432.713V200.24C432.713 199.04 433.393 198.34 434.473 198.34C435.423 198.34 435.983 198.91 435.983 200.02V203H436.693V199.95C436.693 198.44 435.853 197.7 434.573 197.7ZM438.979 196.59C439.279 196.59 439.499 196.36 439.499 196.07C439.499 195.8 439.269 195.58 438.979 195.58C438.689 195.58 438.459 195.81 438.459 196.08C438.459 196.36 438.689 196.59 438.979 196.59ZM438.619 203H439.329V197.74H438.619V203ZM443.984 197.7C443.074 197.7 442.364 198.07 441.984 198.71V197.74H441.304V203H442.014V200.24C442.014 199.04 442.724 198.34 443.854 198.34C444.854 198.34 445.434 198.91 445.434 200.02V203H446.144V199.95C446.144 198.44 445.264 197.7 443.984 197.7ZM449.912 197.7C449.082 197.7 448.302 197.96 447.772 198.41L448.092 198.94C448.522 198.56 449.162 198.32 449.842 198.32C450.822 198.32 451.332 198.81 451.332 199.71V200.03H449.662C448.152 200.03 447.632 200.71 447.632 201.52C447.632 202.43 448.362 203.05 449.552 203.05C450.422 203.05 451.042 202.72 451.362 202.18V203H452.042V199.74C452.042 198.38 451.272 197.7 449.912 197.7ZM449.662 202.49C448.822 202.49 448.332 202.11 448.332 201.5C448.332 200.96 448.662 200.56 449.682 200.56H451.332V201.42C451.052 202.11 450.462 202.49 449.662 202.49ZM453.97 203H454.68V195.58H453.97V203ZM456.726 198.79C457.016 198.79 457.266 198.55 457.266 198.24C457.266 197.93 457.016 197.7 456.726 197.7C456.436 197.7 456.196 197.93 456.196 198.24C456.196 198.55 456.436 198.79 456.726 198.79ZM456.726 203.05C457.016 203.05 457.266 202.81 457.266 202.5C457.266 202.19 457.016 201.96 456.726 201.96C456.436 201.96 456.196 202.19 456.196 202.5C456.196 202.81 456.436 203.05 456.726 203.05ZM462.292 203.06C463.632 203.06 464.332 202.33 464.332 200.85V196H461.042V196.64H463.602V200.88C463.602 201.91 463.162 202.42 462.302 202.42C461.682 202.42 461.172 202.12 460.792 201.56L460.352 202.06C460.782 202.7 461.502 203.06 462.292 203.06ZM468.242 197.7C467.412 197.7 466.632 197.96 466.102 198.41L466.422 198.94C466.852 198.56 467.492 198.32 468.172 198.32C469.152 198.32 469.662 198.81 469.662 199.71V200.03H467.992C466.482 200.03 465.962 200.71 465.962 201.52C465.962 202.43 466.692 203.05 467.882 203.05C468.752 203.05 469.372 202.72 469.692 202.18V203H470.372V199.74C470.372 198.38 469.602 197.7 468.242 197.7ZM467.992 202.49C467.152 202.49 466.662 202.11 466.662 201.5C466.662 200.96 466.992 200.56 468.012 200.56H469.662V201.42C469.382 202.11 468.792 202.49 467.992 202.49ZM476.41 195.58V198.74C475.97 198.06 475.25 197.7 474.41 197.7C472.91 197.7 471.79 198.78 471.79 200.37C471.79 201.96 472.91 203.05 474.41 203.05C475.28 203.05 476.01 202.67 476.44 201.96V203H477.12V195.58H476.41ZM474.47 202.42C473.35 202.42 472.51 201.6 472.51 200.37C472.51 199.14 473.35 198.32 474.47 198.32C475.58 198.32 476.42 199.14 476.42 200.37C476.42 201.6 475.58 202.42 474.47 202.42ZM483.687 200.37C483.687 198.79 482.617 197.7 481.137 197.7C479.657 197.7 478.567 198.81 478.567 200.37C478.567 201.93 479.687 203.05 481.327 203.05C482.157 203.05 482.887 202.75 483.357 202.19L482.957 201.73C482.557 202.19 481.987 202.42 481.347 202.42C480.197 202.42 479.357 201.69 479.277 200.59H483.677C483.677 200.51 483.687 200.43 483.687 200.37ZM481.137 198.31C482.167 198.31 482.917 199.03 483.007 200.06H479.277C479.367 199.03 480.117 198.31 481.137 198.31Z" fill="#8181A5"/>
<path d="M547.872 449H355C353.343 449 352 450.343 352 452V473.691C352 475.348 353.343 476.691 355 476.691H547.872C549.529 476.691 550.872 475.348 550.872 473.691V452C550.872 450.343 549.529 449 547.872 449Z" fill="#EF6355"/>
<path d="M407.169 466L405.559 463.7C406.509 463.33 407.049 462.55 407.049 461.49C407.049 459.94 405.909 459 404.069 459H401.189V466H402.489V463.96H404.069C404.159 463.96 404.249 463.96 404.339 463.95L405.769 466H407.169ZM405.739 461.49C405.739 462.37 405.149 462.89 404.009 462.89H402.489V460.1H404.009C405.149 460.1 405.739 460.61 405.739 461.49ZM409.803 464.91V462.98H413.183V461.91H409.803V460.09H413.613V459H408.503V466H413.753V464.91H409.803ZM421.963 465.98C421.623 466.35 421.223 466.54 420.763 466.54C420.353 466.54 419.993 466.38 419.593 465.95C421.153 465.51 422.213 464.19 422.213 462.5C422.213 460.42 420.613 458.9 418.443 458.9C416.273 458.9 414.673 460.43 414.673 462.5C414.673 464.44 416.083 465.91 418.043 466.08C419.073 467.16 419.783 467.53 420.733 467.53C421.473 467.53 422.103 467.24 422.563 466.7L421.963 465.98ZM415.983 462.5C415.983 461.07 417.033 460.04 418.443 460.04C419.853 460.04 420.903 461.07 420.903 462.5C420.903 463.93 419.853 464.96 418.443 464.96C417.033 464.96 415.983 463.93 415.983 462.5ZM426.601 466.1C428.511 466.1 429.661 464.99 429.661 462.95V459H428.381V462.9C428.381 464.34 427.741 464.96 426.611 464.96C425.481 464.96 424.831 464.34 424.831 462.9V459H423.531V462.95C423.531 464.99 424.681 466.1 426.601 466.1ZM432.782 464.91V462.98H436.162V461.91H432.782V460.09H436.592V459H431.482V466H436.732V464.91H432.782ZM440.351 466.1C442.271 466.1 443.181 465.14 443.181 464.02C443.181 461.45 439.031 462.42 439.031 460.93C439.031 460.4 439.471 459.98 440.551 459.98C441.161 459.98 441.851 460.16 442.481 460.53L442.891 459.52C442.281 459.12 441.401 458.9 440.561 458.9C438.641 458.9 437.741 459.86 437.741 460.99C437.741 463.59 441.901 462.6 441.901 464.11C441.901 464.63 441.441 465.02 440.351 465.02C439.491 465.02 438.601 464.7 438.041 464.25L437.591 465.26C438.171 465.76 439.261 466.1 440.351 466.1ZM445.792 466H447.092V460.1H449.412V459H443.472V460.1H445.792V466ZM456.032 459H453.152V466H454.452V463.98H456.032C457.872 463.98 459.012 463.03 459.012 461.49C459.012 459.94 457.872 459 456.032 459ZM455.972 462.88H454.452V460.1H455.972C457.112 460.1 457.702 460.61 457.702 461.49C457.702 462.37 457.112 462.88 455.972 462.88ZM465.198 466H466.558L463.398 459H462.118L458.968 466H460.308L460.998 464.38H464.498L465.198 466ZM461.438 463.36L462.748 460.3L464.068 463.36H461.438ZM472.788 459H471.508L469.438 462.41L467.388 459H465.998L468.748 463.55V466H470.048V463.53L472.788 459ZM481.202 466L481.192 459H480.122L477.392 463.64L474.612 459H473.542V466H474.782V461.42L477.082 465.2H477.662L479.962 461.36L479.972 466H481.202ZM484.393 464.91V462.98H487.773V461.91H484.393V460.09H488.203V459H483.093V466H488.343V464.91H484.393ZM494.722 459V463.74L490.862 459H489.792V466H491.082V461.26L494.942 466H496.012V459H494.722ZM499.308 466H500.608V460.1H502.928V459H496.988V460.1H499.308V466Z" fill="white"/>
<path d="M547.872 486H355C353.343 486 352 487.343 352 489V509C352 510.657 353.343 512 355 512H547.872C549.529 512 550.872 510.657 550.872 509V489C550.872 487.343 549.529 486 547.872 486Z" fill="#324D6A"/>
<path d="M427.633 504.08C429.483 504.08 430.343 503.16 430.343 502.09C430.343 499.52 426.103 500.59 426.103 498.88C426.103 498.27 426.613 497.77 427.803 497.77C428.423 497.77 429.113 497.95 429.723 498.34L430.053 497.54C429.473 497.14 428.623 496.92 427.803 496.92C425.963 496.92 425.123 497.84 425.123 498.92C425.123 501.52 429.363 500.44 429.363 502.15C429.363 502.76 428.843 503.23 427.633 503.23C426.733 503.23 425.843 502.89 425.323 502.42L424.953 503.2C425.513 503.72 426.563 504.08 427.633 504.08ZM434.534 497H431.804V504H432.804V501.88H434.534C436.354 501.88 437.454 500.96 437.454 499.44C437.454 497.92 436.354 497 434.534 497ZM434.504 501.01H432.804V497.87H434.504C435.784 497.87 436.454 498.44 436.454 499.44C436.454 500.44 435.784 501.01 434.504 501.01ZM438.923 504H443.713V503.13H439.923V497H438.923V504ZM444.861 504H445.861V497H444.861V504ZM449.346 504H450.336V497.87H452.736V497H446.946V497.87H449.346V504ZM461.221 500.37C461.771 500.1 462.161 499.57 462.161 498.81C462.161 497.68 461.261 497 459.651 497H456.511V504H459.851C461.621 504 462.531 503.31 462.531 502.11C462.531 501.18 462.011 500.59 461.221 500.37ZM459.561 497.81C460.581 497.81 461.161 498.19 461.161 498.93C461.161 499.67 460.581 500.05 459.561 500.05H457.511V497.81H459.561ZM459.811 503.19H457.511V500.86H459.811C460.921 500.86 461.521 501.22 461.521 502.03C461.521 502.84 460.921 503.19 459.811 503.19ZM464.079 504H465.079V497H464.079V504ZM467.175 504H471.965V503.13H468.175V497H467.175V504ZM473.112 504H477.902V503.13H474.112V497H473.112V504Z" fill="white"/>
<path d="M370.425 263.5V264.46H372.9V274H373.98V263.5H370.425Z" fill="#C2CEDB"/>
<path d="M377.747 312.28H375.647V309.85H374.597V312.28H370.037L375.407 305.5H374.207L368.642 312.46V313.24H374.567V316H375.647V313.24H377.747V312.28Z" fill="#C2CEDB"/>
<path d="M368.563 347.5V350.425H369.628V348.46H375.028L370.708 358H371.878L376.273 348.265V347.5H368.563Z" fill="#C2CEDB"/>
<path d="M362.806 403.07C362.601 403.07 362.424 402.995 362.274 402.846C362.134 402.697 362.064 402.515 362.064 402.3C362.064 402.085 362.134 401.908 362.274 401.768C362.424 401.619 362.601 401.544 362.806 401.544C363.012 401.544 363.189 401.619 363.338 401.768C363.488 401.908 363.562 402.085 363.562 402.3C363.562 402.515 363.488 402.697 363.338 402.846C363.189 402.995 363.012 403.07 362.806 403.07ZM368.773 403.084C368.017 403.084 367.34 402.883 366.743 402.482C366.155 402.081 365.693 401.507 365.357 400.76C365.03 400.004 364.867 399.117 364.867 398.1C364.867 397.083 365.03 396.201 365.357 395.454C365.693 394.698 366.155 394.119 366.743 393.718C367.34 393.317 368.017 393.116 368.773 393.116C369.529 393.116 370.201 393.317 370.789 393.718C371.386 394.119 371.853 394.698 372.189 395.454C372.525 396.201 372.693 397.083 372.693 398.1C372.693 399.117 372.525 400.004 372.189 400.76C371.853 401.507 371.386 402.081 370.789 402.482C370.201 402.883 369.529 403.084 368.773 403.084ZM368.773 402.16C369.342 402.16 369.841 402.001 370.271 401.684C370.709 401.367 371.05 400.905 371.293 400.298C371.535 399.691 371.657 398.959 371.657 398.1C371.657 397.241 371.535 396.509 371.293 395.902C371.05 395.295 370.709 394.833 370.271 394.516C369.841 394.199 369.342 394.04 368.773 394.04C368.203 394.04 367.699 394.199 367.261 394.516C366.831 394.833 366.495 395.295 366.253 395.902C366.01 396.509 365.889 397.241 365.889 398.1C365.889 398.959 366.01 399.691 366.253 400.298C366.495 400.905 366.831 401.367 367.261 401.684C367.699 402.001 368.203 402.16 368.773 402.16ZM378.042 403.084C377.286 403.084 376.61 402.883 376.012 402.482C375.424 402.081 374.962 401.507 374.626 400.76C374.3 400.004 374.136 399.117 374.136 398.1C374.136 397.083 374.3 396.201 374.626 395.454C374.962 394.698 375.424 394.119 376.012 393.718C376.61 393.317 377.286 393.116 378.042 393.116C378.798 393.116 379.47 393.317 380.058 393.718C380.656 394.119 381.122 394.698 381.458 395.454C381.794 396.201 381.962 397.083 381.962 398.1C381.962 399.117 381.794 400.004 381.458 400.76C381.122 401.507 380.656 402.081 380.058 402.482C379.47 402.883 378.798 403.084 378.042 403.084ZM378.042 402.16C378.612 402.16 379.111 402.001 379.54 401.684C379.979 401.367 380.32 400.905 380.562 400.298C380.805 399.691 380.926 398.959 380.926 398.1C380.926 397.241 380.805 396.509 380.562 395.902C380.32 395.295 379.979 394.833 379.54 394.516C379.111 394.199 378.612 394.04 378.042 394.04C377.473 394.04 376.969 394.199 376.53 394.516C376.101 394.833 375.765 395.295 375.522 395.902C375.28 396.509 375.158 397.241 375.158 398.1C375.158 398.959 375.28 399.691 375.522 400.298C375.765 400.905 376.101 401.367 376.53 401.684C376.969 402.001 377.473 402.16 378.042 402.16Z" fill="#6C6C8A"/>
<path d="M445.412 273.04L448.982 269.53C450.392 268.15 450.707 267.25 450.707 266.245C450.707 264.49 449.357 263.41 447.227 263.41C445.622 263.41 444.317 263.95 443.507 264.91L444.272 265.57C444.962 264.775 445.907 264.4 447.137 264.4C448.742 264.4 449.597 265.15 449.597 266.365C449.597 267.085 449.372 267.79 448.187 268.96L443.822 273.235V274H451.187V273.04H445.412Z" fill="#C2CEDB"/>
<path d="M446.792 309.805H445.442L445.802 306.46H450.602V305.5H444.857L444.317 310.765H446.552C449.222 310.765 450.062 311.605 450.062 312.955C450.062 314.23 449.117 315.1 447.332 315.1C445.982 315.1 444.782 314.59 444.107 313.885L443.582 314.74C444.392 315.565 445.832 316.09 447.347 316.09C449.912 316.09 451.157 314.695 451.157 312.91C451.157 311.05 449.957 309.805 446.792 309.805Z" fill="#C2CEDB"/>
<path d="M449.012 352.495C450.092 352.075 450.692 351.28 450.692 350.185C450.692 348.475 449.207 347.41 446.987 347.41C444.767 347.41 443.312 348.475 443.312 350.185C443.312 351.28 443.897 352.075 444.962 352.495C443.657 352.93 442.937 353.815 442.937 355.075C442.937 356.935 444.467 358.09 446.987 358.09C449.492 358.09 451.067 356.935 451.067 355.075C451.067 353.83 450.332 352.93 449.012 352.495ZM444.392 350.215C444.392 349.045 445.397 348.325 446.987 348.325C448.562 348.325 449.597 349.045 449.597 350.23C449.597 351.37 448.622 352.105 446.987 352.105C445.352 352.105 444.392 351.37 444.392 350.215ZM446.987 357.175C445.127 357.175 444.032 356.365 444.032 355.06C444.032 353.77 445.127 352.96 446.987 352.96C448.847 352.96 449.957 353.77 449.957 355.06C449.957 356.365 448.847 357.175 446.987 357.175Z" fill="#C2CEDB"/>
<path d="M446.999 403.09C449.429 403.09 451.199 401.095 451.199 397.75C451.199 394.405 449.429 392.41 446.999 392.41C444.569 392.41 442.814 394.405 442.814 397.75C442.814 401.095 444.569 403.09 446.999 403.09ZM446.999 402.1C445.169 402.1 443.909 400.555 443.909 397.75C443.909 394.945 445.169 393.4 446.999 393.4C448.829 393.4 450.089 394.945 450.089 397.75C450.089 400.555 448.829 402.1 446.999 402.1Z" fill="#C2CEDB"/>
<path d="M522.617 268L525.587 264.265V263.5H518.837V264.46H524.207L521.297 268.105V268.9H522.047C523.997 268.9 524.882 269.725 524.882 270.985C524.882 272.29 523.922 273.1 522.182 273.1C520.817 273.1 519.602 272.59 518.927 271.885L518.402 272.74C519.212 273.565 520.667 274.09 522.182 274.09C524.717 274.09 525.992 272.74 525.992 270.985C525.992 269.305 524.867 268.12 522.617 268Z" fill="#C2CEDB"/>
<path d="M522.56 309.715C521.105 309.715 519.875 310.36 519.35 311.515C519.32 311.2 519.305 310.9 519.305 310.66C519.305 307.81 520.76 306.355 523.025 306.355C523.805 306.355 524.525 306.49 525.065 306.85L525.5 305.98C524.84 305.575 523.955 305.41 523.01 305.41C520.16 305.41 518.21 307.27 518.21 310.84C518.21 314.155 519.725 316.09 522.515 316.09C524.555 316.09 526.1 314.83 526.1 312.865C526.1 310.945 524.645 309.715 522.56 309.715ZM522.47 315.175C520.655 315.175 519.695 314.08 519.695 312.925C519.695 311.62 520.79 310.63 522.395 310.63C524.015 310.63 525.035 311.515 525.035 312.895C525.035 314.29 523.985 315.175 522.47 315.175Z" fill="#C2CEDB"/>
<path d="M521.48 347.41C519.44 347.41 517.895 348.67 517.895 350.635C517.895 352.555 519.35 353.785 521.435 353.785C522.89 353.785 524.12 353.14 524.645 351.985C524.675 352.3 524.69 352.6 524.69 352.84C524.69 355.69 523.235 357.145 520.97 357.145C520.19 357.145 519.47 357.01 518.93 356.65L518.495 357.52C519.155 357.925 520.04 358.09 520.985 358.09C523.835 358.09 525.785 356.23 525.785 352.66C525.785 349.345 524.27 347.41 521.48 347.41ZM521.6 352.87C519.98 352.87 518.96 351.985 518.96 350.605C518.96 349.21 520.01 348.325 521.525 348.325C523.34 348.325 524.3 349.42 524.3 350.575C524.3 351.88 523.205 352.87 521.6 352.87Z" fill="white"/>
<path d="M518.041 399.061C518.095 399.155 518.15 399.248 518.205 399.295L523.41 403.735C523.739 404.015 524.232 404.015 524.561 403.735C524.726 403.595 524.78 403.408 524.78 403.221C524.78 403.034 524.726 402.847 524.561 402.707L520.78 399.482L530.917 399.669C531.356 399.669 531.739 399.388 531.739 398.968C531.739 398.594 531.356 398.267 530.917 398.267L520.78 398.126L524.561 394.902C524.89 394.621 524.89 394.201 524.561 393.92C524.232 393.64 523.739 393.64 523.41 393.92L518.26 398.313C518.205 398.36 518.15 398.454 518.095 398.547C518.041 398.641 518.041 398.687 518.041 398.781C517.986 398.921 517.986 399.014 518.041 399.061Z" fill="#6C6C8A"/>
<g filter="url(#filter2_i_59_149)">
<path d="M345 35H134C111.909 35 94 52.9086 94 75V542C94 564.091 111.909 582 134 582H345C367.091 582 385 564.091 385 542V75C385 52.9086 367.091 35 345 35Z" fill="#C2CEDB"/>
</g>
<g filter="url(#filter3_d_59_149)">
<path d="M345 45H134C117.431 45 104 58.4315 104 75V542C104 558.569 117.431 572 134 572H345C361.569 572 375 558.569 375 542V75C375 58.4315 361.569 45 345 45Z" fill="#F2F4F7"/>
</g>
<path d="M345 45H134C117.431 45 104 58.4315 104 75V542C104 558.569 117.431 572 134 572H345C361.569 572 375 558.569 375 542V75C375 58.4315 361.569 45 345 45Z" fill="url(#paint1_linear_59_149)"/>
<path d="M192.779 98.2498H201.089V96.7498H192.779V94.2298C192.779 90.7798 194.729 88.7998 198.749 88.7998C200.849 88.7998 202.679 89.1898 204.119 90.2398L204.929 88.4098C203.309 87.2998 201.359 86.8198 198.929 86.8198C193.469 86.8198 190.589 89.7898 190.589 94.2298V96.7498H187.199V98.2498H190.589V106.08H187.199V108H204.539V106.08H192.779V98.2498ZM213.522 86.9998V88.9198H218.472V108H220.632V86.9998H213.522ZM224.362 86.9998V88.9198H229.312V108H231.472V86.9998H224.362ZM235.892 86.9998V92.8498H238.022V88.9198H248.822L240.182 108H242.522L251.312 88.5298V86.9998H235.892ZM254.196 108.15C255.066 108.15 255.816 107.43 255.816 106.5C255.816 105.57 255.066 104.88 254.196 104.88C253.326 104.88 252.606 105.57 252.606 106.5C252.606 107.43 253.326 108.15 254.196 108.15ZM276.402 100.56H272.202V95.6998H270.102V100.56H260.982L271.722 86.9998H269.322L258.192 100.92V102.48H270.042V108H272.202V102.48H276.402V100.56ZM283.789 95.6098H281.089L281.809 88.9198H291.409V86.9998H279.919L278.839 97.5298H283.309C288.649 97.5298 290.329 99.2098 290.329 101.91C290.329 104.46 288.439 106.2 284.869 106.2C282.169 106.2 279.769 105.18 278.419 103.77L277.369 105.48C278.989 107.13 281.869 108.18 284.899 108.18C290.029 108.18 292.519 105.39 292.519 101.82C292.519 98.0998 290.119 95.6098 283.789 95.6098Z" fill="white"/>
<path d="M355 473H124C122.343 473 121 474.343 121 476V500C121 501.657 122.343 503 124 503H355C356.657 503 358 501.657 358 500V476C358 474.343 356.657 473 355 473Z" fill="#EF6355"/>
<path d="M186.559 493.273L184.567 490.453C185.743 490.033 186.415 489.097 186.415 487.801C186.415 485.977 185.095 484.873 182.911 484.873H179.635V493.273H180.835V490.717H182.911C183.091 490.717 183.271 490.705 183.439 490.693L185.251 493.273H186.559ZM182.875 489.697H180.835V485.917H182.875C184.411 485.917 185.215 486.601 185.215 487.801C185.215 489.001 184.411 489.697 182.875 489.697ZM189.554 492.229V489.517H193.766V488.497H189.554V485.917H194.282V484.873H188.354V493.273H194.45V492.229H189.554ZM204.446 493.357C204.014 493.837 203.51 494.077 202.91 494.077C202.37 494.077 201.866 493.837 201.302 493.237C203.258 492.781 204.602 491.161 204.602 489.073C204.602 486.601 202.706 484.777 200.15 484.777C197.57 484.777 195.674 486.613 195.674 489.073C195.674 491.437 197.426 493.225 199.838 493.357C201.014 494.569 201.842 495.025 202.898 495.025C203.738 495.025 204.47 494.677 205.01 494.041L204.446 493.357ZM196.874 489.073C196.874 487.225 198.266 485.845 200.15 485.845C202.01 485.845 203.402 487.225 203.402 489.073C203.402 490.921 202.01 492.301 200.15 492.301C198.266 492.301 196.874 490.921 196.874 489.073ZM209.916 493.369C212.136 493.369 213.468 492.085 213.468 489.649V484.873H212.304V489.601C212.304 491.461 211.44 492.301 209.928 492.301C208.416 492.301 207.564 491.461 207.564 489.601V484.873H206.364V489.649C206.364 492.085 207.708 493.369 209.916 493.369ZM217.128 492.229V489.517H221.34V488.497H217.128V485.917H221.856V484.873H215.928V493.273H222.024V492.229H217.128ZM226.415 493.369C228.635 493.369 229.667 492.265 229.667 490.981C229.667 487.897 224.579 489.181 224.579 487.129C224.579 486.397 225.191 485.797 226.619 485.797C227.363 485.797 228.191 486.013 228.923 486.481L229.319 485.521C228.623 485.041 227.603 484.777 226.619 484.777C224.411 484.777 223.403 485.881 223.403 487.177C223.403 490.297 228.491 489.001 228.491 491.053C228.491 491.785 227.867 492.349 226.415 492.349C225.335 492.349 224.267 491.941 223.643 491.377L223.199 492.313C223.871 492.937 225.131 493.369 226.415 493.369ZM232.971 493.273H234.159V485.917H237.039V484.873H230.091V485.917H232.971V493.273ZM244.845 484.873H241.569V493.273H242.769V490.729H244.845C247.029 490.729 248.349 489.625 248.349 487.801C248.349 485.977 247.029 484.873 244.845 484.873ZM244.809 489.685H242.769V485.917H244.809C246.345 485.917 247.149 486.601 247.149 487.801C247.149 489.001 246.345 489.685 244.809 489.685ZM255.966 493.273H257.226L253.41 484.873H252.222L248.418 493.273H249.654L250.578 491.173H255.042L255.966 493.273ZM250.998 490.213L252.81 486.097L254.622 490.213H250.998ZM264.527 484.873H263.339L260.639 489.301L257.951 484.873H256.667L260.003 490.345V493.273H261.191V490.369L264.527 484.873ZM274.544 493.273L274.532 484.873H273.548L270.092 490.777L266.588 484.873H265.604V493.273H266.756V487.189L269.792 492.253H270.344L273.38 487.153L273.392 493.273H274.544ZM278.265 492.229V489.517H282.477V488.497H278.265V485.917H282.993V484.873H277.065V493.273H283.161V492.229H278.265ZM291.128 484.873V491.137L286.088 484.873H285.104V493.273H286.304V487.009L291.344 493.273H292.328V484.873H291.128ZM296.51 493.273H297.698V485.917H300.578V484.873H293.63V485.917H296.51V493.273Z" fill="white"/>
<path d="M356 514H125C123.343 514 122 515.343 122 517V541C122 542.657 123.343 544 125 544H356C357.657 544 359 542.657 359 541V517C359 515.343 357.657 514 356 514Z" fill="#324D6A"/>
<path d="M212.134 534.369C214.354 534.369 215.386 533.265 215.386 531.981C215.386 528.897 210.298 530.181 210.298 528.129C210.298 527.397 210.91 526.797 212.338 526.797C213.082 526.797 213.91 527.013 214.642 527.481L215.038 526.521C214.342 526.041 213.322 525.777 212.338 525.777C210.13 525.777 209.122 526.881 209.122 528.177C209.122 531.297 214.21 530.001 214.21 532.053C214.21 532.785 213.586 533.349 212.134 533.349C211.054 533.349 209.986 532.941 209.362 532.377L208.918 533.313C209.59 533.937 210.85 534.369 212.134 534.369ZM220.415 525.873H217.139V534.273H218.339V531.729H220.415C222.599 531.729 223.919 530.625 223.919 528.801C223.919 526.977 222.599 525.873 220.415 525.873ZM220.379 530.685H218.339V526.917H220.379C221.915 526.917 222.719 527.601 222.719 528.801C222.719 530.001 221.915 530.685 220.379 530.685ZM225.682 534.273H231.43V533.229H226.882V525.873H225.682V534.273ZM232.807 534.273H234.007V525.873H232.807V534.273ZM238.19 534.273H239.378V526.917H242.258V525.873H235.31V526.917H238.19V534.273ZM252.439 529.917C253.099 529.593 253.567 528.957 253.567 528.045C253.567 526.689 252.487 525.873 250.555 525.873H246.787V534.273H250.795C252.919 534.273 254.011 533.445 254.011 532.005C254.011 530.889 253.387 530.181 252.439 529.917ZM250.447 526.845C251.671 526.845 252.367 527.301 252.367 528.189C252.367 529.077 251.671 529.533 250.447 529.533H247.987V526.845H250.447ZM250.747 533.301H247.987V530.505H250.747C252.079 530.505 252.799 530.937 252.799 531.909C252.799 532.881 252.079 533.301 250.747 533.301ZM255.869 534.273H257.069V525.873H255.869V534.273ZM259.584 534.273H265.332V533.229H260.784V525.873H259.584V534.273ZM266.709 534.273H272.457V533.229H267.909V525.873H266.709V534.273Z" fill="white"/>
<path d="M197.629 145H198.517V137.368H201.469V136.6H194.677V137.368H197.629V145ZM207.559 141.844C207.559 139.948 206.275 138.64 204.499 138.64C202.723 138.64 201.415 139.972 201.415 141.844C201.415 143.716 202.759 145.06 204.727 145.06C205.723 145.06 206.599 144.7 207.163 144.028L206.683 143.476C206.203 144.028 205.519 144.304 204.751 144.304C203.371 144.304 202.363 143.428 202.267 142.108H207.547C207.547 142.012 207.559 141.916 207.559 141.844ZM204.499 139.372C205.735 139.372 206.635 140.236 206.743 141.472H202.267C202.375 140.236 203.275 139.372 204.499 139.372ZM210.109 139.924V138.688H209.293V145H210.145V141.784C210.145 140.296 210.949 139.456 212.269 139.456C212.329 139.456 212.401 139.468 212.473 139.468V138.64C211.309 138.64 210.505 139.084 210.109 139.924ZM221.888 138.64C220.748 138.64 219.848 139.156 219.392 139.972C219.008 139.084 218.192 138.64 217.148 138.64C216.092 138.64 215.276 139.084 214.832 139.84V138.688H214.016V145H214.868V141.688C214.868 140.248 215.696 139.408 216.98 139.408C218.132 139.408 218.804 140.092 218.804 141.424V145H219.656V141.688C219.656 140.248 220.472 139.408 221.768 139.408C222.908 139.408 223.58 140.092 223.58 141.424V145H224.432V141.34C224.432 139.528 223.424 138.64 221.888 138.64ZM227.175 137.308C227.535 137.308 227.799 137.032 227.799 136.684C227.799 136.36 227.523 136.096 227.175 136.096C226.827 136.096 226.551 136.372 226.551 136.696C226.551 137.032 226.827 137.308 227.175 137.308ZM226.743 145H227.595V138.688H226.743V145ZM233.181 138.64C232.089 138.64 231.237 139.084 230.781 139.852V138.688H229.965V145H230.817V141.688C230.817 140.248 231.669 139.408 233.025 139.408C234.225 139.408 234.921 140.092 234.921 141.424V145H235.773V141.34C235.773 139.528 234.717 138.64 233.181 138.64ZM240.294 138.64C239.298 138.64 238.362 138.952 237.726 139.492L238.11 140.128C238.626 139.672 239.394 139.384 240.21 139.384C241.386 139.384 241.998 139.972 241.998 141.052V141.436H239.994C238.182 141.436 237.558 142.252 237.558 143.224C237.558 144.316 238.434 145.06 239.862 145.06C240.906 145.06 241.65 144.664 242.034 144.016V145H242.85V141.088C242.85 139.456 241.926 138.64 240.294 138.64ZM239.994 144.388C238.986 144.388 238.398 143.932 238.398 143.2C238.398 142.552 238.794 142.072 240.018 142.072H241.998V143.104C241.662 143.932 240.954 144.388 239.994 144.388ZM245.165 145H246.017V136.096H245.165V145ZM248.471 139.948C248.819 139.948 249.119 139.66 249.119 139.288C249.119 138.916 248.819 138.64 248.471 138.64C248.123 138.64 247.835 138.916 247.835 139.288C247.835 139.66 248.123 139.948 248.471 139.948ZM248.471 145.06C248.819 145.06 249.119 144.772 249.119 144.4C249.119 144.028 248.819 143.752 248.471 143.752C248.123 143.752 247.835 144.028 247.835 144.4C247.835 144.772 248.123 145.06 248.471 145.06ZM255.151 145.072C256.759 145.072 257.599 144.196 257.599 142.42V136.6H253.651V137.368H256.723V142.456C256.723 143.692 256.195 144.304 255.163 144.304C254.419 144.304 253.807 143.944 253.351 143.272L252.823 143.872C253.339 144.64 254.203 145.072 255.151 145.072ZM262.291 138.64C261.295 138.64 260.359 138.952 259.723 139.492L260.107 140.128C260.623 139.672 261.391 139.384 262.207 139.384C263.383 139.384 263.995 139.972 263.995 141.052V141.436H261.991C260.179 141.436 259.555 142.252 259.555 143.224C259.555 144.316 260.431 145.06 261.859 145.06C262.903 145.06 263.647 144.664 264.031 144.016V145H264.847V141.088C264.847 139.456 263.923 138.64 262.291 138.64ZM261.991 144.388C260.983 144.388 260.395 143.932 260.395 143.2C260.395 142.552 260.791 142.072 262.015 142.072H263.995V143.104C263.659 143.932 262.951 144.388 261.991 144.388ZM272.092 136.096V139.888C271.564 139.072 270.7 138.64 269.692 138.64C267.892 138.64 266.548 139.936 266.548 141.844C266.548 143.752 267.892 145.06 269.692 145.06C270.736 145.06 271.612 144.604 272.128 143.752V145H272.944V136.096H272.092ZM269.764 144.304C268.42 144.304 267.412 143.32 267.412 141.844C267.412 140.368 268.42 139.384 269.764 139.384C271.096 139.384 272.104 140.368 272.104 141.844C272.104 143.32 271.096 144.304 269.764 144.304ZM280.825 141.844C280.825 139.948 279.541 138.64 277.765 138.64C275.989 138.64 274.681 139.972 274.681 141.844C274.681 143.716 276.025 145.06 277.993 145.06C278.989 145.06 279.865 144.7 280.429 144.028L279.949 143.476C279.469 144.028 278.785 144.304 278.017 144.304C276.637 144.304 275.629 143.428 275.533 142.108H280.813C280.813 142.012 280.825 141.916 280.825 141.844ZM277.765 139.372C279.001 139.372 279.901 140.236 280.009 141.472H275.533C275.641 140.236 276.541 139.372 277.765 139.372Z" fill="#8181A5"/>
<path d="M345 45H134C117.431 45 104 58.4315 104 75V542C104 558.569 117.431 572 134 572H345C361.569 572 375 558.569 375 542V75C375 58.4315 361.569 45 345 45Z" fill="url(#paint2_linear_59_149)" fill-opacity="0.8"/>
<path d="M338 139H143C139.134 139 136 142.134 136 146V442C136 445.866 139.134 449 143 449H338C341.866 449 345 445.866 345 442V146C345 142.134 341.866 139 338 139Z" fill="white"/>
<path d="M172.075 164.51H169.523V163.3H176.057V164.51H173.505V171H172.075V164.51ZM178.167 165.984C178.563 165.368 179.26 165.06 180.257 165.06V166.369C180.14 166.347 180.033 166.336 179.938 166.336C179.403 166.336 178.985 166.494 178.684 166.809C178.383 167.117 178.233 167.564 178.233 168.151V171H176.858V165.126H178.167V165.984ZM183.635 165.06C184.501 165.06 185.161 165.269 185.615 165.687C186.077 166.098 186.308 166.721 186.308 167.557V171H185.01V170.285C184.842 170.542 184.6 170.74 184.284 170.879C183.976 171.011 183.602 171.077 183.162 171.077C182.722 171.077 182.337 171.004 182.007 170.857C181.677 170.703 181.421 170.494 181.237 170.23C181.061 169.959 180.973 169.654 180.973 169.317C180.973 168.789 181.168 168.367 181.556 168.052C181.952 167.729 182.572 167.568 183.415 167.568H184.933V167.48C184.933 167.069 184.809 166.754 184.559 166.534C184.317 166.314 183.954 166.204 183.47 166.204C183.14 166.204 182.814 166.255 182.491 166.358C182.176 166.461 181.908 166.604 181.688 166.787L181.149 165.786C181.457 165.551 181.828 165.372 182.26 165.247C182.693 165.122 183.151 165.06 183.635 165.06ZM183.448 170.076C183.793 170.076 184.097 169.999 184.361 169.845C184.633 169.684 184.823 169.456 184.933 169.163V168.481H183.514C182.722 168.481 182.326 168.741 182.326 169.262C182.326 169.511 182.425 169.709 182.623 169.856C182.821 170.003 183.096 170.076 183.448 170.076ZM191.406 165.06C192.147 165.06 192.741 165.276 193.188 165.709C193.635 166.142 193.859 166.783 193.859 167.634V171H192.484V167.81C192.484 167.297 192.363 166.912 192.121 166.655C191.879 166.391 191.534 166.259 191.087 166.259C190.581 166.259 190.181 166.413 189.888 166.721C189.595 167.022 189.448 167.458 189.448 168.03V171H188.073V165.126H189.382V165.885C189.609 165.614 189.895 165.408 190.24 165.269C190.585 165.13 190.973 165.06 191.406 165.06ZM197.418 171.077C196.942 171.077 196.476 171.015 196.021 170.89C195.567 170.765 195.204 170.608 194.932 170.417L195.46 169.372C195.724 169.548 196.04 169.691 196.406 169.801C196.78 169.904 197.147 169.955 197.506 169.955C198.328 169.955 198.738 169.739 198.738 169.306C198.738 169.101 198.632 168.958 198.419 168.877C198.214 168.796 197.88 168.719 197.418 168.646C196.934 168.573 196.538 168.488 196.23 168.393C195.93 168.298 195.666 168.133 195.438 167.898C195.218 167.656 195.108 167.322 195.108 166.897C195.108 166.34 195.339 165.896 195.801 165.566C196.271 165.229 196.901 165.06 197.693 165.06C198.097 165.06 198.5 165.108 198.903 165.203C199.307 165.291 199.637 165.412 199.893 165.566L199.365 166.611C198.867 166.318 198.306 166.171 197.682 166.171C197.279 166.171 196.971 166.233 196.758 166.358C196.553 166.475 196.45 166.633 196.45 166.831C196.45 167.051 196.56 167.209 196.78 167.304C197.008 167.392 197.356 167.476 197.825 167.557C198.295 167.63 198.68 167.715 198.98 167.81C199.281 167.905 199.538 168.067 199.75 168.294C199.97 168.521 200.08 168.844 200.08 169.262C200.08 169.812 199.842 170.252 199.365 170.582C198.889 170.912 198.24 171.077 197.418 171.077ZM203.508 165.06C204.374 165.06 205.034 165.269 205.488 165.687C205.95 166.098 206.181 166.721 206.181 167.557V171H204.883V170.285C204.715 170.542 204.473 170.74 204.157 170.879C203.849 171.011 203.475 171.077 203.035 171.077C202.595 171.077 202.21 171.004 201.88 170.857C201.55 170.703 201.294 170.494 201.11 170.23C200.934 169.959 200.846 169.654 200.846 169.317C200.846 168.789 201.041 168.367 201.429 168.052C201.825 167.729 202.445 167.568 203.288 167.568H204.806V167.48C204.806 167.069 204.682 166.754 204.432 166.534C204.19 166.314 203.827 166.204 203.343 166.204C203.013 166.204 202.687 166.255 202.364 166.358C202.049 166.461 201.781 166.604 201.561 166.787L201.022 165.786C201.33 165.551 201.701 165.372 202.133 165.247C202.566 165.122 203.024 165.06 203.508 165.06ZM203.321 170.076C203.666 170.076 203.97 169.999 204.234 169.845C204.506 169.684 204.696 169.456 204.806 169.163V168.481H203.387C202.595 168.481 202.199 168.741 202.199 169.262C202.199 169.511 202.298 169.709 202.496 169.856C202.694 170.003 202.969 170.076 203.321 170.076ZM210.695 171.077C210.086 171.077 209.54 170.949 209.056 170.692C208.572 170.435 208.194 170.08 207.923 169.625C207.651 169.163 207.516 168.642 207.516 168.063C207.516 167.484 207.651 166.967 207.923 166.512C208.194 166.057 208.568 165.702 209.045 165.445C209.529 165.188 210.079 165.06 210.695 165.06C211.274 165.06 211.78 165.177 212.213 165.412C212.653 165.647 212.983 165.984 213.203 166.424L212.147 167.04C211.978 166.769 211.765 166.567 211.509 166.435C211.259 166.296 210.984 166.226 210.684 166.226C210.17 166.226 209.745 166.395 209.408 166.732C209.07 167.062 208.902 167.506 208.902 168.063C208.902 168.62 209.067 169.068 209.397 169.405C209.734 169.735 210.163 169.9 210.684 169.9C210.984 169.9 211.259 169.834 211.509 169.702C211.765 169.563 211.978 169.357 212.147 169.086L213.203 169.702C212.975 170.142 212.642 170.483 212.202 170.725C211.769 170.96 211.267 171.077 210.695 171.077ZM217.997 170.681C217.836 170.813 217.638 170.912 217.403 170.978C217.176 171.044 216.934 171.077 216.677 171.077C216.032 171.077 215.533 170.908 215.181 170.571C214.829 170.234 214.653 169.742 214.653 169.097V166.27H213.685V165.17H214.653V163.828H216.028V165.17H217.601V166.27H216.028V169.064C216.028 169.35 216.098 169.57 216.237 169.724C216.377 169.871 216.578 169.944 216.842 169.944C217.15 169.944 217.407 169.863 217.612 169.702L217.997 170.681ZM219.129 165.126H220.504V171H219.129V165.126ZM219.822 164.158C219.572 164.158 219.363 164.081 219.195 163.927C219.026 163.766 218.942 163.568 218.942 163.333C218.942 163.098 219.026 162.904 219.195 162.75C219.363 162.589 219.572 162.508 219.822 162.508C220.071 162.508 220.28 162.585 220.449 162.739C220.617 162.886 220.702 163.073 220.702 163.3C220.702 163.542 220.617 163.747 220.449 163.916C220.287 164.077 220.078 164.158 219.822 164.158ZM224.948 171.077C224.354 171.077 223.819 170.949 223.342 170.692C222.866 170.435 222.492 170.08 222.22 169.625C221.956 169.163 221.824 168.642 221.824 168.063C221.824 167.484 221.956 166.967 222.22 166.512C222.492 166.057 222.866 165.702 223.342 165.445C223.819 165.188 224.354 165.06 224.948 165.06C225.55 165.06 226.089 165.188 226.565 165.445C227.042 165.702 227.412 166.057 227.676 166.512C227.948 166.967 228.083 167.484 228.083 168.063C228.083 168.642 227.948 169.163 227.676 169.625C227.412 170.08 227.042 170.435 226.565 170.692C226.089 170.949 225.55 171.077 224.948 171.077ZM224.948 169.9C225.454 169.9 225.872 169.731 226.202 169.394C226.532 169.057 226.697 168.613 226.697 168.063C226.697 167.513 226.532 167.069 226.202 166.732C225.872 166.395 225.454 166.226 224.948 166.226C224.442 166.226 224.024 166.395 223.694 166.732C223.372 167.069 223.21 167.513 223.21 168.063C223.21 168.613 223.372 169.057 223.694 169.394C224.024 169.731 224.442 169.9 224.948 169.9ZM232.731 165.06C233.472 165.06 234.066 165.276 234.513 165.709C234.96 166.142 235.184 166.783 235.184 167.634V171H233.809V167.81C233.809 167.297 233.688 166.912 233.446 166.655C233.204 166.391 232.859 166.259 232.412 166.259C231.906 166.259 231.506 166.413 231.213 166.721C230.92 167.022 230.773 167.458 230.773 168.03V171H229.398V165.126H230.707V165.885C230.934 165.614 231.22 165.408 231.565 165.269C231.91 165.13 232.298 165.06 232.731 165.06ZM239.968 165.126H241.343V171H239.968V165.126ZM240.661 164.158C240.412 164.158 240.203 164.081 240.034 163.927C239.866 163.766 239.781 163.568 239.781 163.333C239.781 163.098 239.866 162.904 240.034 162.75C240.203 162.589 240.412 162.508 240.661 162.508C240.911 162.508 241.12 162.585 241.288 162.739C241.457 162.886 241.541 163.073 241.541 163.3C241.541 163.542 241.457 163.747 241.288 163.916C241.127 164.077 240.918 164.158 240.661 164.158ZM244.963 171.077C244.486 171.077 244.021 171.015 243.566 170.89C243.111 170.765 242.748 170.608 242.477 170.417L243.005 169.372C243.269 169.548 243.584 169.691 243.951 169.801C244.325 169.904 244.692 169.955 245.051 169.955C245.872 169.955 246.283 169.739 246.283 169.306C246.283 169.101 246.177 168.958 245.964 168.877C245.759 168.796 245.425 168.719 244.963 168.646C244.479 168.573 244.083 168.488 243.775 168.393C243.474 168.298 243.21 168.133 242.983 167.898C242.763 167.656 242.653 167.322 242.653 166.897C242.653 166.34 242.884 165.896 243.346 165.566C243.815 165.229 244.446 165.06 245.238 165.06C245.641 165.06 246.045 165.108 246.448 165.203C246.851 165.291 247.181 165.412 247.438 165.566L246.91 166.611C246.411 166.318 245.85 166.171 245.227 166.171C244.824 166.171 244.516 166.233 244.303 166.358C244.098 166.475 243.995 166.633 243.995 166.831C243.995 167.051 244.105 167.209 244.325 167.304C244.552 167.392 244.901 167.476 245.37 167.557C245.839 167.63 246.224 167.715 246.525 167.81C246.826 167.905 247.082 168.067 247.295 168.294C247.515 168.521 247.625 168.844 247.625 169.262C247.625 169.812 247.387 170.252 246.91 170.582C246.433 170.912 245.784 171.077 244.963 171.077ZM261.012 165.126L258.845 171H257.525L256.007 166.952L254.467 171H253.147L250.991 165.126H252.289L253.84 169.46L255.457 165.126H256.612L258.196 169.482L259.791 165.126H261.012ZM264.019 165.06C264.884 165.06 265.544 165.269 265.999 165.687C266.461 166.098 266.692 166.721 266.692 167.557V171H265.394V170.285C265.225 170.542 264.983 170.74 264.668 170.879C264.36 171.011 263.986 171.077 263.546 171.077C263.106 171.077 262.721 171.004 262.391 170.857C262.061 170.703 261.804 170.494 261.621 170.23C261.445 169.959 261.357 169.654 261.357 169.317C261.357 168.789 261.551 168.367 261.94 168.052C262.336 167.729 262.956 167.568 263.799 167.568H265.317V167.48C265.317 167.069 265.192 166.754 264.943 166.534C264.701 166.314 264.338 166.204 263.854 166.204C263.524 166.204 263.198 166.255 262.875 166.358C262.56 166.461 262.292 166.604 262.072 166.787L261.533 165.786C261.841 165.551 262.211 165.372 262.644 165.247C263.077 165.122 263.535 165.06 264.019 165.06ZM263.832 170.076C264.177 170.076 264.481 169.999 264.745 169.845C265.016 169.684 265.207 169.456 265.317 169.163V168.481H263.898C263.106 168.481 262.71 168.741 262.71 169.262C262.71 169.511 262.809 169.709 263.007 169.856C263.205 170.003 263.48 170.076 263.832 170.076ZM268.457 165.126H269.832V171H268.457V165.126ZM269.15 164.158C268.9 164.158 268.691 164.081 268.523 163.927C268.354 163.766 268.27 163.568 268.27 163.333C268.27 163.098 268.354 162.904 268.523 162.75C268.691 162.589 268.9 162.508 269.15 162.508C269.399 162.508 269.608 162.585 269.777 162.739C269.945 162.886 270.03 163.073 270.03 163.3C270.03 163.542 269.945 163.747 269.777 163.916C269.615 164.077 269.406 164.158 269.15 164.158ZM275.167 170.681C275.006 170.813 274.808 170.912 274.573 170.978C274.346 171.044 274.104 171.077 273.847 171.077C273.202 171.077 272.703 170.908 272.351 170.571C271.999 170.234 271.823 169.742 271.823 169.097V166.27H270.855V165.17H271.823V163.828H273.198V165.17H274.771V166.27H273.198V169.064C273.198 169.35 273.268 169.57 273.407 169.724C273.547 169.871 273.748 169.944 274.012 169.944C274.32 169.944 274.577 169.863 274.782 169.702L275.167 170.681ZM276.298 165.126H277.673V171H276.298V165.126ZM276.991 164.158C276.742 164.158 276.533 164.081 276.364 163.927C276.196 163.766 276.111 163.568 276.111 163.333C276.111 163.098 276.196 162.904 276.364 162.75C276.533 162.589 276.742 162.508 276.991 162.508C277.241 162.508 277.45 162.585 277.618 162.739C277.787 162.886 277.871 163.073 277.871 163.3C277.871 163.542 277.787 163.747 277.618 163.916C277.457 164.077 277.248 164.158 276.991 164.158ZM282.811 165.06C283.552 165.06 284.146 165.276 284.593 165.709C285.041 166.142 285.264 166.783 285.264 167.634V171H283.889V167.81C283.889 167.297 283.768 166.912 283.526 166.655C283.284 166.391 282.94 166.259 282.492 166.259C281.986 166.259 281.587 166.413 281.293 166.721C281 167.022 280.853 167.458 280.853 168.03V171H279.478V165.126H280.787V165.885C281.015 165.614 281.301 165.408 281.645 165.269C281.99 165.13 282.379 165.06 282.811 165.06ZM292.892 165.126V170.109C292.892 172.177 291.836 173.211 289.724 173.211C289.159 173.211 288.624 173.138 288.118 172.991C287.612 172.852 287.194 172.646 286.864 172.375L287.48 171.341C287.737 171.554 288.059 171.722 288.448 171.847C288.844 171.979 289.244 172.045 289.647 172.045C290.292 172.045 290.765 171.898 291.066 171.605C291.367 171.312 291.517 170.864 291.517 170.263V169.955C291.282 170.212 290.996 170.406 290.659 170.538C290.322 170.67 289.951 170.736 289.548 170.736C288.991 170.736 288.485 170.619 288.03 170.384C287.583 170.142 287.227 169.805 286.963 169.372C286.706 168.939 286.578 168.444 286.578 167.887C286.578 167.33 286.706 166.838 286.963 166.413C287.227 165.98 287.583 165.647 288.03 165.412C288.485 165.177 288.991 165.06 289.548 165.06C289.973 165.06 290.358 165.13 290.703 165.269C291.055 165.408 291.348 165.621 291.583 165.907V165.126H292.892ZM289.757 169.57C290.278 169.57 290.703 169.416 291.033 169.108C291.37 168.793 291.539 168.386 291.539 167.887C291.539 167.396 291.37 166.996 291.033 166.688C290.703 166.38 290.278 166.226 289.757 166.226C289.229 166.226 288.796 166.38 288.459 166.688C288.129 166.996 287.964 167.396 287.964 167.887C287.964 168.386 288.129 168.793 288.459 169.108C288.796 169.416 289.229 169.57 289.757 169.57ZM300.127 163.872C299.548 163.872 299.258 164.187 299.258 164.818V165.17H300.875V166.27H299.302V171H297.927V166.27H296.959V165.17H297.927V164.796C297.927 164.165 298.11 163.67 298.477 163.311C298.844 162.944 299.361 162.761 300.028 162.761C300.556 162.761 300.97 162.867 301.271 163.08L300.886 164.114C300.651 163.953 300.398 163.872 300.127 163.872ZM304.355 171.077C303.761 171.077 303.225 170.949 302.749 170.692C302.272 170.435 301.898 170.08 301.627 169.625C301.363 169.163 301.231 168.642 301.231 168.063C301.231 167.484 301.363 166.967 301.627 166.512C301.898 166.057 302.272 165.702 302.749 165.445C303.225 165.188 303.761 165.06 304.355 165.06C304.956 165.06 305.495 165.188 305.972 165.445C306.448 165.702 306.819 166.057 307.083 166.512C307.354 166.967 307.49 167.484 307.49 168.063C307.49 168.642 307.354 169.163 307.083 169.625C306.819 170.08 306.448 170.435 305.972 170.692C305.495 170.949 304.956 171.077 304.355 171.077ZM304.355 169.9C304.861 169.9 305.279 169.731 305.609 169.394C305.939 169.057 306.104 168.613 306.104 168.063C306.104 167.513 305.939 167.069 305.609 166.732C305.279 166.395 304.861 166.226 304.355 166.226C303.849 166.226 303.431 166.395 303.101 166.732C302.778 167.069 302.617 167.513 302.617 168.063C302.617 168.613 302.778 169.057 303.101 169.394C303.431 169.731 303.849 169.9 304.355 169.9ZM310.113 165.984C310.509 165.368 311.206 165.06 312.203 165.06V166.369C312.086 166.347 311.98 166.336 311.884 166.336C311.349 166.336 310.931 166.494 310.63 166.809C310.33 167.117 310.179 167.564 310.179 168.151V171H308.804V165.126H310.113V165.984ZM207.271 185.681C207.11 185.813 206.912 185.912 206.677 185.978C206.45 186.044 206.208 186.077 205.951 186.077C205.306 186.077 204.807 185.908 204.455 185.571C204.103 185.234 203.927 184.742 203.927 184.097V181.27H202.959V180.17H203.927V178.828H205.302V180.17H206.875V181.27H205.302V184.064C205.302 184.35 205.372 184.57 205.511 184.724C205.651 184.871 205.852 184.944 206.116 184.944C206.424 184.944 206.681 184.863 206.886 184.702L207.271 185.681ZM211.735 180.06C212.476 180.06 213.07 180.276 213.517 180.709C213.965 181.142 214.188 181.783 214.188 182.634V186H212.813V182.81C212.813 182.297 212.692 181.912 212.45 181.655C212.208 181.391 211.864 181.259 211.416 181.259C210.91 181.259 210.511 181.413 210.217 181.721C209.924 182.022 209.777 182.458 209.777 183.03V186H208.402V177.838H209.777V180.808C210.005 180.566 210.283 180.383 210.613 180.258C210.951 180.126 211.325 180.06 211.735 180.06ZM221.508 183.096C221.508 183.191 221.501 183.327 221.486 183.503H216.877C216.958 183.936 217.167 184.28 217.504 184.537C217.849 184.786 218.274 184.911 218.78 184.911C219.426 184.911 219.957 184.698 220.375 184.273L221.112 185.12C220.848 185.435 220.515 185.674 220.111 185.835C219.708 185.996 219.253 186.077 218.747 186.077C218.102 186.077 217.534 185.949 217.042 185.692C216.551 185.435 216.17 185.08 215.898 184.625C215.634 184.163 215.502 183.642 215.502 183.063C215.502 182.491 215.631 181.978 215.887 181.523C216.151 181.061 216.514 180.702 216.976 180.445C217.438 180.188 217.959 180.06 218.538 180.06C219.11 180.06 219.62 180.188 220.067 180.445C220.522 180.694 220.874 181.05 221.123 181.512C221.38 181.967 221.508 182.495 221.508 183.096ZM218.538 181.16C218.098 181.16 217.724 181.292 217.416 181.556C217.116 181.813 216.932 182.157 216.866 182.59H220.199C220.141 182.165 219.961 181.82 219.66 181.556C219.36 181.292 218.986 181.16 218.538 181.16ZM228.564 186.077C227.956 186.077 227.409 185.949 226.925 185.692C226.441 185.435 226.064 185.08 225.792 184.625C225.521 184.163 225.385 183.642 225.385 183.063C225.385 182.484 225.521 181.967 225.792 181.512C226.064 181.057 226.438 180.702 226.914 180.445C227.398 180.188 227.948 180.06 228.564 180.06C229.144 180.06 229.65 180.177 230.082 180.412C230.522 180.647 230.852 180.984 231.072 181.424L230.016 182.04C229.848 181.769 229.635 181.567 229.378 181.435C229.129 181.296 228.854 181.226 228.553 181.226C228.04 181.226 227.615 181.395 227.277 181.732C226.94 182.062 226.771 182.506 226.771 183.063C226.771 183.62 226.936 184.068 227.266 184.405C227.604 184.735 228.033 184.9 228.553 184.9C228.854 184.9 229.129 184.834 229.378 184.702C229.635 184.563 229.848 184.357 230.016 184.086L231.072 184.702C230.845 185.142 230.511 185.483 230.071 185.725C229.639 185.96 229.136 186.077 228.564 186.077ZM237.948 180.126V186H236.639V185.252C236.419 185.516 236.144 185.721 235.814 185.868C235.484 186.007 235.128 186.077 234.747 186.077C233.962 186.077 233.343 185.861 232.888 185.428C232.441 184.988 232.217 184.339 232.217 183.481V180.126H233.592V183.294C233.592 183.822 233.709 184.218 233.944 184.482C234.186 184.739 234.527 184.867 234.967 184.867C235.458 184.867 235.847 184.717 236.133 184.416C236.426 184.108 236.573 183.668 236.573 183.096V180.126H237.948ZM241.563 186.077C241.087 186.077 240.621 186.015 240.166 185.89C239.712 185.765 239.349 185.608 239.077 185.417L239.605 184.372C239.869 184.548 240.185 184.691 240.551 184.801C240.925 184.904 241.292 184.955 241.651 184.955C242.473 184.955 242.883 184.739 242.883 184.306C242.883 184.101 242.777 183.958 242.564 183.877C242.359 183.796 242.025 183.719 241.563 183.646C241.079 183.573 240.683 183.488 240.375 183.393C240.075 183.298 239.811 183.133 239.583 182.898C239.363 182.656 239.253 182.322 239.253 181.897C239.253 181.34 239.484 180.896 239.946 180.566C240.416 180.229 241.046 180.06 241.838 180.06C242.242 180.06 242.645 180.108 243.048 180.203C243.452 180.291 243.782 180.412 244.038 180.566L243.51 181.611C243.012 181.318 242.451 181.171 241.827 181.171C241.424 181.171 241.116 181.233 240.903 181.358C240.698 181.475 240.595 181.633 240.595 181.831C240.595 182.051 240.705 182.209 240.925 182.304C241.153 182.392 241.501 182.476 241.97 182.557C242.44 182.63 242.825 182.715 243.125 182.81C243.426 182.905 243.683 183.067 243.895 183.294C244.115 183.521 244.225 183.844 244.225 184.262C244.225 184.812 243.987 185.252 243.51 185.582C243.034 185.912 242.385 186.077 241.563 186.077ZM248.94 185.681C248.779 185.813 248.581 185.912 248.346 185.978C248.119 186.044 247.877 186.077 247.62 186.077C246.975 186.077 246.476 185.908 246.124 185.571C245.772 185.234 245.596 184.742 245.596 184.097V181.27H244.628V180.17H245.596V178.828H246.971V180.17H248.544V181.27H246.971V184.064C246.971 184.35 247.041 184.57 247.18 184.724C247.32 184.871 247.521 184.944 247.785 184.944C248.093 184.944 248.35 184.863 248.555 184.702L248.94 185.681ZM252.518 186.077C251.924 186.077 251.389 185.949 250.912 185.692C250.435 185.435 250.061 185.08 249.79 184.625C249.526 184.163 249.394 183.642 249.394 183.063C249.394 182.484 249.526 181.967 249.79 181.512C250.061 181.057 250.435 180.702 250.912 180.445C251.389 180.188 251.924 180.06 252.518 180.06C253.119 180.06 253.658 180.188 254.135 180.445C254.612 180.702 254.982 181.057 255.246 181.512C255.517 181.967 255.653 182.484 255.653 183.063C255.653 183.642 255.517 184.163 255.246 184.625C254.982 185.08 254.612 185.435 254.135 185.692C253.658 185.949 253.119 186.077 252.518 186.077ZM252.518 184.9C253.024 184.9 253.442 184.731 253.772 184.394C254.102 184.057 254.267 183.613 254.267 183.063C254.267 182.513 254.102 182.069 253.772 181.732C253.442 181.395 253.024 181.226 252.518 181.226C252.012 181.226 251.594 181.395 251.264 181.732C250.941 182.069 250.78 182.513 250.78 183.063C250.78 183.613 250.941 184.057 251.264 184.394C251.594 184.731 252.012 184.9 252.518 184.9ZM264.382 180.06C265.123 180.06 265.709 180.276 266.142 180.709C266.575 181.134 266.791 181.776 266.791 182.634V186H265.416V182.81C265.416 182.297 265.302 181.912 265.075 181.655C264.848 181.391 264.521 181.259 264.096 181.259C263.634 181.259 263.264 181.413 262.985 181.721C262.706 182.022 262.567 182.454 262.567 183.019V186H261.192V182.81C261.192 182.297 261.078 181.912 260.851 181.655C260.624 181.391 260.297 181.259 259.872 181.259C259.403 181.259 259.029 181.409 258.75 181.71C258.479 182.011 258.343 182.447 258.343 183.019V186H256.968V180.126H258.277V180.874C258.497 180.61 258.772 180.408 259.102 180.269C259.432 180.13 259.799 180.06 260.202 180.06C260.642 180.06 261.031 180.144 261.368 180.313C261.713 180.474 261.984 180.716 262.182 181.039C262.424 180.731 262.736 180.493 263.117 180.324C263.498 180.148 263.92 180.06 264.382 180.06ZM274.124 183.096C274.124 183.191 274.116 183.327 274.102 183.503H269.493C269.573 183.936 269.782 184.28 270.12 184.537C270.464 184.786 270.89 184.911 271.396 184.911C272.041 184.911 272.573 184.698 272.991 184.273L273.728 185.12C273.464 185.435 273.13 185.674 272.727 185.835C272.323 185.996 271.869 186.077 271.363 186.077C270.717 186.077 270.149 185.949 269.658 185.692C269.166 185.435 268.785 185.08 268.514 184.625C268.25 184.163 268.118 183.642 268.118 183.063C268.118 182.491 268.246 181.978 268.503 181.523C268.767 181.061 269.13 180.702 269.592 180.445C270.054 180.188 270.574 180.06 271.154 180.06C271.726 180.06 272.235 180.188 272.683 180.445C273.137 180.694 273.489 181.05 273.739 181.512C273.995 181.967 274.124 182.495 274.124 183.096ZM271.154 181.16C270.714 181.16 270.34 181.292 270.032 181.556C269.731 181.813 269.548 182.157 269.482 182.59H272.815C272.756 182.165 272.576 181.82 272.276 181.556C271.975 181.292 271.601 181.16 271.154 181.16ZM276.753 180.984C277.149 180.368 277.846 180.06 278.843 180.06V181.369C278.726 181.347 278.62 181.336 278.524 181.336C277.989 181.336 277.571 181.494 277.27 181.809C276.97 182.117 276.819 182.564 276.819 183.151V186H275.444V180.126H276.753V180.984Z" fill="#13273F"/>
<path d="M161.061 383.075H156.969L156.122 385H154.989L158.476 377.3H159.565L163.063 385H161.908L161.061 383.075ZM160.676 382.195L159.015 378.422L157.354 382.195H160.676ZM171.351 379.115C172.084 379.115 172.663 379.328 173.089 379.753C173.521 380.178 173.738 380.809 173.738 381.645V385H172.682V381.766C172.682 381.201 172.55 380.776 172.286 380.49C172.029 380.204 171.659 380.061 171.175 380.061C170.639 380.061 170.214 380.23 169.899 380.567C169.583 380.897 169.426 381.374 169.426 381.997V385H168.37V381.766C168.37 381.201 168.238 380.776 167.974 380.49C167.717 380.204 167.347 380.061 166.863 380.061C166.327 380.061 165.902 380.23 165.587 380.567C165.271 380.897 165.114 381.374 165.114 381.997V385H164.058V379.17H165.07V380.039C165.282 379.738 165.561 379.511 165.906 379.357C166.25 379.196 166.643 379.115 167.083 379.115C167.537 379.115 167.941 379.207 168.293 379.39C168.645 379.573 168.916 379.841 169.107 380.193C169.327 379.856 169.631 379.592 170.02 379.401C170.416 379.21 170.859 379.115 171.351 379.115ZM178.21 385.066C177.631 385.066 177.11 384.938 176.648 384.681C176.186 384.424 175.823 384.072 175.559 383.625C175.302 383.17 175.174 382.657 175.174 382.085C175.174 381.513 175.302 381.003 175.559 380.556C175.823 380.101 176.186 379.749 176.648 379.5C177.11 379.243 177.631 379.115 178.21 379.115C178.789 379.115 179.306 379.243 179.761 379.5C180.223 379.749 180.582 380.101 180.839 380.556C181.103 381.003 181.235 381.513 181.235 382.085C181.235 382.657 181.103 383.17 180.839 383.625C180.582 384.072 180.223 384.424 179.761 384.681C179.306 384.938 178.789 385.066 178.21 385.066ZM178.21 384.142C178.584 384.142 178.918 384.058 179.211 383.889C179.512 383.713 179.746 383.471 179.915 383.163C180.084 382.848 180.168 382.488 180.168 382.085C180.168 381.682 180.084 381.326 179.915 381.018C179.746 380.703 179.512 380.461 179.211 380.292C178.918 380.123 178.584 380.039 178.21 380.039C177.836 380.039 177.499 380.123 177.198 380.292C176.905 380.461 176.67 380.703 176.494 381.018C176.325 381.326 176.241 381.682 176.241 382.085C176.241 382.488 176.325 382.848 176.494 383.163C176.67 383.471 176.905 383.713 177.198 383.889C177.499 384.058 177.836 384.142 178.21 384.142ZM188.129 379.17V385H187.128V384.12C186.916 384.421 186.633 384.655 186.281 384.824C185.937 384.985 185.559 385.066 185.148 385.066C184.371 385.066 183.759 384.853 183.311 384.428C182.864 383.995 182.64 383.361 182.64 382.525V379.17H183.696V382.404C183.696 382.969 183.832 383.398 184.103 383.691C184.375 383.977 184.763 384.12 185.269 384.12C185.827 384.12 186.267 383.951 186.589 383.614C186.912 383.277 187.073 382.8 187.073 382.184V379.17H188.129ZM193.253 379.115C193.993 379.115 194.58 379.331 195.013 379.764C195.453 380.189 195.673 380.816 195.673 381.645V385H194.617V381.766C194.617 381.201 194.481 380.776 194.21 380.49C193.938 380.204 193.55 380.061 193.044 380.061C192.472 380.061 192.021 380.23 191.691 380.567C191.361 380.897 191.196 381.374 191.196 381.997V385H190.14V379.17H191.152V380.05C191.364 379.749 191.65 379.518 192.01 379.357C192.376 379.196 192.791 379.115 193.253 379.115ZM200.905 384.659C200.751 384.791 200.56 384.894 200.333 384.967C200.106 385.033 199.871 385.066 199.629 385.066C199.042 385.066 198.588 384.908 198.265 384.593C197.942 384.278 197.781 383.827 197.781 383.24V380.039H196.791V379.17H197.781V377.894H198.837V379.17H200.509V380.039H198.837V383.196C198.837 383.511 198.914 383.753 199.068 383.922C199.229 384.091 199.457 384.175 199.75 384.175C200.073 384.175 200.348 384.083 200.575 383.9L200.905 384.659Z" fill="#8181A5"/>
<path d="M289.633 383.801H293.604V385H287.048V383.801H288.203V381.601H287.048V380.699H288.203V380.193C288.203 379.584 288.335 379.056 288.599 378.609C288.87 378.154 289.262 377.806 289.776 377.564C290.289 377.315 290.905 377.19 291.624 377.19C292.496 377.19 293.219 377.362 293.791 377.707L293.34 378.873C292.892 378.587 292.295 378.444 291.547 378.444C290.923 378.444 290.447 378.594 290.117 378.895C289.794 379.188 289.633 379.617 289.633 380.182V380.699H292.416V381.601H289.633V383.801ZM300.133 377.3V385H298.703V378.499H297.075V377.3H300.133ZM304.323 377.3V385H302.893V378.499H301.265V377.3H304.323ZM311.658 377.3V378.257L308.666 385H307.137L310.03 378.51H307.005V379.819H305.674V377.3H311.658ZM312.853 385.077C312.603 385.077 312.391 384.993 312.215 384.824C312.039 384.648 311.951 384.428 311.951 384.164C311.951 383.893 312.035 383.673 312.204 383.504C312.38 383.335 312.596 383.251 312.853 383.251C313.109 383.251 313.322 383.335 313.491 383.504C313.667 383.673 313.755 383.893 313.755 384.164C313.755 384.428 313.667 384.648 313.491 384.824C313.315 384.993 313.102 385.077 312.853 385.077ZM321.491 383.251H320.127V385H318.741V383.251H314.517V382.261L318.312 377.3H319.841L316.266 382.041H318.785V380.49H320.127V382.041H321.491V383.251ZM324.469 380.281C325.555 380.281 326.358 380.494 326.878 380.919C327.399 381.337 327.659 381.909 327.659 382.635C327.659 383.097 327.546 383.515 327.318 383.889C327.091 384.263 326.75 384.56 326.295 384.78C325.841 385 325.28 385.11 324.612 385.11C324.062 385.11 323.531 385.033 323.017 384.879C322.504 384.718 322.071 384.498 321.719 384.219L322.324 383.108C322.61 383.343 322.951 383.53 323.347 383.669C323.751 383.801 324.165 383.867 324.59 383.867C325.096 383.867 325.492 383.764 325.778 383.559C326.072 383.346 326.218 383.057 326.218 382.69C326.218 382.294 326.061 381.997 325.745 381.799C325.437 381.594 324.906 381.491 324.15 381.491H322.291L322.687 377.3H327.208V378.499H323.897L323.732 380.281H324.469Z" fill="#6C6C8A"/>
<path d="M325 398H157C155.343 398 154 399.343 154 401V430C154 431.657 155.343 433 157 433H325C326.657 433 328 431.657 328 430V401C328 399.343 326.657 398 325 398Z" fill="#324D6A"/>
<path d="M222.798 418.088C222.028 418.088 221.332 417.919 220.708 417.582C220.092 417.237 219.608 416.768 219.256 416.174C218.904 415.573 218.728 414.898 218.728 414.15C218.728 413.402 218.904 412.731 219.256 412.137C219.608 411.536 220.096 411.066 220.719 410.729C221.343 410.384 222.039 410.212 222.809 410.212C223.411 410.212 223.961 410.315 224.459 410.52C224.958 410.718 225.383 411.015 225.735 411.411L225.02 412.104C224.441 411.495 223.719 411.191 222.853 411.191C222.281 411.191 221.764 411.319 221.302 411.576C220.84 411.833 220.477 412.188 220.213 412.643C219.957 413.09 219.828 413.593 219.828 414.15C219.828 414.707 219.957 415.213 220.213 415.668C220.477 416.115 220.84 416.467 221.302 416.724C221.764 416.981 222.281 417.109 222.853 417.109C223.711 417.109 224.434 416.801 225.02 416.185L225.735 416.878C225.383 417.274 224.954 417.575 224.448 417.78C223.95 417.985 223.4 418.088 222.798 418.088ZM232.028 416.075H227.936L227.089 418H225.956L229.443 410.3H230.532L234.03 418H232.875L232.028 416.075ZM231.643 415.195L229.982 411.422L228.321 415.195H231.643ZM241.8 410.3V418H240.898L236.278 412.258V418H235.178V410.3H236.08L240.7 416.042V410.3H241.8ZM247.548 418.088C246.778 418.088 246.082 417.919 245.458 417.582C244.842 417.237 244.358 416.768 244.006 416.174C243.654 415.573 243.478 414.898 243.478 414.15C243.478 413.402 243.654 412.731 244.006 412.137C244.358 411.536 244.846 411.066 245.469 410.729C246.093 410.384 246.789 410.212 247.559 410.212C248.161 410.212 248.711 410.315 249.209 410.52C249.708 410.718 250.133 411.015 250.485 411.411L249.77 412.104C249.191 411.495 248.469 411.191 247.603 411.191C247.031 411.191 246.514 411.319 246.052 411.576C245.59 411.833 245.227 412.188 244.963 412.643C244.707 413.09 244.578 413.593 244.578 414.15C244.578 414.707 244.707 415.213 244.963 415.668C245.227 416.115 245.59 416.467 246.052 416.724C246.514 416.981 247.031 417.109 247.603 417.109C248.461 417.109 249.184 416.801 249.77 416.185L250.485 416.878C250.133 417.274 249.704 417.575 249.198 417.78C248.7 417.985 248.15 418.088 247.548 418.088ZM257.642 417.043V418H252.054V410.3H257.488V411.257H253.154V413.622H257.015V414.557H253.154V417.043H257.642ZM259.424 410.3H260.524V417.043H264.693V418H259.424V410.3Z" fill="#F4F7F9"/>
<path d="M218.986 229.992H227.008V234.003H231.018V238.014H235.029V229.992H231.018V226.013H227.008V217.991H231.018V222.002H243.02V226.013H247.031V238.014H251.042V234.003H254.991V238.014H259.002V234.003H263.013V226.013H271.003V222.002H278.994V217.991H271.003V214.011H266.992V222.002H259.002V229.992H251.011V226.013H254.991V222.002H250.98V217.991H238.978V214.011H242.989V210H234.998V214.011H222.997V222.002H218.986V214.011H214.975V218.022H210.964V222.033H214.975V226.044H218.986V229.992Z" fill="#EF6355"/>
<path d="M254.991 210H262.982V214.011H254.991V210Z" fill="#EF6355"/>
<path d="M278.995 210H283.006V217.991H278.995V210Z" fill="#EF6355"/>
<path d="M195.014 210H167V238.014H195.014V210ZM191.003 234.003H171.011V214.011H191.003V234.003Z" fill="#EF6355"/>
<path d="M251.013 214.011H254.992V218.022H250.981V214.011H251.013Z" fill="#EF6355"/>
<path d="M287.017 238.014H315V210H287.017V238.014ZM290.996 214.011H310.989V234.003H290.996V214.011Z" fill="#EF6355"/>
<path d="M174.99 217.991H186.992V229.992H174.99V217.991Z" fill="#EF6355"/>
<path d="M203.005 217.991H207.016V222.002H203.005V217.991Z" fill="#EF6355"/>
<path d="M295.008 217.991H307.009V229.992H295.008V217.991Z" fill="#EF6355"/>
<path d="M198.994 226.013V230.024H203.005V234.034H207.016V238.045H211.027V234.003H215.038V226.013H198.994Z" fill="#EF6355"/>
<path d="M239.011 226.013H243.022V230.024H239.011V226.013Z" fill="#EF6355"/>
<path d="M271.004 226.013H278.995V230.024H271.004V226.013Z" fill="#EF6355"/>
<path d="M266.993 229.992H271.004V234.003H266.993V229.992Z" fill="#EF6355"/>
<path d="M203.005 234.003H198.994V241.994H191.003V246.005H203.005V241.994H207.016V238.014H203.005V234.003Z" fill="#EF6355"/>
<path d="M222.997 234.003V238.014H218.987V234.003H214.976V253.996H218.987V249.985H222.997V241.994H227.008V234.003H222.997Z" fill="#EF6355"/>
<path d="M218.987 294.012H222.997V290.001H230.988V294.012H238.979V290.001H234.968V285.99H238.979V277.999H230.988V273.988H227.008V270.008H234.999V274.019H247.001V270.008H242.99V262.018H247.001V258.007H251.012V253.996H243.021V246.005H247.032V250.016H251.043V246.005H254.992V238.014H250.981V242.025H242.99V234.003H238.979V238.014H234.968V246.005H238.979V258.007H222.966V262.018H238.979V266.029H218.987V258.038H214.976V278.03H222.966V282.041H227.008V286.052H219.018V282.041H215.007V290.032H219.018L218.987 294.012Z" fill="#EF6355"/>
<path d="M266.994 241.994V234.003H262.983V238.014H258.972V242.025L266.994 241.994Z" fill="#EF6355"/>
<path d="M271.004 234.003H275.015V238.014H271.004V234.003Z" fill="#EF6355"/>
<path d="M278.995 234.003H283.006V238.014H278.995V234.003Z" fill="#EF6355"/>
<path d="M275.015 238.014H279.026V242.025H275.015V238.014Z" fill="#EF6355"/>
<path d="M227.009 241.994H231.02V246.005H227.009V241.994Z" fill="#EF6355"/>
<path d="M266.993 241.994H271.004V246.005H266.993V241.994Z" fill="#EF6355"/>
<path d="M287.018 246.005V250.016H291.029V242.025H279.027V246.036H271.036V254.027H275.047V258.038H279.058V250.047H283.069V246.036L287.018 246.005Z" fill="#EF6355"/>
<path d="M295.008 241.994H299.019V246.005H295.008V241.994Z" fill="#EF6355"/>
<path d="M186.992 253.996H194.983V249.985H191.003V245.974H186.992V253.996Z" fill="#EF6355"/>
<path d="M203.005 246.005H207.016V250.016H203.005V246.005Z" fill="#EF6355"/>
<path d="M230.988 246.005H234.999V253.996H230.988V246.005Z" fill="#EF6355"/>
<path d="M259.002 246.005V250.016H263.013V254.027H267.024V246.036L259.002 246.005Z" fill="#EF6355"/>
<path d="M298.987 246.005H302.998V250.016H298.987V246.005Z" fill="#EF6355"/>
<path d="M307.01 246.005H311.021V250.016H307.01V246.005Z" fill="#EF6355"/>
<path d="M174.991 265.997H179.002V261.987H183.013V241.994H174.991V246.005H167V250.016H171.011V262.018H175.022L174.991 265.997ZM174.991 250.016H179.002V258.007H174.991V250.016Z" fill="#EF6355"/>
<path d="M251.012 253.996H254.992V258.007H259.002V250.016H251.012V253.996Z" fill="#EF6355"/>
<path d="M307.009 261.987V253.996H302.998V258.007H295.008V262.018H290.997V254.027H287.017V250.016H283.006V258.007H287.017V262.018H283.006V266.029H302.998V262.018L307.009 261.987Z" fill="#EF6355"/>
<path d="M290.997 250.016H295.008V254.027H290.997V250.016Z" fill="#EF6355"/>
<path d="M198.994 253.996H203.005V258.007H198.994V253.996Z" fill="#EF6355"/>
<path d="M195.014 265.998H203.005V282.01H207.016V274.019H211.027V266.029H207.016V262.018H211.027V254.027H207.016V258.038H203.005V262.049H198.994V258.038H186.992V262.049H194.983L195.014 265.998Z" fill="#EF6355"/>
<path d="M271.004 253.996H266.993V258.007H262.982V270.008H274.984V265.997H270.973V261.987H274.984V257.976H270.973L271.004 253.996Z" fill="#EF6355"/>
<path d="M310.989 258.007H315V265.997H310.989V258.007Z" fill="#EF6355"/>
<path d="M167 261.987H171.011V270.008H167V261.987Z" fill="#EF6355"/>
<path d="M195.014 270.008V265.998H186.993V261.987H183.013V270.008H195.014Z" fill="#EF6355"/>
<path d="M254.992 261.987H250.981V265.998H246.97V270.008H250.981V274.019H254.992V278.03H250.981V274.019H246.97V278.03H242.959V286.021H246.97V282.01H250.981V286.021H246.97V290.032H250.981V294.043H254.992V282.041H259.003V286.052H263.014V278.061H259.003V274.05H263.014V270.008H254.992V261.987Z" fill="#EF6355"/>
<path d="M275.015 261.987H279.026V265.998H275.015V261.987Z" fill="#EF6355"/>
<path d="M302.998 270.008H307.009V274.019H315V270.008H310.989V265.997H302.998V270.008Z" fill="#EF6355"/>
<path d="M171.011 270.008H175.022V274.019H171.011V270.008Z" fill="#EF6355"/>
<path d="M195.015 270.008H199.026V274.019H195.015V270.008Z" fill="#EF6355"/>
<path d="M278.995 270.008H283.006V274.019H278.995V270.008Z" fill="#EF6355"/>
<path d="M287.017 270.008H291.028V274.019H287.017V270.008Z" fill="#EF6355"/>
<path d="M171.011 273.988H167V285.99H171.011V290.001H179.002V282.01H171.011V273.988Z" fill="#EF6355"/>
<path d="M191.003 273.988H195.014V277.999H191.003V273.988Z" fill="#EF6355"/>
<path d="M266.993 277.999V285.99H274.984V297.992H278.995V309.993H283.006V314.004H287.017V306.013H283.006V294.012H278.995V290.001H290.997V285.99H286.986V281.979H278.995V277.968H274.984V281.979H270.973V273.988H262.982V277.999H266.993Z" fill="#EF6355"/>
<path d="M191.004 282.01V277.999H179.002V282.01H183.013V286.021H195.015V282.01H191.004Z" fill="#EF6355"/>
<path d="M195.015 277.999H199.026V282.01H195.015V277.999Z" fill="#EF6355"/>
<path d="M290.996 285.99H295.007V277.999H287.017V282.01H291.028L290.996 285.99Z" fill="#EF6355"/>
<path d="M310.989 277.999H298.987V294.012H302.998V282.01H307.009V286.021H315V282.01H310.989V277.999Z" fill="#EF6355"/>
<path d="M210.995 290.001V282.01H206.984V286.021H202.974V282.01H198.963V286.021H195.014V290.032H191.003V294.043H195.014V297.992H199.025V290.001H203.036V294.012H207.047V290.001H210.995Z" fill="#EF6355"/>
<path d="M167 290.001H171.011V294.012H167V290.001Z" fill="#EF6355"/>
<path d="M174.991 297.992V293.981H171.011V317.984H175.022V309.993H179.033V305.982H174.991V301.971H186.992V297.992H183.012V293.981H187.023V289.97H179.001V297.992H174.991Z" fill="#EF6355"/>
<path d="M218.987 333.997V330.017H206.985V326.006H214.976V321.995H218.987V317.984H214.976V313.973H222.966V309.962H227.008V317.953H231.019V313.942H235.03V309.931H231.019V305.92H227.008V297.992H231.019V293.981H223.029V301.971H219.018V305.982H211.027V301.971H215.038V289.97H211.027V293.981H207.016V301.971H203.005V305.982H207.016V309.993H211.027V321.995H203.036V326.006H199.025V333.997H207.016V338.008H203.005V342.018H198.994V350.009H203.005V358H215.007V353.989H207.016V349.978H211.027V333.966H215.038V345.967H219.049V337.976H223.06V333.966L218.987 333.997Z" fill="#EF6355"/>
<path d="M242.989 290.001H247V294.012H242.989V290.001Z" fill="#EF6355"/>
<path d="M263.014 290.001H267.025V294.012H263.014V290.001Z" fill="#EF6355"/>
<path d="M307.01 290.001H311.021V294.012H307.01V290.001Z" fill="#EF6355"/>
<path d="M247.001 297.992H234.999V302.003H239.01V306.013H234.999V310.024H239.01V314.035H243.021V306.045H247.032V302.034H251.043V294.043H247.032L247.001 297.992Z" fill="#EF6355"/>
<path d="M259.002 294.012H263.013V297.992H259.002V294.012Z" fill="#EF6355"/>
<path d="M266.993 294.012H271.004V302.003H266.993V294.012Z" fill="#EF6355"/>
<path d="M295.007 318.015H299.018V310.024H307.009V306.013H311.02V302.003H299.018V297.992H295.007V293.981H290.996V297.992H287.017V305.982H295.007V318.015Z" fill="#EF6355"/>
<path d="M191.003 297.992H195.014V302.003H191.003V297.992Z" fill="#EF6355"/>
<path d="M263.014 314.004H267.025V302.003H259.034V297.992H254.992V305.982H262.983V309.993H258.972V317.984H250.981V321.995H262.983L263.014 314.004Z" fill="#EF6355"/>
<path d="M310.989 297.992H315V302.003H310.989V297.992Z" fill="#EF6355"/>
<path d="M230.988 302.003H234.999V306.013H230.988V302.003Z" fill="#EF6355"/>
<path d="M191.003 306.013H195.014V310.024H191.003V306.013Z" fill="#EF6355"/>
<path d="M271.004 306.013H275.015V314.004H271.004V306.013Z" fill="#EF6355"/>
<path d="M198.994 314.004H191.003V309.993H186.992V317.984H198.994V314.004Z" fill="#EF6355"/>
<path d="M198.994 309.993H203.005V314.004H198.994V309.993Z" fill="#EF6355"/>
<path d="M307.01 309.993H315.001V314.004H307.01V309.993Z" fill="#EF6355"/>
<path d="M179.002 314.004H183.013V318.015H179.002V314.004Z" fill="#EF6355"/>
<path d="M234.999 318.015H230.988V322.026H234.999V326.037H239.01V322.026H247.001V318.015H239.01V314.004H234.999V318.015Z" fill="#EF6355"/>
<path d="M266.993 314.004H271.004V318.015H266.993V314.004Z" fill="#EF6355"/>
<path d="M167 318.015H171.011V322.026H167V318.015Z" fill="#EF6355"/>
<path d="M183.013 318.015H187.024V326.006H183.013V318.015Z" fill="#EF6355"/>
<path d="M275.015 318.015H279.026V322.026H275.015V318.015Z" fill="#EF6355"/>
<path d="M307.009 321.995V317.984H302.998V325.975H310.989V321.964H307.009V321.995Z" fill="#EF6355"/>
<path d="M174.99 321.995H179.001V326.006H174.99V321.995Z" fill="#EF6355"/>
<path d="M191.003 321.995H198.994V326.006H191.003V321.995Z" fill="#EF6355"/>
<path d="M239.01 338.008V330.017H227.008V326.006H231.019V321.995H219.018V326.006H223.029V333.997H227.008V338.008H222.997V342.019H242.99V338.008H239.01Z" fill="#EF6355"/>
<path d="M247.001 321.995H251.012V326.006H247.001V321.995Z" fill="#EF6355"/>
<path d="M271.004 330.017V334.028H275.015V326.037H271.004V322.026H266.993V326.037H259.002V330.017H254.991V342.018H259.002V334.028H263.013V330.017H271.004Z" fill="#EF6355"/>
<path d="M239.011 326.006H243.022V330.017H239.011V326.006Z" fill="#EF6355"/>
<path d="M287.017 321.995H279.026V341.987H283.037V349.978H287.017V345.967H291.028V341.956H295.039V345.967H291.028V353.958H295.039V349.947H299.05V337.945H303.061V329.955H299.05V321.964H295.039V317.953H287.017V321.995ZM295.008 338.008H283.006V326.006H295.008V338.008Z" fill="#EF6355"/>
<path d="M315 326.006H310.989V330.017H306.979V338.008H315V326.006Z" fill="#EF6355"/>
<path d="M251.011 330.017H247V334.028H242.989V338.039H247V342.05H242.989V350.04H238.979V358H246.969V353.989H250.98V349.978H246.969V345.967H254.991V341.956H250.98L251.011 330.017Z" fill="#EF6355"/>
<path d="M287.017 330.017H291.028V334.028H287.017V330.017Z" fill="#EF6355"/>
<path d="M167 358H195.014V330.017H167V358ZM171.011 333.997H191.003V353.989H171.011V333.997Z" fill="#EF6355"/>
<path d="M266.994 333.997H262.983V345.998H258.972V350.009H266.962V354.02H262.952V358H270.942V353.989H274.953V349.978H270.942V345.967H266.931L266.994 333.997Z" fill="#EF6355"/>
<path d="M174.99 338.008H186.992V350.009H174.99V338.008Z" fill="#EF6355"/>
<path d="M275.015 338.008H271.004V345.998H278.995V341.987H274.984L275.015 338.008Z" fill="#EF6355"/>
<path d="M302.998 338.008H307.009V342.018H302.998V338.008Z" fill="#EF6355"/>
<path d="M307.01 345.998H311.021V350.009H307.01V345.998Z" fill="#EF6355"/>
<path d="M218.986 350.009H227.008V354.02H219.017V350.009H218.986Z" fill="#EF6355"/>
<path d="M230.988 350.009H234.999V358H230.988V350.009Z" fill="#EF6355"/>
<path d="M302.998 353.989V358H315V353.989H307.009V349.978H299.019V353.989H302.998Z" fill="#EF6355"/>
<path d="M283.006 353.989H287.017V358H283.006V353.989Z" fill="#EF6355"/>
<path d="M295.008 353.989H299.019V358H295.008V353.989Z" fill="#EF6355"/>
<defs>
<filter id="filter0_i_59_149" x="329" y="102" width="244.185" height="479" filterUnits="userSpaceOnUse" color-interpolation-filters="sRGB">
<feFlood flood-opacity="0" result="BackgroundImageFix"/>
<feBlend mode="normal" in="SourceGraphic" in2="BackgroundImageFix" result="shape"/>
<feColorMatrix in="SourceAlpha" type="matrix" values="0 0 0 0 0 0 0 0 0 0 0 0 0 0 0 0 0 0 127 0" result="hardAlpha"/>
<feOffset dy="20"/>
<feGaussianBlur stdDeviation="22.5"/>
<feComposite in2="hardAlpha" operator="arithmetic" k2="-1" k3="1"/>
<feColorMatrix type="matrix" values="0 0 0 0 0.505882 0 0 0 0 0.505882 0 0 0 0 0.647059 0 0 0 0.6 0"/>
<feBlend mode="normal" in2="shape" result="effect1_innerShadow_59_149"/>
</filter>
<filter id="filter1_d_59_149" x="334.392" y="107.391" width="233.402" height="448.218" filterUnits="userSpaceOnUse" color-interpolation-filters="sRGB">
<feFlood flood-opacity="0" result="BackgroundImageFix"/>
<feColorMatrix in="SourceAlpha" type="matrix" values="0 0 0 0 0 0 0 0 0 0 0 0 0 0 0 0 0 0 127 0" result="hardAlpha"/>
<feOffset/>
<feGaussianBlur stdDeviation="1.5"/>
<feColorMatrix type="matrix" values="0 0 0 0 0.858824 0 0 0 0 0.890196 0 0 0 0 0.921569 0 0 0 1 0"/>
<feBlend mode="normal" in2="BackgroundImageFix" result="effect1_dropShadow_59_149"/>
<feBlend mode="normal" in="SourceGraphic" in2="effect1_dropShadow_59_149" result="shape"/>
</filter>
<filter id="filter2_i_59_149" x="64" y="35" width="321" height="557" filterUnits="userSpaceOnUse" color-interpolation-filters="sRGB">
<feFlood flood-opacity="0" result="BackgroundImageFix"/>
<feBlend mode="normal" in="SourceGraphic" in2="BackgroundImageFix" result="shape"/>
<feColorMatrix in="SourceAlpha" type="matrix" values="0 0 0 0 0 0 0 0 0 0 0 0 0 0 0 0 0 0 127 0" result="hardAlpha"/>
<feOffset dx="-30" dy="10"/>
<feGaussianBlur stdDeviation="22.5"/>
<feComposite in2="hardAlpha" operator="arithmetic" k2="-1" k3="1"/>
<feColorMatrix type="matrix" values="0 0 0 0 0.505882 0 0 0 0 0.505882 0 0 0 0 0.647059 0 0 0 0.6 0"/>
<feBlend mode="normal" in2="shape" result="effect1_innerShadow_59_149"/>
</filter>
<filter id="filter3_d_59_149" x="101" y="42" width="277" height="533" filterUnits="userSpaceOnUse" color-interpolation-filters="sRGB">
<feFlood flood-opacity="0" result="BackgroundImageFix"/>
<feColorMatrix in="SourceAlpha" type="matrix" values="0 0 0 0 0 0 0 0 0 0 0 0 0 0 0 0 0 0 127 0" result="hardAlpha"/>
<feOffset/>
<feGaussianBlur stdDeviation="1.5"/>
<feColorMatrix type="matrix" values="0 0 0 0 0.858824 0 0 0 0 0.890196 0 0 0 0 0.921569 0 0 0 1 0"/>
<feBlend mode="normal" in2="BackgroundImageFix" result="effect1_dropShadow_59_149"/>
<feBlend mode="normal" in="SourceGraphic" in2="effect1_dropShadow_59_149" result="shape"/>
</filter>
<linearGradient id="paint0_linear_59_149" x1="532.948" y1="564.246" x2="213.484" y2="228.017" gradientUnits="userSpaceOnUse">
<stop stop-color="#0E1822"/>
<stop offset="1" stop-color="#083A6B"/>
</linearGradient>
<linearGradient id="paint1_linear_59_149" x1="337.048" y1="585.868" x2="-98.035" y2="211.519" gradientUnits="userSpaceOnUse">
<stop stop-color="#0E1822"/>
<stop offset="1" stop-color="#1A3550"/>
</linearGradient>
<linearGradient id="paint2_linear_59_149" x1="337.048" y1="585.868" x2="-98.035" y2="211.519" gradientUnits="userSpaceOnUse">
<stop stop-color="#0E1822"/>
<stop offset="1" stop-color="#1A3550"/>
</linearGradient>
</defs>
</svg>
