<svg width="369" height="253" viewBox="0 0 369 253" fill="none" xmlns="http://www.w3.org/2000/svg">
<path d="M180 124C180 109.641 191.641 98 206 98H343C357.359 98 369 109.641 369 124V253H180V124Z" fill="url(#paint0_linear_97_107)" fill-opacity="0.2"/>
<path d="M0 88C0 73.641 11.6406 62 26 62H130C144.359 62 156 73.641 156 88V253H0V88Z" fill="url(#paint1_linear_97_107)" fill-opacity="0.2"/>
<g filter="url(#filter0_i_97_107)">
<path d="M65 35C65 15.67 80.67 0 100 0H274C293.33 0 309 15.67 309 35V253H65V35Z" fill="#C2CEDB"/>
</g>
<path d="M73 34C73 19.6406 84.6406 8 99 8H275C289.359 8 301 19.6406 301 34V253H73V34Z" fill="url(#paint2_linear_97_107)"/>
<path d="M98.832 46.9999H100.392V39.9199H103.176V38.5999H96.048V39.9199H98.832V46.9999ZM106.427 47.0839C108.419 47.0839 109.847 45.7159 109.847 43.7959C109.847 41.8759 108.419 40.5199 106.427 40.5199C104.459 40.5199 103.019 41.8759 103.019 43.7959C103.019 45.7159 104.459 47.0839 106.427 47.0839ZM106.427 45.7999C105.347 45.7999 104.531 45.0199 104.531 43.7959C104.531 42.5719 105.347 41.7919 106.427 41.7919C107.519 41.7919 108.335 42.5719 108.335 43.7959C108.335 45.0199 107.519 45.7999 106.427 45.7999ZM114.713 45.5839C114.485 45.7639 114.185 45.8479 113.873 45.8479C113.297 45.8479 112.985 45.5119 112.985 44.8879V41.8399H114.701V40.6399H112.985V39.1759H111.485V40.6399H110.429V41.8399H111.485V44.924C111.485 46.34 112.289 47.0839 113.693 47.0839C114.233 47.0839 114.773 46.9399 115.133 46.6519L114.713 45.5839ZM118.815 40.5199C117.783 40.5199 116.787 40.7839 116.103 41.3119L116.691 42.4039C117.171 42.0079 117.915 41.7679 118.635 41.7679C119.703 41.7679 120.231 42.284 120.231 43.16V43.2559H118.575C116.631 43.2559 115.911 44.0959 115.911 45.1639C115.911 46.2799 116.835 47.0839 118.299 47.0839C119.259 47.0839 119.955 46.7719 120.315 46.2199V46.9999H121.731V43.2439C121.731 41.3959 120.663 40.5199 118.815 40.5199ZM118.611 45.9919C117.843 45.9919 117.387 45.6439 117.387 45.1039C117.387 44.6359 117.663 44.2519 118.683 44.2519H120.231V44.9959C119.979 45.6559 119.343 45.9919 118.611 45.9919ZM123.656 46.9999H125.156V38.0959H123.656V46.9999ZM136.537 42.632C137.185 42.284 137.617 41.6479 137.617 40.7839C137.617 39.4519 136.537 38.5999 134.521 38.5999H130.585V46.9999H134.761C136.921 46.9999 138.049 46.1599 138.049 44.7199C138.049 43.6279 137.437 42.92 136.537 42.632ZM134.353 39.8239C135.433 39.8239 136.045 40.2079 136.045 40.9879C136.045 41.7559 135.433 42.1399 134.353 42.1399H132.145V39.8239H134.353ZM134.665 45.7759H132.145V43.3519H134.665C135.841 43.3519 136.477 43.7239 136.477 44.5639C136.477 45.4039 135.841 45.7759 134.665 45.7759ZM142.018 40.5199C140.986 40.5199 139.99 40.7839 139.306 41.3119L139.894 42.4039C140.374 42.0079 141.118 41.7679 141.838 41.7679C142.906 41.7679 143.434 42.284 143.434 43.16V43.2559H141.778C139.834 43.2559 139.114 44.0959 139.114 45.1639C139.114 46.2799 140.038 47.0839 141.502 47.0839C142.462 47.0839 143.158 46.7719 143.518 46.2199V46.9999H144.934V43.2439C144.934 41.3959 143.866 40.5199 142.018 40.5199ZM141.814 45.9919C141.046 45.9919 140.59 45.6439 140.59 45.1039C140.59 44.6359 140.866 44.2519 141.886 44.2519H143.434V44.9959C143.182 45.6559 142.546 45.9919 141.814 45.9919ZM146.859 46.9999H148.359V38.0959H146.859V46.9999ZM152.776 40.5199C151.744 40.5199 150.748 40.7839 150.064 41.3119L150.652 42.4039C151.132 42.0079 151.876 41.7679 152.596 41.7679C153.664 41.7679 154.192 42.284 154.192 43.16V43.2559H152.536C150.592 43.2559 149.872 44.0959 149.872 45.1639C149.872 46.2799 150.796 47.0839 152.26 47.0839C153.22 47.0839 153.916 46.7719 154.276 46.2199V46.9999H155.692V43.2439C155.692 41.3959 154.624 40.5199 152.776 40.5199ZM152.572 45.9919C151.804 45.9919 151.348 45.6439 151.348 45.1039C151.348 44.6359 151.624 44.2519 152.644 44.2519H154.192V44.9959C153.94 45.6559 153.304 45.9919 152.572 45.9919ZM161.253 40.5199C160.317 40.5199 159.537 40.8319 159.045 41.4199V40.5919H157.617V46.9999H159.117V43.7599C159.117 42.4759 159.837 41.8279 160.905 41.8279C161.865 41.8279 162.429 42.3799 162.429 43.5199V46.9999H163.929V43.3279C163.929 41.3959 162.789 40.5199 161.253 40.5199ZM168.83 47.0839C170.078 47.0839 171.074 46.5439 171.566 45.5839L170.414 44.9119C170.03 45.5239 169.454 45.7999 168.818 45.7999C167.714 45.7999 166.874 45.0439 166.874 43.7959C166.874 42.5599 167.714 41.7919 168.818 41.7919C169.454 41.7919 170.03 42.0679 170.414 42.6799L171.566 42.0079C171.074 41.0359 170.078 40.5199 168.83 40.5199C166.802 40.5199 165.362 41.8759 165.362 43.7959C165.362 45.7159 166.802 47.0839 168.83 47.0839ZM178.793 43.8319C178.793 41.8279 177.425 40.5199 175.553 40.5199C173.645 40.5199 172.241 41.8879 172.241 43.7959C172.241 45.7039 173.633 47.0839 175.781 47.0839C176.885 47.0839 177.785 46.7239 178.361 46.0399L177.557 45.1159C177.101 45.5839 176.537 45.8119 175.817 45.8119C174.701 45.8119 173.921 45.2119 173.741 44.2759H178.769C178.781 44.1319 178.793 43.9519 178.793 43.8319ZM175.553 41.7199C176.537 41.7199 177.245 42.3559 177.365 43.2799H173.729C173.873 42.3439 174.581 41.7199 175.553 41.7199Z" fill="#8181A5"/>
<path d="M102.032 72.7521H107.792V70.4241H102.032V69.7281C102.032 67.4001 103.424 66.2241 105.968 66.2241C107.264 66.2241 108.536 66.4641 109.568 67.0881L110.744 64.0161C109.472 63.2961 107.888 62.9121 105.92 62.9121C100.976 62.9121 98.12 65.5281 98.12 69.8001V70.4241H95.72V72.7521H98.12V76.8801H95.72V80.0001H110.264V76.8801H102.032V72.7521ZM117.996 63.2001V66.3201H121.356V80.0001H125.244V63.2001H117.996ZM133.491 76.8321L137.355 73.1841C139.707 71.0001 140.163 69.5121 140.163 67.8801C140.163 64.8321 137.667 62.9121 133.923 62.9121C130.899 62.9121 128.547 64.1361 127.251 66.0321L130.083 67.8561C130.899 66.7281 132.123 66.1761 133.563 66.1761C135.339 66.1761 136.251 66.9441 136.251 68.2641C136.251 69.0801 135.987 69.9441 134.499 71.3601L128.019 77.4801V80.0001H140.715V76.8321H133.491ZM144.785 75.5361C143.465 75.5361 142.457 76.4481 142.457 77.8401C142.457 78.8241 142.961 79.5681 143.753 79.8801L142.697 83.6961H145.073L146.441 80.2401C146.993 78.9201 147.089 78.4641 147.089 77.8401C147.089 76.4721 146.129 75.5361 144.785 75.5361ZM164.218 73.3041H161.482V70.1601H157.81V73.3041H153.298L160.642 63.2001H156.562L148.642 73.8561V76.4721H157.69V80.0001H161.482V76.4721H164.218V73.3041ZM172.581 80.2881C176.733 80.2881 179.781 77.1441 179.781 71.6001C179.781 66.0561 176.733 62.9121 172.581 62.9121C168.453 62.9121 165.381 66.0561 165.381 71.6001C165.381 77.1441 168.453 80.2881 172.581 80.2881ZM172.581 77.0001C170.661 77.0001 169.317 75.4161 169.317 71.6001C169.317 67.7841 170.661 66.2001 172.581 66.2001C174.525 66.2001 175.869 67.7841 175.869 71.6001C175.869 75.4161 174.525 77.0001 172.581 77.0001ZM188.87 80.2881C193.022 80.2881 196.07 77.1441 196.07 71.6001C196.07 66.0561 193.022 62.9121 188.87 62.9121C184.742 62.9121 181.67 66.0561 181.67 71.6001C181.67 77.1441 184.742 80.2881 188.87 80.2881ZM188.87 77.0001C186.95 77.0001 185.606 75.4161 185.606 71.6001C185.606 67.7841 186.95 66.2001 188.87 66.2001C190.814 66.2001 192.158 67.7841 192.158 71.6001C192.158 75.4161 190.814 77.0001 188.87 77.0001ZM199.863 80.1921C201.159 80.1921 202.191 79.2081 202.191 77.8401C202.191 76.4481 201.159 75.5361 199.863 75.5361C198.567 75.5361 197.535 76.4481 197.535 77.8401C197.535 79.2081 198.567 80.1921 199.863 80.1921ZM209.696 69.5121H208.328L208.592 66.3201H215.6V63.2001H205.352L204.488 72.6561H208.784C211.832 72.6561 212.696 73.5201 212.696 74.8401C212.696 76.2081 211.496 77.0241 209.552 77.0241C207.8 77.0241 206.048 76.4721 204.776 75.5121L203.24 78.4881C204.872 79.6401 207.32 80.2881 209.648 80.2881C214.448 80.2881 216.632 77.6961 216.632 74.7201C216.632 71.7441 214.664 69.5121 209.696 69.5121ZM226.297 69.4641C224.545 69.4641 223.129 69.9681 222.145 70.9521C222.265 67.7361 224.065 66.0801 226.873 66.0801C228.001 66.0801 229.081 66.2961 230.017 66.9201L231.457 64.0641C230.281 63.3201 228.553 62.9121 226.777 62.9121C221.713 62.9121 218.209 66.1521 218.209 71.9601C218.209 77.3841 221.089 80.2881 225.721 80.2881C229.273 80.2881 232.081 78.1281 232.081 74.6961C232.081 71.5281 229.537 69.4641 226.297 69.4641ZM225.505 77.3841C223.633 77.3841 222.553 76.3281 222.553 74.8881C222.553 73.4241 223.753 72.3681 225.457 72.3681C227.185 72.3681 228.313 73.3521 228.313 74.8881C228.313 76.4241 227.161 77.3841 225.505 77.3841Z" fill="#13273F"/>
<path d="M129.5 116H102.5C95.5964 116 90 121.596 90 128.5C90 135.404 95.5964 141 102.5 141H129.5C136.404 141 142 135.404 142 128.5C142 121.596 136.404 116 129.5 116Z" fill="#13273F"/>
<path d="M106.023 132H109.389C111.886 132 113.591 130.46 113.591 128.15C113.591 125.84 111.886 124.3 109.389 124.3H106.023V132ZM107.453 130.79V125.51H109.323C111.039 125.51 112.15 126.555 112.15 128.15C112.15 129.745 111.039 130.79 109.323 130.79H107.453ZM117.223 126.06C116.277 126.06 115.364 126.302 114.737 126.786L115.276 127.787C115.716 127.424 116.398 127.204 117.058 127.204C118.037 127.204 118.521 127.677 118.521 128.48V128.568H117.003C115.221 128.568 114.561 129.338 114.561 130.317C114.561 131.34 115.408 132.077 116.75 132.077C117.63 132.077 118.268 131.791 118.598 131.285V132H119.896V128.557C119.896 126.863 118.917 126.06 117.223 126.06ZM117.036 131.076C116.332 131.076 115.914 130.757 115.914 130.262C115.914 129.833 116.167 129.481 117.102 129.481H118.521V130.163C118.29 130.768 117.707 131.076 117.036 131.076ZM125.733 126.126L123.874 130.471L122.026 126.126H120.596L123.159 132.022L123.06 132.253C122.796 132.836 122.51 133.067 122.026 133.067C121.652 133.067 121.278 132.913 121.014 132.66L120.464 133.672C120.838 134.013 121.454 134.211 122.037 134.211C123.016 134.211 123.764 133.804 124.303 132.473L127.053 126.126H125.733Z" fill="white"/>
<path d="M187.972 124.3L185.849 130.592L183.726 124.3H182.714L180.547 130.559L178.468 124.3H177.335L179.909 132H181.086L183.187 125.851L185.288 132H186.443L189.017 124.3H187.972ZM195.038 129.118C195.038 127.325 193.839 126.115 192.156 126.115C190.473 126.115 189.23 127.358 189.23 129.085C189.23 130.823 190.484 132.066 192.365 132.066C193.333 132.066 194.136 131.736 194.664 131.12L194.081 130.438C193.652 130.911 193.08 131.142 192.398 131.142C191.243 131.142 190.418 130.46 190.286 129.437H195.016C195.027 129.338 195.038 129.206 195.038 129.118ZM192.156 127.006C193.179 127.006 193.916 127.699 194.026 128.678H190.286C190.396 127.688 191.144 127.006 192.156 127.006ZM201.773 129.118C201.773 127.325 200.574 126.115 198.891 126.115C197.208 126.115 195.965 127.358 195.965 129.085C195.965 130.823 197.219 132.066 199.1 132.066C200.068 132.066 200.871 131.736 201.399 131.12L200.816 130.438C200.387 130.911 199.815 131.142 199.133 131.142C197.978 131.142 197.153 130.46 197.021 129.437H201.751C201.762 129.338 201.773 129.206 201.773 129.118ZM198.891 127.006C199.914 127.006 200.651 127.699 200.761 128.678H197.021C197.131 127.688 197.879 127.006 198.891 127.006ZM207.694 132H208.992L206.297 128.579L208.75 126.17H207.474L204.295 129.074V123.838H203.239V132H204.295V130.405L205.505 129.283L207.694 132Z" fill="#8181A5"/>
<path d="M258.341 132L258.33 124.3H257.428L254.26 129.712L251.048 124.3H250.146V132H251.202V126.423L253.985 131.065H254.491L257.274 126.39L257.285 132H258.341ZM262.995 132.066C264.744 132.066 266.02 130.823 266.02 129.085C266.02 127.347 264.744 126.115 262.995 126.115C261.246 126.115 259.959 127.347 259.959 129.085C259.959 130.823 261.246 132.066 262.995 132.066ZM262.995 131.142C261.873 131.142 261.026 130.328 261.026 129.085C261.026 127.842 261.873 127.039 262.995 127.039C264.117 127.039 264.953 127.842 264.953 129.085C264.953 130.328 264.117 131.142 262.995 131.142ZM270.593 126.115C269.669 126.115 268.921 126.456 268.492 127.05V126.17H267.48V132H268.536V128.997C268.536 127.732 269.262 127.061 270.384 127.061C271.385 127.061 271.957 127.622 271.957 128.766V132H273.013V128.645C273.013 126.929 272.012 126.115 270.593 126.115ZM277.916 130.9C277.696 131.076 277.399 131.175 277.091 131.175C276.508 131.175 276.178 130.823 276.178 130.196V127.039H277.85V126.17H276.178V124.894H275.122V126.17H274.132V127.039H275.122V130.24C275.122 131.417 275.793 132.066 276.97 132.066C277.443 132.066 277.927 131.934 278.246 131.659L277.916 130.9ZM282.635 126.115C281.744 126.115 281.018 126.434 280.578 126.995V123.838H279.522V132H280.578V128.997C280.578 127.732 281.304 127.061 282.426 127.061C283.427 127.061 283.999 127.622 283.999 128.766V132H285.055V128.645C285.055 126.929 284.054 126.115 282.635 126.115Z" fill="#8181A5"/>
<path d="M238 148H196C189.373 148 184 153.373 184 160C184 166.627 189.373 172 196 172H238C244.627 172 250 166.627 250 160C250 153.373 244.627 148 238 148Z" fill="#2CD19E"/>
<path d="M224.071 169.071L217 162L209.929 169.071L217 176.142L224.071 169.071Z" fill="#2CD19E"/>
<path d="M197.516 160.376H200.396V159.212H197.516V158.864C197.516 157.7 198.212 157.112 199.484 157.112C200.132 157.112 200.768 157.232 201.284 157.544L201.872 156.008C201.236 155.648 200.444 155.456 199.46 155.456C196.988 155.456 195.56 156.764 195.56 158.9V159.212H194.36V160.376H195.56V162.44H194.36V164H201.632V162.44H197.516V160.376ZM209.926 158.732C209.05 158.732 208.342 158.984 207.85 159.476C207.91 157.868 208.81 157.04 210.214 157.04C210.778 157.04 211.318 157.148 211.786 157.46L212.506 156.032C211.918 155.66 211.054 155.456 210.166 155.456C207.634 155.456 205.882 157.076 205.882 159.98C205.882 162.692 207.322 164.144 209.638 164.144C211.414 164.144 212.818 163.064 212.818 161.348C212.818 159.764 211.546 158.732 209.926 158.732ZM209.53 162.692C208.594 162.692 208.054 162.164 208.054 161.444C208.054 160.712 208.654 160.184 209.506 160.184C210.37 160.184 210.934 160.676 210.934 161.444C210.934 162.212 210.358 162.692 209.53 162.692ZM214.756 161.768C214.096 161.768 213.592 162.224 213.592 162.92C213.592 163.412 213.844 163.784 214.24 163.94L213.712 165.848H214.9L215.584 164.12C215.86 163.46 215.908 163.232 215.908 162.92C215.908 162.236 215.428 161.768 214.756 161.768ZM224.473 160.652H223.105V159.08H221.269V160.652H219.013L222.685 155.6H220.645L216.685 160.928V162.236H221.209V164H223.105V162.236H224.473V160.652ZM230.919 159.584C231.543 159.2 231.903 158.612 231.903 157.856C231.903 156.38 230.583 155.456 228.651 155.456C226.743 155.456 225.423 156.38 225.423 157.856C225.423 158.612 225.771 159.2 226.395 159.584C225.591 159.992 225.123 160.664 225.123 161.564C225.123 163.148 226.527 164.144 228.651 164.144C230.787 164.144 232.203 163.148 232.203 161.564C232.203 160.664 231.735 159.992 230.919 159.584ZM228.651 156.884C229.443 156.884 229.971 157.28 229.971 157.94C229.971 158.576 229.455 158.972 228.651 158.972C227.859 158.972 227.355 158.576 227.355 157.94C227.355 157.28 227.871 156.884 228.651 156.884ZM228.651 162.716C227.691 162.716 227.091 162.248 227.091 161.504C227.091 160.76 227.691 160.304 228.651 160.304C229.623 160.304 230.235 160.76 230.235 161.504C230.235 162.248 229.623 162.716 228.651 162.716ZM235.757 162.416L237.689 160.592C238.865 159.5 239.093 158.756 239.093 157.94C239.093 156.416 237.845 155.456 235.973 155.456C234.461 155.456 233.285 156.068 232.637 157.016L234.053 157.928C234.461 157.364 235.073 157.088 235.793 157.088C236.681 157.088 237.137 157.472 237.137 158.132C237.137 158.54 237.005 158.972 236.261 159.68L233.021 162.74V164H239.369V162.416H235.757Z" fill="white"/>
<path d="M198 205C198 195.059 206.059 187 216 187H227C231.418 187 235 190.582 235 195V250H198V205Z" fill="url(#paint3_linear_97_107)" fill-opacity="0.36"/>
<path d="M78 225.63C91.9744 234.532 124.658 245.733 143.597 219.318C146.228 214.948 154.053 206.596 164.312 208.15C177.136 210.092 189.629 212.318 199 196.78C208.371 181.241 228.277 177.428 247.5 208.15C260.844 229.475 283.998 212.682 296 202.323" stroke="url(#paint4_linear_97_107)" stroke-width="3" stroke-linecap="round"/>
<g filter="url(#filter1_i_97_107)">
<path d="M217 191C220.314 191 223 188.314 223 185C223 181.686 220.314 179 217 179C213.686 179 211 181.686 211 185C211 188.314 213.686 191 217 191Z" fill="white"/>
<path d="M217 190C219.761 190 222 187.761 222 185C222 182.239 219.761 180 217 180C214.239 180 212 182.239 212 185C212 187.761 214.239 190 217 190Z" stroke="#2CD19E" stroke-width="2"/>
</g>
<defs>
<filter id="filter0_i_97_107" x="65" y="-20" width="244" height="273" filterUnits="userSpaceOnUse" color-interpolation-filters="sRGB">
<feFlood flood-opacity="0" result="BackgroundImageFix"/>
<feBlend mode="normal" in="SourceGraphic" in2="BackgroundImageFix" result="shape"/>
<feColorMatrix in="SourceAlpha" type="matrix" values="0 0 0 0 0 0 0 0 0 0 0 0 0 0 0 0 0 0 127 0" result="hardAlpha"/>
<feOffset dy="-20"/>
<feGaussianBlur stdDeviation="21"/>
<feComposite in2="hardAlpha" operator="arithmetic" k2="-1" k3="1"/>
<feColorMatrix type="matrix" values="0 0 0 0 0 0 0 0 0 0.401005 0 0 0 0 0.633333 0 0 0 0.3 0"/>
<feBlend mode="normal" in2="shape" result="effect1_innerShadow_97_107"/>
</filter>
<filter id="filter1_i_97_107" x="211" y="179" width="12" height="13" filterUnits="userSpaceOnUse" color-interpolation-filters="sRGB">
<feFlood flood-opacity="0" result="BackgroundImageFix"/>
<feBlend mode="normal" in="SourceGraphic" in2="BackgroundImageFix" result="shape"/>
<feColorMatrix in="SourceAlpha" type="matrix" values="0 0 0 0 0 0 0 0 0 0 0 0 0 0 0 0 0 0 127 0" result="hardAlpha"/>
<feOffset dy="1"/>
<feGaussianBlur stdDeviation="4"/>
<feComposite in2="hardAlpha" operator="arithmetic" k2="-1" k3="1"/>
<feColorMatrix type="matrix" values="0 0 0 0 0.00714242 0 0 0 0 0.504167 0 0 0 0 0.350541 0 0 0 1 0"/>
<feBlend mode="normal" in2="shape" result="effect1_innerShadow_97_107"/>
</filter>
<linearGradient id="paint0_linear_97_107" x1="280.406" y1="446.592" x2="412.683" y2="268.096" gradientUnits="userSpaceOnUse">
<stop stop-color="#EAEBEF"/>
<stop offset="1" stop-color="white"/>
</linearGradient>
<linearGradient id="paint1_linear_97_107" x1="82.875" y1="491.555" x2="252.381" y2="338.344" gradientUnits="userSpaceOnUse">
<stop stop-color="#EAEBEF"/>
<stop offset="1" stop-color="white"/>
</linearGradient>
<linearGradient id="paint2_linear_97_107" x1="194.125" y1="559" x2="412.571" y2="334.028" gradientUnits="userSpaceOnUse">
<stop stop-color="#EAEBEF"/>
<stop offset="1" stop-color="white"/>
</linearGradient>
<linearGradient id="paint3_linear_97_107" x1="216.5" y1="187" x2="216.5" y2="250" gradientUnits="userSpaceOnUse">
<stop stop-color="#2CD19E"/>
<stop offset="1" stop-color="#2CD19E" stop-opacity="0"/>
</linearGradient>
<linearGradient id="paint4_linear_97_107" x1="187" y1="187.78" x2="187" y2="235.78" gradientUnits="userSpaceOnUse">
<stop stop-color="#2CD19E"/>
<stop offset="1" stop-color="#11DD9E"/>
</linearGradient>
</defs>
</svg>
