<svg width="620" height="245" viewBox="0 0 620 245" fill="none" xmlns="http://www.w3.org/2000/svg">
<g filter="url(#filter0_d_1536_309)">
<rect x="46" y="37" width="250" height="153" rx="15" fill="white"/>
<rect x="45.5" y="36.5" width="251" height="154" rx="15.5" stroke="#DBE3EB"/>
</g>
<g filter="url(#filter1_d_1536_309)">
<rect x="325" y="37" width="250" height="153" rx="15" fill="white"/>
<rect x="325.5" y="37.5" width="249" height="152" rx="14.5" stroke="#DBE3EB"/>
</g>
<path d="M419.594 109.552C427.552 109.552 433.394 103.526 433.394 92.9C433.394 82.274 427.552 76.248 419.594 76.248C411.682 76.248 405.794 82.274 405.794 92.9C405.794 103.526 411.682 109.552 419.594 109.552ZM419.594 103.25C415.914 103.25 413.338 100.214 413.338 92.9C413.338 85.586 415.914 82.55 419.594 82.55C423.32 82.55 425.896 85.586 425.896 92.9C425.896 100.214 423.32 103.25 419.594 103.25ZM440.663 109.368C443.147 109.368 445.125 107.482 445.125 104.86C445.125 102.192 443.147 100.444 440.663 100.444C438.179 100.444 436.201 102.192 436.201 104.86C436.201 107.482 438.179 109.368 440.663 109.368ZM463.961 89.91L471.229 81.63V76.8H448.689V82.78H462.397L455.773 90.278V95.2H459.177C463.409 95.2 465.203 96.718 465.203 99.156C465.203 101.778 462.903 103.296 459.177 103.296C455.819 103.296 452.415 102.238 449.977 100.398L447.079 106.102C450.207 108.31 454.853 109.552 459.361 109.552C468.515 109.552 472.701 104.584 472.701 99.156C472.701 94.418 469.757 90.83 463.961 89.91Z" fill="#38B6FF"/>
<path d="M482.422 85.938C484.71 85.938 486.382 84.354 486.382 81.67C486.382 79.008 484.71 77.402 482.422 77.402C480.156 77.402 478.484 79.008 478.484 81.67C478.484 84.354 480.156 85.938 482.422 85.938ZM481.014 93H484.182L494.698 77.6H491.53L481.014 93ZM482.422 83.848C481.718 83.848 481.124 83.232 481.124 81.67C481.124 80.108 481.718 79.492 482.422 79.492C483.17 79.492 483.72 80.108 483.72 81.67C483.72 83.232 483.17 83.848 482.422 83.848ZM493.29 93.198C495.578 93.198 497.25 91.614 497.25 88.93C497.25 86.268 495.578 84.662 493.29 84.662C491.002 84.662 489.352 86.268 489.352 88.93C489.352 91.614 491.002 93.198 493.29 93.198ZM493.29 91.108C492.564 91.108 491.992 90.492 491.992 88.93C491.992 87.368 492.564 86.752 493.29 86.752C494.016 86.752 494.588 87.368 494.588 88.93C494.588 90.492 494.016 91.108 493.29 91.108Z" fill="#38B6FF"/>
<path d="M394.053 134.15H390.573V132.5H399.483V134.15H396.003V143H394.053V134.15ZM402.361 136.16C402.901 135.32 403.851 134.9 405.211 134.9V136.685C405.051 136.655 404.906 136.64 404.776 136.64C404.046 136.64 403.476 136.855 403.066 137.285C402.656 137.705 402.451 138.315 402.451 139.115V143H400.576V134.99H402.361V136.16ZM409.817 134.9C410.997 134.9 411.897 135.185 412.517 135.755C413.147 136.315 413.462 137.165 413.462 138.305V143H411.692V142.025C411.462 142.375 411.132 142.645 410.702 142.835C410.282 143.015 409.772 143.105 409.172 143.105C408.572 143.105 408.047 143.005 407.597 142.805C407.147 142.595 406.797 142.31 406.547 141.95C406.307 141.58 406.187 141.165 406.187 140.705C406.187 139.985 406.452 139.41 406.982 138.98C407.522 138.54 408.367 138.32 409.517 138.32H411.587V138.2C411.587 137.64 411.417 137.21 411.077 136.91C410.747 136.61 410.252 136.46 409.592 136.46C409.142 136.46 408.697 136.53 408.257 136.67C407.827 136.81 407.462 137.005 407.162 137.255L406.427 135.89C406.847 135.57 407.352 135.325 407.942 135.155C408.532 134.985 409.157 134.9 409.817 134.9ZM409.562 141.74C410.032 141.74 410.447 141.635 410.807 141.425C411.177 141.205 411.437 140.895 411.587 140.495V139.565H409.652C408.572 139.565 408.032 139.92 408.032 140.63C408.032 140.97 408.167 141.24 408.437 141.44C408.707 141.64 409.082 141.74 409.562 141.74ZM420.414 134.9C421.424 134.9 422.234 135.195 422.844 135.785C423.454 136.375 423.759 137.25 423.759 138.41V143H421.884V138.65C421.884 137.95 421.719 137.425 421.389 137.075C421.059 136.715 420.589 136.535 419.979 136.535C419.289 136.535 418.744 136.745 418.344 137.165C417.944 137.575 417.744 138.17 417.744 138.95V143H415.869V134.99H417.654V136.025C417.964 135.655 418.354 135.375 418.824 135.185C419.294 134.995 419.824 134.9 420.414 134.9ZM428.612 143.105C427.962 143.105 427.327 143.02 426.707 142.85C426.087 142.68 425.592 142.465 425.222 142.205L425.942 140.78C426.302 141.02 426.732 141.215 427.232 141.365C427.742 141.505 428.242 141.575 428.732 141.575C429.852 141.575 430.412 141.28 430.412 140.69C430.412 140.41 430.267 140.215 429.977 140.105C429.697 139.995 429.242 139.89 428.612 139.79C427.952 139.69 427.412 139.575 426.992 139.445C426.582 139.315 426.222 139.09 425.912 138.77C425.612 138.44 425.462 137.985 425.462 137.405C425.462 136.645 425.777 136.04 426.407 135.59C427.047 135.13 427.907 134.9 428.987 134.9C429.537 134.9 430.087 134.965 430.637 135.095C431.187 135.215 431.637 135.38 431.987 135.59L431.267 137.015C430.587 136.615 429.822 136.415 428.972 136.415C428.422 136.415 428.002 136.5 427.712 136.67C427.432 136.83 427.292 137.045 427.292 137.315C427.292 137.615 427.442 137.83 427.742 137.96C428.052 138.08 428.527 138.195 429.167 138.305C429.807 138.405 430.332 138.52 430.742 138.65C431.152 138.78 431.502 139 431.792 139.31C432.092 139.62 432.242 140.06 432.242 140.63C432.242 141.38 431.917 141.98 431.267 142.43C430.617 142.88 429.732 143.105 428.612 143.105ZM436.917 134.9C438.097 134.9 438.997 135.185 439.617 135.755C440.247 136.315 440.562 137.165 440.562 138.305V143H438.792V142.025C438.562 142.375 438.232 142.645 437.802 142.835C437.382 143.015 436.872 143.105 436.272 143.105C435.672 143.105 435.147 143.005 434.697 142.805C434.247 142.595 433.897 142.31 433.647 141.95C433.407 141.58 433.287 141.165 433.287 140.705C433.287 139.985 433.552 139.41 434.082 138.98C434.622 138.54 435.467 138.32 436.617 138.32H438.687V138.2C438.687 137.64 438.517 137.21 438.177 136.91C437.847 136.61 437.352 136.46 436.692 136.46C436.242 136.46 435.797 136.53 435.357 136.67C434.927 136.81 434.562 137.005 434.262 137.255L433.527 135.89C433.947 135.57 434.452 135.325 435.042 135.155C435.632 134.985 436.257 134.9 436.917 134.9ZM436.662 141.74C437.132 141.74 437.547 141.635 437.907 141.425C438.277 141.205 438.537 140.895 438.687 140.495V139.565H436.752C435.672 139.565 435.132 139.92 435.132 140.63C435.132 140.97 435.267 141.24 435.537 141.44C435.807 141.64 436.182 141.74 436.662 141.74ZM446.717 143.105C445.887 143.105 445.142 142.93 444.482 142.58C443.822 142.23 443.307 141.745 442.937 141.125C442.567 140.495 442.382 139.785 442.382 138.995C442.382 138.205 442.567 137.5 442.937 136.88C443.307 136.26 443.817 135.775 444.467 135.425C445.127 135.075 445.877 134.9 446.717 134.9C447.507 134.9 448.197 135.06 448.787 135.38C449.387 135.7 449.837 136.16 450.137 136.76L448.697 137.6C448.467 137.23 448.177 136.955 447.827 136.775C447.487 136.585 447.112 136.49 446.702 136.49C446.002 136.49 445.422 136.72 444.962 137.18C444.502 137.63 444.272 138.235 444.272 138.995C444.272 139.755 444.497 140.365 444.947 140.825C445.407 141.275 445.992 141.5 446.702 141.5C447.112 141.5 447.487 141.41 447.827 141.23C448.177 141.04 448.467 140.76 448.697 140.39L450.137 141.23C449.827 141.83 449.372 142.295 448.772 142.625C448.182 142.945 447.497 143.105 446.717 143.105ZM456.675 142.565C456.455 142.745 456.185 142.88 455.865 142.97C455.555 143.06 455.225 143.105 454.875 143.105C453.995 143.105 453.315 142.875 452.835 142.415C452.355 141.955 452.115 141.285 452.115 140.405V136.55H450.795V135.05H452.115V133.22H453.99V135.05H456.135V136.55H453.99V140.36C453.99 140.75 454.085 141.05 454.275 141.26C454.465 141.46 454.74 141.56 455.1 141.56C455.52 141.56 455.87 141.45 456.15 141.23L456.675 142.565ZM458.217 134.99H460.092V143H458.217V134.99ZM459.162 133.67C458.822 133.67 458.537 133.565 458.307 133.355C458.077 133.135 457.962 132.865 457.962 132.545C457.962 132.225 458.077 131.96 458.307 131.75C458.537 131.53 458.822 131.42 459.162 131.42C459.502 131.42 459.787 131.525 460.017 131.735C460.247 131.935 460.362 132.19 460.362 132.5C460.362 132.83 460.247 133.11 460.017 133.34C459.797 133.56 459.512 133.67 459.162 133.67ZM466.153 143.105C465.343 143.105 464.613 142.93 463.963 142.58C463.313 142.23 462.803 141.745 462.433 141.125C462.073 140.495 461.893 139.785 461.893 138.995C461.893 138.205 462.073 137.5 462.433 136.88C462.803 136.26 463.313 135.775 463.963 135.425C464.613 135.075 465.343 134.9 466.153 134.9C466.973 134.9 467.708 135.075 468.358 135.425C469.008 135.775 469.513 136.26 469.873 136.88C470.243 137.5 470.428 138.205 470.428 138.995C470.428 139.785 470.243 140.495 469.873 141.125C469.513 141.745 469.008 142.23 468.358 142.58C467.708 142.93 466.973 143.105 466.153 143.105ZM466.153 141.5C466.843 141.5 467.413 141.27 467.863 140.81C468.313 140.35 468.538 139.745 468.538 138.995C468.538 138.245 468.313 137.64 467.863 137.18C467.413 136.72 466.843 136.49 466.153 136.49C465.463 136.49 464.893 136.72 464.443 137.18C464.003 137.64 463.783 138.245 463.783 138.995C463.783 139.745 464.003 140.35 464.443 140.81C464.893 141.27 465.463 141.5 466.153 141.5ZM476.766 134.9C477.776 134.9 478.586 135.195 479.196 135.785C479.806 136.375 480.111 137.25 480.111 138.41V143H478.236V138.65C478.236 137.95 478.071 137.425 477.741 137.075C477.411 136.715 476.941 136.535 476.331 136.535C475.641 136.535 475.096 136.745 474.696 137.165C474.296 137.575 474.096 138.17 474.096 138.95V143H472.221V134.99H474.006V136.025C474.316 135.655 474.706 135.375 475.176 135.185C475.646 134.995 476.176 134.9 476.766 134.9ZM489.89 133.28C489.1 133.28 488.705 133.71 488.705 134.57V135.05H490.91V136.55H488.765V143H486.89V136.55H485.57V135.05H486.89V134.54C486.89 133.68 487.14 133.005 487.64 132.515C488.14 132.015 488.845 131.765 489.755 131.765C490.475 131.765 491.04 131.91 491.45 132.2L490.925 133.61C490.605 133.39 490.26 133.28 489.89 133.28ZM499.585 139.04C499.585 139.17 499.575 139.355 499.555 139.595H493.27C493.38 140.185 493.665 140.655 494.125 141.005C494.595 141.345 495.175 141.515 495.865 141.515C496.745 141.515 497.47 141.225 498.04 140.645L499.045 141.8C498.685 142.23 498.23 142.555 497.68 142.775C497.13 142.995 496.51 143.105 495.82 143.105C494.94 143.105 494.165 142.93 493.495 142.58C492.825 142.23 492.305 141.745 491.935 141.125C491.575 140.495 491.395 139.785 491.395 138.995C491.395 138.215 491.57 137.515 491.92 136.895C492.28 136.265 492.775 135.775 493.405 135.425C494.035 135.075 494.745 134.9 495.535 134.9C496.315 134.9 497.01 135.075 497.62 135.425C498.24 135.765 498.72 136.25 499.06 136.88C499.41 137.5 499.585 138.22 499.585 139.04ZM495.535 136.4C494.935 136.4 494.425 136.58 494.005 136.94C493.595 137.29 493.345 137.76 493.255 138.35H497.8C497.72 137.77 497.475 137.3 497.065 136.94C496.655 136.58 496.145 136.4 495.535 136.4ZM508.916 139.04C508.916 139.17 508.906 139.355 508.886 139.595H502.601C502.711 140.185 502.996 140.655 503.456 141.005C503.926 141.345 504.506 141.515 505.196 141.515C506.076 141.515 506.801 141.225 507.371 140.645L508.376 141.8C508.016 142.23 507.561 142.555 507.011 142.775C506.461 142.995 505.841 143.105 505.151 143.105C504.271 143.105 503.496 142.93 502.826 142.58C502.156 142.23 501.636 141.745 501.266 141.125C500.906 140.495 500.726 139.785 500.726 138.995C500.726 138.215 500.901 137.515 501.251 136.895C501.611 136.265 502.106 135.775 502.736 135.425C503.366 135.075 504.076 134.9 504.866 134.9C505.646 134.9 506.341 135.075 506.951 135.425C507.571 135.765 508.051 136.25 508.391 136.88C508.741 137.5 508.916 138.22 508.916 139.04ZM504.866 136.4C504.266 136.4 503.756 136.58 503.336 136.94C502.926 137.29 502.676 137.76 502.586 138.35H507.131C507.051 137.77 506.806 137.3 506.396 136.94C505.986 136.58 505.476 136.4 504.866 136.4Z" fill="#6C6C8A"/>
<path d="M154.291 96.108H165.331V91.646H154.291V90.312C154.291 85.85 156.959 83.596 161.835 83.596C164.319 83.596 166.757 84.056 168.735 85.252L170.989 79.364C168.551 77.984 165.515 77.248 161.743 77.248C152.267 77.248 146.793 82.262 146.793 90.45V91.646H142.193V96.108H146.793V104.02H142.193V110H170.069V104.02H154.291V96.108ZM185.561 110.552C193.519 110.552 199.361 104.526 199.361 93.9C199.361 83.274 193.519 77.248 185.561 77.248C177.649 77.248 171.761 83.274 171.761 93.9C171.761 104.526 177.649 110.552 185.561 110.552ZM185.561 104.25C181.881 104.25 179.305 101.214 179.305 93.9C179.305 86.586 181.881 83.55 185.561 83.55C189.287 83.55 191.863 86.586 191.863 93.9C191.863 101.214 189.287 104.25 185.561 104.25Z" fill="#2CD19E"/>
<path d="M128.002 143L127.987 136.04L124.537 141.8H123.667L120.217 136.13V143H118.357V132.5H119.962L124.132 139.46L128.227 132.5H129.832L129.847 143H128.002ZM136.103 143.105C135.293 143.105 134.563 142.93 133.913 142.58C133.263 142.23 132.753 141.745 132.383 141.125C132.023 140.495 131.843 139.785 131.843 138.995C131.843 138.205 132.023 137.5 132.383 136.88C132.753 136.26 133.263 135.775 133.913 135.425C134.563 135.075 135.293 134.9 136.103 134.9C136.923 134.9 137.658 135.075 138.308 135.425C138.958 135.775 139.463 136.26 139.823 136.88C140.193 137.5 140.378 138.205 140.378 138.995C140.378 139.785 140.193 140.495 139.823 141.125C139.463 141.745 138.958 142.23 138.308 142.58C137.658 142.93 136.923 143.105 136.103 143.105ZM136.103 141.5C136.793 141.5 137.363 141.27 137.813 140.81C138.263 140.35 138.488 139.745 138.488 138.995C138.488 138.245 138.263 137.64 137.813 137.18C137.363 136.72 136.793 136.49 136.103 136.49C135.413 136.49 134.843 136.72 134.393 137.18C133.953 137.64 133.733 138.245 133.733 138.995C133.733 139.745 133.953 140.35 134.393 140.81C134.843 141.27 135.413 141.5 136.103 141.5ZM146.716 134.9C147.726 134.9 148.536 135.195 149.146 135.785C149.756 136.375 150.061 137.25 150.061 138.41V143H148.186V138.65C148.186 137.95 148.021 137.425 147.691 137.075C147.361 136.715 146.891 136.535 146.281 136.535C145.591 136.535 145.046 136.745 144.646 137.165C144.246 137.575 144.046 138.17 144.046 138.95V143H142.171V134.99H143.956V136.025C144.266 135.655 144.656 135.375 145.126 135.185C145.596 134.995 146.126 134.9 146.716 134.9ZM157.255 142.565C157.035 142.745 156.765 142.88 156.445 142.97C156.135 143.06 155.805 143.105 155.455 143.105C154.575 143.105 153.895 142.875 153.415 142.415C152.935 141.955 152.695 141.285 152.695 140.405V136.55H151.375V135.05H152.695V133.22H154.57V135.05H156.715V136.55H154.57V140.36C154.57 140.75 154.665 141.05 154.855 141.26C155.045 141.46 155.32 141.56 155.68 141.56C156.1 141.56 156.45 141.45 156.73 141.23L157.255 142.565ZM163.342 134.9C164.352 134.9 165.162 135.195 165.772 135.785C166.382 136.375 166.687 137.25 166.687 138.41V143H164.812V138.65C164.812 137.95 164.647 137.425 164.317 137.075C163.987 136.715 163.517 136.535 162.907 136.535C162.217 136.535 161.672 136.745 161.272 137.165C160.872 137.575 160.672 138.17 160.672 138.95V143H158.797V131.87H160.672V135.92C160.982 135.59 161.362 135.34 161.812 135.17C162.272 134.99 162.782 134.9 163.342 134.9ZM169.066 131.87H170.941V143H169.066V131.87ZM180.902 134.99L177.152 143.645C176.802 144.515 176.377 145.125 175.877 145.475C175.377 145.835 174.772 146.015 174.062 146.015C173.662 146.015 173.267 145.95 172.877 145.82C172.487 145.69 172.167 145.51 171.917 145.28L172.667 143.9C172.847 144.07 173.057 144.205 173.297 144.305C173.547 144.405 173.797 144.455 174.047 144.455C174.377 144.455 174.647 144.37 174.857 144.2C175.077 144.03 175.277 143.745 175.457 143.345L175.592 143.03L172.097 134.99H174.047L176.567 140.915L179.102 134.99H180.902ZM189.894 143.105C189.064 143.105 188.319 142.93 187.659 142.58C186.999 142.23 186.484 141.745 186.114 141.125C185.744 140.495 185.559 139.785 185.559 138.995C185.559 138.205 185.744 137.5 186.114 136.88C186.484 136.26 186.994 135.775 187.644 135.425C188.304 135.075 189.054 134.9 189.894 134.9C190.684 134.9 191.374 135.06 191.964 135.38C192.564 135.7 193.014 136.16 193.314 136.76L191.874 137.6C191.644 137.23 191.354 136.955 191.004 136.775C190.664 136.585 190.289 136.49 189.879 136.49C189.179 136.49 188.599 136.72 188.139 137.18C187.679 137.63 187.449 138.235 187.449 138.995C187.449 139.755 187.674 140.365 188.124 140.825C188.584 141.275 189.169 141.5 189.879 141.5C190.289 141.5 190.664 141.41 191.004 141.23C191.354 141.04 191.644 140.76 191.874 140.39L193.314 141.23C193.004 141.83 192.549 142.295 191.949 142.625C191.359 142.945 190.674 143.105 189.894 143.105ZM198.418 143.105C197.608 143.105 196.878 142.93 196.228 142.58C195.578 142.23 195.068 141.745 194.698 141.125C194.338 140.495 194.158 139.785 194.158 138.995C194.158 138.205 194.338 137.5 194.698 136.88C195.068 136.26 195.578 135.775 196.228 135.425C196.878 135.075 197.608 134.9 198.418 134.9C199.238 134.9 199.973 135.075 200.623 135.425C201.273 135.775 201.778 136.26 202.138 136.88C202.508 137.5 202.693 138.205 202.693 138.995C202.693 139.785 202.508 140.495 202.138 141.125C201.778 141.745 201.273 142.23 200.623 142.58C199.973 142.93 199.238 143.105 198.418 143.105ZM198.418 141.5C199.108 141.5 199.678 141.27 200.128 140.81C200.578 140.35 200.803 139.745 200.803 138.995C200.803 138.245 200.578 137.64 200.128 137.18C199.678 136.72 199.108 136.49 198.418 136.49C197.728 136.49 197.158 136.72 196.708 137.18C196.268 137.64 196.048 138.245 196.048 138.995C196.048 139.745 196.268 140.35 196.708 140.81C197.158 141.27 197.728 141.5 198.418 141.5ZM206.961 143.105C206.311 143.105 205.676 143.02 205.056 142.85C204.436 142.68 203.941 142.465 203.571 142.205L204.291 140.78C204.651 141.02 205.081 141.215 205.581 141.365C206.091 141.505 206.591 141.575 207.081 141.575C208.201 141.575 208.761 141.28 208.761 140.69C208.761 140.41 208.616 140.215 208.326 140.105C208.046 139.995 207.591 139.89 206.961 139.79C206.301 139.69 205.761 139.575 205.341 139.445C204.931 139.315 204.571 139.09 204.261 138.77C203.961 138.44 203.811 137.985 203.811 137.405C203.811 136.645 204.126 136.04 204.756 135.59C205.396 135.13 206.256 134.9 207.336 134.9C207.886 134.9 208.436 134.965 208.986 135.095C209.536 135.215 209.986 135.38 210.336 135.59L209.616 137.015C208.936 136.615 208.171 136.415 207.321 136.415C206.771 136.415 206.351 136.5 206.061 136.67C205.781 136.83 205.641 137.045 205.641 137.315C205.641 137.615 205.791 137.83 206.091 137.96C206.401 138.08 206.876 138.195 207.516 138.305C208.156 138.405 208.681 138.52 209.091 138.65C209.501 138.78 209.851 139 210.141 139.31C210.441 139.62 210.591 140.06 210.591 140.63C210.591 141.38 210.266 141.98 209.616 142.43C208.966 142.88 208.081 143.105 206.961 143.105ZM217.021 142.565C216.801 142.745 216.531 142.88 216.211 142.97C215.901 143.06 215.571 143.105 215.221 143.105C214.341 143.105 213.661 142.875 213.181 142.415C212.701 141.955 212.461 141.285 212.461 140.405V136.55H211.141V135.05H212.461V133.22H214.336V135.05H216.481V136.55H214.336V140.36C214.336 140.75 214.431 141.05 214.621 141.26C214.811 141.46 215.086 141.56 215.446 141.56C215.866 141.56 216.216 141.45 216.496 141.23L217.021 142.565ZM221.038 143.105C220.388 143.105 219.753 143.02 219.133 142.85C218.513 142.68 218.018 142.465 217.648 142.205L218.368 140.78C218.728 141.02 219.158 141.215 219.658 141.365C220.168 141.505 220.668 141.575 221.158 141.575C222.278 141.575 222.838 141.28 222.838 140.69C222.838 140.41 222.693 140.215 222.403 140.105C222.123 139.995 221.668 139.89 221.038 139.79C220.378 139.69 219.838 139.575 219.418 139.445C219.008 139.315 218.648 139.09 218.338 138.77C218.038 138.44 217.888 137.985 217.888 137.405C217.888 136.645 218.203 136.04 218.833 135.59C219.473 135.13 220.333 134.9 221.413 134.9C221.963 134.9 222.513 134.965 223.063 135.095C223.613 135.215 224.063 135.38 224.413 135.59L223.693 137.015C223.013 136.615 222.248 136.415 221.398 136.415C220.848 136.415 220.428 136.5 220.138 136.67C219.858 136.83 219.718 137.045 219.718 137.315C219.718 137.615 219.868 137.83 220.168 137.96C220.478 138.08 220.953 138.195 221.593 138.305C222.233 138.405 222.758 138.52 223.168 138.65C223.578 138.78 223.928 139 224.218 139.31C224.518 139.62 224.668 140.06 224.668 140.63C224.668 141.38 224.343 141.98 223.693 142.43C223.043 142.88 222.158 143.105 221.038 143.105Z" fill="#6C6C8A"/>
<defs>
<filter id="filter0_d_1536_309" x="0" y="0" width="342" height="245" filterUnits="userSpaceOnUse" color-interpolation-filters="sRGB">
<feFlood flood-opacity="0" result="BackgroundImageFix"/>
<feColorMatrix in="SourceAlpha" type="matrix" values="0 0 0 0 0 0 0 0 0 0 0 0 0 0 0 0 0 0 127 0" result="hardAlpha"/>
<feOffset dy="9"/>
<feGaussianBlur stdDeviation="22.5"/>
<feComposite in2="hardAlpha" operator="out"/>
<feColorMatrix type="matrix" values="0 0 0 0 0.505882 0 0 0 0 0.505882 0 0 0 0 0.647059 0 0 0 0.4 0"/>
<feBlend mode="normal" in2="BackgroundImageFix" result="effect1_dropShadow_1536_309"/>
<feBlend mode="normal" in="SourceGraphic" in2="effect1_dropShadow_1536_309" result="shape"/>
</filter>
<filter id="filter1_d_1536_309" x="280" y="1" width="340" height="243" filterUnits="userSpaceOnUse" color-interpolation-filters="sRGB">
<feFlood flood-opacity="0" result="BackgroundImageFix"/>
<feColorMatrix in="SourceAlpha" type="matrix" values="0 0 0 0 0 0 0 0 0 0 0 0 0 0 0 0 0 0 127 0" result="hardAlpha"/>
<feOffset dy="9"/>
<feGaussianBlur stdDeviation="22.5"/>
<feComposite in2="hardAlpha" operator="out"/>
<feColorMatrix type="matrix" values="0 0 0 0 0.505882 0 0 0 0 0.505882 0 0 0 0 0.647059 0 0 0 0.4 0"/>
<feBlend mode="normal" in2="BackgroundImageFix" result="effect1_dropShadow_1536_309"/>
<feBlend mode="normal" in="SourceGraphic" in2="effect1_dropShadow_1536_309" result="shape"/>
</filter>
</defs>
</svg>
