<svg width="467" height="270" viewBox="0 0 467 270" fill="none" xmlns="http://www.w3.org/2000/svg">
<path d="M0 9.99999C0 4.47715 4.47715 0 10 0H467V250C467 261.046 458.046 270 447 270H0V9.99999Z" fill="url(#paint0_linear_1041_1044)"/>
<path d="M0.5 9.99999C0.5 4.75329 4.75329 0.5 10 0.5H466.5V250C466.5 260.77 457.77 269.5 447 269.5H0.5V9.99999Z" stroke="#38B6FF" stroke-opacity="0.34"/>
<path d="M27.6546 32.6V33.644H29.5506V41H30.7386V32.6H27.6546Z" fill="#55718D"/>
<path d="M28.2814 62.956L30.8494 60.484C31.9894 59.392 32.2294 58.66 32.2294 57.844C32.2294 56.404 31.1014 55.504 29.3494 55.504C28.0414 55.504 26.9254 55.972 26.2774 56.776L27.0934 57.484C27.6094 56.86 28.3414 56.572 29.2414 56.572C30.4174 56.572 31.0294 57.1 31.0294 57.964C31.0294 58.492 30.8614 59.02 29.9734 59.884L26.5534 63.184V64H32.5894V62.956H28.2814Z" fill="#55718D"/>
<path d="M29.9248 82.128L32.1208 79.416V78.6H26.5768V79.644H30.6208L28.5088 82.236V83.076H29.1808C30.6208 83.076 31.2568 83.652 31.2568 84.54C31.2568 85.452 30.5368 86.028 29.2768 86.028C28.2448 86.028 27.3088 85.656 26.7448 85.128L26.1928 86.076C26.9008 86.712 28.0768 87.096 29.2768 87.096C31.4128 87.096 32.4568 85.944 32.4568 84.528C32.4568 83.232 31.6048 82.284 29.9248 82.128Z" fill="#55718D"/>
<path d="M32.8567 106.904H31.2607V105.08H30.1327V106.904H26.9047L31.0207 101.6H29.7247L25.4287 107.096V107.936H30.0967V110H31.2607V107.936H32.8567V106.904Z" fill="#55718D"/>
<path d="M29.0854 127.948H28.1494L28.3774 125.644H32.1094V124.6H27.3694L26.9254 128.992H28.8334C30.7774 128.992 31.3774 129.58 31.3774 130.528C31.3774 131.44 30.6574 132.028 29.3854 132.028C28.3654 132.028 27.4294 131.656 26.8654 131.128L26.3134 132.076C27.0334 132.712 28.2094 133.096 29.3974 133.096C31.5454 133.096 32.5774 131.932 32.5774 130.48C32.5774 128.992 31.5934 127.948 29.0854 127.948Z" fill="#55718D"/>
<path d="M29.7938 150.9C28.7498 150.9 27.8618 151.284 27.3818 152.004C27.3698 151.896 27.3698 151.8 27.3698 151.704C27.3698 149.604 28.4618 148.536 30.1658 148.536C30.7658 148.536 31.3418 148.644 31.7738 148.932L32.2298 147.996C31.6898 147.66 30.9338 147.504 30.1418 147.504C27.7898 147.504 26.1698 149.04 26.1698 151.908C26.1698 154.584 27.4418 156.096 29.6978 156.096C31.3658 156.096 32.6738 155.064 32.6738 153.444C32.6738 151.896 31.4618 150.9 29.7938 150.9ZM29.6498 155.124C28.3538 155.124 27.6578 154.368 27.6578 153.504C27.6578 152.58 28.4498 151.872 29.5898 151.872C30.7658 151.872 31.5098 152.508 31.5098 153.492C31.5098 154.488 30.7418 155.124 29.6498 155.124Z" fill="#55718D"/>
<path d="M26.1881 170.6V173.144H27.3401V171.644H31.1801L27.8561 179H29.1281L32.5241 171.416V170.6H26.1881Z" fill="#55718D"/>
<path d="M30.9893 197.596C31.7573 197.236 32.1773 196.612 32.1773 195.784C32.1773 194.38 30.9533 193.504 29.1293 193.504C27.3173 193.504 26.1053 194.38 26.1053 195.784C26.1053 196.612 26.5133 197.236 27.2813 197.596C26.3333 197.956 25.8053 198.664 25.8053 199.624C25.8053 201.148 27.0893 202.096 29.1293 202.096C31.1813 202.096 32.4773 201.148 32.4773 199.624C32.4773 198.664 31.9493 197.968 30.9893 197.596ZM29.1293 194.476C30.2573 194.476 31.0013 194.992 31.0013 195.832C31.0013 196.66 30.2933 197.176 29.1293 197.176C27.9773 197.176 27.2933 196.66 27.2933 195.832C27.2933 194.992 28.0013 194.476 29.1293 194.476ZM29.1293 201.124C27.7973 201.124 27.0053 200.536 27.0053 199.588C27.0053 198.664 27.7973 198.088 29.1293 198.088C30.4613 198.088 31.2773 198.664 31.2773 199.588C31.2773 200.536 30.4613 201.124 29.1293 201.124Z" fill="#55718D"/>
<path d="M28.8938 216.504C27.2258 216.504 25.9298 217.536 25.9298 219.156C25.9298 220.704 27.1298 221.7 28.7978 221.7C29.8418 221.7 30.7298 221.328 31.2218 220.596V220.896C31.2218 222.996 30.1418 224.064 28.4378 224.064C27.8258 224.064 27.2618 223.956 26.8178 223.668L26.3618 224.604C26.9018 224.94 27.6578 225.096 28.4498 225.096C30.8018 225.096 32.4218 223.56 32.4218 220.692C32.4218 218.016 31.1498 216.504 28.8938 216.504ZM29.0018 220.728C27.8258 220.728 27.0938 220.092 27.0938 219.108C27.0938 218.112 27.8498 217.476 28.9418 217.476C30.2498 217.476 30.9458 218.232 30.9458 219.096C30.9458 220.02 30.1538 220.728 29.0018 220.728Z" fill="#55718D"/>
<path d="M20.6507 239.6V240.644H22.5467V248H23.7347V239.6H20.6507ZM29.0041 248.096C30.9601 248.096 32.4241 246.536 32.4241 243.8C32.4241 241.064 30.9601 239.504 29.0041 239.504C27.0361 239.504 25.5721 241.064 25.5721 243.8C25.5721 246.536 27.0361 248.096 29.0041 248.096ZM29.0041 247.028C27.6841 247.028 26.7721 245.948 26.7721 243.8C26.7721 241.652 27.6841 240.572 29.0041 240.572C30.3121 240.572 31.2241 241.652 31.2241 243.8C31.2241 245.948 30.3121 247.028 29.0041 247.028Z" fill="#55718D"/>
<path d="M65.3791 42.084C66.6271 42.084 67.6231 41.544 68.1151 40.584L66.9631 39.912C66.5791 40.524 66.0031 40.8 65.3671 40.8C64.2631 40.8 63.4231 40.044 63.4231 38.796C63.4231 37.56 64.2631 36.792 65.3671 36.792C66.0031 36.792 66.5791 37.068 66.9631 37.68L68.1151 37.008C67.6231 36.036 66.6271 35.52 65.3791 35.52C63.3511 35.52 61.9111 36.876 61.9111 38.796C61.9111 40.716 63.3511 42.084 65.3791 42.084ZM72.198 42.084C74.19 42.084 75.618 40.716 75.618 38.796C75.618 36.876 74.19 35.52 72.198 35.52C70.23 35.52 68.79 36.876 68.79 38.796C68.79 40.716 70.23 42.084 72.198 42.084ZM72.198 40.8C71.118 40.8 70.302 40.02 70.302 38.796C70.302 37.572 71.118 36.792 72.198 36.792C73.29 36.792 74.106 37.572 74.106 38.796C74.106 40.02 73.29 40.8 72.198 40.8ZM80.6884 35.52C79.7524 35.52 78.9724 35.832 78.4804 36.42V35.592H77.0524V42H78.5524V38.76C78.5524 37.476 79.2724 36.828 80.3404 36.828C81.3004 36.828 81.8644 37.38 81.8644 38.52V42H83.3644V38.328C83.3644 36.396 82.2244 35.52 80.6884 35.52ZM87.2472 42.084C89.0472 42.084 90.1512 41.304 90.1512 40.104C90.1512 37.596 86.1912 38.748 86.1912 37.452C86.1912 37.032 86.6232 36.732 87.5352 36.732C88.1472 36.732 88.7592 36.852 89.3712 37.212L89.9472 36.072C89.3712 35.724 88.3992 35.52 87.5472 35.52C85.8192 35.52 84.7272 36.312 84.7272 37.524C84.7272 40.08 88.6872 38.928 88.6872 40.152C88.6872 40.596 88.2912 40.86 87.3432 40.86C86.5392 40.86 85.6752 40.596 85.1112 40.224L84.5352 41.364C85.1112 41.772 86.1792 42.084 87.2472 42.084ZM94.875 40.584C94.647 40.764 94.347 40.848 94.035 40.848C93.459 40.848 93.147 40.512 93.147 39.888V36.84H94.863V35.64H93.147V34.176H91.647V35.64H90.591V36.84H91.647V39.924C91.647 41.34 92.451 42.084 93.855 42.084C94.395 42.084 94.935 41.94 95.295 41.652L94.875 40.584Z" fill="#38B6FF"/>
<path d="M65.3791 65.084C66.6271 65.084 67.6231 64.544 68.1151 63.584L66.9631 62.912C66.5791 63.524 66.0031 63.8 65.3671 63.8C64.2631 63.8 63.4231 63.044 63.4231 61.796C63.4231 60.56 64.2631 59.792 65.3671 59.792C66.0031 59.792 66.5791 60.068 66.9631 60.68L68.1151 60.008C67.6231 59.036 66.6271 58.52 65.3791 58.52C63.3511 58.52 61.9111 59.876 61.9111 61.796C61.9111 63.716 63.3511 65.084 65.3791 65.084ZM72.198 65.084C74.19 65.084 75.618 63.716 75.618 61.796C75.618 59.876 74.19 58.52 72.198 58.52C70.23 58.52 68.79 59.876 68.79 61.796C68.79 63.716 70.23 65.084 72.198 65.084ZM72.198 63.8C71.118 63.8 70.302 63.02 70.302 61.796C70.302 60.572 71.118 59.792 72.198 59.792C73.29 59.792 74.106 60.572 74.106 61.796C74.106 63.02 73.29 63.8 72.198 63.8ZM80.6884 58.52C79.7524 58.52 78.9724 58.832 78.4804 59.42V58.592H77.0524V65H78.5524V61.76C78.5524 60.476 79.2724 59.828 80.3404 59.828C81.3004 59.828 81.8644 60.38 81.8644 61.52V65H83.3644V61.328C83.3644 59.396 82.2244 58.52 80.6884 58.52ZM87.2472 65.084C89.0472 65.084 90.1512 64.304 90.1512 63.104C90.1512 60.596 86.1912 61.748 86.1912 60.452C86.1912 60.032 86.6232 59.732 87.5352 59.732C88.1472 59.732 88.7592 59.852 89.3712 60.212L89.9472 59.072C89.3712 58.724 88.3992 58.52 87.5472 58.52C85.8192 58.52 84.7272 59.312 84.7272 60.524C84.7272 63.08 88.6872 61.928 88.6872 63.152C88.6872 63.596 88.2912 63.86 87.3432 63.86C86.5392 63.86 85.6752 63.596 85.1112 63.224L84.5352 64.364C85.1112 64.772 86.1792 65.084 87.2472 65.084ZM94.875 63.584C94.647 63.764 94.347 63.848 94.035 63.848C93.459 63.848 93.147 63.512 93.147 62.888V59.84H94.863V58.64H93.147V57.176H91.647V58.64H90.591V59.84H91.647V62.924C91.647 64.34 92.451 65.084 93.855 65.084C94.395 65.084 94.935 64.94 95.295 64.652L94.875 63.584Z" fill="#38B6FF"/>
<path d="M109.74 80.536C110.304 80.536 110.7 80.128 110.7 79.6C110.7 79.108 110.292 78.736 109.74 78.736C109.188 78.736 108.78 79.132 108.78 79.636C108.78 80.14 109.188 80.536 109.74 80.536ZM108.984 88H110.484V81.592H108.984V88ZM114.901 81.52C113.869 81.52 112.873 81.784 112.189 82.312L112.777 83.404C113.257 83.008 114.001 82.768 114.721 82.768C115.789 82.768 116.317 83.284 116.317 84.16V84.256H114.661C112.717 84.256 111.997 85.096 111.997 86.164C111.997 87.28 112.921 88.084 114.385 88.084C115.345 88.084 116.041 87.772 116.401 87.22V88H117.817V84.244C117.817 82.396 116.749 81.52 114.901 81.52ZM114.697 86.992C113.929 86.992 113.473 86.644 113.473 86.104C113.473 85.636 113.749 85.252 114.769 85.252H116.317V85.996C116.065 86.656 115.429 86.992 114.697 86.992ZM123.174 86.584C122.946 86.764 122.646 86.848 122.334 86.848C121.758 86.848 121.446 86.512 121.446 85.888V82.84H123.162V81.64H121.446V80.176H119.946V81.64H118.89V82.84H119.946V85.924C119.946 87.34 120.75 88.084 122.154 88.084C122.694 88.084 123.234 87.94 123.594 87.652L123.174 86.584Z" fill="#2CD19E"/>
<path d="M128.624 83.512C129.164 83.512 129.608 83.092 129.608 82.516C129.608 81.916 129.164 81.52 128.624 81.52C128.084 81.52 127.64 81.916 127.64 82.516C127.64 83.092 128.084 83.512 128.624 83.512ZM128.624 88.084C129.164 88.084 129.608 87.664 129.608 87.088C129.608 86.488 129.164 86.092 128.624 86.092C128.084 86.092 127.64 86.488 127.64 87.088C127.64 87.664 128.084 88.084 128.624 88.084ZM140.647 88.084C141.895 88.084 142.891 87.544 143.383 86.584L142.231 85.912C141.847 86.524 141.271 86.8 140.635 86.8C139.531 86.8 138.691 86.044 138.691 84.796C138.691 83.56 139.531 82.792 140.635 82.792C141.271 82.792 141.847 83.068 142.231 83.68L143.383 83.008C142.891 82.036 141.895 81.52 140.647 81.52C138.619 81.52 137.179 82.876 137.179 84.796C137.179 86.716 138.619 88.084 140.647 88.084ZM149.383 81.592V84.832C149.383 86.116 148.675 86.764 147.631 86.764C146.683 86.764 146.131 86.212 146.131 85.048V81.592H144.631V85.252C144.631 87.184 145.747 88.084 147.391 88.084C148.219 88.084 148.975 87.772 149.455 87.184V88H150.883V81.592H149.383ZM154.275 82.528V81.592H152.847V88H154.347V84.892C154.347 83.584 155.067 82.912 156.207 82.912C156.315 82.912 156.423 82.924 156.555 82.948V81.52C155.487 81.52 154.707 81.856 154.275 82.528ZM159.256 82.528V81.592H157.828V88H159.328V84.892C159.328 83.584 160.048 82.912 161.188 82.912C161.296 82.912 161.404 82.924 161.536 82.948V81.52C160.468 81.52 159.688 81.856 159.256 82.528ZM168.774 84.832C168.774 82.828 167.406 81.52 165.534 81.52C163.626 81.52 162.222 82.888 162.222 84.796C162.222 86.704 163.614 88.084 165.762 88.084C166.866 88.084 167.766 87.724 168.342 87.04L167.538 86.116C167.082 86.584 166.518 86.812 165.798 86.812C164.682 86.812 163.902 86.212 163.722 85.276H168.75C168.762 85.132 168.774 84.952 168.774 84.832ZM165.534 82.72C166.518 82.72 167.226 83.356 167.346 84.28H163.71C163.854 83.344 164.562 82.72 165.534 82.72ZM173.85 81.52C172.914 81.52 172.134 81.832 171.642 82.42V81.592H170.214V88H171.714V84.76C171.714 83.476 172.434 82.828 173.502 82.828C174.462 82.828 175.026 83.38 175.026 84.52V88H176.526V84.328C176.526 82.396 175.386 81.52 173.85 81.52ZM181.861 86.584C181.633 86.764 181.333 86.848 181.021 86.848C180.445 86.848 180.133 86.512 180.133 85.888V82.84H181.849V81.64H180.133V80.176H178.633V81.64H177.577V82.84H178.633V85.924C178.633 87.34 179.437 88.084 180.841 88.084C181.381 88.084 181.921 87.94 182.281 87.652L181.861 86.584ZM187.271 88.12C189.563 88.12 190.943 86.788 190.943 84.34V79.6H189.407V84.28C189.407 86.008 188.639 86.752 187.283 86.752C185.927 86.752 185.147 86.008 185.147 84.28V79.6H183.587V84.34C183.587 86.788 184.967 88.12 187.271 88.12ZM196.62 81.52C195.684 81.52 194.904 81.832 194.412 82.42V81.592H192.984V88H194.484V84.76C194.484 83.476 195.204 82.828 196.272 82.828C197.232 82.828 197.796 83.38 197.796 84.52V88H199.296V84.328C199.296 82.396 198.156 81.52 196.62 81.52ZM201.955 80.536C202.519 80.536 202.915 80.128 202.915 79.6C202.915 79.108 202.507 78.736 201.955 78.736C201.403 78.736 200.995 79.132 200.995 79.636C200.995 80.14 201.403 80.536 201.955 80.536ZM201.199 88H202.699V81.592H201.199V88ZM210.44 88L207.932 84.724L210.332 81.592H208.712L207.14 83.692L205.568 81.592H203.9L206.288 84.748L203.792 88H205.448L207.104 85.78L208.748 88H210.44ZM213.008 88H214.568V80.92H217.352V79.6H210.224V80.92H213.008V88ZM218.982 80.536C219.546 80.536 219.942 80.128 219.942 79.6C219.942 79.108 219.534 78.736 218.982 78.736C218.43 78.736 218.022 79.132 218.022 79.636C218.022 80.14 218.43 80.536 218.982 80.536ZM218.226 88H219.726V81.592H218.226V88ZM229.783 81.52C228.763 81.52 227.899 81.928 227.383 82.588C226.939 81.868 226.159 81.52 225.223 81.52C224.347 81.52 223.603 81.832 223.123 82.408V81.592H221.695V88H223.195V84.748C223.195 83.476 223.867 82.828 224.863 82.828C225.775 82.828 226.303 83.38 226.303 84.52V88H227.803V84.748C227.803 83.476 228.487 82.828 229.471 82.828C230.383 82.828 230.911 83.38 230.911 84.52V88H232.411V84.328C232.411 82.396 231.331 81.52 229.783 81.52ZM240.41 84.832C240.41 82.828 239.042 81.52 237.17 81.52C235.262 81.52 233.858 82.888 233.858 84.796C233.858 86.704 235.25 88.084 237.398 88.084C238.502 88.084 239.402 87.724 239.978 87.04L239.174 86.116C238.718 86.584 238.154 86.812 237.434 86.812C236.318 86.812 235.538 86.212 235.358 85.276H240.386C240.398 85.132 240.41 84.952 240.41 84.832ZM237.17 82.72C238.154 82.72 238.862 83.356 238.982 84.28H235.346C235.49 83.344 236.198 82.72 237.17 82.72ZM244.599 88.12C246.903 88.12 247.995 86.968 247.995 85.624C247.995 82.54 243.015 83.704 243.015 81.916C243.015 81.28 243.543 80.776 244.839 80.776C245.571 80.776 246.399 80.992 247.155 81.436L247.647 80.224C246.915 79.744 245.859 79.48 244.851 79.48C242.547 79.48 241.467 80.632 241.467 81.988C241.467 85.108 246.459 83.92 246.459 85.732C246.459 86.356 245.907 86.824 244.599 86.824C243.567 86.824 242.499 86.44 241.827 85.9L241.287 87.112C241.983 87.712 243.291 88.12 244.599 88.12ZM252.83 86.584C252.602 86.764 252.302 86.848 251.99 86.848C251.414 86.848 251.102 86.512 251.102 85.888V82.84H252.818V81.64H251.102V80.176H249.602V81.64H248.546V82.84H249.602V85.924C249.602 87.34 250.406 88.084 251.81 88.084C252.35 88.084 252.89 87.94 253.25 87.652L252.83 86.584ZM256.932 81.52C255.9 81.52 254.904 81.784 254.22 82.312L254.808 83.404C255.288 83.008 256.032 82.768 256.752 82.768C257.82 82.768 258.348 83.284 258.348 84.16V84.256H256.692C254.748 84.256 254.028 85.096 254.028 86.164C254.028 87.28 254.952 88.084 256.416 88.084C257.376 88.084 258.072 87.772 258.432 87.22V88H259.848V84.244C259.848 82.396 258.78 81.52 256.932 81.52ZM256.728 86.992C255.96 86.992 255.504 86.644 255.504 86.104C255.504 85.636 255.78 85.252 256.8 85.252H258.348V85.996C258.096 86.656 257.46 86.992 256.728 86.992ZM269.861 81.52C268.841 81.52 267.977 81.928 267.461 82.588C267.017 81.868 266.237 81.52 265.301 81.52C264.425 81.52 263.681 81.832 263.201 82.408V81.592H261.773V88H263.273V84.748C263.273 83.476 263.945 82.828 264.941 82.828C265.853 82.828 266.381 83.38 266.381 84.52V88H267.881V84.748C267.881 83.476 268.565 82.828 269.549 82.828C270.461 82.828 270.989 83.38 270.989 84.52V88H272.489V84.328C272.489 82.396 271.409 81.52 269.861 81.52ZM277.958 81.52C277.082 81.52 276.338 81.82 275.834 82.432V81.592H274.406V90.328H275.906V87.22C276.422 87.808 277.142 88.084 277.958 88.084C279.83 88.084 281.21 86.788 281.21 84.796C281.21 82.816 279.83 81.52 277.958 81.52ZM277.79 86.8C276.71 86.8 275.882 86.02 275.882 84.796C275.882 83.572 276.71 82.792 277.79 82.792C278.87 82.792 279.686 83.572 279.686 84.796C279.686 86.02 278.87 86.8 277.79 86.8ZM286.441 86.092C285.889 86.092 285.469 86.488 285.469 87.088C285.469 87.52 285.697 87.832 286.033 87.976L285.553 89.812H286.525L287.137 88.12C287.353 87.568 287.413 87.352 287.413 87.088C287.413 86.5 287.005 86.092 286.441 86.092Z" fill="#DBE3EB"/>
<path d="M115.008 107.832C115.008 105.828 113.64 104.52 111.768 104.52C109.86 104.52 108.456 105.888 108.456 107.796C108.456 109.704 109.848 111.084 111.996 111.084C113.1 111.084 114 110.724 114.576 110.04L113.772 109.116C113.316 109.584 112.752 109.812 112.032 109.812C110.916 109.812 110.136 109.212 109.956 108.276H114.984C114.996 108.132 115.008 107.952 115.008 107.832ZM111.768 105.72C112.752 105.72 113.46 106.356 113.58 107.28H109.944C110.088 106.344 110.796 105.72 111.768 105.72ZM122.045 111L119.537 107.724L121.937 104.592H120.317L118.745 106.692L117.173 104.592H115.505L117.893 107.748L115.397 111H117.053L118.709 108.78L120.353 111H122.045ZM126.704 104.52C125.828 104.52 125.084 104.82 124.58 105.432V104.592H123.152V113.328H124.652V110.22C125.168 110.808 125.888 111.084 126.704 111.084C128.576 111.084 129.956 109.788 129.956 107.796C129.956 105.816 128.576 104.52 126.704 104.52ZM126.536 109.8C125.456 109.8 124.628 109.02 124.628 107.796C124.628 106.572 125.456 105.792 126.536 105.792C127.616 105.792 128.432 106.572 128.432 107.796C128.432 109.02 127.616 109.8 126.536 109.8Z" fill="#2CD19E"/>
<path d="M135.175 106.512C135.715 106.512 136.159 106.092 136.159 105.516C136.159 104.916 135.715 104.52 135.175 104.52C134.635 104.52 134.191 104.916 134.191 105.516C134.191 106.092 134.635 106.512 135.175 106.512ZM135.175 111.084C135.715 111.084 136.159 110.664 136.159 110.088C136.159 109.488 135.715 109.092 135.175 109.092C134.635 109.092 134.191 109.488 134.191 110.088C134.191 110.664 134.635 111.084 135.175 111.084ZM147.689 109.584C147.461 109.764 147.161 109.848 146.849 109.848C146.273 109.848 145.961 109.512 145.961 108.888V105.84H147.677V104.64H145.961V103.176H144.461V104.64H143.405V105.84H144.461V108.924C144.461 110.34 145.265 111.084 146.669 111.084C147.209 111.084 147.749 110.94 148.109 110.652L147.689 109.584ZM152.012 111.084C154.004 111.084 155.432 109.716 155.432 107.796C155.432 105.876 154.004 104.52 152.012 104.52C150.044 104.52 148.604 105.876 148.604 107.796C148.604 109.716 150.044 111.084 152.012 111.084ZM152.012 109.8C150.932 109.8 150.116 109.02 150.116 107.796C150.116 106.572 150.932 105.792 152.012 105.792C153.104 105.792 153.92 106.572 153.92 107.796C153.92 109.02 153.104 109.8 152.012 109.8ZM161.703 111H163.527L160.599 107.28L163.275 104.592H161.475L158.367 107.472V102.096H156.867V111H158.367V109.308L159.483 108.252L161.703 111ZM170.25 107.832C170.25 105.828 168.882 104.52 167.01 104.52C165.102 104.52 163.698 105.888 163.698 107.796C163.698 109.704 165.09 111.084 167.238 111.084C168.342 111.084 169.242 110.724 169.818 110.04L169.014 109.116C168.558 109.584 167.994 109.812 167.274 109.812C166.158 109.812 165.378 109.212 165.198 108.276H170.226C170.238 108.132 170.25 107.952 170.25 107.832ZM167.01 105.72C167.994 105.72 168.702 106.356 168.822 107.28H165.186C165.33 106.344 166.038 105.72 167.01 105.72ZM175.327 104.52C174.391 104.52 173.611 104.832 173.119 105.42V104.592H171.691V111H173.191V107.76C173.191 106.476 173.911 105.828 174.979 105.828C175.939 105.828 176.503 106.38 176.503 107.52V111H178.003V107.328C178.003 105.396 176.863 104.52 175.327 104.52ZM181.61 109.692V107.376H185.666V106.092H181.61V103.908H186.182V102.6H180.05V111H186.35V109.692H181.61ZM193.6 111L191.092 107.724L193.492 104.592H191.872L190.3 106.692L188.728 104.592H187.06L189.448 107.748L186.952 111H188.608L190.264 108.78L191.908 111H193.6ZM198.259 104.52C197.383 104.52 196.639 104.82 196.135 105.432V104.592H194.707V113.328H196.207V110.22C196.723 110.808 197.443 111.084 198.259 111.084C200.131 111.084 201.511 109.788 201.511 107.796C201.511 105.816 200.131 104.52 198.259 104.52ZM198.091 109.8C197.011 109.8 196.183 109.02 196.183 107.796C196.183 106.572 197.011 105.792 198.091 105.792C199.171 105.792 199.987 106.572 199.987 107.796C199.987 109.02 199.171 109.8 198.091 109.8ZM203.689 103.536C204.253 103.536 204.649 103.128 204.649 102.6C204.649 102.108 204.241 101.736 203.689 101.736C203.137 101.736 202.729 102.132 202.729 102.636C202.729 103.14 203.137 103.536 203.689 103.536ZM202.933 111H204.433V104.592H202.933V111ZM207.83 105.528V104.592H206.402V111H207.902V107.892C207.902 106.584 208.622 105.912 209.762 105.912C209.87 105.912 209.978 105.924 210.11 105.948V104.52C209.042 104.52 208.262 104.856 207.83 105.528ZM216.177 104.592L214.149 109.332L212.133 104.592H210.573L213.369 111.024L213.261 111.276C212.973 111.912 212.661 112.164 212.133 112.164C211.725 112.164 211.317 111.996 211.029 111.72L210.429 112.824C210.837 113.196 211.509 113.412 212.145 113.412C213.213 113.412 214.029 112.968 214.617 111.516L217.617 104.592H216.177ZM220.051 111H221.611V103.92H224.395V102.6H217.267V103.92H220.051V111ZM226.025 103.536C226.589 103.536 226.985 103.128 226.985 102.6C226.985 102.108 226.577 101.736 226.025 101.736C225.473 101.736 225.065 102.132 225.065 102.636C225.065 103.14 225.473 103.536 226.025 103.536ZM225.269 111H226.769V104.592H225.269V111ZM236.826 104.52C235.806 104.52 234.942 104.928 234.426 105.588C233.982 104.868 233.202 104.52 232.266 104.52C231.39 104.52 230.646 104.832 230.166 105.408V104.592H228.738V111H230.238V107.748C230.238 106.476 230.91 105.828 231.906 105.828C232.818 105.828 233.346 106.38 233.346 107.52V111H234.846V107.748C234.846 106.476 235.53 105.828 236.514 105.828C237.426 105.828 237.954 106.38 237.954 107.52V111H239.454V107.328C239.454 105.396 238.374 104.52 236.826 104.52ZM247.453 107.832C247.453 105.828 246.085 104.52 244.213 104.52C242.305 104.52 240.901 105.888 240.901 107.796C240.901 109.704 242.293 111.084 244.441 111.084C245.545 111.084 246.445 110.724 247.021 110.04L246.217 109.116C245.761 109.584 245.197 109.812 244.477 109.812C243.361 109.812 242.581 109.212 242.401 108.276H247.429C247.441 108.132 247.453 107.952 247.453 107.832ZM244.213 105.72C245.197 105.72 245.905 106.356 246.025 107.28H242.389C242.533 106.344 243.241 105.72 244.213 105.72ZM252.703 109.092C252.151 109.092 251.731 109.488 251.731 110.088C251.731 110.52 251.959 110.832 252.295 110.976L251.815 112.812H252.787L253.399 111.12C253.615 110.568 253.675 110.352 253.675 110.088C253.675 109.5 253.267 109.092 252.703 109.092Z" fill="#DBE3EB"/>
<path d="M112.416 132.584C112.188 132.764 111.888 132.848 111.576 132.848C111 132.848 110.688 132.512 110.688 131.888V128.84H112.404V127.64H110.688V126.176H109.188V127.64H108.132V128.84H109.188V131.924C109.188 133.34 109.992 134.084 111.396 134.084C111.936 134.084 112.476 133.94 112.836 133.652L112.416 132.584ZM119.883 130.832C119.883 128.828 118.515 127.52 116.643 127.52C114.735 127.52 113.331 128.888 113.331 130.796C113.331 132.704 114.723 134.084 116.871 134.084C117.975 134.084 118.875 133.724 119.451 133.04L118.647 132.116C118.191 132.584 117.627 132.812 116.907 132.812C115.791 132.812 115.011 132.212 114.831 131.276H119.859C119.871 131.132 119.883 130.952 119.883 130.832ZM116.643 128.72C117.627 128.72 118.335 129.356 118.455 130.28H114.819C114.963 129.344 115.671 128.72 116.643 128.72ZM122.752 128.528V127.592H121.324V134H122.824V130.892C122.824 129.584 123.544 128.912 124.684 128.912C124.792 128.912 124.9 128.924 125.032 128.948V127.52C123.964 127.52 123.184 127.856 122.752 128.528ZM134.392 127.52C133.372 127.52 132.508 127.928 131.992 128.588C131.548 127.868 130.768 127.52 129.832 127.52C128.956 127.52 128.212 127.832 127.732 128.408V127.592H126.304V134H127.804V130.748C127.804 129.476 128.476 128.828 129.472 128.828C130.384 128.828 130.912 129.38 130.912 130.52V134H132.412V130.748C132.412 129.476 133.096 128.828 134.08 128.828C134.992 128.828 135.52 129.38 135.52 130.52V134H137.02V130.328C137.02 128.396 135.94 127.52 134.392 127.52ZM139.693 126.536C140.257 126.536 140.653 126.128 140.653 125.6C140.653 125.108 140.245 124.736 139.693 124.736C139.141 124.736 138.733 125.132 138.733 125.636C138.733 126.14 139.141 126.536 139.693 126.536ZM138.937 134H140.437V127.592H138.937V134ZM146.042 127.52C145.106 127.52 144.326 127.832 143.834 128.42V127.592H142.406V134H143.906V130.76C143.906 129.476 144.626 128.828 145.694 128.828C146.654 128.828 147.218 129.38 147.218 130.52V134H148.718V130.328C148.718 128.396 147.578 127.52 146.042 127.52ZM153.069 127.52C152.037 127.52 151.041 127.784 150.357 128.312L150.945 129.404C151.425 129.008 152.169 128.768 152.889 128.768C153.957 128.768 154.485 129.284 154.485 130.16V130.256H152.829C150.885 130.256 150.165 131.096 150.165 132.164C150.165 133.28 151.089 134.084 152.553 134.084C153.513 134.084 154.209 133.772 154.569 133.22V134H155.985V130.244C155.985 128.396 154.917 127.52 153.069 127.52ZM152.865 132.992C152.097 132.992 151.641 132.644 151.641 132.104C151.641 131.636 151.917 131.252 152.937 131.252H154.485V131.996C154.233 132.656 153.597 132.992 152.865 132.992ZM157.91 134H159.41V125.096H157.91V134ZM161.523 134H163.083V125.6H161.523V134ZM165.355 134H169.027C171.751 134 173.611 132.32 173.611 129.8C173.611 127.28 171.751 125.6 169.027 125.6H165.355V134ZM166.915 132.68V126.92H168.955C170.827 126.92 172.039 128.06 172.039 129.8C172.039 131.54 170.827 132.68 168.955 132.68H166.915Z" fill="#2CD19E"/>
<path d="M178.921 129.512C179.461 129.512 179.905 129.092 179.905 128.516C179.905 127.916 179.461 127.52 178.921 127.52C178.381 127.52 177.937 127.916 177.937 128.516C177.937 129.092 178.381 129.512 178.921 129.512ZM178.921 134.084C179.461 134.084 179.905 133.664 179.905 133.088C179.905 132.488 179.461 132.092 178.921 132.092C178.381 132.092 177.937 132.488 177.937 133.088C177.937 133.664 178.381 134.084 178.921 134.084ZM191.436 132.584C191.208 132.764 190.908 132.848 190.596 132.848C190.02 132.848 189.708 132.512 189.708 131.888V128.84H191.424V127.64H189.708V126.176H188.208V127.64H187.152V128.84H188.208V131.924C188.208 133.34 189.012 134.084 190.416 134.084C190.956 134.084 191.496 133.94 191.856 133.652L191.436 132.584ZM198.903 130.832C198.903 128.828 197.535 127.52 195.663 127.52C193.755 127.52 192.351 128.888 192.351 130.796C192.351 132.704 193.743 134.084 195.891 134.084C196.995 134.084 197.895 133.724 198.471 133.04L197.667 132.116C197.211 132.584 196.647 132.812 195.927 132.812C194.811 132.812 194.031 132.212 193.851 131.276H198.879C198.891 131.132 198.903 130.952 198.903 130.832ZM195.663 128.72C196.647 128.72 197.355 129.356 197.475 130.28H193.839C193.983 129.344 194.691 128.72 195.663 128.72ZM201.771 128.528V127.592H200.343V134H201.843V130.892C201.843 129.584 202.563 128.912 203.703 128.912C203.811 128.912 203.919 128.924 204.051 128.948V127.52C202.983 127.52 202.203 127.856 201.771 128.528ZM213.412 127.52C212.392 127.52 211.528 127.928 211.012 128.588C210.568 127.868 209.788 127.52 208.852 127.52C207.976 127.52 207.232 127.832 206.752 128.408V127.592H205.324V134H206.824V130.748C206.824 129.476 207.496 128.828 208.492 128.828C209.404 128.828 209.932 129.38 209.932 130.52V134H211.432V130.748C211.432 129.476 212.116 128.828 213.1 128.828C214.012 128.828 214.54 129.38 214.54 130.52V134H216.04V130.328C216.04 128.396 214.96 127.52 213.412 127.52ZM218.713 126.536C219.277 126.536 219.673 126.128 219.673 125.6C219.673 125.108 219.265 124.736 218.713 124.736C218.161 124.736 217.753 125.132 217.753 125.636C217.753 126.14 218.161 126.536 218.713 126.536ZM217.957 134H219.457V127.592H217.957V134ZM225.061 127.52C224.125 127.52 223.345 127.832 222.853 128.42V127.592H221.425V134H222.925V130.76C222.925 129.476 223.645 128.828 224.713 128.828C225.673 128.828 226.237 129.38 226.237 130.52V134H227.737V130.328C227.737 128.396 226.597 127.52 225.061 127.52ZM232.088 127.52C231.056 127.52 230.06 127.784 229.376 128.312L229.964 129.404C230.444 129.008 231.188 128.768 231.908 128.768C232.976 128.768 233.504 129.284 233.504 130.16V130.256H231.848C229.904 130.256 229.184 131.096 229.184 132.164C229.184 133.28 230.108 134.084 231.572 134.084C232.532 134.084 233.228 133.772 233.588 133.22V134H235.004V130.244C235.004 128.396 233.936 127.52 232.088 127.52ZM231.884 132.992C231.116 132.992 230.66 132.644 230.66 132.104C230.66 131.636 230.936 131.252 231.956 131.252H233.504V131.996C233.252 132.656 232.616 132.992 231.884 132.992ZM236.929 134H238.429V125.096H236.929V134ZM240.542 134H242.102V125.6H240.542V134ZM244.374 134H248.046C250.77 134 252.63 132.32 252.63 129.8C252.63 127.28 250.77 125.6 248.046 125.6H244.374V134ZM245.934 132.68V126.92H247.974C249.846 126.92 251.058 128.06 251.058 129.8C251.058 131.54 249.846 132.68 247.974 132.68H245.934ZM257.953 132.092C257.401 132.092 256.981 132.488 256.981 133.088C256.981 133.52 257.209 133.832 257.545 133.976L257.065 135.812H258.037L258.649 134.12C258.865 133.568 258.925 133.352 258.925 133.088C258.925 132.5 258.517 132.092 257.953 132.092Z" fill="#DBE3EB"/>
<path d="M111.432 173.52C110.4 173.52 109.404 173.784 108.72 174.312L109.308 175.404C109.788 175.008 110.532 174.768 111.252 174.768C112.32 174.768 112.848 175.284 112.848 176.16V176.256H111.192C109.248 176.256 108.528 177.096 108.528 178.164C108.528 179.28 109.452 180.084 110.916 180.084C111.876 180.084 112.572 179.772 112.932 179.22V180H114.348V176.244C114.348 174.396 113.28 173.52 111.432 173.52ZM111.228 178.992C110.46 178.992 110.004 178.644 110.004 178.104C110.004 177.636 110.28 177.252 111.3 177.252H112.848V177.996C112.596 178.656 111.96 178.992 111.228 178.992ZM124.361 173.52C123.341 173.52 122.477 173.928 121.961 174.588C121.517 173.868 120.737 173.52 119.801 173.52C118.925 173.52 118.181 173.832 117.701 174.408V173.592H116.273V180H117.773V176.748C117.773 175.476 118.445 174.828 119.441 174.828C120.353 174.828 120.881 175.38 120.881 176.52V180H122.381V176.748C122.381 175.476 123.065 174.828 124.049 174.828C124.961 174.828 125.489 175.38 125.489 176.52V180H126.989V176.328C126.989 174.396 125.909 173.52 124.361 173.52ZM131.844 180.084C133.836 180.084 135.264 178.716 135.264 176.796C135.264 174.876 133.836 173.52 131.844 173.52C129.876 173.52 128.436 174.876 128.436 176.796C128.436 178.716 129.876 180.084 131.844 180.084ZM131.844 178.8C130.764 178.8 129.948 178.02 129.948 176.796C129.948 175.572 130.764 174.792 131.844 174.792C132.936 174.792 133.752 175.572 133.752 176.796C133.752 178.02 132.936 178.8 131.844 178.8ZM141.403 173.592V176.832C141.403 178.116 140.695 178.764 139.651 178.764C138.703 178.764 138.151 178.212 138.151 177.048V173.592H136.651V177.252C136.651 179.184 137.767 180.084 139.411 180.084C140.239 180.084 140.995 179.772 141.475 179.184V180H142.903V173.592H141.403ZM148.503 173.52C147.567 173.52 146.787 173.832 146.295 174.42V173.592H144.867V180H146.367V176.76C146.367 175.476 147.087 174.828 148.155 174.828C149.115 174.828 149.679 175.38 149.679 176.52V180H151.179V176.328C151.179 174.396 150.039 173.52 148.503 173.52ZM156.514 178.584C156.286 178.764 155.986 178.848 155.674 178.848C155.098 178.848 154.786 178.512 154.786 177.888V174.84H156.502V173.64H154.786V172.176H153.286V173.64H152.23V174.84H153.286V177.924C153.286 179.34 154.09 180.084 155.494 180.084C156.034 180.084 156.574 179.94 156.934 179.652L156.514 178.584Z" fill="#2CD19E"/>
<path d="M161.964 175.512C162.504 175.512 162.948 175.092 162.948 174.516C162.948 173.916 162.504 173.52 161.964 173.52C161.424 173.52 160.98 173.916 160.98 174.516C160.98 175.092 161.424 175.512 161.964 175.512ZM161.964 180.084C162.504 180.084 162.948 179.664 162.948 179.088C162.948 178.488 162.504 178.092 161.964 178.092C161.424 178.092 160.98 178.488 160.98 179.088C160.98 179.664 161.424 180.084 161.964 180.084ZM173.495 173.52C172.463 173.52 171.467 173.784 170.783 174.312L171.371 175.404C171.851 175.008 172.595 174.768 173.315 174.768C174.383 174.768 174.911 175.284 174.911 176.16V176.256H173.255C171.311 176.256 170.591 177.096 170.591 178.164C170.591 179.28 171.515 180.084 172.979 180.084C173.939 180.084 174.635 179.772 174.995 179.22V180H176.411V176.244C176.411 174.396 175.343 173.52 173.495 173.52ZM173.291 178.992C172.523 178.992 172.067 178.644 172.067 178.104C172.067 177.636 172.343 177.252 173.363 177.252H174.911V177.996C174.659 178.656 174.023 178.992 173.291 178.992ZM186.424 173.52C185.404 173.52 184.54 173.928 184.024 174.588C183.58 173.868 182.8 173.52 181.864 173.52C180.988 173.52 180.244 173.832 179.764 174.408V173.592H178.336V180H179.836V176.748C179.836 175.476 180.508 174.828 181.504 174.828C182.416 174.828 182.944 175.38 182.944 176.52V180H184.444V176.748C184.444 175.476 185.128 174.828 186.112 174.828C187.024 174.828 187.552 175.38 187.552 176.52V180H189.052V176.328C189.052 174.396 187.972 173.52 186.424 173.52ZM193.907 180.084C195.899 180.084 197.327 178.716 197.327 176.796C197.327 174.876 195.899 173.52 193.907 173.52C191.939 173.52 190.499 174.876 190.499 176.796C190.499 178.716 191.939 180.084 193.907 180.084ZM193.907 178.8C192.827 178.8 192.011 178.02 192.011 176.796C192.011 175.572 192.827 174.792 193.907 174.792C194.999 174.792 195.815 175.572 195.815 176.796C195.815 178.02 194.999 178.8 193.907 178.8ZM203.465 173.592V176.832C203.465 178.116 202.757 178.764 201.713 178.764C200.765 178.764 200.213 178.212 200.213 177.048V173.592H198.713V177.252C198.713 179.184 199.829 180.084 201.473 180.084C202.301 180.084 203.057 179.772 203.537 179.184V180H204.965V173.592H203.465ZM210.565 173.52C209.629 173.52 208.849 173.832 208.357 174.42V173.592H206.929V180H208.429V176.76C208.429 175.476 209.149 174.828 210.217 174.828C211.177 174.828 211.741 175.38 211.741 176.52V180H213.241V176.328C213.241 174.396 212.101 173.52 210.565 173.52ZM218.576 178.584C218.348 178.764 218.048 178.848 217.736 178.848C217.16 178.848 216.848 178.512 216.848 177.888V174.84H218.564V173.64H216.848V172.176H215.348V173.64H214.292V174.84H215.348V177.924C215.348 179.34 216.152 180.084 217.556 180.084C218.096 180.084 218.636 179.94 218.996 179.652L218.576 178.584ZM224.039 178.092C223.487 178.092 223.067 178.488 223.067 179.088C223.067 179.52 223.295 179.832 223.631 179.976L223.151 181.812H224.123L224.735 180.12C224.951 179.568 225.011 179.352 225.011 179.088C225.011 178.5 224.603 178.092 224.039 178.092Z" fill="#DBE3EB"/>
<path d="M115.008 199.832C115.008 197.828 113.64 196.52 111.768 196.52C109.86 196.52 108.456 197.888 108.456 199.796C108.456 201.704 109.848 203.084 111.996 203.084C113.1 203.084 114 202.724 114.576 202.04L113.772 201.116C113.316 201.584 112.752 201.812 112.032 201.812C110.916 201.812 110.136 201.212 109.956 200.276H114.984C114.996 200.132 115.008 199.952 115.008 199.832ZM111.768 197.72C112.752 197.72 113.46 198.356 113.58 199.28H109.944C110.088 198.344 110.796 197.72 111.768 197.72ZM124.537 196.52C123.517 196.52 122.653 196.928 122.137 197.588C121.693 196.868 120.913 196.52 119.977 196.52C119.101 196.52 118.357 196.832 117.877 197.408V196.592H116.449V203H117.949V199.748C117.949 198.476 118.621 197.828 119.617 197.828C120.529 197.828 121.057 198.38 121.057 199.52V203H122.557V199.748C122.557 198.476 123.241 197.828 124.225 197.828C125.137 197.828 125.665 198.38 125.665 199.52V203H127.165V199.328C127.165 197.396 126.085 196.52 124.537 196.52ZM131.53 196.52C130.498 196.52 129.502 196.784 128.818 197.312L129.406 198.404C129.886 198.008 130.63 197.768 131.35 197.768C132.418 197.768 132.946 198.284 132.946 199.16V199.256H131.29C129.346 199.256 128.626 200.096 128.626 201.164C128.626 202.28 129.55 203.084 131.014 203.084C131.974 203.084 132.67 202.772 133.03 202.22V203H134.446V199.244C134.446 197.396 133.378 196.52 131.53 196.52ZM131.326 201.992C130.558 201.992 130.102 201.644 130.102 201.104C130.102 200.636 130.378 200.252 131.398 200.252H132.946V200.996C132.694 201.656 132.058 201.992 131.326 201.992ZM137.127 195.536C137.691 195.536 138.087 195.128 138.087 194.6C138.087 194.108 137.679 193.736 137.127 193.736C136.575 193.736 136.167 194.132 136.167 194.636C136.167 195.14 136.575 195.536 137.127 195.536ZM136.371 203H137.871V196.592H136.371V203ZM139.839 203H141.339V194.096H139.839V203ZM157.063 195.932L157.543 194.096H156.583L155.947 195.8C155.731 196.352 155.683 196.556 155.683 196.832C155.683 197.408 156.091 197.816 156.667 197.816C157.207 197.816 157.627 197.42 157.627 196.832C157.627 196.388 157.411 196.076 157.063 195.932ZM159.607 195.932L160.087 194.096H159.127L158.491 195.8C158.275 196.352 158.227 196.556 158.227 196.832C158.227 197.408 158.635 197.816 159.211 197.816C159.751 197.816 160.171 197.42 160.171 196.832C160.171 196.388 159.955 196.076 159.607 195.932ZM162.899 195.932L163.379 194.096H162.419L161.783 195.8C161.567 196.352 161.519 196.556 161.519 196.832C161.519 197.408 161.927 197.816 162.503 197.816C163.043 197.816 163.463 197.42 163.463 196.832C163.463 196.388 163.247 196.076 162.899 195.932ZM165.443 195.932L165.923 194.096H164.963L164.327 195.8C164.111 196.352 164.063 196.556 164.063 196.832C164.063 197.408 164.471 197.816 165.047 197.816C165.587 197.816 166.007 197.42 166.007 196.832C166.007 196.388 165.791 196.076 165.443 195.932Z" fill="#2CD19E"/>
<path d="M147.105 198.512C147.645 198.512 148.089 198.092 148.089 197.516C148.089 196.916 147.645 196.52 147.105 196.52C146.565 196.52 146.121 196.916 146.121 197.516C146.121 198.092 146.565 198.512 147.105 198.512ZM147.105 203.084C147.645 203.084 148.089 202.664 148.089 202.088C148.089 201.488 147.645 201.092 147.105 201.092C146.565 201.092 146.121 201.488 146.121 202.088C146.121 202.664 146.565 203.084 147.105 203.084ZM171.304 201.092C170.752 201.092 170.332 201.488 170.332 202.088C170.332 202.52 170.56 202.832 170.896 202.976L170.416 204.812H171.388L172 203.12C172.216 202.568 172.276 202.352 172.276 202.088C172.276 201.5 171.868 201.092 171.304 201.092Z" fill="#DBE3EB"/>
<path d="M115.128 218.536C115.692 218.536 116.088 218.128 116.088 217.6C116.088 217.108 115.68 216.736 115.128 216.736C114.576 216.736 114.168 217.132 114.168 217.636C114.168 218.14 114.576 218.536 115.128 218.536ZM109.188 219.232V219.64H108.132V220.84H109.188V226H110.688V220.84H112.404V219.64H110.64V219.256C110.64 218.572 110.964 218.224 111.588 218.224C111.9 218.224 112.188 218.332 112.416 218.488L112.836 217.36C112.5 217.12 111.996 217.012 111.48 217.012C109.992 217.012 109.188 217.888 109.188 219.232ZM114.372 226H115.872V219.592H114.372V226ZM119.271 220.528V219.592H117.843V226H119.343V222.892C119.343 221.584 120.063 220.912 121.203 220.912C121.311 220.912 121.419 220.924 121.551 220.948V219.52C120.483 219.52 119.703 219.856 119.271 220.528ZM124.827 226.084C126.627 226.084 127.731 225.304 127.731 224.104C127.731 221.596 123.771 222.748 123.771 221.452C123.771 221.032 124.203 220.732 125.115 220.732C125.727 220.732 126.339 220.852 126.951 221.212L127.527 220.072C126.951 219.724 125.979 219.52 125.127 219.52C123.399 219.52 122.307 220.312 122.307 221.524C122.307 224.08 126.267 222.928 126.267 224.152C126.267 224.596 125.871 224.86 124.923 224.86C124.119 224.86 123.255 224.596 122.691 224.224L122.115 225.364C122.691 225.772 123.759 226.084 124.827 226.084ZM132.455 224.584C132.227 224.764 131.927 224.848 131.615 224.848C131.039 224.848 130.727 224.512 130.727 223.888V220.84H132.443V219.64H130.727V218.176H129.227V219.64H128.171V220.84H129.227V223.924C129.227 225.34 130.031 226.084 131.435 226.084C131.975 226.084 132.515 225.94 132.875 225.652L132.455 224.584ZM140.169 217.6V223.288L135.537 217.6H134.253V226H135.801V220.312L140.433 226H141.717V217.6H140.169ZM146.272 219.52C145.24 219.52 144.244 219.784 143.56 220.312L144.148 221.404C144.628 221.008 145.372 220.768 146.092 220.768C147.16 220.768 147.688 221.284 147.688 222.16V222.256H146.032C144.088 222.256 143.368 223.096 143.368 224.164C143.368 225.28 144.292 226.084 145.756 226.084C146.716 226.084 147.412 225.772 147.772 225.22V226H149.188V222.244C149.188 220.396 148.12 219.52 146.272 219.52ZM146.068 224.992C145.3 224.992 144.844 224.644 144.844 224.104C144.844 223.636 145.12 223.252 146.14 223.252H147.688V223.996C147.436 224.656 146.8 224.992 146.068 224.992ZM159.201 219.52C158.181 219.52 157.317 219.928 156.801 220.588C156.357 219.868 155.577 219.52 154.641 219.52C153.765 219.52 153.021 219.832 152.541 220.408V219.592H151.113V226H152.613V222.748C152.613 221.476 153.285 220.828 154.281 220.828C155.193 220.828 155.721 221.38 155.721 222.52V226H157.221V222.748C157.221 221.476 157.905 220.828 158.889 220.828C159.801 220.828 160.329 221.38 160.329 222.52V226H161.829V222.328C161.829 220.396 160.749 219.52 159.201 219.52ZM169.828 222.832C169.828 220.828 168.46 219.52 166.588 219.52C164.68 219.52 163.276 220.888 163.276 222.796C163.276 224.704 164.668 226.084 166.816 226.084C167.92 226.084 168.82 225.724 169.396 225.04L168.592 224.116C168.136 224.584 167.572 224.812 166.852 224.812C165.736 224.812 164.956 224.212 164.776 223.276H169.804C169.816 223.132 169.828 222.952 169.828 222.832ZM166.588 220.72C167.572 220.72 168.28 221.356 168.4 222.28H164.764C164.908 221.344 165.616 220.72 166.588 220.72ZM185.024 218.932L185.504 217.096H184.544L183.908 218.8C183.692 219.352 183.644 219.556 183.644 219.832C183.644 220.408 184.052 220.816 184.628 220.816C185.168 220.816 185.588 220.42 185.588 219.832C185.588 219.388 185.372 219.076 185.024 218.932ZM187.568 218.932L188.048 217.096H187.088L186.452 218.8C186.236 219.352 186.188 219.556 186.188 219.832C186.188 220.408 186.596 220.816 187.172 220.816C187.712 220.816 188.132 220.42 188.132 219.832C188.132 219.388 187.916 219.076 187.568 218.932ZM190.86 218.932L191.34 217.096H190.38L189.744 218.8C189.528 219.352 189.48 219.556 189.48 219.832C189.48 220.408 189.888 220.816 190.464 220.816C191.004 220.816 191.424 220.42 191.424 219.832C191.424 219.388 191.208 219.076 190.86 218.932ZM193.404 218.932L193.884 217.096H192.924L192.288 218.8C192.072 219.352 192.024 219.556 192.024 219.832C192.024 220.408 192.432 220.816 193.008 220.816C193.548 220.816 193.968 220.42 193.968 219.832C193.968 219.388 193.752 219.076 193.404 218.932Z" fill="#2CD19E"/>
<path d="M175.066 221.512C175.606 221.512 176.05 221.092 176.05 220.516C176.05 219.916 175.606 219.52 175.066 219.52C174.526 219.52 174.082 219.916 174.082 220.516C174.082 221.092 174.526 221.512 175.066 221.512ZM175.066 226.084C175.606 226.084 176.05 225.664 176.05 225.088C176.05 224.488 175.606 224.092 175.066 224.092C174.526 224.092 174.082 224.488 174.082 225.088C174.082 225.664 174.526 226.084 175.066 226.084ZM199.265 224.092C198.713 224.092 198.293 224.488 198.293 225.088C198.293 225.52 198.521 225.832 198.857 225.976L198.377 227.812H199.349L199.961 226.12C200.177 225.568 200.237 225.352 200.237 225.088C200.237 224.5 199.829 224.092 199.265 224.092Z" fill="#DBE3EB"/>
<path d="M108.984 249H110.484V240.096H108.984V249ZM114.901 242.52C113.869 242.52 112.873 242.784 112.189 243.312L112.777 244.404C113.257 244.008 114.001 243.768 114.721 243.768C115.789 243.768 116.317 244.284 116.317 245.16V245.256H114.661C112.717 245.256 111.997 246.096 111.997 247.164C111.997 248.28 112.921 249.084 114.385 249.084C115.345 249.084 116.041 248.772 116.401 248.22V249H117.817V245.244C117.817 243.396 116.749 242.52 114.901 242.52ZM114.697 247.992C113.929 247.992 113.473 247.644 113.473 247.104C113.473 246.636 113.749 246.252 114.769 246.252H116.317V246.996C116.065 247.656 115.429 247.992 114.697 247.992ZM121.722 249.084C123.522 249.084 124.626 248.304 124.626 247.104C124.626 244.596 120.666 245.748 120.666 244.452C120.666 244.032 121.098 243.732 122.01 243.732C122.622 243.732 123.234 243.852 123.846 244.212L124.422 243.072C123.846 242.724 122.874 242.52 122.022 242.52C120.294 242.52 119.202 243.312 119.202 244.524C119.202 247.08 123.162 245.928 123.162 247.152C123.162 247.596 122.766 247.86 121.818 247.86C121.014 247.86 120.15 247.596 119.586 247.224L119.01 248.364C119.586 248.772 120.654 249.084 121.722 249.084ZM129.35 247.584C129.122 247.764 128.822 247.848 128.51 247.848C127.934 247.848 127.622 247.512 127.622 246.888V243.84H129.338V242.64H127.622V241.176H126.122V242.64H125.066V243.84H126.122V246.924C126.122 248.34 126.926 249.084 128.33 249.084C128.87 249.084 129.41 248.94 129.77 248.652L129.35 247.584ZM137.064 240.6V246.288L132.432 240.6H131.148V249H132.696V243.312L137.328 249H138.612V240.6H137.064ZM143.166 242.52C142.134 242.52 141.138 242.784 140.454 243.312L141.042 244.404C141.522 244.008 142.266 243.768 142.986 243.768C144.054 243.768 144.582 244.284 144.582 245.16V245.256H142.926C140.982 245.256 140.262 246.096 140.262 247.164C140.262 248.28 141.186 249.084 142.65 249.084C143.61 249.084 144.306 248.772 144.666 248.22V249H146.082V245.244C146.082 243.396 145.014 242.52 143.166 242.52ZM142.962 247.992C142.194 247.992 141.738 247.644 141.738 247.104C141.738 246.636 142.014 246.252 143.034 246.252H144.582V246.996C144.33 247.656 143.694 247.992 142.962 247.992ZM156.095 242.52C155.075 242.52 154.211 242.928 153.695 243.588C153.251 242.868 152.471 242.52 151.535 242.52C150.659 242.52 149.915 242.832 149.435 243.408V242.592H148.007V249H149.507V245.748C149.507 244.476 150.179 243.828 151.175 243.828C152.087 243.828 152.615 244.38 152.615 245.52V249H154.115V245.748C154.115 244.476 154.799 243.828 155.783 243.828C156.695 243.828 157.223 244.38 157.223 245.52V249H158.723V245.328C158.723 243.396 157.643 242.52 156.095 242.52ZM166.723 245.832C166.723 243.828 165.355 242.52 163.483 242.52C161.575 242.52 160.171 243.888 160.171 245.796C160.171 247.704 161.563 249.084 163.711 249.084C164.815 249.084 165.715 248.724 166.291 248.04L165.487 247.116C165.031 247.584 164.467 247.812 163.747 247.812C162.631 247.812 161.851 247.212 161.671 246.276H166.699C166.711 246.132 166.723 245.952 166.723 245.832ZM163.483 243.72C164.467 243.72 165.175 244.356 165.295 245.28H161.659C161.803 244.344 162.511 243.72 163.483 243.72ZM181.919 241.932L182.399 240.096H181.439L180.803 241.8C180.587 242.352 180.539 242.556 180.539 242.832C180.539 243.408 180.947 243.816 181.523 243.816C182.063 243.816 182.483 243.42 182.483 242.832C182.483 242.388 182.267 242.076 181.919 241.932ZM184.463 241.932L184.943 240.096H183.983L183.347 241.8C183.131 242.352 183.083 242.556 183.083 242.832C183.083 243.408 183.491 243.816 184.067 243.816C184.607 243.816 185.027 243.42 185.027 242.832C185.027 242.388 184.811 242.076 184.463 241.932ZM187.755 241.932L188.235 240.096H187.275L186.639 241.8C186.423 242.352 186.375 242.556 186.375 242.832C186.375 243.408 186.783 243.816 187.359 243.816C187.899 243.816 188.319 243.42 188.319 242.832C188.319 242.388 188.103 242.076 187.755 241.932ZM190.299 241.932L190.779 240.096H189.819L189.183 241.8C188.967 242.352 188.919 242.556 188.919 242.832C188.919 243.408 189.327 243.816 189.903 243.816C190.443 243.816 190.863 243.42 190.863 242.832C190.863 242.388 190.647 242.076 190.299 241.932Z" fill="#2CD19E"/>
<path d="M171.96 244.512C172.5 244.512 172.944 244.092 172.944 243.516C172.944 242.916 172.5 242.52 171.96 242.52C171.42 242.52 170.976 242.916 170.976 243.516C170.976 244.092 171.42 244.512 171.96 244.512ZM171.96 249.084C172.5 249.084 172.944 248.664 172.944 248.088C172.944 247.488 172.5 247.092 171.96 247.092C171.42 247.092 170.976 247.488 170.976 248.088C170.976 248.664 171.42 249.084 171.96 249.084ZM196.16 247.092C195.608 247.092 195.188 247.488 195.188 248.088C195.188 248.52 195.416 248.832 195.752 248.976L195.272 250.812H196.244L196.856 249.12C197.072 248.568 197.132 248.352 197.132 248.088C197.132 247.5 196.724 247.092 196.16 247.092Z" fill="#DBE3EB"/>
<path d="M111.864 157.084C113.856 157.084 115.284 155.716 115.284 153.796C115.284 151.876 113.856 150.52 111.864 150.52C109.896 150.52 108.456 151.876 108.456 153.796C108.456 155.716 109.896 157.084 111.864 157.084ZM111.864 155.8C110.784 155.8 109.968 155.02 109.968 153.796C109.968 152.572 110.784 151.792 111.864 151.792C112.956 151.792 113.772 152.572 113.772 153.796C113.772 155.02 112.956 155.8 111.864 155.8ZM118.146 151.528V150.592H116.718V157H118.218V153.892C118.218 152.584 118.938 151.912 120.078 151.912C120.186 151.912 120.294 151.924 120.426 151.948V150.52C119.358 150.52 118.578 150.856 118.146 151.528ZM126.416 148.096V151.384C125.912 150.796 125.18 150.52 124.352 150.52C122.492 150.52 121.112 151.804 121.112 153.796C121.112 155.788 122.492 157.084 124.352 157.084C125.228 157.084 125.972 156.784 126.476 156.172V157H127.916V148.096H126.416ZM124.532 155.8C123.452 155.8 122.624 155.02 122.624 153.796C122.624 152.572 123.452 151.792 124.532 151.792C125.612 151.792 126.44 152.572 126.44 153.796C126.44 155.02 125.612 155.8 124.532 155.8ZM135.903 153.832C135.903 151.828 134.535 150.52 132.663 150.52C130.755 150.52 129.351 151.888 129.351 153.796C129.351 155.704 130.743 157.084 132.891 157.084C133.995 157.084 134.895 156.724 135.471 156.04L134.667 155.116C134.211 155.584 133.647 155.812 132.927 155.812C131.811 155.812 131.031 155.212 130.851 154.276H135.879C135.891 154.132 135.903 153.952 135.903 153.832ZM132.663 151.72C133.647 151.72 134.355 152.356 134.475 153.28H130.839C130.983 152.344 131.691 151.72 132.663 151.72ZM138.771 151.528V150.592H137.343V157H138.843V153.892C138.843 152.584 139.563 151.912 140.703 151.912C140.811 151.912 140.919 151.924 141.051 151.948V150.52C139.983 150.52 139.203 150.856 138.771 151.528ZM142.409 157H143.969V148.6H142.409V157ZM146.241 157H149.913C152.637 157 154.497 155.32 154.497 152.8C154.497 150.28 152.637 148.6 149.913 148.6H146.241V157ZM147.801 155.68V149.92H149.841C151.713 149.92 152.925 151.06 152.925 152.8C152.925 154.54 151.713 155.68 149.841 155.68H147.801Z" fill="#2CD19E"/>
<path d="M159.808 152.512C160.348 152.512 160.792 152.092 160.792 151.516C160.792 150.916 160.348 150.52 159.808 150.52C159.268 150.52 158.824 150.916 158.824 151.516C158.824 152.092 159.268 152.512 159.808 152.512ZM159.808 157.084C160.348 157.084 160.792 156.664 160.792 156.088C160.792 155.488 160.348 155.092 159.808 155.092C159.268 155.092 158.824 155.488 158.824 156.088C158.824 156.664 159.268 157.084 159.808 157.084ZM192.316 157.084C192.856 157.084 193.3 156.664 193.3 156.088C193.3 155.488 192.856 155.092 192.316 155.092C191.776 155.092 191.332 155.488 191.332 156.088C191.332 156.664 191.776 157.084 192.316 157.084ZM197.528 157.084C199.52 157.084 200.948 155.716 200.948 153.796C200.948 151.876 199.52 150.52 197.528 150.52C195.56 150.52 194.12 151.876 194.12 153.796C194.12 155.716 195.56 157.084 197.528 157.084ZM197.528 155.8C196.448 155.8 195.632 155.02 195.632 153.796C195.632 152.572 196.448 151.792 197.528 151.792C198.62 151.792 199.436 152.572 199.436 153.796C199.436 155.02 198.62 155.8 197.528 155.8ZM203.81 151.528V150.592H202.382V157H203.882V153.892C203.882 152.584 204.602 151.912 205.742 151.912C205.85 151.912 205.958 151.924 206.09 151.948V150.52C205.022 150.52 204.242 150.856 203.81 151.528ZM212.08 148.096V151.384C211.576 150.796 210.844 150.52 210.016 150.52C208.156 150.52 206.776 151.804 206.776 153.796C206.776 155.788 208.156 157.084 210.016 157.084C210.892 157.084 211.636 156.784 212.14 156.172V157H213.58V148.096H212.08ZM210.196 155.8C209.116 155.8 208.288 155.02 208.288 153.796C208.288 152.572 209.116 151.792 210.196 151.792C211.276 151.792 212.104 152.572 212.104 153.796C212.104 155.02 211.276 155.8 210.196 155.8ZM221.567 153.832C221.567 151.828 220.199 150.52 218.327 150.52C216.419 150.52 215.015 151.888 215.015 153.796C215.015 155.704 216.407 157.084 218.555 157.084C219.659 157.084 220.559 156.724 221.135 156.04L220.331 155.116C219.875 155.584 219.311 155.812 218.591 155.812C217.475 155.812 216.695 155.212 216.515 154.276H221.543C221.555 154.132 221.567 153.952 221.567 153.832ZM218.327 151.72C219.311 151.72 220.019 152.356 220.139 153.28H216.503C216.647 152.344 217.355 151.72 218.327 151.72ZM224.435 151.528V150.592H223.007V157H224.507V153.892C224.507 152.584 225.227 151.912 226.367 151.912C226.475 151.912 226.583 151.924 226.715 151.948V150.52C225.647 150.52 224.867 150.856 224.435 151.528ZM228.073 157H229.633V148.6H228.073V157ZM231.905 157H235.577C238.301 157 240.161 155.32 240.161 152.8C240.161 150.28 238.301 148.6 235.577 148.6H231.905V157ZM233.465 155.68V149.92H235.505C237.377 149.92 238.589 151.06 238.589 152.8C238.589 154.54 237.377 155.68 235.505 155.68H233.465ZM245.484 155.092C244.932 155.092 244.512 155.488 244.512 156.088C244.512 156.52 244.74 156.832 245.076 156.976L244.596 158.812H245.568L246.18 157.12C246.396 156.568 246.456 156.352 246.456 156.088C246.456 155.5 246.048 155.092 245.484 155.092Z" fill="#DBE3EB"/>
<path d="M172.322 155.584C172.094 155.764 171.794 155.848 171.482 155.848C170.906 155.848 170.594 155.512 170.594 154.888V151.84H172.31V150.64H170.594V149.176H169.094V150.64H168.038V151.84H169.094V154.924C169.094 156.34 169.898 157.084 171.302 157.084C171.842 157.084 172.382 156.94 172.742 156.652L172.322 155.584ZM177.612 150.52C176.724 150.52 175.968 150.808 175.476 151.336V148.096H173.976V157H175.476V153.76C175.476 152.476 176.196 151.828 177.264 151.828C178.224 151.828 178.788 152.38 178.788 153.52V157H180.288V153.328C180.288 151.396 179.148 150.52 177.612 150.52ZM182.947 149.536C183.511 149.536 183.907 149.128 183.907 148.6C183.907 148.108 183.499 147.736 182.947 147.736C182.395 147.736 181.987 148.132 181.987 148.636C181.987 149.14 182.395 149.536 182.947 149.536ZM182.191 157H183.691V150.592H182.191V157ZM187.64 157.084C189.44 157.084 190.544 156.304 190.544 155.104C190.544 152.596 186.584 153.748 186.584 152.452C186.584 152.032 187.016 151.732 187.928 151.732C188.54 151.732 189.152 151.852 189.764 152.212L190.34 151.072C189.764 150.724 188.792 150.52 187.94 150.52C186.212 150.52 185.12 151.312 185.12 152.524C185.12 155.08 189.08 153.928 189.08 155.152C189.08 155.596 188.684 155.86 187.736 155.86C186.932 155.86 186.068 155.596 185.504 155.224L184.928 156.364C185.504 156.772 186.572 157.084 187.64 157.084Z" fill="#EF6355"/>
<path d="M109.8 34.536C110.364 34.536 110.76 34.128 110.76 33.6C110.76 33.108 110.352 32.736 109.8 32.736C109.248 32.736 108.84 33.132 108.84 33.636C108.84 34.14 109.248 34.536 109.8 34.536ZM108.324 44.412C109.752 44.412 110.556 43.524 110.556 42.12V35.592H109.056V42.156C109.056 42.84 108.744 43.176 108.192 43.176C107.856 43.176 107.544 43.092 107.316 42.924L106.884 44.04C107.232 44.304 107.772 44.412 108.324 44.412ZM121.187 35.592L119.447 40.344L117.719 35.592H116.459L114.695 40.32L113.003 35.592H111.587L113.939 42H115.379L117.059 37.584L118.715 42H120.155L122.519 35.592H121.187ZM127.158 40.584C126.93 40.764 126.63 40.848 126.318 40.848C125.742 40.848 125.43 40.512 125.43 39.888V36.84H127.146V35.64H125.43V34.176H123.93V35.64H122.874V36.84H123.93V39.924C123.93 41.34 124.734 42.084 126.138 42.084C126.678 42.084 127.218 41.94 127.578 41.652L127.158 40.584ZM143.951 36.528V35.592H142.523V42H144.023V38.892C144.023 37.584 144.743 36.912 145.883 36.912C145.991 36.912 146.099 36.924 146.231 36.948V35.52C145.163 35.52 144.383 35.856 143.951 36.528ZM153.469 38.832C153.469 36.828 152.101 35.52 150.229 35.52C148.321 35.52 146.917 36.888 146.917 38.796C146.917 40.704 148.309 42.084 150.457 42.084C151.561 42.084 152.461 41.724 153.037 41.04L152.233 40.116C151.777 40.584 151.213 40.812 150.493 40.812C149.377 40.812 148.597 40.212 148.417 39.276H153.445C153.457 39.132 153.469 38.952 153.469 38.832ZM150.229 36.72C151.213 36.72 151.921 37.356 152.041 38.28H148.405C148.549 37.344 149.257 36.72 150.229 36.72ZM159.746 35.592V36.432C159.242 35.82 158.498 35.52 157.622 35.52C155.75 35.52 154.382 36.816 154.382 38.796C154.382 40.788 155.75 42.084 157.622 42.084C158.438 42.084 159.158 41.808 159.674 41.22V44.328H161.174V35.592H159.746ZM157.79 40.8C156.71 40.8 155.894 40.02 155.894 38.796C155.894 37.572 156.71 36.792 157.79 36.792C158.882 36.792 159.698 37.572 159.698 38.796C159.698 40.02 158.882 40.8 157.79 40.8ZM167.84 35.592V38.832C167.84 40.116 167.132 40.764 166.088 40.764C165.14 40.764 164.588 40.212 164.588 39.048V35.592H163.088V39.252C163.088 41.184 164.204 42.084 165.848 42.084C166.676 42.084 167.432 41.772 167.912 41.184V42H169.34V35.592H167.84ZM172.06 34.536C172.624 34.536 173.02 34.128 173.02 33.6C173.02 33.108 172.612 32.736 172.06 32.736C171.508 32.736 171.1 33.132 171.1 33.636C171.1 34.14 171.508 34.536 172.06 34.536ZM171.304 42H172.804V35.592H171.304V42ZM176.201 36.528V35.592H174.773V42H176.273V38.892C176.273 37.584 176.993 36.912 178.133 36.912C178.241 36.912 178.349 36.924 178.481 36.948V35.52C177.413 35.52 176.633 35.856 176.201 36.528ZM185.719 38.832C185.719 36.828 184.351 35.52 182.479 35.52C180.571 35.52 179.167 36.888 179.167 38.796C179.167 40.704 180.559 42.084 182.707 42.084C183.811 42.084 184.711 41.724 185.287 41.04L184.483 40.116C184.027 40.584 183.463 40.812 182.743 40.812C181.627 40.812 180.847 40.212 180.667 39.276H185.695C185.707 39.132 185.719 38.952 185.719 38.832ZM182.479 36.72C183.463 36.72 184.171 37.356 184.291 38.28H180.655C180.799 37.344 181.507 36.72 182.479 36.72ZM191.964 44.328H193.392C192.396 42.576 191.976 40.764 191.976 38.712C191.976 36.66 192.396 34.848 193.392 33.096H191.964C191.028 34.524 190.5 36.504 190.5 38.712C190.5 40.92 191.028 42.876 191.964 44.328ZM270.286 44.328C271.234 42.876 271.75 40.92 271.75 38.712C271.75 36.504 271.234 34.524 270.286 33.096H268.858C269.854 34.848 270.286 36.66 270.286 38.712C270.286 40.764 269.854 42.576 268.858 44.328H270.286ZM277.546 37.512C278.086 37.512 278.53 37.092 278.53 36.516C278.53 35.916 278.086 35.52 277.546 35.52C277.006 35.52 276.562 35.916 276.562 36.516C276.562 37.092 277.006 37.512 277.546 37.512ZM277.558 40.092C277.006 40.092 276.586 40.488 276.586 41.088C276.586 41.52 276.814 41.832 277.15 41.976L276.67 43.812H277.642L278.254 42.12C278.47 41.568 278.53 41.352 278.53 41.088C278.53 40.5 278.122 40.092 277.558 40.092Z" fill="#DBE3EB"/>
<path d="M131.925 36.948H137.457V35.748H131.925V36.948ZM131.925 39.852H137.457V38.652H131.925V39.852Z" fill="#EF4547"/>
<path d="M198.829 34.932L199.309 33.096H198.349L197.713 34.8C197.497 35.352 197.449 35.556 197.449 35.832C197.449 36.408 197.857 36.816 198.433 36.816C198.973 36.816 199.393 36.42 199.393 35.832C199.393 35.388 199.177 35.076 198.829 34.932ZM201.698 34.536C202.262 34.536 202.658 34.128 202.658 33.6C202.658 33.108 202.25 32.736 201.698 32.736C201.146 32.736 200.738 33.132 200.738 33.636C200.738 34.14 201.146 34.536 201.698 34.536ZM200.222 44.412C201.65 44.412 202.454 43.524 202.454 42.12V35.592H200.954V42.156C200.954 42.84 200.642 43.176 200.09 43.176C199.754 43.176 199.442 43.092 199.214 42.924L198.782 44.04C199.13 44.304 199.67 44.412 200.222 44.412ZM213.086 35.592L211.346 40.344L209.618 35.592H208.358L206.594 40.32L204.902 35.592H203.486L205.838 42H207.278L208.958 37.584L210.614 42H212.054L214.418 35.592H213.086ZM219.057 40.584C218.829 40.764 218.529 40.848 218.217 40.848C217.641 40.848 217.329 40.512 217.329 39.888V36.84H219.045V35.64H217.329V34.176H215.829V35.64H214.773V36.84H215.829V39.924C215.829 41.34 216.633 42.084 218.037 42.084C218.577 42.084 219.117 41.94 219.477 41.652L219.057 40.584ZM220.269 39.288H223.569V38.04H220.269V39.288ZM227.191 42.084C228.991 42.084 230.095 41.304 230.095 40.104C230.095 37.596 226.135 38.748 226.135 37.452C226.135 37.032 226.567 36.732 227.479 36.732C228.091 36.732 228.703 36.852 229.315 37.212L229.891 36.072C229.315 35.724 228.343 35.52 227.491 35.52C225.763 35.52 224.671 36.312 224.671 37.524C224.671 40.08 228.631 38.928 228.631 40.152C228.631 40.596 228.235 40.86 227.287 40.86C226.483 40.86 225.619 40.596 225.055 40.224L224.479 41.364C225.055 41.772 226.123 42.084 227.191 42.084ZM232.142 34.536C232.706 34.536 233.102 34.128 233.102 33.6C233.102 33.108 232.694 32.736 232.142 32.736C231.59 32.736 231.182 33.132 231.182 33.636C231.182 34.14 231.59 34.536 232.142 34.536ZM231.386 42H232.886V35.592H231.386V42ZM242.943 35.52C241.923 35.52 241.059 35.928 240.543 36.588C240.099 35.868 239.319 35.52 238.383 35.52C237.507 35.52 236.763 35.832 236.283 36.408V35.592H234.855V42H236.355V38.748C236.355 37.476 237.027 36.828 238.023 36.828C238.935 36.828 239.463 37.38 239.463 38.52V42H240.963V38.748C240.963 37.476 241.647 36.828 242.631 36.828C243.543 36.828 244.071 37.38 244.071 38.52V42H245.571V38.328C245.571 36.396 244.491 35.52 242.943 35.52ZM251.04 35.52C250.164 35.52 249.42 35.82 248.916 36.432V35.592H247.488V44.328H248.988V41.22C249.504 41.808 250.224 42.084 251.04 42.084C252.912 42.084 254.292 40.788 254.292 38.796C254.292 36.816 252.912 35.52 251.04 35.52ZM250.872 40.8C249.792 40.8 248.964 40.02 248.964 38.796C248.964 37.572 249.792 36.792 250.872 36.792C251.952 36.792 252.768 37.572 252.768 38.796C252.768 40.02 251.952 40.8 250.872 40.8ZM255.714 42H257.214V33.096H255.714V42ZM265.207 38.832C265.207 36.828 263.839 35.52 261.967 35.52C260.059 35.52 258.655 36.888 258.655 38.796C258.655 40.704 260.047 42.084 262.195 42.084C263.299 42.084 264.199 41.724 264.775 41.04L263.971 40.116C263.515 40.584 262.951 40.812 262.231 40.812C261.115 40.812 260.335 40.212 260.155 39.276H265.183C265.195 39.132 265.207 38.952 265.207 38.832ZM261.967 36.72C262.951 36.72 263.659 37.356 263.779 38.28H260.143C260.287 37.344 260.995 36.72 261.967 36.72ZM267.14 33.012C266.588 33.012 266.168 33.408 266.168 33.996C266.168 34.44 266.396 34.752 266.732 34.884L266.252 36.732H267.224L267.848 35.028C268.064 34.476 268.112 34.272 268.112 33.996C268.112 33.42 267.704 33.012 267.14 33.012Z" fill="#FEE000"/>
<path d="M112.536 58.52C111.66 58.52 110.916 58.82 110.412 59.432V58.592H108.984V67.328H110.484V64.22C111 64.808 111.72 65.084 112.536 65.084C114.408 65.084 115.788 63.788 115.788 61.796C115.788 59.816 114.408 58.52 112.536 58.52ZM112.368 63.8C111.288 63.8 110.46 63.02 110.46 61.796C110.46 60.572 111.288 59.792 112.368 59.792C113.448 59.792 114.264 60.572 114.264 61.796C114.264 63.02 113.448 63.8 112.368 63.8ZM119.577 58.52C118.545 58.52 117.549 58.784 116.865 59.312L117.453 60.404C117.933 60.008 118.677 59.768 119.397 59.768C120.465 59.768 120.993 60.284 120.993 61.16V61.256H119.337C117.393 61.256 116.673 62.096 116.673 63.164C116.673 64.28 117.597 65.084 119.061 65.084C120.021 65.084 120.717 64.772 121.077 64.22V65H122.493V61.244C122.493 59.396 121.425 58.52 119.577 58.52ZM119.373 63.992C118.605 63.992 118.149 63.644 118.149 63.104C118.149 62.636 118.425 62.252 119.445 62.252H120.993V62.996C120.741 63.656 120.105 63.992 119.373 63.992ZM128.86 58.592L126.832 63.332L124.816 58.592H123.256L126.052 65.024L125.944 65.276C125.656 65.912 125.344 66.164 124.816 66.164C124.408 66.164 124 65.996 123.712 65.72L123.112 66.824C123.52 67.196 124.192 67.412 124.828 67.412C125.896 67.412 126.712 66.968 127.3 65.516L130.3 58.592H128.86ZM131.238 65H132.738V56.096H131.238V65ZM137.587 65.084C139.579 65.084 141.007 63.716 141.007 61.796C141.007 59.876 139.579 58.52 137.587 58.52C135.619 58.52 134.179 59.876 134.179 61.796C134.179 63.716 135.619 65.084 137.587 65.084ZM137.587 63.8C136.507 63.8 135.691 63.02 135.691 61.796C135.691 60.572 136.507 59.792 137.587 59.792C138.679 59.792 139.495 60.572 139.495 61.796C139.495 63.02 138.679 63.8 137.587 63.8ZM144.807 58.52C143.775 58.52 142.779 58.784 142.095 59.312L142.683 60.404C143.163 60.008 143.907 59.768 144.627 59.768C145.695 59.768 146.223 60.284 146.223 61.16V61.256H144.567C142.623 61.256 141.903 62.096 141.903 63.164C141.903 64.28 142.827 65.084 144.291 65.084C145.251 65.084 145.947 64.772 146.307 64.22V65H147.723V61.244C147.723 59.396 146.655 58.52 144.807 58.52ZM144.603 63.992C143.835 63.992 143.379 63.644 143.379 63.104C143.379 62.636 143.655 62.252 144.675 62.252H146.223V62.996C145.971 63.656 145.335 63.992 144.603 63.992ZM154.483 56.096V59.384C153.979 58.796 153.247 58.52 152.419 58.52C150.559 58.52 149.179 59.804 149.179 61.796C149.179 63.788 150.559 65.084 152.419 65.084C153.295 65.084 154.039 64.784 154.543 64.172V65H155.983V56.096H154.483ZM152.599 63.8C151.519 63.8 150.691 63.02 150.691 61.796C150.691 60.572 151.519 59.792 152.599 59.792C153.679 59.792 154.507 60.572 154.507 61.796C154.507 63.02 153.679 63.8 152.599 63.8ZM173.768 60.488V58.208C173.768 57.632 174.056 57.296 174.656 57.296H174.908V56.096H174.308C172.952 56.096 172.268 56.78 172.268 58.052V60.524C172.268 60.92 172.064 61.1 171.728 61.1H171.332V62.324H171.728C172.064 62.324 172.268 62.504 172.268 62.9V65.372C172.268 66.644 172.952 67.328 174.308 67.328H174.908V66.128H174.656C174.056 66.128 173.768 65.792 173.768 65.216V62.936C173.768 62.192 173.54 61.868 173.06 61.712C173.54 61.556 173.768 61.232 173.768 60.488Z" fill="#DBE3EB"/>
<path d="M161.057 59.948H166.589V58.748H161.057V59.948ZM161.057 62.852H166.589V61.652H161.057V62.852Z" fill="#EF6355"/>
<defs>
<linearGradient id="paint0_linear_1041_1044" x1="14" y1="1.87648e-05" x2="730.77" y2="454.734" gradientUnits="userSpaceOnUse">
<stop stop-color="#19385D"/>
<stop offset="1" stop-color="#13273F"/>
</linearGradient>
</defs>
</svg>
