<svg width="553" height="486" viewBox="0 0 553 486" fill="none" xmlns="http://www.w3.org/2000/svg">
<path d="M533 0H20C8.9543 0 0 8.9543 0 20V466C0 477.046 8.9543 486 20 486H533C544.046 486 553 477.046 553 466V20C553 8.9543 544.046 0 533 0Z" fill="#13273F"/>
<path d="M86 226C86 220.477 90.4772 216 96 216H553V466C553 477.046 544.046 486 533 486H86V226Z" fill="url(#paint0_linear_4_73)"/>
<path d="M86.5 226C86.5 220.753 90.7533 216.5 96 216.5H552.5V466C552.5 476.77 543.77 485.5 533 485.5H86.5V226Z" stroke="#38B6FF" stroke-opacity="0.34"/>
<path d="M113.655 248.6V249.644H115.551V257H116.739V248.6H113.655Z" fill="#55718D"/>
<path d="M114.281 278.956L116.849 276.484C117.989 275.392 118.229 274.66 118.229 273.844C118.229 272.404 117.101 271.504 115.349 271.504C114.041 271.504 112.925 271.972 112.277 272.776L113.093 273.484C113.609 272.86 114.341 272.572 115.241 272.572C116.417 272.572 117.029 273.1 117.029 273.964C117.029 274.492 116.861 275.02 115.973 275.884L112.553 279.184V280H118.589V278.956H114.281Z" fill="#55718D"/>
<path d="M115.925 298.128L118.121 295.416V294.6H112.577V295.644H116.621L114.509 298.236V299.076H115.181C116.621 299.076 117.257 299.652 117.257 300.54C117.257 301.452 116.537 302.028 115.277 302.028C114.245 302.028 113.309 301.656 112.745 301.128L112.193 302.076C112.901 302.712 114.077 303.096 115.277 303.096C117.413 303.096 118.457 301.944 118.457 300.528C118.457 299.232 117.605 298.284 115.925 298.128Z" fill="#55718D"/>
<path d="M118.857 322.904H117.261V321.08H116.133V322.904H112.905L117.021 317.6H115.725L111.429 323.096V323.936H116.097V326H117.261V323.936H118.857V322.904Z" fill="#55718D"/>
<path d="M115.085 343.948H114.149L114.377 341.644H118.109V340.6H113.369L112.925 344.992H114.833C116.777 344.992 117.377 345.58 117.377 346.528C117.377 347.44 116.657 348.028 115.385 348.028C114.365 348.028 113.429 347.656 112.865 347.128L112.313 348.076C113.033 348.712 114.209 349.096 115.397 349.096C117.545 349.096 118.577 347.932 118.577 346.48C118.577 344.992 117.593 343.948 115.085 343.948Z" fill="#55718D"/>
<path d="M115.794 366.9C114.75 366.9 113.862 367.284 113.382 368.004C113.37 367.896 113.37 367.8 113.37 367.704C113.37 365.604 114.462 364.536 116.166 364.536C116.766 364.536 117.342 364.644 117.774 364.932L118.23 363.996C117.69 363.66 116.934 363.504 116.142 363.504C113.79 363.504 112.17 365.04 112.17 367.908C112.17 370.584 113.442 372.096 115.698 372.096C117.366 372.096 118.674 371.064 118.674 369.444C118.674 367.896 117.462 366.9 115.794 366.9ZM115.65 371.124C114.354 371.124 113.658 370.368 113.658 369.504C113.658 368.58 114.45 367.872 115.59 367.872C116.766 367.872 117.51 368.508 117.51 369.492C117.51 370.488 116.742 371.124 115.65 371.124Z" fill="#55718D"/>
<path d="M112.188 386.6V389.144H113.34V387.644H117.18L113.856 395H115.128L118.524 387.416V386.6H112.188Z" fill="#55718D"/>
<path d="M116.989 413.596C117.757 413.236 118.177 412.612 118.177 411.784C118.177 410.38 116.953 409.504 115.129 409.504C113.317 409.504 112.105 410.38 112.105 411.784C112.105 412.612 112.513 413.236 113.281 413.596C112.333 413.956 111.805 414.664 111.805 415.624C111.805 417.148 113.089 418.096 115.129 418.096C117.181 418.096 118.477 417.148 118.477 415.624C118.477 414.664 117.949 413.968 116.989 413.596ZM115.129 410.476C116.257 410.476 117.001 410.992 117.001 411.832C117.001 412.66 116.293 413.176 115.129 413.176C113.977 413.176 113.293 412.66 113.293 411.832C113.293 410.992 114.001 410.476 115.129 410.476ZM115.129 417.124C113.797 417.124 113.005 416.536 113.005 415.588C113.005 414.664 113.797 414.088 115.129 414.088C116.461 414.088 117.277 414.664 117.277 415.588C117.277 416.536 116.461 417.124 115.129 417.124Z" fill="#55718D"/>
<path d="M114.894 432.504C113.226 432.504 111.93 433.536 111.93 435.156C111.93 436.704 113.13 437.7 114.798 437.7C115.842 437.7 116.73 437.328 117.222 436.596V436.896C117.222 438.996 116.142 440.064 114.438 440.064C113.826 440.064 113.262 439.956 112.818 439.668L112.362 440.604C112.902 440.94 113.658 441.096 114.45 441.096C116.802 441.096 118.422 439.56 118.422 436.692C118.422 434.016 117.15 432.504 114.894 432.504ZM115.002 436.728C113.826 436.728 113.094 436.092 113.094 435.108C113.094 434.112 113.85 433.476 114.942 433.476C116.25 433.476 116.946 434.232 116.946 435.096C116.946 436.02 116.154 436.728 115.002 436.728Z" fill="#55718D"/>
<path d="M106.651 455.6V456.644H108.547V464H109.735V455.6H106.651ZM115.004 464.096C116.96 464.096 118.424 462.536 118.424 459.8C118.424 457.064 116.96 455.504 115.004 455.504C113.036 455.504 111.572 457.064 111.572 459.8C111.572 462.536 113.036 464.096 115.004 464.096ZM115.004 463.028C113.684 463.028 112.772 461.948 112.772 459.8C112.772 457.652 113.684 456.572 115.004 456.572C116.312 456.572 117.224 457.652 117.224 459.8C117.224 461.948 116.312 463.028 115.004 463.028Z" fill="#55718D"/>
<path d="M151.379 258.084C152.627 258.084 153.623 257.544 154.115 256.584L152.963 255.912C152.579 256.524 152.003 256.8 151.367 256.8C150.263 256.8 149.423 256.044 149.423 254.796C149.423 253.56 150.263 252.792 151.367 252.792C152.003 252.792 152.579 253.068 152.963 253.68L154.115 253.008C153.623 252.036 152.627 251.52 151.379 251.52C149.351 251.52 147.911 252.876 147.911 254.796C147.911 256.716 149.351 258.084 151.379 258.084ZM158.198 258.084C160.19 258.084 161.618 256.716 161.618 254.796C161.618 252.876 160.19 251.52 158.198 251.52C156.23 251.52 154.79 252.876 154.79 254.796C154.79 256.716 156.23 258.084 158.198 258.084ZM158.198 256.8C157.118 256.8 156.302 256.02 156.302 254.796C156.302 253.572 157.118 252.792 158.198 252.792C159.29 252.792 160.106 253.572 160.106 254.796C160.106 256.02 159.29 256.8 158.198 256.8ZM166.688 251.52C165.752 251.52 164.972 251.832 164.48 252.42V251.592H163.052V258H164.552V254.76C164.552 253.476 165.272 252.828 166.34 252.828C167.3 252.828 167.864 253.38 167.864 254.52V258H169.364V254.328C169.364 252.396 168.224 251.52 166.688 251.52ZM173.247 258.084C175.047 258.084 176.151 257.304 176.151 256.104C176.151 253.596 172.191 254.748 172.191 253.452C172.191 253.032 172.623 252.732 173.535 252.732C174.147 252.732 174.759 252.852 175.371 253.212L175.947 252.072C175.371 251.724 174.399 251.52 173.547 251.52C171.819 251.52 170.727 252.312 170.727 253.524C170.727 256.08 174.687 254.928 174.687 256.152C174.687 256.596 174.291 256.86 173.343 256.86C172.539 256.86 171.675 256.596 171.111 256.224L170.535 257.364C171.111 257.772 172.179 258.084 173.247 258.084ZM180.875 256.584C180.647 256.764 180.347 256.848 180.035 256.848C179.459 256.848 179.147 256.512 179.147 255.888V252.84H180.863V251.64H179.147V250.176H177.647V251.64H176.591V252.84H177.647V255.924C177.647 257.34 178.451 258.084 179.855 258.084C180.395 258.084 180.935 257.94 181.295 257.652L180.875 256.584Z" fill="#38B6FF"/>
<path d="M151.379 281.084C152.627 281.084 153.623 280.544 154.115 279.584L152.963 278.912C152.579 279.524 152.003 279.8 151.367 279.8C150.263 279.8 149.423 279.044 149.423 277.796C149.423 276.56 150.263 275.792 151.367 275.792C152.003 275.792 152.579 276.068 152.963 276.68L154.115 276.008C153.623 275.036 152.627 274.52 151.379 274.52C149.351 274.52 147.911 275.876 147.911 277.796C147.911 279.716 149.351 281.084 151.379 281.084ZM158.198 281.084C160.19 281.084 161.618 279.716 161.618 277.796C161.618 275.876 160.19 274.52 158.198 274.52C156.23 274.52 154.79 275.876 154.79 277.796C154.79 279.716 156.23 281.084 158.198 281.084ZM158.198 279.8C157.118 279.8 156.302 279.02 156.302 277.796C156.302 276.572 157.118 275.792 158.198 275.792C159.29 275.792 160.106 276.572 160.106 277.796C160.106 279.02 159.29 279.8 158.198 279.8ZM166.688 274.52C165.752 274.52 164.972 274.832 164.48 275.42V274.592H163.052V281H164.552V277.76C164.552 276.476 165.272 275.828 166.34 275.828C167.3 275.828 167.864 276.38 167.864 277.52V281H169.364V277.328C169.364 275.396 168.224 274.52 166.688 274.52ZM173.247 281.084C175.047 281.084 176.151 280.304 176.151 279.104C176.151 276.596 172.191 277.748 172.191 276.452C172.191 276.032 172.623 275.732 173.535 275.732C174.147 275.732 174.759 275.852 175.371 276.212L175.947 275.072C175.371 274.724 174.399 274.52 173.547 274.52C171.819 274.52 170.727 275.312 170.727 276.524C170.727 279.08 174.687 277.928 174.687 279.152C174.687 279.596 174.291 279.86 173.343 279.86C172.539 279.86 171.675 279.596 171.111 279.224L170.535 280.364C171.111 280.772 172.179 281.084 173.247 281.084ZM180.875 279.584C180.647 279.764 180.347 279.848 180.035 279.848C179.459 279.848 179.147 279.512 179.147 278.888V275.84H180.863V274.64H179.147V273.176H177.647V274.64H176.591V275.84H177.647V278.924C177.647 280.34 178.451 281.084 179.855 281.084C180.395 281.084 180.935 280.94 181.295 280.652L180.875 279.584Z" fill="#38B6FF"/>
<path d="M195.74 296.536C196.304 296.536 196.7 296.128 196.7 295.6C196.7 295.108 196.292 294.736 195.74 294.736C195.188 294.736 194.78 295.132 194.78 295.636C194.78 296.14 195.188 296.536 195.74 296.536ZM194.984 304H196.484V297.592H194.984V304ZM200.901 297.52C199.869 297.52 198.873 297.784 198.189 298.312L198.777 299.404C199.257 299.008 200.001 298.768 200.721 298.768C201.789 298.768 202.317 299.284 202.317 300.16V300.256H200.661C198.717 300.256 197.997 301.096 197.997 302.164C197.997 303.28 198.921 304.084 200.385 304.084C201.345 304.084 202.041 303.772 202.401 303.22V304H203.817V300.244C203.817 298.396 202.749 297.52 200.901 297.52ZM200.697 302.992C199.929 302.992 199.473 302.644 199.473 302.104C199.473 301.636 199.749 301.252 200.769 301.252H202.317V301.996C202.065 302.656 201.429 302.992 200.697 302.992ZM209.174 302.584C208.946 302.764 208.646 302.848 208.334 302.848C207.758 302.848 207.446 302.512 207.446 301.888V298.84H209.162V297.64H207.446V296.176H205.946V297.64H204.89V298.84H205.946V301.924C205.946 303.34 206.75 304.084 208.154 304.084C208.694 304.084 209.234 303.94 209.594 303.652L209.174 302.584Z" fill="#2CD19E"/>
<path d="M214.624 299.512C215.164 299.512 215.608 299.092 215.608 298.516C215.608 297.916 215.164 297.52 214.624 297.52C214.084 297.52 213.64 297.916 213.64 298.516C213.64 299.092 214.084 299.512 214.624 299.512ZM214.624 304.084C215.164 304.084 215.608 303.664 215.608 303.088C215.608 302.488 215.164 302.092 214.624 302.092C214.084 302.092 213.64 302.488 213.64 303.088C213.64 303.664 214.084 304.084 214.624 304.084ZM226.647 304.084C227.895 304.084 228.891 303.544 229.383 302.584L228.231 301.912C227.847 302.524 227.271 302.8 226.635 302.8C225.531 302.8 224.691 302.044 224.691 300.796C224.691 299.56 225.531 298.792 226.635 298.792C227.271 298.792 227.847 299.068 228.231 299.68L229.383 299.008C228.891 298.036 227.895 297.52 226.647 297.52C224.619 297.52 223.179 298.876 223.179 300.796C223.179 302.716 224.619 304.084 226.647 304.084ZM235.383 297.592V300.832C235.383 302.116 234.675 302.764 233.631 302.764C232.683 302.764 232.131 302.212 232.131 301.048V297.592H230.631V301.252C230.631 303.184 231.747 304.084 233.391 304.084C234.219 304.084 234.975 303.772 235.455 303.184V304H236.883V297.592H235.383ZM240.275 298.528V297.592H238.847V304H240.347V300.892C240.347 299.584 241.067 298.912 242.207 298.912C242.315 298.912 242.423 298.924 242.555 298.948V297.52C241.487 297.52 240.707 297.856 240.275 298.528ZM245.256 298.528V297.592H243.828V304H245.328V300.892C245.328 299.584 246.048 298.912 247.188 298.912C247.296 298.912 247.404 298.924 247.536 298.948V297.52C246.468 297.52 245.688 297.856 245.256 298.528ZM254.774 300.832C254.774 298.828 253.406 297.52 251.534 297.52C249.626 297.52 248.222 298.888 248.222 300.796C248.222 302.704 249.614 304.084 251.762 304.084C252.866 304.084 253.766 303.724 254.342 303.04L253.538 302.116C253.082 302.584 252.518 302.812 251.798 302.812C250.682 302.812 249.902 302.212 249.722 301.276H254.75C254.762 301.132 254.774 300.952 254.774 300.832ZM251.534 298.72C252.518 298.72 253.226 299.356 253.346 300.28H249.71C249.854 299.344 250.562 298.72 251.534 298.72ZM259.85 297.52C258.914 297.52 258.134 297.832 257.642 298.42V297.592H256.214V304H257.714V300.76C257.714 299.476 258.434 298.828 259.502 298.828C260.462 298.828 261.026 299.38 261.026 300.52V304H262.526V300.328C262.526 298.396 261.386 297.52 259.85 297.52ZM267.861 302.584C267.633 302.764 267.333 302.848 267.021 302.848C266.445 302.848 266.133 302.512 266.133 301.888V298.84H267.849V297.64H266.133V296.176H264.633V297.64H263.577V298.84H264.633V301.924C264.633 303.34 265.437 304.084 266.841 304.084C267.381 304.084 267.921 303.94 268.281 303.652L267.861 302.584ZM273.271 304.12C275.563 304.12 276.943 302.788 276.943 300.34V295.6H275.407V300.28C275.407 302.008 274.639 302.752 273.283 302.752C271.927 302.752 271.147 302.008 271.147 300.28V295.6H269.587V300.34C269.587 302.788 270.967 304.12 273.271 304.12ZM282.62 297.52C281.684 297.52 280.904 297.832 280.412 298.42V297.592H278.984V304H280.484V300.76C280.484 299.476 281.204 298.828 282.272 298.828C283.232 298.828 283.796 299.38 283.796 300.52V304H285.296V300.328C285.296 298.396 284.156 297.52 282.62 297.52ZM287.955 296.536C288.519 296.536 288.915 296.128 288.915 295.6C288.915 295.108 288.507 294.736 287.955 294.736C287.403 294.736 286.995 295.132 286.995 295.636C286.995 296.14 287.403 296.536 287.955 296.536ZM287.199 304H288.699V297.592H287.199V304ZM296.44 304L293.932 300.724L296.332 297.592H294.712L293.14 299.692L291.568 297.592H289.9L292.288 300.748L289.792 304H291.448L293.104 301.78L294.748 304H296.44ZM299.008 304H300.568V296.92H303.352V295.6H296.224V296.92H299.008V304ZM304.982 296.536C305.546 296.536 305.942 296.128 305.942 295.6C305.942 295.108 305.534 294.736 304.982 294.736C304.43 294.736 304.022 295.132 304.022 295.636C304.022 296.14 304.43 296.536 304.982 296.536ZM304.226 304H305.726V297.592H304.226V304ZM315.783 297.52C314.763 297.52 313.899 297.928 313.383 298.588C312.939 297.868 312.159 297.52 311.223 297.52C310.347 297.52 309.603 297.832 309.123 298.408V297.592H307.695V304H309.195V300.748C309.195 299.476 309.867 298.828 310.863 298.828C311.775 298.828 312.303 299.38 312.303 300.52V304H313.803V300.748C313.803 299.476 314.487 298.828 315.471 298.828C316.383 298.828 316.911 299.38 316.911 300.52V304H318.411V300.328C318.411 298.396 317.331 297.52 315.783 297.52ZM326.41 300.832C326.41 298.828 325.042 297.52 323.17 297.52C321.262 297.52 319.858 298.888 319.858 300.796C319.858 302.704 321.25 304.084 323.398 304.084C324.502 304.084 325.402 303.724 325.978 303.04L325.174 302.116C324.718 302.584 324.154 302.812 323.434 302.812C322.318 302.812 321.538 302.212 321.358 301.276H326.386C326.398 301.132 326.41 300.952 326.41 300.832ZM323.17 298.72C324.154 298.72 324.862 299.356 324.982 300.28H321.346C321.49 299.344 322.198 298.72 323.17 298.72ZM330.599 304.12C332.903 304.12 333.995 302.968 333.995 301.624C333.995 298.54 329.015 299.704 329.015 297.916C329.015 297.28 329.543 296.776 330.839 296.776C331.571 296.776 332.399 296.992 333.155 297.436L333.647 296.224C332.915 295.744 331.859 295.48 330.851 295.48C328.547 295.48 327.467 296.632 327.467 297.988C327.467 301.108 332.459 299.92 332.459 301.732C332.459 302.356 331.907 302.824 330.599 302.824C329.567 302.824 328.499 302.44 327.827 301.9L327.287 303.112C327.983 303.712 329.291 304.12 330.599 304.12ZM338.83 302.584C338.602 302.764 338.302 302.848 337.99 302.848C337.414 302.848 337.102 302.512 337.102 301.888V298.84H338.818V297.64H337.102V296.176H335.602V297.64H334.546V298.84H335.602V301.924C335.602 303.34 336.406 304.084 337.81 304.084C338.35 304.084 338.89 303.94 339.25 303.652L338.83 302.584ZM342.932 297.52C341.9 297.52 340.904 297.784 340.22 298.312L340.808 299.404C341.288 299.008 342.032 298.768 342.752 298.768C343.82 298.768 344.348 299.284 344.348 300.16V300.256H342.692C340.748 300.256 340.028 301.096 340.028 302.164C340.028 303.28 340.952 304.084 342.416 304.084C343.376 304.084 344.072 303.772 344.432 303.22V304H345.848V300.244C345.848 298.396 344.78 297.52 342.932 297.52ZM342.728 302.992C341.96 302.992 341.504 302.644 341.504 302.104C341.504 301.636 341.78 301.252 342.8 301.252H344.348V301.996C344.096 302.656 343.46 302.992 342.728 302.992ZM355.861 297.52C354.841 297.52 353.977 297.928 353.461 298.588C353.017 297.868 352.237 297.52 351.301 297.52C350.425 297.52 349.681 297.832 349.201 298.408V297.592H347.773V304H349.273V300.748C349.273 299.476 349.945 298.828 350.941 298.828C351.853 298.828 352.381 299.38 352.381 300.52V304H353.881V300.748C353.881 299.476 354.565 298.828 355.549 298.828C356.461 298.828 356.989 299.38 356.989 300.52V304H358.489V300.328C358.489 298.396 357.409 297.52 355.861 297.52ZM363.958 297.52C363.082 297.52 362.338 297.82 361.834 298.432V297.592H360.406V306.328H361.906V303.22C362.422 303.808 363.142 304.084 363.958 304.084C365.83 304.084 367.21 302.788 367.21 300.796C367.21 298.816 365.83 297.52 363.958 297.52ZM363.79 302.8C362.71 302.8 361.882 302.02 361.882 300.796C361.882 299.572 362.71 298.792 363.79 298.792C364.87 298.792 365.686 299.572 365.686 300.796C365.686 302.02 364.87 302.8 363.79 302.8ZM372.441 302.092C371.889 302.092 371.469 302.488 371.469 303.088C371.469 303.52 371.697 303.832 372.033 303.976L371.553 305.812H372.525L373.137 304.12C373.353 303.568 373.413 303.352 373.413 303.088C373.413 302.5 373.005 302.092 372.441 302.092Z" fill="#DBE3EB"/>
<path d="M201.008 323.832C201.008 321.828 199.64 320.52 197.768 320.52C195.86 320.52 194.456 321.888 194.456 323.796C194.456 325.704 195.848 327.084 197.996 327.084C199.1 327.084 200 326.724 200.576 326.04L199.772 325.116C199.316 325.584 198.752 325.812 198.032 325.812C196.916 325.812 196.136 325.212 195.956 324.276H200.984C200.996 324.132 201.008 323.952 201.008 323.832ZM197.768 321.72C198.752 321.72 199.46 322.356 199.58 323.28H195.944C196.088 322.344 196.796 321.72 197.768 321.72ZM208.045 327L205.537 323.724L207.937 320.592H206.317L204.745 322.692L203.173 320.592H201.505L203.893 323.748L201.397 327H203.053L204.709 324.78L206.353 327H208.045ZM212.704 320.52C211.828 320.52 211.084 320.82 210.58 321.432V320.592H209.152V329.328H210.652V326.22C211.168 326.808 211.888 327.084 212.704 327.084C214.576 327.084 215.956 325.788 215.956 323.796C215.956 321.816 214.576 320.52 212.704 320.52ZM212.536 325.8C211.456 325.8 210.628 325.02 210.628 323.796C210.628 322.572 211.456 321.792 212.536 321.792C213.616 321.792 214.432 322.572 214.432 323.796C214.432 325.02 213.616 325.8 212.536 325.8Z" fill="#2CD19E"/>
<path d="M221.175 322.512C221.715 322.512 222.159 322.092 222.159 321.516C222.159 320.916 221.715 320.52 221.175 320.52C220.635 320.52 220.191 320.916 220.191 321.516C220.191 322.092 220.635 322.512 221.175 322.512ZM221.175 327.084C221.715 327.084 222.159 326.664 222.159 326.088C222.159 325.488 221.715 325.092 221.175 325.092C220.635 325.092 220.191 325.488 220.191 326.088C220.191 326.664 220.635 327.084 221.175 327.084ZM233.689 325.584C233.461 325.764 233.161 325.848 232.849 325.848C232.273 325.848 231.961 325.512 231.961 324.888V321.84H233.677V320.64H231.961V319.176H230.461V320.64H229.405V321.84H230.461V324.924C230.461 326.34 231.265 327.084 232.669 327.084C233.209 327.084 233.749 326.94 234.109 326.652L233.689 325.584ZM238.012 327.084C240.004 327.084 241.432 325.716 241.432 323.796C241.432 321.876 240.004 320.52 238.012 320.52C236.044 320.52 234.604 321.876 234.604 323.796C234.604 325.716 236.044 327.084 238.012 327.084ZM238.012 325.8C236.932 325.8 236.116 325.02 236.116 323.796C236.116 322.572 236.932 321.792 238.012 321.792C239.104 321.792 239.92 322.572 239.92 323.796C239.92 325.02 239.104 325.8 238.012 325.8ZM247.703 327H249.527L246.599 323.28L249.275 320.592H247.475L244.367 323.472V318.096H242.867V327H244.367V325.308L245.483 324.252L247.703 327ZM256.25 323.832C256.25 321.828 254.882 320.52 253.01 320.52C251.102 320.52 249.698 321.888 249.698 323.796C249.698 325.704 251.09 327.084 253.238 327.084C254.342 327.084 255.242 326.724 255.818 326.04L255.014 325.116C254.558 325.584 253.994 325.812 253.274 325.812C252.158 325.812 251.378 325.212 251.198 324.276H256.226C256.238 324.132 256.25 323.952 256.25 323.832ZM253.01 321.72C253.994 321.72 254.702 322.356 254.822 323.28H251.186C251.33 322.344 252.038 321.72 253.01 321.72ZM261.327 320.52C260.391 320.52 259.611 320.832 259.119 321.42V320.592H257.691V327H259.191V323.76C259.191 322.476 259.911 321.828 260.979 321.828C261.939 321.828 262.503 322.38 262.503 323.52V327H264.003V323.328C264.003 321.396 262.863 320.52 261.327 320.52ZM267.61 325.692V323.376H271.666V322.092H267.61V319.908H272.182V318.6H266.05V327H272.35V325.692H267.61ZM279.6 327L277.092 323.724L279.492 320.592H277.872L276.3 322.692L274.728 320.592H273.06L275.448 323.748L272.952 327H274.608L276.264 324.78L277.908 327H279.6ZM284.259 320.52C283.383 320.52 282.639 320.82 282.135 321.432V320.592H280.707V329.328H282.207V326.22C282.723 326.808 283.443 327.084 284.259 327.084C286.131 327.084 287.511 325.788 287.511 323.796C287.511 321.816 286.131 320.52 284.259 320.52ZM284.091 325.8C283.011 325.8 282.183 325.02 282.183 323.796C282.183 322.572 283.011 321.792 284.091 321.792C285.171 321.792 285.987 322.572 285.987 323.796C285.987 325.02 285.171 325.8 284.091 325.8ZM289.689 319.536C290.253 319.536 290.649 319.128 290.649 318.6C290.649 318.108 290.241 317.736 289.689 317.736C289.137 317.736 288.729 318.132 288.729 318.636C288.729 319.14 289.137 319.536 289.689 319.536ZM288.933 327H290.433V320.592H288.933V327ZM293.83 321.528V320.592H292.402V327H293.902V323.892C293.902 322.584 294.622 321.912 295.762 321.912C295.87 321.912 295.978 321.924 296.11 321.948V320.52C295.042 320.52 294.262 320.856 293.83 321.528ZM302.177 320.592L300.149 325.332L298.133 320.592H296.573L299.369 327.024L299.261 327.276C298.973 327.912 298.661 328.164 298.133 328.164C297.725 328.164 297.317 327.996 297.029 327.72L296.429 328.824C296.837 329.196 297.509 329.412 298.145 329.412C299.213 329.412 300.029 328.968 300.617 327.516L303.617 320.592H302.177ZM306.051 327H307.611V319.92H310.395V318.6H303.267V319.92H306.051V327ZM312.025 319.536C312.589 319.536 312.985 319.128 312.985 318.6C312.985 318.108 312.577 317.736 312.025 317.736C311.473 317.736 311.065 318.132 311.065 318.636C311.065 319.14 311.473 319.536 312.025 319.536ZM311.269 327H312.769V320.592H311.269V327ZM322.826 320.52C321.806 320.52 320.942 320.928 320.426 321.588C319.982 320.868 319.202 320.52 318.266 320.52C317.39 320.52 316.646 320.832 316.166 321.408V320.592H314.738V327H316.238V323.748C316.238 322.476 316.91 321.828 317.906 321.828C318.818 321.828 319.346 322.38 319.346 323.52V327H320.846V323.748C320.846 322.476 321.53 321.828 322.514 321.828C323.426 321.828 323.954 322.38 323.954 323.52V327H325.454V323.328C325.454 321.396 324.374 320.52 322.826 320.52ZM333.453 323.832C333.453 321.828 332.085 320.52 330.213 320.52C328.305 320.52 326.901 321.888 326.901 323.796C326.901 325.704 328.293 327.084 330.441 327.084C331.545 327.084 332.445 326.724 333.021 326.04L332.217 325.116C331.761 325.584 331.197 325.812 330.477 325.812C329.361 325.812 328.581 325.212 328.401 324.276H333.429C333.441 324.132 333.453 323.952 333.453 323.832ZM330.213 321.72C331.197 321.72 331.905 322.356 332.025 323.28H328.389C328.533 322.344 329.241 321.72 330.213 321.72ZM338.703 325.092C338.151 325.092 337.731 325.488 337.731 326.088C337.731 326.52 337.959 326.832 338.295 326.976L337.815 328.812H338.787L339.399 327.12C339.615 326.568 339.675 326.352 339.675 326.088C339.675 325.5 339.267 325.092 338.703 325.092Z" fill="#DBE3EB"/>
<path d="M198.416 348.584C198.188 348.764 197.888 348.848 197.576 348.848C197 348.848 196.688 348.512 196.688 347.888V344.84H198.404V343.64H196.688V342.176H195.188V343.64H194.132V344.84H195.188V347.924C195.188 349.34 195.992 350.084 197.396 350.084C197.936 350.084 198.476 349.94 198.836 349.652L198.416 348.584ZM205.883 346.832C205.883 344.828 204.515 343.52 202.643 343.52C200.735 343.52 199.331 344.888 199.331 346.796C199.331 348.704 200.723 350.084 202.871 350.084C203.975 350.084 204.875 349.724 205.451 349.04L204.647 348.116C204.191 348.584 203.627 348.812 202.907 348.812C201.791 348.812 201.011 348.212 200.831 347.276H205.859C205.871 347.132 205.883 346.952 205.883 346.832ZM202.643 344.72C203.627 344.72 204.335 345.356 204.455 346.28H200.819C200.963 345.344 201.671 344.72 202.643 344.72ZM208.752 344.528V343.592H207.324V350H208.824V346.892C208.824 345.584 209.544 344.912 210.684 344.912C210.792 344.912 210.9 344.924 211.032 344.948V343.52C209.964 343.52 209.184 343.856 208.752 344.528ZM220.392 343.52C219.372 343.52 218.508 343.928 217.992 344.588C217.548 343.868 216.768 343.52 215.832 343.52C214.956 343.52 214.212 343.832 213.732 344.408V343.592H212.304V350H213.804V346.748C213.804 345.476 214.476 344.828 215.472 344.828C216.384 344.828 216.912 345.38 216.912 346.52V350H218.412V346.748C218.412 345.476 219.096 344.828 220.08 344.828C220.992 344.828 221.52 345.38 221.52 346.52V350H223.02V346.328C223.02 344.396 221.94 343.52 220.392 343.52ZM225.693 342.536C226.257 342.536 226.653 342.128 226.653 341.6C226.653 341.108 226.245 340.736 225.693 340.736C225.141 340.736 224.733 341.132 224.733 341.636C224.733 342.14 225.141 342.536 225.693 342.536ZM224.937 350H226.437V343.592H224.937V350ZM232.042 343.52C231.106 343.52 230.326 343.832 229.834 344.42V343.592H228.406V350H229.906V346.76C229.906 345.476 230.626 344.828 231.694 344.828C232.654 344.828 233.218 345.38 233.218 346.52V350H234.718V346.328C234.718 344.396 233.578 343.52 232.042 343.52ZM239.069 343.52C238.037 343.52 237.041 343.784 236.357 344.312L236.945 345.404C237.425 345.008 238.169 344.768 238.889 344.768C239.957 344.768 240.485 345.284 240.485 346.16V346.256H238.829C236.885 346.256 236.165 347.096 236.165 348.164C236.165 349.28 237.089 350.084 238.553 350.084C239.513 350.084 240.209 349.772 240.569 349.22V350H241.985V346.244C241.985 344.396 240.917 343.52 239.069 343.52ZM238.865 348.992C238.097 348.992 237.641 348.644 237.641 348.104C237.641 347.636 237.917 347.252 238.937 347.252H240.485V347.996C240.233 348.656 239.597 348.992 238.865 348.992ZM243.91 350H245.41V341.096H243.91V350ZM247.523 350H249.083V341.6H247.523V350ZM251.355 350H255.027C257.751 350 259.611 348.32 259.611 345.8C259.611 343.28 257.751 341.6 255.027 341.6H251.355V350ZM252.915 348.68V342.92H254.955C256.827 342.92 258.039 344.06 258.039 345.8C258.039 347.54 256.827 348.68 254.955 348.68H252.915Z" fill="#2CD19E"/>
<path d="M264.921 345.512C265.461 345.512 265.905 345.092 265.905 344.516C265.905 343.916 265.461 343.52 264.921 343.52C264.381 343.52 263.937 343.916 263.937 344.516C263.937 345.092 264.381 345.512 264.921 345.512ZM264.921 350.084C265.461 350.084 265.905 349.664 265.905 349.088C265.905 348.488 265.461 348.092 264.921 348.092C264.381 348.092 263.937 348.488 263.937 349.088C263.937 349.664 264.381 350.084 264.921 350.084ZM277.436 348.584C277.208 348.764 276.908 348.848 276.596 348.848C276.02 348.848 275.708 348.512 275.708 347.888V344.84H277.424V343.64H275.708V342.176H274.208V343.64H273.152V344.84H274.208V347.924C274.208 349.34 275.012 350.084 276.416 350.084C276.956 350.084 277.496 349.94 277.856 349.652L277.436 348.584ZM284.903 346.832C284.903 344.828 283.535 343.52 281.663 343.52C279.755 343.52 278.351 344.888 278.351 346.796C278.351 348.704 279.743 350.084 281.891 350.084C282.995 350.084 283.895 349.724 284.471 349.04L283.667 348.116C283.211 348.584 282.647 348.812 281.927 348.812C280.811 348.812 280.031 348.212 279.851 347.276H284.879C284.891 347.132 284.903 346.952 284.903 346.832ZM281.663 344.72C282.647 344.72 283.355 345.356 283.475 346.28H279.839C279.983 345.344 280.691 344.72 281.663 344.72ZM287.771 344.528V343.592H286.343V350H287.843V346.892C287.843 345.584 288.563 344.912 289.703 344.912C289.811 344.912 289.919 344.924 290.051 344.948V343.52C288.983 343.52 288.203 343.856 287.771 344.528ZM299.412 343.52C298.392 343.52 297.528 343.928 297.012 344.588C296.568 343.868 295.788 343.52 294.852 343.52C293.976 343.52 293.232 343.832 292.752 344.408V343.592H291.324V350H292.824V346.748C292.824 345.476 293.496 344.828 294.492 344.828C295.404 344.828 295.932 345.38 295.932 346.52V350H297.432V346.748C297.432 345.476 298.116 344.828 299.1 344.828C300.012 344.828 300.54 345.38 300.54 346.52V350H302.04V346.328C302.04 344.396 300.96 343.52 299.412 343.52ZM304.713 342.536C305.277 342.536 305.673 342.128 305.673 341.6C305.673 341.108 305.265 340.736 304.713 340.736C304.161 340.736 303.753 341.132 303.753 341.636C303.753 342.14 304.161 342.536 304.713 342.536ZM303.957 350H305.457V343.592H303.957V350ZM311.061 343.52C310.125 343.52 309.345 343.832 308.853 344.42V343.592H307.425V350H308.925V346.76C308.925 345.476 309.645 344.828 310.713 344.828C311.673 344.828 312.237 345.38 312.237 346.52V350H313.737V346.328C313.737 344.396 312.597 343.52 311.061 343.52ZM318.088 343.52C317.056 343.52 316.06 343.784 315.376 344.312L315.964 345.404C316.444 345.008 317.188 344.768 317.908 344.768C318.976 344.768 319.504 345.284 319.504 346.16V346.256H317.848C315.904 346.256 315.184 347.096 315.184 348.164C315.184 349.28 316.108 350.084 317.572 350.084C318.532 350.084 319.228 349.772 319.588 349.22V350H321.004V346.244C321.004 344.396 319.936 343.52 318.088 343.52ZM317.884 348.992C317.116 348.992 316.66 348.644 316.66 348.104C316.66 347.636 316.936 347.252 317.956 347.252H319.504V347.996C319.252 348.656 318.616 348.992 317.884 348.992ZM322.929 350H324.429V341.096H322.929V350ZM326.542 350H328.102V341.6H326.542V350ZM330.374 350H334.046C336.77 350 338.63 348.32 338.63 345.8C338.63 343.28 336.77 341.6 334.046 341.6H330.374V350ZM331.934 348.68V342.92H333.974C335.846 342.92 337.058 344.06 337.058 345.8C337.058 347.54 335.846 348.68 333.974 348.68H331.934ZM343.953 348.092C343.401 348.092 342.981 348.488 342.981 349.088C342.981 349.52 343.209 349.832 343.545 349.976L343.065 351.812H344.037L344.649 350.12C344.865 349.568 344.925 349.352 344.925 349.088C344.925 348.5 344.517 348.092 343.953 348.092Z" fill="#DBE3EB"/>
<path d="M197.432 389.52C196.4 389.52 195.404 389.784 194.72 390.312L195.308 391.404C195.788 391.008 196.532 390.768 197.252 390.768C198.32 390.768 198.848 391.284 198.848 392.16V392.256H197.192C195.248 392.256 194.528 393.096 194.528 394.164C194.528 395.28 195.452 396.084 196.916 396.084C197.876 396.084 198.572 395.772 198.932 395.22V396H200.348V392.244C200.348 390.396 199.28 389.52 197.432 389.52ZM197.228 394.992C196.46 394.992 196.004 394.644 196.004 394.104C196.004 393.636 196.28 393.252 197.3 393.252H198.848V393.996C198.596 394.656 197.96 394.992 197.228 394.992ZM210.361 389.52C209.341 389.52 208.477 389.928 207.961 390.588C207.517 389.868 206.737 389.52 205.801 389.52C204.925 389.52 204.181 389.832 203.701 390.408V389.592H202.273V396H203.773V392.748C203.773 391.476 204.445 390.828 205.441 390.828C206.353 390.828 206.881 391.38 206.881 392.52V396H208.381V392.748C208.381 391.476 209.065 390.828 210.049 390.828C210.961 390.828 211.489 391.38 211.489 392.52V396H212.989V392.328C212.989 390.396 211.909 389.52 210.361 389.52ZM217.844 396.084C219.836 396.084 221.264 394.716 221.264 392.796C221.264 390.876 219.836 389.52 217.844 389.52C215.876 389.52 214.436 390.876 214.436 392.796C214.436 394.716 215.876 396.084 217.844 396.084ZM217.844 394.8C216.764 394.8 215.948 394.02 215.948 392.796C215.948 391.572 216.764 390.792 217.844 390.792C218.936 390.792 219.752 391.572 219.752 392.796C219.752 394.02 218.936 394.8 217.844 394.8ZM227.403 389.592V392.832C227.403 394.116 226.695 394.764 225.651 394.764C224.703 394.764 224.151 394.212 224.151 393.048V389.592H222.651V393.252C222.651 395.184 223.767 396.084 225.411 396.084C226.239 396.084 226.995 395.772 227.475 395.184V396H228.903V389.592H227.403ZM234.503 389.52C233.567 389.52 232.787 389.832 232.295 390.42V389.592H230.867V396H232.367V392.76C232.367 391.476 233.087 390.828 234.155 390.828C235.115 390.828 235.679 391.38 235.679 392.52V396H237.179V392.328C237.179 390.396 236.039 389.52 234.503 389.52ZM242.514 394.584C242.286 394.764 241.986 394.848 241.674 394.848C241.098 394.848 240.786 394.512 240.786 393.888V390.84H242.502V389.64H240.786V388.176H239.286V389.64H238.23V390.84H239.286V393.924C239.286 395.34 240.09 396.084 241.494 396.084C242.034 396.084 242.574 395.94 242.934 395.652L242.514 394.584Z" fill="#2CD19E"/>
<path d="M247.964 391.512C248.504 391.512 248.948 391.092 248.948 390.516C248.948 389.916 248.504 389.52 247.964 389.52C247.424 389.52 246.98 389.916 246.98 390.516C246.98 391.092 247.424 391.512 247.964 391.512ZM247.964 396.084C248.504 396.084 248.948 395.664 248.948 395.088C248.948 394.488 248.504 394.092 247.964 394.092C247.424 394.092 246.98 394.488 246.98 395.088C246.98 395.664 247.424 396.084 247.964 396.084ZM259.495 389.52C258.463 389.52 257.467 389.784 256.783 390.312L257.371 391.404C257.851 391.008 258.595 390.768 259.315 390.768C260.383 390.768 260.911 391.284 260.911 392.16V392.256H259.255C257.311 392.256 256.591 393.096 256.591 394.164C256.591 395.28 257.515 396.084 258.979 396.084C259.939 396.084 260.635 395.772 260.995 395.22V396H262.411V392.244C262.411 390.396 261.343 389.52 259.495 389.52ZM259.291 394.992C258.523 394.992 258.067 394.644 258.067 394.104C258.067 393.636 258.343 393.252 259.363 393.252H260.911V393.996C260.659 394.656 260.023 394.992 259.291 394.992ZM272.424 389.52C271.404 389.52 270.54 389.928 270.024 390.588C269.58 389.868 268.8 389.52 267.864 389.52C266.988 389.52 266.244 389.832 265.764 390.408V389.592H264.336V396H265.836V392.748C265.836 391.476 266.508 390.828 267.504 390.828C268.416 390.828 268.944 391.38 268.944 392.52V396H270.444V392.748C270.444 391.476 271.128 390.828 272.112 390.828C273.024 390.828 273.552 391.38 273.552 392.52V396H275.052V392.328C275.052 390.396 273.972 389.52 272.424 389.52ZM279.907 396.084C281.899 396.084 283.327 394.716 283.327 392.796C283.327 390.876 281.899 389.52 279.907 389.52C277.939 389.52 276.499 390.876 276.499 392.796C276.499 394.716 277.939 396.084 279.907 396.084ZM279.907 394.8C278.827 394.8 278.011 394.02 278.011 392.796C278.011 391.572 278.827 390.792 279.907 390.792C280.999 390.792 281.815 391.572 281.815 392.796C281.815 394.02 280.999 394.8 279.907 394.8ZM289.465 389.592V392.832C289.465 394.116 288.757 394.764 287.713 394.764C286.765 394.764 286.213 394.212 286.213 393.048V389.592H284.713V393.252C284.713 395.184 285.829 396.084 287.473 396.084C288.301 396.084 289.057 395.772 289.537 395.184V396H290.965V389.592H289.465ZM296.565 389.52C295.629 389.52 294.849 389.832 294.357 390.42V389.592H292.929V396H294.429V392.76C294.429 391.476 295.149 390.828 296.217 390.828C297.177 390.828 297.741 391.38 297.741 392.52V396H299.241V392.328C299.241 390.396 298.101 389.52 296.565 389.52ZM304.576 394.584C304.348 394.764 304.048 394.848 303.736 394.848C303.16 394.848 302.848 394.512 302.848 393.888V390.84H304.564V389.64H302.848V388.176H301.348V389.64H300.292V390.84H301.348V393.924C301.348 395.34 302.152 396.084 303.556 396.084C304.096 396.084 304.636 395.94 304.996 395.652L304.576 394.584ZM310.039 394.092C309.487 394.092 309.067 394.488 309.067 395.088C309.067 395.52 309.295 395.832 309.631 395.976L309.151 397.812H310.123L310.735 396.12C310.951 395.568 311.011 395.352 311.011 395.088C311.011 394.5 310.603 394.092 310.039 394.092Z" fill="#DBE3EB"/>
<path d="M201.008 415.832C201.008 413.828 199.64 412.52 197.768 412.52C195.86 412.52 194.456 413.888 194.456 415.796C194.456 417.704 195.848 419.084 197.996 419.084C199.1 419.084 200 418.724 200.576 418.04L199.772 417.116C199.316 417.584 198.752 417.812 198.032 417.812C196.916 417.812 196.136 417.212 195.956 416.276H200.984C200.996 416.132 201.008 415.952 201.008 415.832ZM197.768 413.72C198.752 413.72 199.46 414.356 199.58 415.28H195.944C196.088 414.344 196.796 413.72 197.768 413.72ZM210.537 412.52C209.517 412.52 208.653 412.928 208.137 413.588C207.693 412.868 206.913 412.52 205.977 412.52C205.101 412.52 204.357 412.832 203.877 413.408V412.592H202.449V419H203.949V415.748C203.949 414.476 204.621 413.828 205.617 413.828C206.529 413.828 207.057 414.38 207.057 415.52V419H208.557V415.748C208.557 414.476 209.241 413.828 210.225 413.828C211.137 413.828 211.665 414.38 211.665 415.52V419H213.165V415.328C213.165 413.396 212.085 412.52 210.537 412.52ZM217.53 412.52C216.498 412.52 215.502 412.784 214.818 413.312L215.406 414.404C215.886 414.008 216.63 413.768 217.35 413.768C218.418 413.768 218.946 414.284 218.946 415.16V415.256H217.29C215.346 415.256 214.626 416.096 214.626 417.164C214.626 418.28 215.55 419.084 217.014 419.084C217.974 419.084 218.67 418.772 219.03 418.22V419H220.446V415.244C220.446 413.396 219.378 412.52 217.53 412.52ZM217.326 417.992C216.558 417.992 216.102 417.644 216.102 417.104C216.102 416.636 216.378 416.252 217.398 416.252H218.946V416.996C218.694 417.656 218.058 417.992 217.326 417.992ZM223.127 411.536C223.691 411.536 224.087 411.128 224.087 410.6C224.087 410.108 223.679 409.736 223.127 409.736C222.575 409.736 222.167 410.132 222.167 410.636C222.167 411.14 222.575 411.536 223.127 411.536ZM222.371 419H223.871V412.592H222.371V419ZM225.839 419H227.339V410.096H225.839V419ZM243.063 411.932L243.543 410.096H242.583L241.947 411.8C241.731 412.352 241.683 412.556 241.683 412.832C241.683 413.408 242.091 413.816 242.667 413.816C243.207 413.816 243.627 413.42 243.627 412.832C243.627 412.388 243.411 412.076 243.063 411.932ZM245.607 411.932L246.087 410.096H245.127L244.491 411.8C244.275 412.352 244.227 412.556 244.227 412.832C244.227 413.408 244.635 413.816 245.211 413.816C245.751 413.816 246.171 413.42 246.171 412.832C246.171 412.388 245.955 412.076 245.607 411.932ZM248.899 411.932L249.379 410.096H248.419L247.783 411.8C247.567 412.352 247.519 412.556 247.519 412.832C247.519 413.408 247.927 413.816 248.503 413.816C249.043 413.816 249.463 413.42 249.463 412.832C249.463 412.388 249.247 412.076 248.899 411.932ZM251.443 411.932L251.923 410.096H250.963L250.327 411.8C250.111 412.352 250.063 412.556 250.063 412.832C250.063 413.408 250.471 413.816 251.047 413.816C251.587 413.816 252.007 413.42 252.007 412.832C252.007 412.388 251.791 412.076 251.443 411.932Z" fill="#2CD19E"/>
<path d="M233.105 414.512C233.645 414.512 234.089 414.092 234.089 413.516C234.089 412.916 233.645 412.52 233.105 412.52C232.565 412.52 232.121 412.916 232.121 413.516C232.121 414.092 232.565 414.512 233.105 414.512ZM233.105 419.084C233.645 419.084 234.089 418.664 234.089 418.088C234.089 417.488 233.645 417.092 233.105 417.092C232.565 417.092 232.121 417.488 232.121 418.088C232.121 418.664 232.565 419.084 233.105 419.084ZM257.304 417.092C256.752 417.092 256.332 417.488 256.332 418.088C256.332 418.52 256.56 418.832 256.896 418.976L256.416 420.812H257.388L258 419.12C258.216 418.568 258.276 418.352 258.276 418.088C258.276 417.5 257.868 417.092 257.304 417.092Z" fill="#DBE3EB"/>
<path d="M201.128 434.536C201.692 434.536 202.088 434.128 202.088 433.6C202.088 433.108 201.68 432.736 201.128 432.736C200.576 432.736 200.168 433.132 200.168 433.636C200.168 434.14 200.576 434.536 201.128 434.536ZM195.188 435.232V435.64H194.132V436.84H195.188V442H196.688V436.84H198.404V435.64H196.64V435.256C196.64 434.572 196.964 434.224 197.588 434.224C197.9 434.224 198.188 434.332 198.416 434.488L198.836 433.36C198.5 433.12 197.996 433.012 197.48 433.012C195.992 433.012 195.188 433.888 195.188 435.232ZM200.372 442H201.872V435.592H200.372V442ZM205.271 436.528V435.592H203.843V442H205.343V438.892C205.343 437.584 206.063 436.912 207.203 436.912C207.311 436.912 207.419 436.924 207.551 436.948V435.52C206.483 435.52 205.703 435.856 205.271 436.528ZM210.827 442.084C212.627 442.084 213.731 441.304 213.731 440.104C213.731 437.596 209.771 438.748 209.771 437.452C209.771 437.032 210.203 436.732 211.115 436.732C211.727 436.732 212.339 436.852 212.951 437.212L213.527 436.072C212.951 435.724 211.979 435.52 211.127 435.52C209.399 435.52 208.307 436.312 208.307 437.524C208.307 440.08 212.267 438.928 212.267 440.152C212.267 440.596 211.871 440.86 210.923 440.86C210.119 440.86 209.255 440.596 208.691 440.224L208.115 441.364C208.691 441.772 209.759 442.084 210.827 442.084ZM218.455 440.584C218.227 440.764 217.927 440.848 217.615 440.848C217.039 440.848 216.727 440.512 216.727 439.888V436.84H218.443V435.64H216.727V434.176H215.227V435.64H214.171V436.84H215.227V439.924C215.227 441.34 216.031 442.084 217.435 442.084C217.975 442.084 218.515 441.94 218.875 441.652L218.455 440.584ZM226.169 433.6V439.288L221.537 433.6H220.253V442H221.801V436.312L226.433 442H227.717V433.6H226.169ZM232.272 435.52C231.24 435.52 230.244 435.784 229.56 436.312L230.148 437.404C230.628 437.008 231.372 436.768 232.092 436.768C233.16 436.768 233.688 437.284 233.688 438.16V438.256H232.032C230.088 438.256 229.368 439.096 229.368 440.164C229.368 441.28 230.292 442.084 231.756 442.084C232.716 442.084 233.412 441.772 233.772 441.22V442H235.188V438.244C235.188 436.396 234.12 435.52 232.272 435.52ZM232.068 440.992C231.3 440.992 230.844 440.644 230.844 440.104C230.844 439.636 231.12 439.252 232.14 439.252H233.688V439.996C233.436 440.656 232.8 440.992 232.068 440.992ZM245.201 435.52C244.181 435.52 243.317 435.928 242.801 436.588C242.357 435.868 241.577 435.52 240.641 435.52C239.765 435.52 239.021 435.832 238.541 436.408V435.592H237.113V442H238.613V438.748C238.613 437.476 239.285 436.828 240.281 436.828C241.193 436.828 241.721 437.38 241.721 438.52V442H243.221V438.748C243.221 437.476 243.905 436.828 244.889 436.828C245.801 436.828 246.329 437.38 246.329 438.52V442H247.829V438.328C247.829 436.396 246.749 435.52 245.201 435.52ZM255.828 438.832C255.828 436.828 254.46 435.52 252.588 435.52C250.68 435.52 249.276 436.888 249.276 438.796C249.276 440.704 250.668 442.084 252.816 442.084C253.92 442.084 254.82 441.724 255.396 441.04L254.592 440.116C254.136 440.584 253.572 440.812 252.852 440.812C251.736 440.812 250.956 440.212 250.776 439.276H255.804C255.816 439.132 255.828 438.952 255.828 438.832ZM252.588 436.72C253.572 436.72 254.28 437.356 254.4 438.28H250.764C250.908 437.344 251.616 436.72 252.588 436.72ZM271.024 434.932L271.504 433.096H270.544L269.908 434.8C269.692 435.352 269.644 435.556 269.644 435.832C269.644 436.408 270.052 436.816 270.628 436.816C271.168 436.816 271.588 436.42 271.588 435.832C271.588 435.388 271.372 435.076 271.024 434.932ZM273.568 434.932L274.048 433.096H273.088L272.452 434.8C272.236 435.352 272.188 435.556 272.188 435.832C272.188 436.408 272.596 436.816 273.172 436.816C273.712 436.816 274.132 436.42 274.132 435.832C274.132 435.388 273.916 435.076 273.568 434.932ZM276.86 434.932L277.34 433.096H276.38L275.744 434.8C275.528 435.352 275.48 435.556 275.48 435.832C275.48 436.408 275.888 436.816 276.464 436.816C277.004 436.816 277.424 436.42 277.424 435.832C277.424 435.388 277.208 435.076 276.86 434.932ZM279.404 434.932L279.884 433.096H278.924L278.288 434.8C278.072 435.352 278.024 435.556 278.024 435.832C278.024 436.408 278.432 436.816 279.008 436.816C279.548 436.816 279.968 436.42 279.968 435.832C279.968 435.388 279.752 435.076 279.404 434.932Z" fill="#2CD19E"/>
<path d="M261.066 437.512C261.606 437.512 262.05 437.092 262.05 436.516C262.05 435.916 261.606 435.52 261.066 435.52C260.526 435.52 260.082 435.916 260.082 436.516C260.082 437.092 260.526 437.512 261.066 437.512ZM261.066 442.084C261.606 442.084 262.05 441.664 262.05 441.088C262.05 440.488 261.606 440.092 261.066 440.092C260.526 440.092 260.082 440.488 260.082 441.088C260.082 441.664 260.526 442.084 261.066 442.084ZM285.265 440.092C284.713 440.092 284.293 440.488 284.293 441.088C284.293 441.52 284.521 441.832 284.857 441.976L284.377 443.812H285.349L285.961 442.12C286.177 441.568 286.237 441.352 286.237 441.088C286.237 440.5 285.829 440.092 285.265 440.092Z" fill="#DBE3EB"/>
<path d="M194.984 465H196.484V456.096H194.984V465ZM200.901 458.52C199.869 458.52 198.873 458.784 198.189 459.312L198.777 460.404C199.257 460.008 200.001 459.768 200.721 459.768C201.789 459.768 202.317 460.284 202.317 461.16V461.256H200.661C198.717 461.256 197.997 462.096 197.997 463.164C197.997 464.28 198.921 465.084 200.385 465.084C201.345 465.084 202.041 464.772 202.401 464.22V465H203.817V461.244C203.817 459.396 202.749 458.52 200.901 458.52ZM200.697 463.992C199.929 463.992 199.473 463.644 199.473 463.104C199.473 462.636 199.749 462.252 200.769 462.252H202.317V462.996C202.065 463.656 201.429 463.992 200.697 463.992ZM207.722 465.084C209.522 465.084 210.626 464.304 210.626 463.104C210.626 460.596 206.666 461.748 206.666 460.452C206.666 460.032 207.098 459.732 208.01 459.732C208.622 459.732 209.234 459.852 209.846 460.212L210.422 459.072C209.846 458.724 208.874 458.52 208.022 458.52C206.294 458.52 205.202 459.312 205.202 460.524C205.202 463.08 209.162 461.928 209.162 463.152C209.162 463.596 208.766 463.86 207.818 463.86C207.014 463.86 206.15 463.596 205.586 463.224L205.01 464.364C205.586 464.772 206.654 465.084 207.722 465.084ZM215.35 463.584C215.122 463.764 214.822 463.848 214.51 463.848C213.934 463.848 213.622 463.512 213.622 462.888V459.84H215.338V458.64H213.622V457.176H212.122V458.64H211.066V459.84H212.122V462.924C212.122 464.34 212.926 465.084 214.33 465.084C214.87 465.084 215.41 464.94 215.77 464.652L215.35 463.584ZM223.064 456.6V462.288L218.432 456.6H217.148V465H218.696V459.312L223.328 465H224.612V456.6H223.064ZM229.166 458.52C228.134 458.52 227.138 458.784 226.454 459.312L227.042 460.404C227.522 460.008 228.266 459.768 228.986 459.768C230.054 459.768 230.582 460.284 230.582 461.16V461.256H228.926C226.982 461.256 226.262 462.096 226.262 463.164C226.262 464.28 227.186 465.084 228.65 465.084C229.61 465.084 230.306 464.772 230.666 464.22V465H232.082V461.244C232.082 459.396 231.014 458.52 229.166 458.52ZM228.962 463.992C228.194 463.992 227.738 463.644 227.738 463.104C227.738 462.636 228.014 462.252 229.034 462.252H230.582V462.996C230.33 463.656 229.694 463.992 228.962 463.992ZM242.095 458.52C241.075 458.52 240.211 458.928 239.695 459.588C239.251 458.868 238.471 458.52 237.535 458.52C236.659 458.52 235.915 458.832 235.435 459.408V458.592H234.007V465H235.507V461.748C235.507 460.476 236.179 459.828 237.175 459.828C238.087 459.828 238.615 460.38 238.615 461.52V465H240.115V461.748C240.115 460.476 240.799 459.828 241.783 459.828C242.695 459.828 243.223 460.38 243.223 461.52V465H244.723V461.328C244.723 459.396 243.643 458.52 242.095 458.52ZM252.723 461.832C252.723 459.828 251.355 458.52 249.483 458.52C247.575 458.52 246.171 459.888 246.171 461.796C246.171 463.704 247.563 465.084 249.711 465.084C250.815 465.084 251.715 464.724 252.291 464.04L251.487 463.116C251.031 463.584 250.467 463.812 249.747 463.812C248.631 463.812 247.851 463.212 247.671 462.276H252.699C252.711 462.132 252.723 461.952 252.723 461.832ZM249.483 459.72C250.467 459.72 251.175 460.356 251.295 461.28H247.659C247.803 460.344 248.511 459.72 249.483 459.72ZM267.919 457.932L268.399 456.096H267.439L266.803 457.8C266.587 458.352 266.539 458.556 266.539 458.832C266.539 459.408 266.947 459.816 267.523 459.816C268.063 459.816 268.483 459.42 268.483 458.832C268.483 458.388 268.267 458.076 267.919 457.932ZM270.463 457.932L270.943 456.096H269.983L269.347 457.8C269.131 458.352 269.083 458.556 269.083 458.832C269.083 459.408 269.491 459.816 270.067 459.816C270.607 459.816 271.027 459.42 271.027 458.832C271.027 458.388 270.811 458.076 270.463 457.932ZM273.755 457.932L274.235 456.096H273.275L272.639 457.8C272.423 458.352 272.375 458.556 272.375 458.832C272.375 459.408 272.783 459.816 273.359 459.816C273.899 459.816 274.319 459.42 274.319 458.832C274.319 458.388 274.103 458.076 273.755 457.932ZM276.299 457.932L276.779 456.096H275.819L275.183 457.8C274.967 458.352 274.919 458.556 274.919 458.832C274.919 459.408 275.327 459.816 275.903 459.816C276.443 459.816 276.863 459.42 276.863 458.832C276.863 458.388 276.647 458.076 276.299 457.932Z" fill="#2CD19E"/>
<path d="M257.96 460.512C258.5 460.512 258.944 460.092 258.944 459.516C258.944 458.916 258.5 458.52 257.96 458.52C257.42 458.52 256.976 458.916 256.976 459.516C256.976 460.092 257.42 460.512 257.96 460.512ZM257.96 465.084C258.5 465.084 258.944 464.664 258.944 464.088C258.944 463.488 258.5 463.092 257.96 463.092C257.42 463.092 256.976 463.488 256.976 464.088C256.976 464.664 257.42 465.084 257.96 465.084ZM282.16 463.092C281.608 463.092 281.188 463.488 281.188 464.088C281.188 464.52 281.416 464.832 281.752 464.976L281.272 466.812H282.244L282.856 465.12C283.072 464.568 283.132 464.352 283.132 464.088C283.132 463.5 282.724 463.092 282.16 463.092Z" fill="#DBE3EB"/>
<path d="M197.864 373.084C199.856 373.084 201.284 371.716 201.284 369.796C201.284 367.876 199.856 366.52 197.864 366.52C195.896 366.52 194.456 367.876 194.456 369.796C194.456 371.716 195.896 373.084 197.864 373.084ZM197.864 371.8C196.784 371.8 195.968 371.02 195.968 369.796C195.968 368.572 196.784 367.792 197.864 367.792C198.956 367.792 199.772 368.572 199.772 369.796C199.772 371.02 198.956 371.8 197.864 371.8ZM204.146 367.528V366.592H202.718V373H204.218V369.892C204.218 368.584 204.938 367.912 206.078 367.912C206.186 367.912 206.294 367.924 206.426 367.948V366.52C205.358 366.52 204.578 366.856 204.146 367.528ZM212.416 364.096V367.384C211.912 366.796 211.18 366.52 210.352 366.52C208.492 366.52 207.112 367.804 207.112 369.796C207.112 371.788 208.492 373.084 210.352 373.084C211.228 373.084 211.972 372.784 212.476 372.172V373H213.916V364.096H212.416ZM210.532 371.8C209.452 371.8 208.624 371.02 208.624 369.796C208.624 368.572 209.452 367.792 210.532 367.792C211.612 367.792 212.44 368.572 212.44 369.796C212.44 371.02 211.612 371.8 210.532 371.8ZM221.903 369.832C221.903 367.828 220.535 366.52 218.663 366.52C216.755 366.52 215.351 367.888 215.351 369.796C215.351 371.704 216.743 373.084 218.891 373.084C219.995 373.084 220.895 372.724 221.471 372.04L220.667 371.116C220.211 371.584 219.647 371.812 218.927 371.812C217.811 371.812 217.031 371.212 216.851 370.276H221.879C221.891 370.132 221.903 369.952 221.903 369.832ZM218.663 367.72C219.647 367.72 220.355 368.356 220.475 369.28H216.839C216.983 368.344 217.691 367.72 218.663 367.72ZM224.771 367.528V366.592H223.343V373H224.843V369.892C224.843 368.584 225.563 367.912 226.703 367.912C226.811 367.912 226.919 367.924 227.051 367.948V366.52C225.983 366.52 225.203 366.856 224.771 367.528ZM228.409 373H229.969V364.6H228.409V373ZM232.241 373H235.913C238.637 373 240.497 371.32 240.497 368.8C240.497 366.28 238.637 364.6 235.913 364.6H232.241V373ZM233.801 371.68V365.92H235.841C237.713 365.92 238.925 367.06 238.925 368.8C238.925 370.54 237.713 371.68 235.841 371.68H233.801Z" fill="#2CD19E"/>
<path d="M245.808 368.512C246.348 368.512 246.792 368.092 246.792 367.516C246.792 366.916 246.348 366.52 245.808 366.52C245.268 366.52 244.824 366.916 244.824 367.516C244.824 368.092 245.268 368.512 245.808 368.512ZM245.808 373.084C246.348 373.084 246.792 372.664 246.792 372.088C246.792 371.488 246.348 371.092 245.808 371.092C245.268 371.092 244.824 371.488 244.824 372.088C244.824 372.664 245.268 373.084 245.808 373.084ZM278.316 373.084C278.856 373.084 279.3 372.664 279.3 372.088C279.3 371.488 278.856 371.092 278.316 371.092C277.776 371.092 277.332 371.488 277.332 372.088C277.332 372.664 277.776 373.084 278.316 373.084ZM283.528 373.084C285.52 373.084 286.948 371.716 286.948 369.796C286.948 367.876 285.52 366.52 283.528 366.52C281.56 366.52 280.12 367.876 280.12 369.796C280.12 371.716 281.56 373.084 283.528 373.084ZM283.528 371.8C282.448 371.8 281.632 371.02 281.632 369.796C281.632 368.572 282.448 367.792 283.528 367.792C284.62 367.792 285.436 368.572 285.436 369.796C285.436 371.02 284.62 371.8 283.528 371.8ZM289.81 367.528V366.592H288.382V373H289.882V369.892C289.882 368.584 290.602 367.912 291.742 367.912C291.85 367.912 291.958 367.924 292.09 367.948V366.52C291.022 366.52 290.242 366.856 289.81 367.528ZM298.08 364.096V367.384C297.576 366.796 296.844 366.52 296.016 366.52C294.156 366.52 292.776 367.804 292.776 369.796C292.776 371.788 294.156 373.084 296.016 373.084C296.892 373.084 297.636 372.784 298.14 372.172V373H299.58V364.096H298.08ZM296.196 371.8C295.116 371.8 294.288 371.02 294.288 369.796C294.288 368.572 295.116 367.792 296.196 367.792C297.276 367.792 298.104 368.572 298.104 369.796C298.104 371.02 297.276 371.8 296.196 371.8ZM307.567 369.832C307.567 367.828 306.199 366.52 304.327 366.52C302.419 366.52 301.015 367.888 301.015 369.796C301.015 371.704 302.407 373.084 304.555 373.084C305.659 373.084 306.559 372.724 307.135 372.04L306.331 371.116C305.875 371.584 305.311 371.812 304.591 371.812C303.475 371.812 302.695 371.212 302.515 370.276H307.543C307.555 370.132 307.567 369.952 307.567 369.832ZM304.327 367.72C305.311 367.72 306.019 368.356 306.139 369.28H302.503C302.647 368.344 303.355 367.72 304.327 367.72ZM310.435 367.528V366.592H309.007V373H310.507V369.892C310.507 368.584 311.227 367.912 312.367 367.912C312.475 367.912 312.583 367.924 312.715 367.948V366.52C311.647 366.52 310.867 366.856 310.435 367.528ZM314.073 373H315.633V364.6H314.073V373ZM317.905 373H321.577C324.301 373 326.161 371.32 326.161 368.8C326.161 366.28 324.301 364.6 321.577 364.6H317.905V373ZM319.465 371.68V365.92H321.505C323.377 365.92 324.589 367.06 324.589 368.8C324.589 370.54 323.377 371.68 321.505 371.68H319.465ZM331.484 371.092C330.932 371.092 330.512 371.488 330.512 372.088C330.512 372.52 330.74 372.832 331.076 372.976L330.596 374.812H331.568L332.18 373.12C332.396 372.568 332.456 372.352 332.456 372.088C332.456 371.5 332.048 371.092 331.484 371.092Z" fill="#DBE3EB"/>
<path d="M258.322 371.584C258.094 371.764 257.794 371.848 257.482 371.848C256.906 371.848 256.594 371.512 256.594 370.888V367.84H258.31V366.64H256.594V365.176H255.094V366.64H254.038V367.84H255.094V370.924C255.094 372.34 255.898 373.084 257.302 373.084C257.842 373.084 258.382 372.94 258.742 372.652L258.322 371.584ZM263.612 366.52C262.724 366.52 261.968 366.808 261.476 367.336V364.096H259.976V373H261.476V369.76C261.476 368.476 262.196 367.828 263.264 367.828C264.224 367.828 264.788 368.38 264.788 369.52V373H266.288V369.328C266.288 367.396 265.148 366.52 263.612 366.52ZM268.947 365.536C269.511 365.536 269.907 365.128 269.907 364.6C269.907 364.108 269.499 363.736 268.947 363.736C268.395 363.736 267.987 364.132 267.987 364.636C267.987 365.14 268.395 365.536 268.947 365.536ZM268.191 373H269.691V366.592H268.191V373ZM273.64 373.084C275.44 373.084 276.544 372.304 276.544 371.104C276.544 368.596 272.584 369.748 272.584 368.452C272.584 368.032 273.016 367.732 273.928 367.732C274.54 367.732 275.152 367.852 275.764 368.212L276.34 367.072C275.764 366.724 274.792 366.52 273.94 366.52C272.212 366.52 271.12 367.312 271.12 368.524C271.12 371.08 275.08 369.928 275.08 371.152C275.08 371.596 274.684 371.86 273.736 371.86C272.932 371.86 272.068 371.596 271.504 371.224L270.928 372.364C271.504 372.772 272.572 373.084 273.64 373.084Z" fill="#EF6355"/>
<path d="M195.8 250.536C196.364 250.536 196.76 250.128 196.76 249.6C196.76 249.108 196.352 248.736 195.8 248.736C195.248 248.736 194.84 249.132 194.84 249.636C194.84 250.14 195.248 250.536 195.8 250.536ZM194.324 260.412C195.752 260.412 196.556 259.524 196.556 258.12V251.592H195.056V258.156C195.056 258.84 194.744 259.176 194.192 259.176C193.856 259.176 193.544 259.092 193.316 258.924L192.884 260.04C193.232 260.304 193.772 260.412 194.324 260.412ZM207.187 251.592L205.447 256.344L203.719 251.592H202.459L200.695 256.32L199.003 251.592H197.587L199.939 258H201.379L203.059 253.584L204.715 258H206.155L208.519 251.592H207.187ZM213.158 256.584C212.93 256.764 212.63 256.848 212.318 256.848C211.742 256.848 211.43 256.512 211.43 255.888V252.84H213.146V251.64H211.43V250.176H209.93V251.64H208.874V252.84H209.93V255.924C209.93 257.34 210.734 258.084 212.138 258.084C212.678 258.084 213.218 257.94 213.578 257.652L213.158 256.584ZM229.951 252.528V251.592H228.523V258H230.023V254.892C230.023 253.584 230.743 252.912 231.883 252.912C231.991 252.912 232.099 252.924 232.231 252.948V251.52C231.163 251.52 230.383 251.856 229.951 252.528ZM239.469 254.832C239.469 252.828 238.101 251.52 236.229 251.52C234.321 251.52 232.917 252.888 232.917 254.796C232.917 256.704 234.309 258.084 236.457 258.084C237.561 258.084 238.461 257.724 239.037 257.04L238.233 256.116C237.777 256.584 237.213 256.812 236.493 256.812C235.377 256.812 234.597 256.212 234.417 255.276H239.445C239.457 255.132 239.469 254.952 239.469 254.832ZM236.229 252.72C237.213 252.72 237.921 253.356 238.041 254.28H234.405C234.549 253.344 235.257 252.72 236.229 252.72ZM245.746 251.592V252.432C245.242 251.82 244.498 251.52 243.622 251.52C241.75 251.52 240.382 252.816 240.382 254.796C240.382 256.788 241.75 258.084 243.622 258.084C244.438 258.084 245.158 257.808 245.674 257.22V260.328H247.174V251.592H245.746ZM243.79 256.8C242.71 256.8 241.894 256.02 241.894 254.796C241.894 253.572 242.71 252.792 243.79 252.792C244.882 252.792 245.698 253.572 245.698 254.796C245.698 256.02 244.882 256.8 243.79 256.8ZM253.84 251.592V254.832C253.84 256.116 253.132 256.764 252.088 256.764C251.14 256.764 250.588 256.212 250.588 255.048V251.592H249.088V255.252C249.088 257.184 250.204 258.084 251.848 258.084C252.676 258.084 253.432 257.772 253.912 257.184V258H255.34V251.592H253.84ZM258.06 250.536C258.624 250.536 259.02 250.128 259.02 249.6C259.02 249.108 258.612 248.736 258.06 248.736C257.508 248.736 257.1 249.132 257.1 249.636C257.1 250.14 257.508 250.536 258.06 250.536ZM257.304 258H258.804V251.592H257.304V258ZM262.201 252.528V251.592H260.773V258H262.273V254.892C262.273 253.584 262.993 252.912 264.133 252.912C264.241 252.912 264.349 252.924 264.481 252.948V251.52C263.413 251.52 262.633 251.856 262.201 252.528ZM271.719 254.832C271.719 252.828 270.351 251.52 268.479 251.52C266.571 251.52 265.167 252.888 265.167 254.796C265.167 256.704 266.559 258.084 268.707 258.084C269.811 258.084 270.711 257.724 271.287 257.04L270.483 256.116C270.027 256.584 269.463 256.812 268.743 256.812C267.627 256.812 266.847 256.212 266.667 255.276H271.695C271.707 255.132 271.719 254.952 271.719 254.832ZM268.479 252.72C269.463 252.72 270.171 253.356 270.291 254.28H266.655C266.799 253.344 267.507 252.72 268.479 252.72ZM277.964 260.328H279.392C278.396 258.576 277.976 256.764 277.976 254.712C277.976 252.66 278.396 250.848 279.392 249.096H277.964C277.028 250.524 276.5 252.504 276.5 254.712C276.5 256.92 277.028 258.876 277.964 260.328ZM356.286 260.328C357.234 258.876 357.75 256.92 357.75 254.712C357.75 252.504 357.234 250.524 356.286 249.096H354.858C355.854 250.848 356.286 252.66 356.286 254.712C356.286 256.764 355.854 258.576 354.858 260.328H356.286ZM363.546 253.512C364.086 253.512 364.53 253.092 364.53 252.516C364.53 251.916 364.086 251.52 363.546 251.52C363.006 251.52 362.562 251.916 362.562 252.516C362.562 253.092 363.006 253.512 363.546 253.512ZM363.558 256.092C363.006 256.092 362.586 256.488 362.586 257.088C362.586 257.52 362.814 257.832 363.15 257.976L362.67 259.812H363.642L364.254 258.12C364.47 257.568 364.53 257.352 364.53 257.088C364.53 256.5 364.122 256.092 363.558 256.092Z" fill="#DBE3EB"/>
<path d="M217.925 252.948H223.457V251.748H217.925V252.948ZM217.925 255.852H223.457V254.652H217.925V255.852Z" fill="#EF4547"/>
<path d="M284.829 250.932L285.309 249.096H284.349L283.713 250.8C283.497 251.352 283.449 251.556 283.449 251.832C283.449 252.408 283.857 252.816 284.433 252.816C284.973 252.816 285.393 252.42 285.393 251.832C285.393 251.388 285.177 251.076 284.829 250.932ZM287.698 250.536C288.262 250.536 288.658 250.128 288.658 249.6C288.658 249.108 288.25 248.736 287.698 248.736C287.146 248.736 286.738 249.132 286.738 249.636C286.738 250.14 287.146 250.536 287.698 250.536ZM286.222 260.412C287.65 260.412 288.454 259.524 288.454 258.12V251.592H286.954V258.156C286.954 258.84 286.642 259.176 286.09 259.176C285.754 259.176 285.442 259.092 285.214 258.924L284.782 260.04C285.13 260.304 285.67 260.412 286.222 260.412ZM299.086 251.592L297.346 256.344L295.618 251.592H294.358L292.594 256.32L290.902 251.592H289.486L291.838 258H293.278L294.958 253.584L296.614 258H298.054L300.418 251.592H299.086ZM305.057 256.584C304.829 256.764 304.529 256.848 304.217 256.848C303.641 256.848 303.329 256.512 303.329 255.888V252.84H305.045V251.64H303.329V250.176H301.829V251.64H300.773V252.84H301.829V255.924C301.829 257.34 302.633 258.084 304.037 258.084C304.577 258.084 305.117 257.94 305.477 257.652L305.057 256.584ZM306.269 255.288H309.569V254.04H306.269V255.288ZM313.191 258.084C314.991 258.084 316.095 257.304 316.095 256.104C316.095 253.596 312.135 254.748 312.135 253.452C312.135 253.032 312.567 252.732 313.479 252.732C314.091 252.732 314.703 252.852 315.315 253.212L315.891 252.072C315.315 251.724 314.343 251.52 313.491 251.52C311.763 251.52 310.671 252.312 310.671 253.524C310.671 256.08 314.631 254.928 314.631 256.152C314.631 256.596 314.235 256.86 313.287 256.86C312.483 256.86 311.619 256.596 311.055 256.224L310.479 257.364C311.055 257.772 312.123 258.084 313.191 258.084ZM318.142 250.536C318.706 250.536 319.102 250.128 319.102 249.6C319.102 249.108 318.694 248.736 318.142 248.736C317.59 248.736 317.182 249.132 317.182 249.636C317.182 250.14 317.59 250.536 318.142 250.536ZM317.386 258H318.886V251.592H317.386V258ZM328.943 251.52C327.923 251.52 327.059 251.928 326.543 252.588C326.099 251.868 325.319 251.52 324.383 251.52C323.507 251.52 322.763 251.832 322.283 252.408V251.592H320.855V258H322.355V254.748C322.355 253.476 323.027 252.828 324.023 252.828C324.935 252.828 325.463 253.38 325.463 254.52V258H326.963V254.748C326.963 253.476 327.647 252.828 328.631 252.828C329.543 252.828 330.071 253.38 330.071 254.52V258H331.571V254.328C331.571 252.396 330.491 251.52 328.943 251.52ZM337.04 251.52C336.164 251.52 335.42 251.82 334.916 252.432V251.592H333.488V260.328H334.988V257.22C335.504 257.808 336.224 258.084 337.04 258.084C338.912 258.084 340.292 256.788 340.292 254.796C340.292 252.816 338.912 251.52 337.04 251.52ZM336.872 256.8C335.792 256.8 334.964 256.02 334.964 254.796C334.964 253.572 335.792 252.792 336.872 252.792C337.952 252.792 338.768 253.572 338.768 254.796C338.768 256.02 337.952 256.8 336.872 256.8ZM341.714 258H343.214V249.096H341.714V258ZM351.207 254.832C351.207 252.828 349.839 251.52 347.967 251.52C346.059 251.52 344.655 252.888 344.655 254.796C344.655 256.704 346.047 258.084 348.195 258.084C349.299 258.084 350.199 257.724 350.775 257.04L349.971 256.116C349.515 256.584 348.951 256.812 348.231 256.812C347.115 256.812 346.335 256.212 346.155 255.276H351.183C351.195 255.132 351.207 254.952 351.207 254.832ZM347.967 252.72C348.951 252.72 349.659 253.356 349.779 254.28H346.143C346.287 253.344 346.995 252.72 347.967 252.72ZM353.14 249.012C352.588 249.012 352.168 249.408 352.168 249.996C352.168 250.44 352.396 250.752 352.732 250.884L352.252 252.732H353.224L353.848 251.028C354.064 250.476 354.112 250.272 354.112 249.996C354.112 249.42 353.704 249.012 353.14 249.012Z" fill="#FEE000"/>
<path d="M198.536 274.52C197.66 274.52 196.916 274.82 196.412 275.432V274.592H194.984V283.328H196.484V280.22C197 280.808 197.72 281.084 198.536 281.084C200.408 281.084 201.788 279.788 201.788 277.796C201.788 275.816 200.408 274.52 198.536 274.52ZM198.368 279.8C197.288 279.8 196.46 279.02 196.46 277.796C196.46 276.572 197.288 275.792 198.368 275.792C199.448 275.792 200.264 276.572 200.264 277.796C200.264 279.02 199.448 279.8 198.368 279.8ZM205.577 274.52C204.545 274.52 203.549 274.784 202.865 275.312L203.453 276.404C203.933 276.008 204.677 275.768 205.397 275.768C206.465 275.768 206.993 276.284 206.993 277.16V277.256H205.337C203.393 277.256 202.673 278.096 202.673 279.164C202.673 280.28 203.597 281.084 205.061 281.084C206.021 281.084 206.717 280.772 207.077 280.22V281H208.493V277.244C208.493 275.396 207.425 274.52 205.577 274.52ZM205.373 279.992C204.605 279.992 204.149 279.644 204.149 279.104C204.149 278.636 204.425 278.252 205.445 278.252H206.993V278.996C206.741 279.656 206.105 279.992 205.373 279.992ZM214.86 274.592L212.832 279.332L210.816 274.592H209.256L212.052 281.024L211.944 281.276C211.656 281.912 211.344 282.164 210.816 282.164C210.408 282.164 210 281.996 209.712 281.72L209.112 282.824C209.52 283.196 210.192 283.412 210.828 283.412C211.896 283.412 212.712 282.968 213.3 281.516L216.3 274.592H214.86ZM217.238 281H218.738V272.096H217.238V281ZM223.587 281.084C225.579 281.084 227.007 279.716 227.007 277.796C227.007 275.876 225.579 274.52 223.587 274.52C221.619 274.52 220.179 275.876 220.179 277.796C220.179 279.716 221.619 281.084 223.587 281.084ZM223.587 279.8C222.507 279.8 221.691 279.02 221.691 277.796C221.691 276.572 222.507 275.792 223.587 275.792C224.679 275.792 225.495 276.572 225.495 277.796C225.495 279.02 224.679 279.8 223.587 279.8ZM230.807 274.52C229.775 274.52 228.779 274.784 228.095 275.312L228.683 276.404C229.163 276.008 229.907 275.768 230.627 275.768C231.695 275.768 232.223 276.284 232.223 277.16V277.256H230.567C228.623 277.256 227.903 278.096 227.903 279.164C227.903 280.28 228.827 281.084 230.291 281.084C231.251 281.084 231.947 280.772 232.307 280.22V281H233.723V277.244C233.723 275.396 232.655 274.52 230.807 274.52ZM230.603 279.992C229.835 279.992 229.379 279.644 229.379 279.104C229.379 278.636 229.655 278.252 230.675 278.252H232.223V278.996C231.971 279.656 231.335 279.992 230.603 279.992ZM240.483 272.096V275.384C239.979 274.796 239.247 274.52 238.419 274.52C236.559 274.52 235.179 275.804 235.179 277.796C235.179 279.788 236.559 281.084 238.419 281.084C239.295 281.084 240.039 280.784 240.543 280.172V281H241.983V272.096H240.483ZM238.599 279.8C237.519 279.8 236.691 279.02 236.691 277.796C236.691 276.572 237.519 275.792 238.599 275.792C239.679 275.792 240.507 276.572 240.507 277.796C240.507 279.02 239.679 279.8 238.599 279.8ZM259.768 276.488V274.208C259.768 273.632 260.056 273.296 260.656 273.296H260.908V272.096H260.308C258.952 272.096 258.268 272.78 258.268 274.052V276.524C258.268 276.92 258.064 277.1 257.728 277.1H257.332V278.324H257.728C258.064 278.324 258.268 278.504 258.268 278.9V281.372C258.268 282.644 258.952 283.328 260.308 283.328H260.908V282.128H260.656C260.056 282.128 259.768 281.792 259.768 281.216V278.936C259.768 278.192 259.54 277.868 259.06 277.712C259.54 277.556 259.768 277.232 259.768 276.488Z" fill="#DBE3EB"/>
<path d="M247.057 275.948H252.589V274.748H247.057V275.948ZM247.057 278.852H252.589V277.652H247.057V278.852Z" fill="#EF6355"/>
<defs>
<linearGradient id="paint0_linear_4_73" x1="100" y1="216" x2="816.77" y2="670.734" gradientUnits="userSpaceOnUse">
<stop stop-color="#19385D"/>
<stop offset="1" stop-color="#13273F"/>
</linearGradient>
</defs>
</svg>
