<svg width="18" height="18" viewBox="0 0 18 18" fill="none" xmlns="http://www.w3.org/2000/svg">
<path d="M9 18C13.9706 18 18 13.9706 18 9C18 4.02944 13.9706 0 9 0C4.02944 0 0 4.02944 0 9C0 13.9706 4.02944 18 9 18Z" fill="#19385E"/>
<path d="M8.21892 10.0636L11.2566 7.12152C11.5321 6.85468 11.9807 6.85468 12.2562 7.12152C12.5317 7.38836 12.5317 7.82284 12.2562 8.08968L8.71696 11.5141C8.44145 11.781 7.99286 11.781 7.71735 11.5141L5.74639 9.60521C5.46735 9.33494 5.46735 8.90389 5.74639 8.63705C6.02543 8.37021 6.47049 8.37021 6.746 8.63705L8.21892 10.0636Z" fill="white"/>
</svg>
