<svg width="39" height="39" viewBox="0 0 39 39" fill="none" xmlns="http://www.w3.org/2000/svg">
<path d="M19.5 38.5C29.9934 38.5 38.5 29.9934 38.5 19.5C38.5 9.00659 29.9934 0.5 19.5 0.5C9.00659 0.5 0.5 9.00659 0.5 19.5C0.5 29.9934 9.00659 38.5 19.5 38.5Z" stroke="#C2CEDB"/>
<path d="M19.7277 22.2764L27.7425 14H11.7129L19.7277 22.2764Z" fill="black"/>
<path d="M28.4555 24.9611V15.1262L23.4023 20.347L28.4555 24.9611Z" fill="black"/>
<path d="M16.0564 20.347L11 15.1262V24.9643L16.0564 20.347Z" fill="black"/>
<path d="M22.4976 21.2761L20.2123 23.6348C20.1992 23.6477 20.1926 23.6639 20.1795 23.68C20.1237 23.7316 20.058 23.7671 19.9923 23.7961C19.989 23.7994 19.9825 23.8026 19.9792 23.8058C19.9267 23.8284 19.8741 23.8316 19.8183 23.8413C19.7888 23.8445 19.7559 23.8575 19.7264 23.8575C19.7001 23.8575 19.6738 23.8445 19.6443 23.8413C19.5852 23.8349 19.5294 23.8252 19.4735 23.8058C19.4703 23.8026 19.4703 23.8026 19.467 23.7994C19.398 23.7703 19.3324 23.7348 19.2733 23.68C19.2601 23.6671 19.2536 23.6509 19.2437 23.638L16.9585 21.2793L11.7871 26H27.6689L22.4976 21.2761Z" fill="black"/>
</svg>
