<svg width="100%" height="100%" viewBox="0 0 150 45" fill="none" xmlns="http://www.w3.org/2000/svg">
<path d="M144.347 43.5659H5.65256C2.82627 43.5659 0.551453 41.2911 0.551453 38.4648V5.65237C0.551453 2.82608 2.82627 0.55127 5.65256 0.55127H144.347C147.174 0.55127 149.449 2.82608 149.449 5.65237V38.5338C149.449 41.2911 147.174 43.5659 144.347 43.5659Z" fill="black"/>
<path d="M144.347 44.1866H5.65257C2.55055 44.1866 0 41.636 0 38.534V5.65257C0 2.55055 2.55055 0 5.65257 0H144.347C147.449 0 150 2.55055 150 5.65257V38.534C150 41.636 147.449 44.1866 144.347 44.1866ZM5.65257 1.10294C3.17096 1.10294 1.10294 3.10202 1.10294 5.65257V38.534C1.10294 41.0156 3.10202 43.0836 5.65257 43.0836H144.347C146.829 43.0836 148.897 41.0845 148.897 38.534V5.65257C148.897 3.17095 146.898 1.10294 144.347 1.10294H5.65257V1.10294Z" fill="#A7A9AC"/>
<path d="M75.6894 24.127C73.0699 24.127 70.9329 26.1261 70.9329 28.8145C70.9329 31.5029 73.0699 33.502 75.6894 33.502C78.3089 33.502 80.4458 31.5029 80.4458 28.8145C80.3769 26.1261 78.3089 24.127 75.6894 24.127ZM75.6894 31.7097C74.2418 31.7097 73.001 30.5378 73.001 28.8834C73.001 27.1601 74.2418 26.0571 75.6894 26.0571C77.137 26.0571 78.3778 27.229 78.3778 28.8834C78.3089 30.5378 77.0681 31.7097 75.6894 31.7097ZM65.3493 24.127C62.7298 24.127 60.5929 26.1261 60.5929 28.8145C60.5929 31.5029 62.7298 33.502 65.3493 33.502C67.9688 33.502 70.1057 31.5029 70.1057 28.8145C70.1057 26.1261 67.9688 24.127 65.3493 24.127ZM65.3493 31.7097C63.9017 31.7097 62.6609 30.5378 62.6609 28.8834C62.6609 27.1601 63.9017 26.0571 65.3493 26.0571C66.7969 26.0571 68.0377 27.229 68.0377 28.8834C68.0377 30.5378 66.7969 31.7097 65.3493 31.7097ZM53.0791 25.5746V27.5737H57.8355C57.6976 28.6766 57.284 29.5038 56.7326 30.1242C56.0432 30.8136 54.9403 31.5718 53.0101 31.5718C50.046 31.5718 47.7712 29.2281 47.7712 26.2639C47.7712 23.2998 50.046 20.956 53.0101 20.956C54.5956 20.956 55.7675 21.5764 56.5947 22.4036L57.9734 21.025C56.8015 19.8531 55.216 19.0259 52.9412 19.0259C48.8741 19.0259 45.4963 22.3347 45.4963 26.3329C45.4963 30.4 48.8741 33.6398 52.9412 33.6398C55.1471 33.6398 56.7326 32.9505 58.0423 31.5718C59.352 30.2621 59.7656 28.4009 59.7656 26.8843C59.7656 26.4018 59.6967 25.9882 59.6278 25.6435H53.0791V25.5746ZM103.332 27.1601C102.918 26.1261 101.746 24.127 99.2648 24.127C96.8521 24.127 94.7841 26.0571 94.7841 28.8145C94.7841 31.434 96.7831 33.502 99.4716 33.502C101.609 33.502 102.849 32.1922 103.401 31.434L101.815 30.331C101.264 31.0893 100.575 31.6408 99.4716 31.6408C98.4376 31.6408 97.6793 31.1582 97.1967 30.1932L103.47 27.5737L103.332 27.1601ZM96.8521 28.7455C96.7831 26.9533 98.2308 25.9882 99.3337 25.9882C100.161 25.9882 100.85 26.4018 101.057 27.0222L96.8521 28.7455ZM91.751 33.2952H93.819V19.4395H91.751V33.2952ZM88.3732 25.2299H88.3043C87.8217 24.6784 86.9256 24.1959 85.8227 24.1959C83.4789 24.1959 81.273 26.2639 81.273 28.9523C81.273 31.5718 83.41 33.6398 85.8227 33.6398C86.9256 33.6398 87.8217 33.1573 88.3043 32.5369H88.3732V33.2262C88.3732 35.0185 87.4081 35.9836 85.8227 35.9836C84.5818 35.9836 83.7546 35.0875 83.4789 34.3292L81.6866 35.0875C82.2381 36.3283 83.5478 37.8448 85.8916 37.8448C88.3043 37.8448 90.3723 36.3972 90.3723 32.9505V24.4027H88.3732V25.2299V25.2299ZM85.9605 31.7097C84.5129 31.7097 83.341 30.5378 83.341 28.8834C83.341 27.229 84.5129 25.9882 85.9605 25.9882C87.3392 25.9882 88.5111 27.229 88.5111 28.8834C88.5111 30.5378 87.4081 31.7097 85.9605 31.7097ZM112.983 19.4395H108.019V33.2952H110.087V28.0562H112.983C115.257 28.0562 117.532 26.4018 117.532 23.7823C117.532 21.1628 115.326 19.4395 112.983 19.4395ZM113.052 26.1261H110.087V21.3696H113.052C114.568 21.3696 115.464 22.6794 115.464 23.7134C115.464 24.8163 114.637 26.1261 113.052 26.1261ZM125.873 24.127C124.357 24.127 122.84 24.8163 122.151 26.2639L124.012 27.0222C124.426 26.2639 125.115 25.9882 125.873 25.9882C126.976 25.9882 128.01 26.6086 128.079 27.7805V27.9183C127.734 27.7115 126.907 27.3669 125.942 27.3669C123.943 27.3669 121.944 28.4698 121.944 30.4689C121.944 32.3301 123.598 33.502 125.391 33.502C126.769 33.502 127.528 32.8816 128.01 32.1233H128.079V33.2262H130.078V27.9183C130.078 25.5057 128.217 24.127 125.873 24.127ZM125.598 31.7097C124.908 31.7097 123.943 31.365 123.943 30.5378C123.943 29.4349 125.115 29.0902 126.149 29.0902C127.045 29.0902 127.459 29.297 128.01 29.5727C127.872 30.8136 126.769 31.7097 125.598 31.7097ZM137.316 24.4027L134.973 30.4H134.904L132.422 24.4027H130.216L133.939 32.8126L131.802 37.5001H133.939L139.66 24.4027H137.316V24.4027ZM118.704 33.2952H120.772V19.4395H118.704V33.2952Z" fill="white"/>
<path d="M11.7187 8.41024C11.3741 8.75491 11.2362 9.30638 11.2362 9.99572V34.4672C11.2362 35.1565 11.443 35.708 11.7187 36.0526L11.7877 36.1216L25.5055 22.3348V22.197V22.0591L11.7877 8.34131L11.7187 8.41024Z" fill="#5BC9F4"/>
<path d="M30.0551 26.9532L25.5055 22.3346V22.1968V22.0589L30.0551 17.5093L30.1241 17.5782L35.5698 20.6802C37.0864 21.5764 37.0864 23.024 35.5698 23.8512L30.193 26.8842L30.0551 26.9532Z" fill="url(#paint0_linear_975_473)"/>
<path d="M30.193 26.8843L25.5055 22.1968L11.7188 35.9835C12.2013 36.535 13.0974 36.6039 13.9936 36.0525L30.193 26.8843Z" fill="url(#paint1_linear_975_473)"/>
<path d="M30.193 17.5094L13.9936 8.3412C13.0285 7.78973 12.2013 7.85866 11.7188 8.41013L25.5055 22.1969L30.193 17.5094Z" fill="url(#paint2_linear_975_473)"/>
<path d="M50.9422 9.16831C50.5286 8.82364 49.9771 8.54791 49.3567 8.54791C47.978 8.54791 46.944 9.65085 46.944 11.0295C46.944 12.4082 47.978 13.5111 49.3567 13.5111C50.5286 13.5111 51.3558 12.8218 51.4247 11.7189H49.6324V11.0295H52.4587C52.4587 13.3043 51.2179 14.4073 49.3567 14.4073C47.4955 14.4073 46.0479 12.8907 46.0479 11.0985C46.0479 9.23725 47.4955 7.7207 49.3567 7.7207C50.1839 7.7207 51.0111 8.06537 51.5626 8.61684L50.9422 9.16831Z" fill="white"/>
<path d="M57.5598 7.78955V8.61676H54.5956V10.6848H57.2151V11.512H54.5956V13.5111H57.6976V14.3383H53.7684V7.78955H57.5598V7.78955Z" fill="white"/>
<path d="M63.2813 7.78955V8.61676H61.2822V14.3383H60.386V8.61676H58.387V7.78955H63.2813Z" fill="white"/>
<path d="M67.4863 7.78955V14.3383H66.5901V7.78955H67.4863Z" fill="white"/>
<path d="M73.4834 7.78955V8.61676H71.4844V14.3383H70.5883V8.61676H68.5892V7.78955H73.4834Z" fill="white"/>
<path d="M79.6876 7.7207C81.5488 7.7207 82.9964 9.23725 82.9964 11.0985C82.9964 12.9597 81.5488 14.4073 79.6876 14.4073C77.8264 14.4073 76.3788 12.8907 76.3788 11.0985C76.3788 9.23725 77.8264 7.7207 79.6876 7.7207ZM79.6876 13.5801C81.0663 13.5801 82.1003 12.4771 82.1003 11.0985C82.1003 9.71978 81.0663 8.61684 79.6876 8.61684C78.3089 8.61684 77.2749 9.71978 77.2749 11.0985C77.2749 12.4771 78.3089 13.5801 79.6876 13.5801Z" fill="white"/>
<path d="M88.2353 14.3383L85.2711 9.44396V14.3383H84.375V7.78955H85.2711L88.2353 12.6839V7.78955H89.1314V14.3383H88.2353V14.3383Z" fill="white"/>
<defs>
<linearGradient id="paint0_linear_975_473" x1="34.598" y1="22.2054" x2="7.7927" y2="22.2054" gradientUnits="userSpaceOnUse">
<stop stop-color="#FEE000"/>
<stop offset="0.1941" stop-color="#FCCF0B"/>
<stop offset="0.5469" stop-color="#FAB318"/>
<stop offset="0.8279" stop-color="#F9A21B"/>
<stop offset="1" stop-color="#F99B1C"/>
</linearGradient>
<linearGradient id="paint1_linear_975_473" x1="27.6417" y1="24.7475" x2="2.43014" y2="49.9591" gradientUnits="userSpaceOnUse">
<stop stop-color="#EF4547"/>
<stop offset="1" stop-color="#C6186D"/>
</linearGradient>
<linearGradient id="paint2_linear_975_473" x1="2.31775" y1="-5.66132" x2="22.9023" y2="14.9233" gradientUnits="userSpaceOnUse">
<stop stop-color="#279E6F"/>
<stop offset="0.3168" stop-color="#4DAB6D"/>
<stop offset="0.7398" stop-color="#6ABA6A"/>
<stop offset="1" stop-color="#74C169"/>
</linearGradient>
</defs>
</svg>
