<svg width="39" height="39" viewBox="0 0 39 39" fill="none" xmlns="http://www.w3.org/2000/svg">
<path d="M19.5 38.5C29.9934 38.5 38.5 29.9934 38.5 19.5C38.5 9.00659 29.9934 0.5 19.5 0.5C9.00659 0.5 0.5 9.00659 0.5 19.5C0.5 29.9934 9.00659 38.5 19.5 38.5Z" stroke="#C2CEDB"/>
<path d="M25.9962 26V25.9994H25.9994V21.2317C25.9994 18.8992 25.4973 17.1025 22.7706 17.1025C21.4597 17.1025 20.5801 17.8219 20.2209 18.5038H20.183V17.3203H17.5977V25.9994H20.2897V21.7018C20.2897 20.5703 20.5042 19.4761 21.9055 19.4761C23.2862 19.4761 23.3068 20.7675 23.3068 21.7744V26H25.9962Z" fill="#13273F"/>
<path d="M13.2148 17.3208H15.9102V25.9999H13.2148V17.3208Z" fill="#13273F"/>
<path d="M14.5611 13C13.6993 13 13 13.6993 13 14.5611C13 15.4229 13.6993 16.1368 14.5611 16.1368C15.4229 16.1368 16.1222 15.4229 16.1222 14.5611C16.1216 13.6993 15.4223 13 14.5611 13Z" fill="#13273F"/>
</svg>
