<svg width="36" height="36" viewBox="0 0 36 36" fill="none" xmlns="http://www.w3.org/2000/svg">
<g clip-path="url(#clip0_1699_984)">
<path d="M15.5683 10H11.6916C10.7753 10 10 10.7753 10 11.6916V15.5683C10 16.4846 10.7753 17.2599 11.6916 17.2599H15.5683C16.4846 17.2599 17.2599 16.4846 17.2599 15.5683V11.6916C17.3304 10.7753 16.5551 10 15.5683 10ZM15.5683 15.5683H11.7621V11.7621H15.5683V15.5683Z" fill="white"/>
<path d="M24.1674 10H20.2908C19.3745 10 18.5991 10.7753 18.5991 11.6916V15.5683C18.5991 16.4846 19.3745 17.2599 20.2908 17.2599H24.1674C25.0837 17.2599 25.859 16.4846 25.859 15.5683V11.6916C25.9295 10.7753 25.1542 10 24.1674 10ZM24.1674 15.5683H20.3612V11.7621H24.1674V15.5683Z" fill="white"/>
<path d="M15.5683 18.6696H11.6916C10.7753 18.6696 10 19.4449 10 20.3612V24.2379C10 25.1542 10.7753 25.9295 11.6916 25.9295H15.5683C16.4846 25.9295 17.2599 25.1542 17.2599 24.2379V20.3612C17.3304 19.4449 16.5551 18.6696 15.5683 18.6696ZM15.5683 24.2379H11.7621V20.4317H15.5683V24.2379Z" fill="white"/>
<path d="M24.1674 18.6696H20.2908C19.3745 18.6696 18.5991 19.4449 18.5991 20.3612V24.2379C18.5991 25.1542 19.3745 25.9295 20.2908 25.9295H24.1674C25.0837 25.9295 25.859 25.1542 25.859 24.2379V20.3612C25.9295 19.4449 25.1542 18.6696 24.1674 18.6696ZM24.1674 24.2379H20.3612V20.4317H24.1674V24.2379Z" fill="white"/>
</g>
</svg>
