<svg width="36" height="36" viewBox="0 0 36 36" fill="none" xmlns="http://www.w3.org/2000/svg">
<g clip-path="url(#clip0_1699_964)">
<path d="M26.3643 12.0388C26.2868 11.1085 25.5891 10.4109 24.6589 10.4109H21.8682C21.7132 8.47287 20.0853 7 18.0698 7C16.0543 7 14.5039 8.47287 14.2713 10.4109H11.4806C10.6279 10.4109 9.85272 11.1085 9.7752 12.0388L9 23.124C8.92248 24.1318 9.31008 25.1395 9.93023 25.8372C10.6279 26.5349 11.5581 27 12.5659 27H23.5736C24.5814 27 25.5116 26.6124 26.2093 25.8372C26.907 25.1395 27.2171 24.1318 27.1395 23.124L26.3643 12.0388ZM18.0698 8.55039C19.155 8.55039 20.1628 9.32558 20.3178 10.4109H15.8217C16.0543 9.32558 16.9845 8.55039 18.0698 8.55039ZM25.124 24.8295C24.7364 25.2171 24.1938 25.4496 23.6512 25.4496H12.5659C12.0233 25.4496 11.4806 25.2171 11.093 24.8295C10.7054 24.4419 10.5504 23.8217 10.5504 23.2791L11.3256 12.1163C11.3256 12.0388 11.4031 11.9612 11.4806 11.9612H24.6589C24.7364 11.9612 24.814 12.0388 24.814 12.1163L25.5891 23.2791C25.6667 23.8217 25.4341 24.3643 25.124 24.8295Z" fill="white"/>
<path d="M15.2791 16.0698C15.7929 16.0698 16.2093 15.6533 16.2093 15.1395C16.2093 14.6258 15.7929 14.2093 15.2791 14.2093C14.7654 14.2093 14.3489 14.6258 14.3489 15.1395C14.3489 15.6533 14.7654 16.0698 15.2791 16.0698Z" fill="white"/>
<path d="M20.938 16.0698C21.4517 16.0698 21.8682 15.6533 21.8682 15.1395C21.8682 14.6258 21.4517 14.2093 20.938 14.2093C20.4242 14.2093 20.0078 14.6258 20.0078 15.1395C20.0078 15.6533 20.4242 16.0698 20.938 16.0698Z" fill="white"/>
</g>
</svg>
