<svg width="70" height="70" viewBox="0 0 70 70" fill="none" xmlns="http://www.w3.org/2000/svg">
<path d="M35 70C54.33 70 70 54.33 70 35C70 15.67 54.33 0 35 0C15.67 0 0 15.67 0 35C0 54.33 15.67 70 35 70Z" fill="#E5EBF0"/>
<path d="M35.3871 50.1575C26.5311 50.1575 19.9931 46.2187 19.8741 46.1599C19.5181 45.9247 19.3991 45.5132 19.6361 45.1605L22.2521 40.6925C23.0241 39.2816 23.4401 37.9294 23.6191 36.5185L24.2131 31.1687C24.6291 27.5238 27.0061 24.2904 30.4541 22.7619C30.8101 22.5855 34.1981 20.9982 39.2501 22.7031H39.3091C42.6971 24.2316 45.0751 27.465 45.5501 31.1099L46.2041 36.4597C46.4421 37.9882 46.8581 39.3404 47.6301 40.6337L50.246 45.1605C50.424 45.5132 50.3051 45.9835 49.9481 46.1599C44.8371 49.1581 39.7851 50.1575 35.3871 50.1575ZM21.2411 45.2781C24.0941 46.7478 35.9811 52.1564 48.4631 45.3368L46.2041 41.4568C45.3721 40.0458 44.8371 38.4585 44.5991 36.7537L43.9451 31.4039C43.5291 28.2293 41.5091 25.4662 38.5961 24.1728C34.0201 22.5855 31.1671 24.0552 31.0481 24.114H30.9891C28.0171 25.4662 25.9371 28.2293 25.5801 31.4039L24.9861 36.7537C24.8071 38.2822 24.2721 39.8695 23.4401 41.4568L21.2411 45.2781Z" fill="#19385E"/>
<path d="M34.792 41.5156C28.314 41.5156 23.916 39.1053 23.618 38.9289C23.262 38.7525 23.143 38.2822 23.321 37.9295C23.499 37.5767 23.9749 37.4592 24.3319 37.6355C24.4499 37.6943 34.02 42.9265 45.431 37.6355C45.788 37.4592 46.263 37.6355 46.442 37.9883C46.62 38.341 46.442 38.8113 46.085 38.9877C41.984 40.8689 38.121 41.5156 34.792 41.5156Z" fill="#19385E"/>
<path d="M37.169 22.5855C36.753 22.5855 36.397 22.2328 36.397 21.8213V20.9982C36.397 20.1752 35.683 19.4697 34.851 19.4697C34.019 19.4697 33.306 20.1752 33.306 20.9982V21.8213C33.306 22.2328 32.949 22.5855 32.533 22.5855C32.117 22.5855 31.761 22.2328 31.761 21.8213V20.9982C31.761 19.3521 33.128 18 34.792 18C36.456 18 37.823 19.3521 37.823 20.9982V21.8213C37.942 22.2328 37.585 22.5855 37.169 22.5855Z" fill="#19385E"/>
<path d="M34.9111 56.0952C32.0581 56.0952 29.8 53.8025 29.8 51.0394V49.4521C29.8 49.0406 30.1561 48.6878 30.5721 48.6878C30.9891 48.6878 31.345 49.0406 31.345 49.4521V51.0394C31.345 53.0382 32.9501 54.6255 34.9711 54.6255C36.9911 54.6255 38.5961 53.0382 38.5961 51.0394V49.4521C38.5961 49.0406 38.9531 48.6878 39.3691 48.6878C39.7851 48.6878 40.1421 49.0406 40.1421 49.4521V51.0394C40.0231 53.8613 37.7051 56.0952 34.9111 56.0952Z" fill="#19385E"/>
<path d="M18.209 36.2246C17.972 36.2246 17.734 36.107 17.615 35.9306C11.79 27.5826 17.496 21.5861 17.496 21.5273C17.793 21.2334 18.269 21.2334 18.566 21.5273C18.863 21.8213 18.863 22.2916 18.566 22.5855C18.388 22.7619 13.752 27.759 18.863 35.0488C19.101 35.4015 18.982 35.8131 18.685 36.0482C18.507 36.1658 18.388 36.2246 18.209 36.2246Z" fill="#19385E"/>
<path d="M21.3599 32.3445C21.1219 32.3445 20.8839 32.2269 20.7659 32.0505C18.6259 28.9935 19.8149 26.4068 20.7659 25.4662C21.0629 25.1722 21.5379 25.1722 21.8349 25.4662C22.1329 25.7601 22.1329 26.2304 21.8349 26.5244C21.7759 26.642 20.0519 28.5232 21.9539 31.2863C22.1919 31.639 22.0729 32.0505 21.7759 32.2857C21.6569 32.2857 21.4789 32.3445 21.3599 32.3445Z" fill="#19385E"/>
<path d="M51.968 36.2246C51.79 36.2246 51.612 36.1658 51.434 35.9894C51.136 35.6955 51.136 35.2252 51.434 34.9312C51.612 34.6961 56.307 29.7578 51.196 22.4092C50.958 22.0564 51.077 21.6449 51.374 21.4098C51.731 21.1746 52.147 21.2334 52.385 21.5861C58.209 29.9342 52.563 35.8719 52.503 35.9306C52.325 36.107 52.147 36.2246 51.968 36.2246Z" fill="#19385E"/>
<path d="M48.7589 32.3445C48.5799 32.3445 48.4019 32.2857 48.2239 32.1094C47.9269 31.8154 47.9269 31.3451 48.2239 31.0512C48.2829 30.9336 50.0069 29.0523 48.1049 26.2892C47.8669 25.9365 47.9859 25.525 48.2829 25.2898C48.6399 25.0547 49.0559 25.1135 49.2939 25.4662C51.4329 28.5232 50.2449 31.1099 49.2939 32.0506C49.1149 32.2857 48.9369 32.3445 48.7589 32.3445Z" fill="#19385E"/>
</svg>
