<svg width="75" height="75" viewBox="0 0 75 75" fill="none" xmlns="http://www.w3.org/2000/svg">
<path d="M37.5 74.5C57.9345 74.5 74.5 57.9345 74.5 37.5C74.5 17.0655 57.9345 0.5 37.5 0.5C17.0655 0.5 0.5 17.0655 0.5 37.5C0.5 57.9345 17.0655 74.5 37.5 74.5Z" stroke="#DBE3EB"/>
<path d="M37.5259 27.6353C32.0831 27.6353 27.6348 32.0836 27.6348 37.5264C27.6348 42.9691 32.0831 47.3651 37.5259 47.3651C42.9686 47.3651 47.3646 42.9691 47.3646 37.5264C47.3646 32.0836 42.9162 27.6353 37.5259 27.6353ZM38.6772 41.9747H34.1242V40.6664C35.0662 40.3001 35.5895 39.515 35.5895 38.7824C35.5895 38.6254 35.5895 38.416 35.5372 38.259H34.1765V37.1077H35.1185C34.9092 36.6367 34.6998 36.1657 34.6998 35.5377C34.6998 34.0723 35.8512 33.0257 37.3689 33.0257C39.4622 33.0257 40.0902 34.334 40.1425 35.433L38.8342 35.6423C38.8342 34.648 38.2062 34.177 37.4212 34.177C36.6885 34.177 36.0605 34.648 36.0605 35.5377C36.0605 36.1133 36.2698 36.5844 36.5315 37.1077H39.1482V38.259H36.8979C36.8979 38.3637 36.9502 38.5207 36.9502 38.6254C36.9502 39.5674 36.4792 40.3524 35.6418 40.7711H38.3632C39.3052 40.7711 39.6715 40.0907 39.6715 39.358L40.9276 39.5674C40.8752 40.9804 40.0379 41.9747 38.6772 41.9747Z" fill="#38B6FF"/>
<path d="M53.488 32.4498H51.761C51.604 31.9264 51.3946 31.4554 51.133 30.9844L52.389 29.7284C53.3833 28.7341 53.3833 27.1117 52.389 26.1697L48.8303 22.611C47.8359 21.6167 46.2659 21.6167 45.2716 22.611L44.0156 23.867C43.5446 23.6577 43.0736 23.4484 42.5502 23.2914V21.512C42.5502 20.1513 41.3989 19 40.0382 19H35.0141C33.6535 19 32.5021 20.1513 32.5021 21.512V23.239C32.0311 23.396 31.5078 23.6054 31.0368 23.8147L29.7808 22.5587C28.7864 21.5644 27.2164 21.5644 26.2221 22.5587L22.6634 26.1697C21.669 27.1641 21.669 28.7864 22.6634 29.7284L23.867 31.0368C23.6577 31.5078 23.4484 31.9788 23.239 32.5021H21.512C20.1513 32.5021 19 33.6535 19 35.0141V40.0382C19 41.3989 20.1513 42.5502 21.512 42.5502H23.2914C23.4484 43.0212 23.6577 43.5446 23.9194 43.9632L22.6634 45.2192C21.669 46.2136 21.669 47.8359 22.6634 48.7779L26.2221 52.3366C27.2164 53.331 28.7864 53.331 29.7808 52.3366L31.0368 51.0806C31.5078 51.29 31.9788 51.4993 32.5021 51.6563V53.4356C32.5021 54.7963 33.6535 55.9477 35.0141 55.9477H40.0382C41.3989 55.9477 42.5502 54.7963 42.5502 53.4356V51.6563C43.0212 51.4993 43.5446 51.29 44.0156 51.0806L45.2716 52.3366C46.2659 53.331 47.8359 53.331 48.8303 52.3366L52.389 48.7779C53.3833 47.7836 53.3833 46.1612 52.389 45.2192L51.133 43.9632C51.3423 43.4922 51.5516 43.0212 51.7086 42.4979H53.488C54.8487 42.4979 56 41.3465 56 39.9859V34.9618C56 33.6011 54.8487 32.4498 53.488 32.4498ZM37.5262 48.9349C31.2461 48.9349 26.1174 43.8062 26.1174 37.5262C26.1174 31.2461 31.2461 26.1174 37.5262 26.1174C43.8062 26.1174 48.9349 31.2461 48.9349 37.5262C48.9349 43.8062 43.8062 48.9349 37.5262 48.9349Z" fill="#38B6FF"/>
</svg>
