<svg width="70" height="70" viewBox="0 0 70 70" fill="none" xmlns="http://www.w3.org/2000/svg">
<circle cx="35" cy="35" r="35" fill="#38B6FF" fill-opacity="0.18"/>
<g clip-path="url(#clip0_1559_822)">
<path d="M53.7001 45.5498H49.2514C48.8226 45.5498 48.4474 45.1746 48.4474 44.7458C48.4474 44.317 48.8226 43.9418 49.2514 43.9418H53.7001C54.7185 43.9418 55.5761 43.0842 55.5761 42.0658V21.4839C55.5761 20.4655 54.7185 19.608 53.7001 19.608H22.6128C21.5944 19.608 20.7369 20.4655 20.7369 21.4839V26.2542C20.7369 26.683 20.3617 27.0582 19.9329 27.0582C19.5041 27.0582 19.1289 26.683 19.1289 26.2542V21.4839C19.1289 19.5544 20.6833 18 22.6128 18H53.7001C55.6297 18 57.184 19.5544 57.184 21.4839V42.0658C57.184 43.9954 55.6297 45.5498 53.7001 45.5498Z" fill="#38B6FF"/>
<path d="M46.5712 53H15.4839C13.5544 53 12 51.4456 12 49.516V28.9341C12 27.0046 13.5544 25.4502 15.4839 25.4502H46.5712C48.5008 25.4502 50.0551 27.0046 50.0551 28.9341V49.516C50.0551 51.4456 48.5008 53 46.5712 53ZM15.4839 27.0582C14.4655 27.0582 13.608 27.9157 13.608 28.9341V49.516C13.608 50.5344 14.4655 51.392 15.4839 51.392H46.5712C47.5896 51.392 48.4472 50.5344 48.4472 49.516V28.9341C48.4472 27.9157 47.5896 27.0582 46.5712 27.0582H15.4839Z" fill="#38B6FF"/>
<path d="M22.613 40.1899C20.4691 40.1899 18.7539 38.4747 18.7539 36.3308C18.7539 34.1868 20.4691 32.4717 22.613 32.4717C24.757 32.4717 26.4721 34.1868 26.4721 36.3308C26.4721 38.4747 24.7034 40.1899 22.613 40.1899ZM22.613 34.0796C21.3802 34.0796 20.3619 35.098 20.3619 36.3308C20.3619 37.5636 21.3802 38.5819 22.613 38.5819C23.8458 38.5819 24.8642 37.5636 24.8642 36.3308C24.8642 35.098 23.8458 34.0796 22.613 34.0796Z" fill="#38B6FF"/>
<path d="M27.5437 46.1929H17.6815C17.1991 46.1929 16.7703 45.9785 16.5559 45.6033C16.2879 45.2281 16.2343 44.7458 16.3951 44.317C17.3599 41.6906 19.8255 39.9755 22.6126 39.9755C25.3997 39.9755 27.8653 41.7442 28.83 44.317C28.9908 44.7458 28.9372 45.2281 28.6693 45.6033C28.4013 45.9785 27.9725 46.1929 27.5437 46.1929ZM18.0031 44.585H27.2221C26.4181 42.7626 24.5957 41.5834 22.6126 41.5834C20.6294 41.5834 18.8071 42.7626 18.0031 44.585Z" fill="#38B6FF"/>
<path d="M39.9253 36.6524H32.0999C31.6711 36.6524 31.2959 36.2772 31.2959 35.8484C31.2959 35.4196 31.6711 35.0444 32.0999 35.0444H39.8717C40.3005 35.0444 40.6757 35.4196 40.6757 35.8484C40.6757 36.2772 40.3541 36.6524 39.9253 36.6524Z" fill="#38B6FF"/>
<path d="M44.2132 41.2619H32.0999C31.6711 41.2619 31.2959 40.8867 31.2959 40.4579C31.2959 40.0291 31.6711 39.6539 32.0999 39.6539H44.1596C44.5884 39.6539 44.9636 40.0291 44.9636 40.4579C44.9636 40.8867 44.642 41.2619 44.2132 41.2619Z" fill="#38B6FF"/>
<path d="M44.2132 45.8178H32.0999C31.6711 45.8178 31.2959 45.4426 31.2959 45.0138C31.2959 44.585 31.6711 44.2098 32.0999 44.2098H44.1596C44.5884 44.2098 44.9636 44.585 44.9636 45.0138C44.9636 45.4426 44.642 45.8178 44.2132 45.8178Z" fill="#38B6FF"/>
</g>
<defs>
<clipPath id="clip0_1559_822">
<rect width="45.1838" height="35" fill="white" transform="translate(12 18)"/>
</clipPath>
</defs>
</svg>
