<svg width="75" height="75" viewBox="0 0 75 75" fill="none" xmlns="http://www.w3.org/2000/svg">
<path d="M37.5 74.5C57.9345 74.5 74.5 57.9345 74.5 37.5C74.5 17.0655 57.9345 0.5 37.5 0.5C17.0655 0.5 0.5 17.0655 0.5 37.5C0.5 57.9345 17.0655 74.5 37.5 74.5Z" stroke="#DBE3EB"/>
<path d="M44.732 20H29.5924C27.0691 20 25 22.2373 25 24.9831V51.0169C25 53.7627 27.0691 56 29.5924 56H44.732C47.2552 56 49.3243 53.7627 49.3243 51.0169V24.9831C49.3243 22.2373 47.2552 20 44.732 20ZM37.1622 51.4237C35.9005 51.4237 34.8912 50.4068 34.8912 49.1356C34.8912 47.8644 35.9005 46.8475 37.1622 46.8475C38.4238 46.8475 39.4331 47.8644 39.4331 49.1356C39.4331 50.4068 38.4238 51.4237 37.1622 51.4237ZM40.6947 27.7288H33.6296C32.9231 27.7288 32.3679 27.1695 32.3679 26.4576C32.3679 25.7458 32.9231 25.1864 33.6296 25.1864H40.6947C41.4013 25.1864 41.9564 25.7458 41.9564 26.4576C41.9564 27.1695 41.4013 27.7288 40.6947 27.7288Z" fill="#19385E"/>
</svg>
