<svg width="36" height="36" viewBox="0 0 36 36" fill="none" xmlns="http://www.w3.org/2000/svg">
<circle cx="18" cy="18" r="18" fill="#13273F"/>
<g clip-path="url(#clip0_1699_974)">
<path d="M26.5385 14.0769C26.5385 14 26.5385 13.9231 26.4615 13.8462V13.7692V13.6923L24.1538 9.92308C23.7692 9.38462 23.0769 9 22.3846 9H13.1538C12.4615 9 11.7692 9.38462 11.3846 10L9.07692 13.7692V13.8462V13.9231C9 13.9231 9 14 9 14.0769V16.1538C9.07692 16.8462 9.38462 17.4615 9.84615 18C9.92308 18.0769 10 18.1538 10.1538 18.2308V25.0769C10.2308 25.6154 10.4615 26.1538 10.9231 26.5385C11.3077 26.8462 11.7692 27.0769 12.3077 27.0769C12.3846 27.0769 12.3846 27.0769 12.4615 27.0769H23.1538C23.6923 27.0769 24.2308 26.9231 24.6923 26.5385C25.1538 26.1538 25.3846 25.6923 25.4615 25.0769V18.2308C25.5385 18.1538 25.6154 18.0769 25.7692 18C26.3077 17.5385 26.6154 16.9231 26.6154 16.1538L26.5385 14.0769ZM12.6923 10.7692C12.7692 10.6154 13 10.4615 13.2308 10.4615H22.4615C22.6923 10.4615 22.8462 10.5385 23 10.7692L24.6154 13.3846H21.9231H17.9231H13.7692H11.0769L12.6923 10.7692ZM21.0769 16.1538C21.0769 16.4615 20.9231 16.7692 20.6923 16.9231C20.4615 17.1538 20.1538 17.2308 19.7692 17.2308C19.4615 17.2308 19.1538 17.1538 18.9231 16.9231C18.6923 16.6923 18.5385 16.4615 18.5385 16.1538V14.8462H21.0769V16.1538ZM17 16.1538C17 16.4615 16.8462 16.7692 16.6154 16.9231C16.3846 17.1538 16.0769 17.2308 15.6923 17.2308C15.3846 17.2308 15.0769 17.1538 14.8462 16.9231C14.6154 16.6923 14.4615 16.4615 14.4615 16.1538V14.8462H17V16.1538ZM11.1538 17.0769C11.0769 17 10.9231 17 10.8462 16.9231C10.6154 16.6923 10.5385 16.4615 10.4615 16.1538V14.8462H13V16.1538C13 16.4615 12.8462 16.7692 12.6154 16.9231C12.3846 17.1538 12.0769 17.2308 11.6923 17.2308C11.5385 17.2308 11.3846 17.1538 11.1538 17.0769ZM23.6923 25.3846C23.5385 25.4615 23.3846 25.5385 23.1538 25.5385H21H19.5385H16.1538H14.6154H12.3846C12.3846 25.5385 12.3846 25.5385 12.3077 25.5385H12.1538H12.3077C12.1538 25.5385 12 25.5385 11.8462 25.3846C11.6923 25.3077 11.6154 25.1538 11.6154 25V18.6923C11.6923 18.6923 11.6923 18.6923 11.7692 18.6923C11.8462 18.6923 11.8462 18.6923 11.9231 18.6923C12.5385 18.6923 13.2308 18.4615 13.6923 18C13.7692 17.9231 13.7692 17.9231 13.8462 17.8462C13.9231 17.9231 13.9231 17.9231 14 18C14.4615 18.4615 15.0769 18.6923 15.7692 18.6923C15.7692 18.6923 15.8462 18.6923 15.9231 18.6923C16.6154 18.7692 17.3077 18.4615 17.7692 18C17.8462 17.9231 17.8462 17.9231 17.9231 17.8462C18 17.9231 18 17.9231 18.0769 18C18.5385 18.4615 19.1538 18.6923 19.8462 18.6923C19.8462 18.6923 19.9231 18.6923 20 18.6923C20.6923 18.7692 21.3846 18.4615 21.8462 18C21.9231 17.9231 21.9231 17.9231 22 17.8462C22.0769 17.9231 22.0769 17.9231 22.1538 18C22.6923 18.4615 23.3077 18.6923 24 18.6923C24.0769 18.6923 24.0769 18.6923 24.1538 18.6923V25C23.9231 25.1538 23.8462 25.3077 23.6923 25.3846ZM24.6923 16.9231C24.4615 17.1538 24.1538 17.2308 23.7692 17.2308C23.4615 17.2308 23.1538 17.1538 22.9231 16.9231C22.6923 16.6923 22.5385 16.4615 22.5385 16.1538V14.8462H25.0769V16.1538C25.0769 16.4615 24.9231 16.6923 24.6923 16.9231Z" fill="white"/>
</g>
<defs>
<clipPath id="clip0_1699_974">
<rect width="17.5385" height="18" fill="white" transform="translate(9 9)"/>
</clipPath>
</defs>
</svg>
