<svg width="70" height="70" viewBox="0 0 70 70" fill="none" xmlns="http://www.w3.org/2000/svg">
<circle cx="35" cy="35" r="35" fill="#EF6355" fill-opacity="0.18"/>
<g clip-path="url(#clip0_906_471)">
<path d="M39.5484 27.4839H42.0645C42.4516 27.4839 42.7742 27.8064 42.7742 28.1935V30.7742C42.7742 31.1613 43.0967 31.4839 43.4838 31.4839C43.8709 31.4839 44.1935 31.1613 44.1935 30.7742V28.2581C44.1935 27.0968 43.2258 26.129 42.0645 26.129H39.5484C39.1613 26.129 38.8387 26.4516 38.8387 26.8387C38.9032 27.1613 39.1613 27.4839 39.5484 27.4839Z" fill="#EF6355"/>
<path d="M26.5161 31.4839C26.9032 31.4839 27.2258 31.1613 27.2258 30.7742V28.2581C27.2258 27.871 27.5484 27.5484 27.9355 27.5484H30.4516C30.8387 27.5484 31.1613 27.2258 31.1613 26.8387C31.1613 26.4516 30.8387 26.129 30.4516 26.129H27.9355C26.7742 26.129 25.8065 27.0968 25.8065 28.2581V30.7742C25.8065 31.1613 26.129 31.4839 26.5161 31.4839Z" fill="#EF6355"/>
<path d="M27.9355 44.5161H30.4516C30.8387 44.5161 31.1613 44.1935 31.1613 43.8064C31.1613 43.4193 30.8387 43.0967 30.4516 43.0967H27.9355C27.5484 43.0967 27.2258 42.7742 27.2258 42.3871V39.8709C27.2258 39.4838 26.9032 39.1613 26.5161 39.1613C26.129 39.1613 25.8065 39.4838 25.8065 39.8709V42.3871C25.8065 43.5484 26.7742 44.5161 27.9355 44.5161Z" fill="#EF6355"/>
<path d="M43.5484 39.1613C43.1613 39.1613 42.8387 39.4838 42.8387 39.8709V42.3871C42.8387 42.7742 42.5162 43.0967 42.1291 43.0967H39.6129C39.2258 43.0967 38.9033 43.4193 38.9033 43.8064C38.9033 44.1935 39.2258 44.5161 39.6129 44.5161H42.1291C43.2904 44.5161 44.2581 43.5484 44.2581 42.3871V39.8709C44.2581 39.4838 43.9355 39.1613 43.5484 39.1613Z" fill="#EF6355"/>
<path d="M38.0645 30.3226H39.742C39.871 30.3226 40 30.4516 40 30.5806V32.258C40 32.6451 40.3226 32.9677 40.7097 32.9677C41.0968 32.9677 41.4194 32.6451 41.4194 32.258V30.5806C41.4194 29.6774 40.7097 28.9032 39.742 28.9032H38.0645C37.6774 28.9032 37.3549 29.2258 37.3549 29.6129C37.3549 30 37.6774 30.3226 38.0645 30.3226Z" fill="#EF6355"/>
<path d="M28.6451 30.5806V32.258C28.6451 32.6451 28.9677 32.9677 29.3548 32.9677C29.7419 32.9677 30.0645 32.6451 30.0645 32.258V30.5806C30.0645 30.4516 30.1935 30.3226 30.3226 30.3226H32C32.3871 30.3226 32.7097 30 32.7097 29.6129C32.7097 29.2258 32.3871 28.9032 32 28.9032H30.3226C29.4193 28.9032 28.6451 29.6774 28.6451 30.5806Z" fill="#EF6355"/>
<path d="M32 40.2581H30.3226C30.1935 40.2581 30.0645 40.129 30.0645 40V38.3226C30.0645 37.9355 29.7419 37.6129 29.3548 37.6129C28.9677 37.6129 28.6451 37.9355 28.6451 38.3226V40C28.6451 40.9032 29.3548 41.6774 30.3226 41.6774H32C32.3871 41.6774 32.7097 41.3549 32.7097 40.9678C32.7097 40.5807 32.3871 40.2581 32 40.2581Z" fill="#EF6355"/>
<path d="M41.3549 40V38.3226C41.3549 37.9355 41.0323 37.6129 40.6452 37.6129C40.2581 37.6129 39.9355 37.9355 39.9355 38.3226V40C39.9355 40.129 39.8065 40.2581 39.6774 40.2581H38C37.6129 40.2581 37.2903 40.5807 37.2903 40.9678C37.2903 41.3549 37.6129 41.6774 38 41.6774H39.6774C40.6452 41.6129 41.3549 40.9032 41.3549 40Z" fill="#EF6355"/>
<path d="M44.1935 35.2904C44.1935 34.9033 43.871 34.5807 43.4839 34.5807H26.5161C26.129 34.5807 25.8065 34.9033 25.8065 35.2904C25.8065 35.6775 26.129 36 26.5161 36H43.4839C43.871 36 44.1935 35.6775 44.1935 35.2904Z" fill="#EF6355"/>
<path d="M44.9032 14H25.0968C23.4194 14 22 15.4194 22 17.0968V52.8387C22 54.5161 23.4194 55.9355 25.0968 55.9355H44.9032C46.5806 55.9355 48 54.5161 48 52.8387V17.0968C48 15.4194 46.6452 14 44.9032 14ZM40.3226 15.6129C40.0645 16.7097 39.0968 17.4839 37.9355 17.4839H31.9355C30.7742 17.4839 29.8065 16.6452 29.5484 15.6129H40.3226V15.6129ZM25.0968 15.6129H28.0645C28.3226 17.6129 30 19.0968 32.0645 19.0968H38.0645C40.129 19.0968 41.8065 17.5484 42.0645 15.6129H45.0323C45.871 15.6129 46.5161 16.2581 46.5161 17.0968V51.3548H23.6129V17.0968C23.6129 16.2581 24.2581 15.6129 25.0968 15.6129ZM44.9032 54.3226H25.0968C24.3226 54.3226 23.6774 53.7419 23.6129 52.9677H46.3871C46.3226 53.7419 45.6774 54.3226 44.9032 54.3226Z" fill="#EF6355"/>
</g>
<defs>
<clipPath id="clip0_906_471">
<rect width="26" height="41.9355" fill="white" transform="translate(22 14)"/>
</clipPath>
</defs>
</svg>
