<svg width="367" height="203" viewBox="0 0 367 203" fill="none" xmlns="http://www.w3.org/2000/svg">
<g filter="url(#filter0_d_1951_325)">
<path d="M21 35C21 29.4772 25.4772 25 31 25H336C341.523 25 346 29.4772 346 35V186H21V35Z" fill="#F4F7F9"/>
</g>
<path d="M48.292 58.2C49.5613 58.2 50.56 58.5033 51.288 59.11C52.016 59.7167 52.38 60.552 52.38 61.616C52.38 62.68 52.016 63.5153 51.288 64.122C50.56 64.7287 49.5613 65.032 48.292 65.032H45.87V68H44.47V58.2H48.292ZM48.25 63.814C49.1367 63.814 49.8133 63.6273 50.28 63.254C50.7467 62.8713 50.98 62.3253 50.98 61.616C50.98 60.9067 50.7467 60.3653 50.28 59.992C49.8133 59.6093 49.1367 59.418 48.25 59.418H45.87V63.814H48.25ZM56.8744 60.51C57.9011 60.51 58.6851 60.762 59.2264 61.266C59.7771 61.77 60.0524 62.5213 60.0524 63.52V68H58.7784V67.02C58.5544 67.3653 58.2324 67.6313 57.8124 67.818C57.4018 67.9953 56.9118 68.084 56.3424 68.084C55.5118 68.084 54.8444 67.8833 54.3404 67.482C53.8458 67.0807 53.5984 66.5533 53.5984 65.9C53.5984 65.2467 53.8364 64.724 54.3124 64.332C54.7884 63.9307 55.5444 63.73 56.5804 63.73H58.7084V63.464C58.7084 62.8853 58.5404 62.442 58.2044 62.134C57.8684 61.826 57.3738 61.672 56.7204 61.672C56.2818 61.672 55.8524 61.7467 55.4324 61.896C55.0124 62.036 54.6578 62.2273 54.3684 62.47L53.8084 61.462C54.1911 61.154 54.6484 60.9207 55.1804 60.762C55.7124 60.594 56.2771 60.51 56.8744 60.51ZM56.5664 67.048C57.0798 67.048 57.5231 66.936 57.8964 66.712C58.2698 66.4787 58.5404 66.152 58.7084 65.732V64.696H56.6364C55.4978 64.696 54.9284 65.0787 54.9284 65.844C54.9284 66.2173 55.0731 66.5113 55.3624 66.726C55.6518 66.9407 56.0531 67.048 56.5664 67.048ZM68.9689 60.58L65.3709 68.742C65.0536 69.498 64.6802 70.03 64.2509 70.338C63.8309 70.646 63.3222 70.8 62.7249 70.8C62.3609 70.8 62.0062 70.7393 61.6609 70.618C61.3249 70.506 61.0449 70.338 60.8209 70.114L61.3949 69.106C61.7776 69.47 62.2209 69.652 62.7249 69.652C63.0516 69.652 63.3222 69.5633 63.5369 69.386C63.7609 69.218 63.9616 68.924 64.1389 68.504L64.3769 67.986L61.1009 60.58H62.5009L65.0909 66.516L67.6529 60.58H68.9689ZM77.161 68.084C76.4237 68.084 75.761 67.9207 75.173 67.594C74.585 67.2673 74.123 66.8193 73.787 66.25C73.4603 65.6713 73.297 65.018 73.297 64.29C73.297 63.562 73.4603 62.9133 73.787 62.344C74.123 61.7653 74.585 61.3173 75.173 61C75.761 60.6733 76.4237 60.51 77.161 60.51C77.8983 60.51 78.5563 60.6733 79.135 61C79.723 61.3173 80.1803 61.7653 80.507 62.344C80.843 62.9133 81.011 63.562 81.011 64.29C81.011 65.018 80.843 65.6713 80.507 66.25C80.1803 66.8193 79.723 67.2673 79.135 67.594C78.5563 67.9207 77.8983 68.084 77.161 68.084ZM77.161 66.908C77.637 66.908 78.0617 66.8007 78.435 66.586C78.8177 66.362 79.1163 66.054 79.331 65.662C79.5457 65.2607 79.653 64.8033 79.653 64.29C79.653 63.7767 79.5457 63.324 79.331 62.932C79.1163 62.5307 78.8177 62.2227 78.435 62.008C78.0617 61.7933 77.637 61.686 77.161 61.686C76.685 61.686 76.2557 61.7933 75.873 62.008C75.4997 62.2227 75.201 62.5307 74.977 62.932C74.7623 63.324 74.655 63.7767 74.655 64.29C74.655 64.8033 74.7623 65.2607 74.977 65.662C75.201 66.054 75.4997 66.362 75.873 66.586C76.2557 66.8007 76.685 66.908 77.161 66.908ZM86.8317 60.51C87.7744 60.51 88.521 60.7853 89.0717 61.336C89.6317 61.8773 89.9117 62.6753 89.9117 63.73V68H88.5677V63.884C88.5677 63.1653 88.395 62.624 88.0497 62.26C87.7044 61.896 87.2097 61.714 86.5657 61.714C85.8377 61.714 85.2637 61.9287 84.8437 62.358C84.4237 62.778 84.2137 63.3847 84.2137 64.178V68H82.8697V60.58H84.1577V61.7C84.4284 61.3173 84.7924 61.0233 85.2497 60.818C85.7164 60.6127 86.2437 60.51 86.8317 60.51ZM92.399 57.612H93.743V68H92.399V57.612ZM96.3092 60.58H97.6532V68H96.3092V60.58ZM96.9812 59.152C96.7198 59.152 96.5005 59.068 96.3232 58.9C96.1552 58.732 96.0712 58.5267 96.0712 58.284C96.0712 58.0413 96.1552 57.836 96.3232 57.668C96.5005 57.4907 96.7198 57.402 96.9812 57.402C97.2425 57.402 97.4572 57.486 97.6252 57.654C97.8025 57.8127 97.8912 58.0133 97.8912 58.256C97.8912 58.508 97.8025 58.7227 97.6252 58.9C97.4572 59.068 97.2425 59.152 96.9812 59.152ZM104.181 60.51C105.124 60.51 105.871 60.7853 106.421 61.336C106.981 61.8773 107.261 62.6753 107.261 63.73V68H105.917V63.884C105.917 63.1653 105.745 62.624 105.399 62.26C105.054 61.896 104.559 61.714 103.915 61.714C103.187 61.714 102.613 61.9287 102.193 62.358C101.773 62.778 101.563 63.3847 101.563 64.178V68H100.219V60.58H101.507V61.7C101.778 61.3173 102.142 61.0233 102.599 60.818C103.066 60.6127 103.593 60.51 104.181 60.51ZM116.496 64.332C116.496 64.4347 116.486 64.57 116.468 64.738H110.448C110.532 65.3913 110.816 65.9187 111.302 66.32C111.796 66.712 112.408 66.908 113.136 66.908C114.022 66.908 114.736 66.6093 115.278 66.012L116.02 66.88C115.684 67.272 115.264 67.5707 114.76 67.776C114.265 67.9813 113.71 68.084 113.094 68.084C112.31 68.084 111.614 67.9253 111.008 67.608C110.401 67.2813 109.93 66.8287 109.594 66.25C109.267 65.6713 109.104 65.018 109.104 64.29C109.104 63.5713 109.262 62.9227 109.58 62.344C109.906 61.7653 110.35 61.3173 110.91 61C111.479 60.6733 112.118 60.51 112.828 60.51C113.537 60.51 114.167 60.6733 114.718 61C115.278 61.3173 115.712 61.7653 116.02 62.344C116.337 62.9227 116.496 63.5853 116.496 64.332ZM112.828 61.644C112.184 61.644 111.642 61.84 111.204 62.232C110.774 62.624 110.522 63.1373 110.448 63.772H115.208C115.133 63.1467 114.876 62.638 114.438 62.246C114.008 61.8447 113.472 61.644 112.828 61.644ZM124.25 68.084C123.643 68.084 123.06 68.0047 122.5 67.846C121.94 67.678 121.501 67.468 121.184 67.216L121.744 66.152C122.07 66.3853 122.467 66.572 122.934 66.712C123.4 66.852 123.872 66.922 124.348 66.922C125.524 66.922 126.112 66.586 126.112 65.914C126.112 65.69 126.032 65.5127 125.874 65.382C125.715 65.2513 125.514 65.158 125.272 65.102C125.038 65.0367 124.702 64.9667 124.264 64.892C123.666 64.7987 123.176 64.6913 122.794 64.57C122.42 64.4487 122.098 64.2433 121.828 63.954C121.557 63.6647 121.422 63.2587 121.422 62.736C121.422 62.064 121.702 61.5273 122.262 61.126C122.822 60.7153 123.573 60.51 124.516 60.51C125.01 60.51 125.505 60.5707 126 60.692C126.494 60.8133 126.9 60.9767 127.218 61.182L126.644 62.246C126.037 61.854 125.323 61.658 124.502 61.658C123.932 61.658 123.498 61.7513 123.2 61.938C122.901 62.1247 122.752 62.372 122.752 62.68C122.752 62.9227 122.836 63.114 123.004 63.254C123.172 63.394 123.377 63.4967 123.62 63.562C123.872 63.6273 124.222 63.702 124.67 63.786C125.267 63.8887 125.748 64.0007 126.112 64.122C126.485 64.234 126.802 64.43 127.064 64.71C127.325 64.99 127.456 65.382 127.456 65.886C127.456 66.558 127.166 67.0947 126.588 67.496C126.018 67.888 125.239 68.084 124.25 68.084ZM135.841 64.332C135.841 64.4347 135.832 64.57 135.813 64.738H129.793C129.877 65.3913 130.162 65.9187 130.647 66.32C131.142 66.712 131.753 66.908 132.481 66.908C133.368 66.908 134.082 66.6093 134.623 66.012L135.365 66.88C135.029 67.272 134.609 67.5707 134.105 67.776C133.611 67.9813 133.055 68.084 132.439 68.084C131.655 68.084 130.96 67.9253 130.353 67.608C129.747 67.2813 129.275 66.8287 128.939 66.25C128.613 65.6713 128.449 65.018 128.449 64.29C128.449 63.5713 128.608 62.9227 128.925 62.344C129.252 61.7653 129.695 61.3173 130.255 61C130.825 60.6733 131.464 60.51 132.173 60.51C132.883 60.51 133.513 60.6733 134.063 61C134.623 61.3173 135.057 61.7653 135.365 62.344C135.683 62.9227 135.841 63.5853 135.841 64.332ZM132.173 61.644C131.529 61.644 130.988 61.84 130.549 62.232C130.12 62.624 129.868 63.1373 129.793 63.772H134.553C134.479 63.1467 134.222 62.638 133.783 62.246C133.354 61.8447 132.817 61.644 132.173 61.644ZM140.942 68.084C140.186 68.084 139.509 67.9207 138.912 67.594C138.324 67.2673 137.862 66.8193 137.526 66.25C137.19 65.6713 137.022 65.018 137.022 64.29C137.022 63.562 137.19 62.9133 137.526 62.344C137.862 61.7653 138.324 61.3173 138.912 61C139.509 60.6733 140.186 60.51 140.942 60.51C141.614 60.51 142.211 60.6453 142.734 60.916C143.266 61.1867 143.676 61.5787 143.966 62.092L142.944 62.75C142.71 62.3953 142.421 62.1293 142.076 61.952C141.73 61.7747 141.348 61.686 140.928 61.686C140.442 61.686 140.004 61.7933 139.612 62.008C139.229 62.2227 138.926 62.5307 138.702 62.932C138.487 63.324 138.38 63.7767 138.38 64.29C138.38 64.8127 138.487 65.2747 138.702 65.676C138.926 66.068 139.229 66.3713 139.612 66.586C140.004 66.8007 140.442 66.908 140.928 66.908C141.348 66.908 141.73 66.8193 142.076 66.642C142.421 66.4647 142.71 66.1987 142.944 65.844L143.966 66.488C143.676 67.0013 143.266 67.398 142.734 67.678C142.211 67.9487 141.614 68.084 140.942 68.084ZM152.622 60.58V68H151.348V66.88C151.077 67.2627 150.718 67.5613 150.27 67.776C149.831 67.9813 149.35 68.084 148.828 68.084C147.838 68.084 147.059 67.8133 146.49 67.272C145.92 66.7213 145.636 65.914 145.636 64.85V60.58H146.98V64.696C146.98 65.4147 147.152 65.9607 147.498 66.334C147.843 66.698 148.338 66.88 148.982 66.88C149.691 66.88 150.251 66.6653 150.662 66.236C151.072 65.8067 151.278 65.2 151.278 64.416V60.58H152.622ZM156.468 61.826C156.702 61.3967 157.047 61.07 157.504 60.846C157.962 60.622 158.517 60.51 159.17 60.51V61.812C159.096 61.8027 158.993 61.798 158.862 61.798C158.134 61.798 157.56 62.0173 157.14 62.456C156.73 62.8853 156.524 63.5013 156.524 64.304V68H155.18V60.58H156.468V61.826ZM167.464 64.332C167.464 64.4347 167.455 64.57 167.436 64.738H161.416C161.5 65.3913 161.785 65.9187 162.27 66.32C162.765 66.712 163.376 66.908 164.104 66.908C164.991 66.908 165.705 66.6093 166.246 66.012L166.988 66.88C166.652 67.272 166.232 67.5707 165.728 67.776C165.234 67.9813 164.678 68.084 164.062 68.084C163.278 68.084 162.583 67.9253 161.976 67.608C161.37 67.2813 160.898 66.8287 160.562 66.25C160.236 65.6713 160.072 65.018 160.072 64.29C160.072 63.5713 160.231 62.9227 160.548 62.344C160.875 61.7653 161.318 61.3173 161.878 61C162.448 60.6733 163.087 60.51 163.796 60.51C164.506 60.51 165.136 60.6733 165.686 61C166.246 61.3173 166.68 61.7653 166.988 62.344C167.306 62.9227 167.464 63.5853 167.464 64.332ZM163.796 61.644C163.152 61.644 162.611 61.84 162.172 62.232C161.743 62.624 161.491 63.1373 161.416 63.772H166.176C166.102 63.1467 165.845 62.638 165.406 62.246C164.977 61.8447 164.44 61.644 163.796 61.644ZM169.331 57.612H170.675V68H169.331V57.612ZM179.807 60.58L176.209 68.742C175.891 69.498 175.518 70.03 175.089 70.338C174.669 70.646 174.16 70.8 173.563 70.8C173.199 70.8 172.844 70.7393 172.499 70.618C172.163 70.506 171.883 70.338 171.659 70.114L172.233 69.106C172.615 69.47 173.059 69.652 173.563 69.652C173.889 69.652 174.16 69.5633 174.375 69.386C174.599 69.218 174.799 68.924 174.977 68.504L175.215 67.986L171.939 60.58H173.339L175.929 66.516L178.491 60.58H179.807Z" fill="#13273F"/>
<path d="M225.076 59.7H226.246V66H225.076V59.7ZM230.569 61.14C231.175 61.14 231.661 61.317 232.027 61.671C232.393 62.025 232.576 62.55 232.576 63.246V66H231.451V63.39C231.451 62.97 231.352 62.655 231.154 62.445C230.956 62.229 230.674 62.121 230.308 62.121C229.894 62.121 229.567 62.247 229.327 62.499C229.087 62.745 228.967 63.102 228.967 63.57V66H227.842V61.194H228.913V61.815C229.099 61.593 229.333 61.425 229.615 61.311C229.897 61.197 230.215 61.14 230.569 61.14ZM235.489 66.063C235.099 66.063 234.718 66.012 234.346 65.91C233.974 65.808 233.677 65.679 233.455 65.523L233.887 64.668C234.103 64.812 234.361 64.929 234.661 65.019C234.967 65.103 235.267 65.145 235.561 65.145C236.233 65.145 236.569 64.968 236.569 64.614C236.569 64.446 236.482 64.329 236.308 64.263C236.14 64.197 235.867 64.134 235.489 64.074C235.093 64.014 234.769 63.945 234.517 63.867C234.271 63.789 234.055 63.654 233.869 63.462C233.689 63.264 233.599 62.991 233.599 62.643C233.599 62.187 233.788 61.824 234.166 61.554C234.55 61.278 235.066 61.14 235.714 61.14C236.044 61.14 236.374 61.179 236.704 61.257C237.034 61.329 237.304 61.428 237.514 61.554L237.082 62.409C236.674 62.169 236.215 62.049 235.705 62.049C235.375 62.049 235.123 62.1 234.949 62.202C234.781 62.298 234.697 62.427 234.697 62.589C234.697 62.769 234.787 62.898 234.967 62.976C235.153 63.048 235.438 63.117 235.822 63.183C236.206 63.243 236.521 63.312 236.767 63.39C237.013 63.468 237.223 63.6 237.397 63.786C237.577 63.972 237.667 64.236 237.667 64.578C237.667 65.028 237.472 65.388 237.082 65.658C236.692 65.928 236.161 66.063 235.489 66.063ZM241.524 65.739C241.392 65.847 241.23 65.928 241.038 65.982C240.852 66.036 240.654 66.063 240.444 66.063C239.916 66.063 239.508 65.925 239.22 65.649C238.932 65.373 238.788 64.971 238.788 64.443V62.13H237.996V61.23H238.788V60.132H239.913V61.23H241.2V62.13H239.913V64.416C239.913 64.65 239.97 64.83 240.084 64.956C240.198 65.076 240.363 65.136 240.579 65.136C240.831 65.136 241.041 65.07 241.209 64.938L241.524 65.739ZM244.286 61.14C244.994 61.14 245.534 61.311 245.906 61.653C246.284 61.989 246.473 62.499 246.473 63.183V66H245.411V65.415C245.273 65.625 245.075 65.787 244.817 65.901C244.565 66.009 244.259 66.063 243.899 66.063C243.539 66.063 243.224 66.003 242.954 65.883C242.684 65.757 242.474 65.586 242.324 65.37C242.18 65.148 242.108 64.899 242.108 64.623C242.108 64.191 242.267 63.846 242.585 63.588C242.909 63.324 243.416 63.192 244.106 63.192H245.348V63.12C245.348 62.784 245.246 62.526 245.042 62.346C244.844 62.166 244.547 62.076 244.151 62.076C243.881 62.076 243.614 62.118 243.35 62.202C243.092 62.286 242.873 62.403 242.693 62.553L242.252 61.734C242.504 61.542 242.807 61.395 243.161 61.293C243.515 61.191 243.89 61.14 244.286 61.14ZM244.133 65.244C244.415 65.244 244.664 65.181 244.88 65.055C245.102 64.923 245.258 64.737 245.348 64.497V63.939H244.187C243.539 63.939 243.215 64.152 243.215 64.578C243.215 64.782 243.296 64.944 243.458 65.064C243.62 65.184 243.845 65.244 244.133 65.244ZM250.644 61.14C251.25 61.14 251.736 61.317 252.102 61.671C252.468 62.025 252.651 62.55 252.651 63.246V66H251.526V63.39C251.526 62.97 251.427 62.655 251.229 62.445C251.031 62.229 250.749 62.121 250.383 62.121C249.969 62.121 249.642 62.247 249.402 62.499C249.162 62.745 249.042 63.102 249.042 63.57V66H247.917V61.194H248.988V61.815C249.174 61.593 249.408 61.425 249.69 61.311C249.972 61.197 250.29 61.14 250.644 61.14ZM256.967 65.739C256.835 65.847 256.673 65.928 256.481 65.982C256.295 66.036 256.097 66.063 255.887 66.063C255.359 66.063 254.951 65.925 254.663 65.649C254.375 65.373 254.231 64.971 254.231 64.443V62.13H253.439V61.23H254.231V60.132H255.356V61.23H256.643V62.13H255.356V64.416C255.356 64.65 255.413 64.83 255.527 64.956C255.641 65.076 255.806 65.136 256.022 65.136C256.274 65.136 256.484 65.07 256.652 64.938L256.967 65.739ZM263.044 61.14C263.512 61.14 263.929 61.242 264.295 61.446C264.667 61.65 264.958 61.938 265.168 62.31C265.378 62.682 265.483 63.111 265.483 63.597C265.483 64.083 265.378 64.515 265.168 64.893C264.958 65.265 264.667 65.553 264.295 65.757C263.929 65.961 263.512 66.063 263.044 66.063C262.714 66.063 262.411 66.006 262.135 65.892C261.865 65.778 261.637 65.607 261.451 65.379V66H260.38V59.322H261.505V61.779C261.697 61.569 261.922 61.41 262.18 61.302C262.444 61.194 262.732 61.14 263.044 61.14ZM262.918 65.1C263.332 65.1 263.671 64.962 263.935 64.686C264.205 64.41 264.34 64.047 264.34 63.597C264.34 63.147 264.205 62.784 263.935 62.508C263.671 62.232 263.332 62.094 262.918 62.094C262.648 62.094 262.405 62.157 262.189 62.283C261.973 62.403 261.802 62.577 261.676 62.805C261.55 63.033 261.487 63.297 261.487 63.597C261.487 63.897 261.55 64.161 261.676 64.389C261.802 64.617 261.973 64.794 262.189 64.92C262.405 65.04 262.648 65.1 262.918 65.1ZM268.324 61.14C269.032 61.14 269.572 61.311 269.944 61.653C270.322 61.989 270.511 62.499 270.511 63.183V66H269.449V65.415C269.311 65.625 269.113 65.787 268.855 65.901C268.603 66.009 268.297 66.063 267.937 66.063C267.577 66.063 267.262 66.003 266.992 65.883C266.722 65.757 266.512 65.586 266.362 65.37C266.218 65.148 266.146 64.899 266.146 64.623C266.146 64.191 266.305 63.846 266.623 63.588C266.947 63.324 267.454 63.192 268.144 63.192H269.386V63.12C269.386 62.784 269.284 62.526 269.08 62.346C268.882 62.166 268.585 62.076 268.189 62.076C267.919 62.076 267.652 62.118 267.388 62.202C267.13 62.286 266.911 62.403 266.731 62.553L266.29 61.734C266.542 61.542 266.845 61.395 267.199 61.293C267.553 61.191 267.928 61.14 268.324 61.14ZM268.171 65.244C268.453 65.244 268.702 65.181 268.918 65.055C269.14 64.923 269.296 64.737 269.386 64.497V63.939H268.225C267.577 63.939 267.253 64.152 267.253 64.578C267.253 64.782 267.334 64.944 267.496 65.064C267.658 65.184 267.883 65.244 268.171 65.244ZM274.682 61.14C275.288 61.14 275.774 61.317 276.14 61.671C276.506 62.025 276.689 62.55 276.689 63.246V66H275.564V63.39C275.564 62.97 275.465 62.655 275.267 62.445C275.069 62.229 274.787 62.121 274.421 62.121C274.007 62.121 273.68 62.247 273.44 62.499C273.2 62.745 273.08 63.102 273.08 63.57V66H271.955V61.194H273.026V61.815C273.212 61.593 273.446 61.425 273.728 61.311C274.01 61.197 274.328 61.14 274.682 61.14ZM280.078 63.939L279.241 64.731V66H278.116V59.322H279.241V63.354L281.572 61.194H282.922L280.915 63.21L283.111 66H281.743L280.078 63.939ZM289.214 65.739C289.082 65.847 288.92 65.928 288.728 65.982C288.542 66.036 288.344 66.063 288.134 66.063C287.606 66.063 287.198 65.925 286.91 65.649C286.622 65.373 286.478 64.971 286.478 64.443V62.13H285.686V61.23H286.478V60.132H287.603V61.23H288.89V62.13H287.603V64.416C287.603 64.65 287.66 64.83 287.774 64.956C287.888 65.076 288.053 65.136 288.269 65.136C288.521 65.136 288.731 65.07 288.899 64.938L289.214 65.739ZM291.21 61.896C291.534 61.392 292.104 61.14 292.92 61.14V62.211C292.824 62.193 292.737 62.184 292.659 62.184C292.221 62.184 291.879 62.313 291.633 62.571C291.387 62.823 291.264 63.189 291.264 63.669V66H290.139V61.194H291.21V61.896ZM295.684 61.14C296.392 61.14 296.932 61.311 297.304 61.653C297.682 61.989 297.871 62.499 297.871 63.183V66H296.809V65.415C296.671 65.625 296.473 65.787 296.215 65.901C295.963 66.009 295.657 66.063 295.297 66.063C294.937 66.063 294.622 66.003 294.352 65.883C294.082 65.757 293.872 65.586 293.722 65.37C293.578 65.148 293.506 64.899 293.506 64.623C293.506 64.191 293.665 63.846 293.983 63.588C294.307 63.324 294.814 63.192 295.504 63.192H296.746V63.12C296.746 62.784 296.644 62.526 296.44 62.346C296.242 62.166 295.945 62.076 295.549 62.076C295.279 62.076 295.012 62.118 294.748 62.202C294.49 62.286 294.271 62.403 294.091 62.553L293.65 61.734C293.902 61.542 294.205 61.395 294.559 61.293C294.913 61.191 295.288 61.14 295.684 61.14ZM295.531 65.244C295.813 65.244 296.062 65.181 296.278 65.055C296.5 64.923 296.656 64.737 296.746 64.497V63.939H295.585C294.937 63.939 294.613 64.152 294.613 64.578C294.613 64.782 294.694 64.944 294.856 65.064C295.018 65.184 295.243 65.244 295.531 65.244ZM302.042 61.14C302.648 61.14 303.134 61.317 303.5 61.671C303.866 62.025 304.049 62.55 304.049 63.246V66H302.924V63.39C302.924 62.97 302.825 62.655 302.627 62.445C302.429 62.229 302.147 62.121 301.781 62.121C301.367 62.121 301.04 62.247 300.8 62.499C300.56 62.745 300.44 63.102 300.44 63.57V66H299.315V61.194H300.386V61.815C300.572 61.593 300.806 61.425 301.088 61.311C301.37 61.197 301.688 61.14 302.042 61.14ZM306.961 66.063C306.571 66.063 306.19 66.012 305.818 65.91C305.446 65.808 305.149 65.679 304.927 65.523L305.359 64.668C305.575 64.812 305.833 64.929 306.133 65.019C306.439 65.103 306.739 65.145 307.033 65.145C307.705 65.145 308.041 64.968 308.041 64.614C308.041 64.446 307.954 64.329 307.78 64.263C307.612 64.197 307.339 64.134 306.961 64.074C306.565 64.014 306.241 63.945 305.989 63.867C305.743 63.789 305.527 63.654 305.341 63.462C305.161 63.264 305.071 62.991 305.071 62.643C305.071 62.187 305.26 61.824 305.638 61.554C306.022 61.278 306.538 61.14 307.186 61.14C307.516 61.14 307.846 61.179 308.176 61.257C308.506 61.329 308.776 61.428 308.986 61.554L308.554 62.409C308.146 62.169 307.687 62.049 307.177 62.049C306.847 62.049 306.595 62.1 306.421 62.202C306.253 62.298 306.169 62.427 306.169 62.589C306.169 62.769 306.259 62.898 306.439 62.976C306.625 63.048 306.91 63.117 307.294 63.183C307.678 63.243 307.993 63.312 308.239 63.39C308.485 63.468 308.695 63.6 308.869 63.786C309.049 63.972 309.139 64.236 309.139 64.578C309.139 65.028 308.944 65.388 308.554 65.658C308.164 65.928 307.633 66.063 306.961 66.063ZM312.061 60.168C311.587 60.168 311.35 60.426 311.35 60.942V61.23H312.673V62.13H311.386V66H310.261V62.13H309.469V61.23H310.261V60.924C310.261 60.408 310.411 60.003 310.711 59.709C311.011 59.409 311.434 59.259 311.98 59.259C312.412 59.259 312.751 59.346 312.997 59.52L312.682 60.366C312.49 60.234 312.283 60.168 312.061 60.168ZM317.878 63.624C317.878 63.702 317.872 63.813 317.86 63.957H314.089C314.155 64.311 314.326 64.593 314.602 64.803C314.884 65.007 315.232 65.109 315.646 65.109C316.174 65.109 316.609 64.935 316.951 64.587L317.554 65.28C317.338 65.538 317.065 65.733 316.735 65.865C316.405 65.997 316.033 66.063 315.619 66.063C315.091 66.063 314.626 65.958 314.224 65.748C313.822 65.538 313.51 65.247 313.288 64.875C313.072 64.497 312.964 64.071 312.964 63.597C312.964 63.129 313.069 62.709 313.279 62.337C313.495 61.959 313.792 61.665 314.17 61.455C314.548 61.245 314.974 61.14 315.448 61.14C315.916 61.14 316.333 61.245 316.699 61.455C317.071 61.659 317.359 61.95 317.563 62.328C317.773 62.7 317.878 63.132 317.878 63.624ZM315.448 62.04C315.088 62.04 314.782 62.148 314.53 62.364C314.284 62.574 314.134 62.856 314.08 63.21H316.807C316.759 62.862 316.612 62.58 316.366 62.364C316.12 62.148 315.814 62.04 315.448 62.04ZM320.03 61.896C320.354 61.392 320.924 61.14 321.74 61.14V62.211C321.644 62.193 321.557 62.184 321.479 62.184C321.041 62.184 320.699 62.313 320.453 62.571C320.207 62.823 320.084 63.189 320.084 63.669V66H318.959V61.194H320.03V61.896Z" fill="#6C6C8A"/>
<path d="M226.438 77.7C226.984 77.7 227.458 77.79 227.86 77.97C228.268 78.15 228.58 78.408 228.796 78.744C229.012 79.08 229.12 79.479 229.12 79.941C229.12 80.397 229.012 80.796 228.796 81.138C228.58 81.474 228.268 81.732 227.86 81.912C227.458 82.092 226.984 82.182 226.438 82.182H225.016V84H223.846V77.7H226.438ZM226.384 81.192C226.894 81.192 227.281 81.084 227.545 80.868C227.809 80.652 227.941 80.343 227.941 79.941C227.941 79.539 227.809 79.23 227.545 79.014C227.281 78.798 226.894 78.69 226.384 78.69H225.016V81.192H226.384ZM231.972 79.14C232.68 79.14 233.22 79.311 233.592 79.653C233.97 79.989 234.159 80.499 234.159 81.183V84H233.097V83.415C232.959 83.625 232.761 83.787 232.503 83.901C232.251 84.009 231.945 84.063 231.585 84.063C231.225 84.063 230.91 84.003 230.64 83.883C230.37 83.757 230.16 83.586 230.01 83.37C229.866 83.148 229.794 82.899 229.794 82.623C229.794 82.191 229.953 81.846 230.271 81.588C230.595 81.324 231.102 81.192 231.792 81.192H233.034V81.12C233.034 80.784 232.932 80.526 232.728 80.346C232.53 80.166 232.233 80.076 231.837 80.076C231.567 80.076 231.3 80.118 231.036 80.202C230.778 80.286 230.559 80.403 230.379 80.553L229.938 79.734C230.19 79.542 230.493 79.395 230.847 79.293C231.201 79.191 231.576 79.14 231.972 79.14ZM231.819 83.244C232.101 83.244 232.35 83.181 232.566 83.055C232.788 82.923 232.944 82.737 233.034 82.497V81.939H231.873C231.225 81.939 230.901 82.152 230.901 82.578C230.901 82.782 230.982 82.944 231.144 83.064C231.306 83.184 231.531 83.244 231.819 83.244ZM240.015 79.194L237.765 84.387C237.555 84.909 237.3 85.275 237 85.485C236.7 85.701 236.337 85.809 235.911 85.809C235.671 85.809 235.434 85.77 235.2 85.692C234.966 85.614 234.774 85.506 234.624 85.368L235.074 84.54C235.182 84.642 235.308 84.723 235.452 84.783C235.602 84.843 235.752 84.873 235.902 84.873C236.1 84.873 236.262 84.822 236.388 84.72C236.52 84.618 236.64 84.447 236.748 84.207L236.829 84.018L234.732 79.194H235.902L237.414 82.749L238.935 79.194H240.015ZM245.87 79.14C246.338 79.14 246.755 79.242 247.121 79.446C247.493 79.65 247.784 79.938 247.994 80.31C248.204 80.682 248.309 81.111 248.309 81.597C248.309 82.083 248.204 82.515 247.994 82.893C247.784 83.265 247.493 83.553 247.121 83.757C246.755 83.961 246.338 84.063 245.87 84.063C245.54 84.063 245.237 84.006 244.961 83.892C244.691 83.778 244.463 83.607 244.277 83.379V84H243.206V77.322H244.331V79.779C244.523 79.569 244.748 79.41 245.006 79.302C245.27 79.194 245.558 79.14 245.87 79.14ZM245.744 83.1C246.158 83.1 246.497 82.962 246.761 82.686C247.031 82.41 247.166 82.047 247.166 81.597C247.166 81.147 247.031 80.784 246.761 80.508C246.497 80.232 246.158 80.094 245.744 80.094C245.474 80.094 245.231 80.157 245.015 80.283C244.799 80.403 244.628 80.577 244.502 80.805C244.376 81.033 244.313 81.297 244.313 81.597C244.313 81.897 244.376 82.161 244.502 82.389C244.628 82.617 244.799 82.794 245.015 82.92C245.231 83.04 245.474 83.1 245.744 83.1ZM253.744 79.194L251.494 84.387C251.284 84.909 251.029 85.275 250.729 85.485C250.429 85.701 250.066 85.809 249.64 85.809C249.4 85.809 249.163 85.77 248.929 85.692C248.695 85.614 248.503 85.506 248.353 85.368L248.803 84.54C248.911 84.642 249.037 84.723 249.181 84.783C249.331 84.843 249.481 84.873 249.631 84.873C249.829 84.873 249.991 84.822 250.117 84.72C250.249 84.618 250.369 84.447 250.477 84.207L250.558 84.018L248.461 79.194H249.631L251.143 82.749L252.664 79.194H253.744ZM259.598 79.14C260.066 79.14 260.483 79.242 260.849 79.446C261.221 79.65 261.512 79.938 261.722 80.31C261.932 80.682 262.037 81.111 262.037 81.597C262.037 82.083 261.932 82.515 261.722 82.893C261.512 83.265 261.221 83.553 260.849 83.757C260.483 83.961 260.066 84.063 259.598 84.063C259.268 84.063 258.965 84.006 258.689 83.892C258.419 83.778 258.191 83.607 258.005 83.379V84H256.934V77.322H258.059V79.779C258.251 79.569 258.476 79.41 258.734 79.302C258.998 79.194 259.286 79.14 259.598 79.14ZM259.472 83.1C259.886 83.1 260.225 82.962 260.489 82.686C260.759 82.41 260.894 82.047 260.894 81.597C260.894 81.147 260.759 80.784 260.489 80.508C260.225 80.232 259.886 80.094 259.472 80.094C259.202 80.094 258.959 80.157 258.743 80.283C258.527 80.403 258.356 80.577 258.23 80.805C258.104 81.033 258.041 81.297 258.041 81.597C258.041 81.897 258.104 82.161 258.23 82.389C258.356 82.617 258.527 82.794 258.743 82.92C258.959 83.04 259.202 83.1 259.472 83.1ZM264.879 79.14C265.587 79.14 266.127 79.311 266.499 79.653C266.877 79.989 267.066 80.499 267.066 81.183V84H266.004V83.415C265.866 83.625 265.668 83.787 265.41 83.901C265.158 84.009 264.852 84.063 264.492 84.063C264.132 84.063 263.817 84.003 263.547 83.883C263.277 83.757 263.067 83.586 262.917 83.37C262.773 83.148 262.701 82.899 262.701 82.623C262.701 82.191 262.86 81.846 263.178 81.588C263.502 81.324 264.009 81.192 264.699 81.192H265.941V81.12C265.941 80.784 265.839 80.526 265.635 80.346C265.437 80.166 265.14 80.076 264.744 80.076C264.474 80.076 264.207 80.118 263.943 80.202C263.685 80.286 263.466 80.403 263.286 80.553L262.845 79.734C263.097 79.542 263.4 79.395 263.754 79.293C264.108 79.191 264.483 79.14 264.879 79.14ZM264.726 83.244C265.008 83.244 265.257 83.181 265.473 83.055C265.695 82.923 265.851 82.737 265.941 82.497V81.939H264.78C264.132 81.939 263.808 82.152 263.808 82.578C263.808 82.782 263.889 82.944 264.051 83.064C264.213 83.184 264.438 83.244 264.726 83.244ZM271.236 79.14C271.842 79.14 272.328 79.317 272.694 79.671C273.06 80.025 273.243 80.55 273.243 81.246V84H272.118V81.39C272.118 80.97 272.019 80.655 271.821 80.445C271.623 80.229 271.341 80.121 270.975 80.121C270.561 80.121 270.234 80.247 269.994 80.499C269.754 80.745 269.634 81.102 269.634 81.57V84H268.509V79.194H269.58V79.815C269.766 79.593 270 79.425 270.282 79.311C270.564 79.197 270.882 79.14 271.236 79.14ZM276.633 81.939L275.796 82.731V84H274.671V77.322H275.796V81.354L278.127 79.194H279.477L277.47 81.21L279.666 84H278.298L276.633 81.939Z" fill="#6C6C8A"/>
<path d="M49.728 124.4V130H48.872L45.784 126.208V130H44.752V124.4H45.608L48.696 128.192V124.4H49.728ZM52.7646 125.68C53.3939 125.68 53.8739 125.832 54.2046 126.136C54.5406 126.435 54.7086 126.888 54.7086 127.496V130H53.7646V129.48C53.6419 129.667 53.4659 129.811 53.2366 129.912C53.0126 130.008 52.7406 130.056 52.4206 130.056C52.1006 130.056 51.8206 130.003 51.5806 129.896C51.3406 129.784 51.1539 129.632 51.0206 129.44C50.8926 129.243 50.8286 129.021 50.8286 128.776C50.8286 128.392 50.9699 128.085 51.2526 127.856C51.5406 127.621 51.9912 127.504 52.6046 127.504H53.7086V127.44C53.7086 127.141 53.6179 126.912 53.4366 126.752C53.2606 126.592 52.9966 126.512 52.6446 126.512C52.4046 126.512 52.1672 126.549 51.9326 126.624C51.7032 126.699 51.5086 126.803 51.3486 126.936L50.9566 126.208C51.1806 126.037 51.4499 125.907 51.7646 125.816C52.0792 125.725 52.4126 125.68 52.7646 125.68ZM52.6286 129.328C52.8792 129.328 53.1006 129.272 53.2926 129.16C53.4899 129.043 53.6286 128.877 53.7086 128.664V128.168H52.6766C52.1006 128.168 51.8126 128.357 51.8126 128.736C51.8126 128.917 51.8846 129.061 52.0286 129.168C52.1726 129.275 52.3726 129.328 52.6286 129.328ZM61.3839 125.68C61.9226 125.68 62.3493 125.837 62.6639 126.152C62.9786 126.461 63.1359 126.928 63.1359 127.552V130H62.1359V127.68C62.1359 127.307 62.0533 127.027 61.8879 126.84C61.7226 126.648 61.4853 126.552 61.1759 126.552C60.8399 126.552 60.5706 126.664 60.3679 126.888C60.1653 127.107 60.0639 127.421 60.0639 127.832V130H59.0639V127.68C59.0639 127.307 58.9813 127.027 58.8159 126.84C58.6506 126.648 58.4133 126.552 58.1039 126.552C57.7626 126.552 57.4906 126.661 57.2879 126.88C57.0906 127.099 56.9919 127.416 56.9919 127.832V130H55.9919V125.728H56.9439V126.272C57.1039 126.08 57.3039 125.933 57.5439 125.832C57.7839 125.731 58.0506 125.68 58.3439 125.68C58.6639 125.68 58.9466 125.741 59.1919 125.864C59.4426 125.981 59.6399 126.157 59.7839 126.392C59.9599 126.168 60.1866 125.995 60.4639 125.872C60.7413 125.744 61.0479 125.68 61.3839 125.68ZM68.4689 127.888C68.4689 127.957 68.4635 128.056 68.4529 128.184H65.1009C65.1595 128.499 65.3115 128.749 65.5569 128.936C65.8075 129.117 66.1169 129.208 66.4849 129.208C66.9542 129.208 67.3409 129.053 67.6449 128.744L68.1809 129.36C67.9889 129.589 67.7462 129.763 67.4529 129.88C67.1595 129.997 66.8289 130.056 66.4609 130.056C65.9915 130.056 65.5782 129.963 65.2209 129.776C64.8635 129.589 64.5862 129.331 64.3889 129C64.1969 128.664 64.1009 128.285 64.1009 127.864C64.1009 127.448 64.1942 127.075 64.3809 126.744C64.5729 126.408 64.8369 126.147 65.1729 125.96C65.5089 125.773 65.8875 125.68 66.3089 125.68C66.7249 125.68 67.0955 125.773 67.4209 125.96C67.7515 126.141 68.0075 126.4 68.1889 126.736C68.3755 127.067 68.4689 127.451 68.4689 127.888ZM66.3089 126.48C65.9889 126.48 65.7169 126.576 65.4929 126.768C65.2742 126.955 65.1409 127.205 65.0929 127.52H67.5169C67.4742 127.211 67.3435 126.96 67.1249 126.768C66.9062 126.576 66.6342 126.48 66.3089 126.48ZM73.5604 130.056C73.1284 130.056 72.739 129.963 72.3924 129.776C72.0457 129.589 71.7737 129.331 71.5764 129C71.3844 128.664 71.2884 128.285 71.2884 127.864C71.2884 127.443 71.3844 127.067 71.5764 126.736C71.7737 126.405 72.0457 126.147 72.3924 125.96C72.739 125.773 73.1284 125.68 73.5604 125.68C73.9977 125.68 74.3897 125.773 74.7364 125.96C75.083 126.147 75.3524 126.405 75.5444 126.736C75.7417 127.067 75.8404 127.443 75.8404 127.864C75.8404 128.285 75.7417 128.664 75.5444 129C75.3524 129.331 75.083 129.589 74.7364 129.776C74.3897 129.963 73.9977 130.056 73.5604 130.056ZM73.5604 129.2C73.9284 129.2 74.2324 129.077 74.4724 128.832C74.7124 128.587 74.8324 128.264 74.8324 127.864C74.8324 127.464 74.7124 127.141 74.4724 126.896C74.2324 126.651 73.9284 126.528 73.5604 126.528C73.1924 126.528 72.8884 126.651 72.6484 126.896C72.4137 127.141 72.2964 127.464 72.2964 127.864C72.2964 128.264 72.4137 128.587 72.6484 128.832C72.8884 129.077 73.1924 129.2 73.5604 129.2ZM79.2206 125.68C79.7593 125.68 80.1913 125.837 80.5166 126.152C80.842 126.467 81.0046 126.933 81.0046 127.552V130H80.0046V127.68C80.0046 127.307 79.9166 127.027 79.7406 126.84C79.5646 126.648 79.314 126.552 78.9886 126.552C78.6206 126.552 78.33 126.664 78.1166 126.888C77.9033 127.107 77.7966 127.424 77.7966 127.84V130H76.7966V125.728H77.7486V126.28C77.914 126.083 78.122 125.933 78.3726 125.832C78.6233 125.731 78.906 125.68 79.2206 125.68ZM87.1721 130.08C86.6068 130.08 86.0948 129.957 85.6361 129.712C85.1828 129.461 84.8255 129.117 84.5641 128.68C84.3081 128.243 84.1801 127.749 84.1801 127.2C84.1801 126.651 84.3108 126.157 84.5721 125.72C84.8335 125.283 85.1908 124.941 85.6441 124.696C86.1028 124.445 86.6148 124.32 87.1801 124.32C87.6388 124.32 88.0575 124.4 88.4361 124.56C88.8148 124.72 89.1348 124.952 89.3961 125.256L88.7241 125.888C88.3188 125.451 87.8201 125.232 87.2281 125.232C86.8441 125.232 86.5001 125.317 86.1961 125.488C85.8921 125.653 85.6548 125.885 85.4841 126.184C85.3135 126.483 85.2281 126.821 85.2281 127.2C85.2281 127.579 85.3135 127.917 85.4841 128.216C85.6548 128.515 85.8921 128.749 86.1961 128.92C86.5001 129.085 86.8441 129.168 87.2281 129.168C87.8201 129.168 88.3188 128.947 88.7241 128.504L89.3961 129.144C89.1348 129.448 88.8121 129.68 88.4281 129.84C88.0495 130 87.6308 130.08 87.1721 130.08ZM91.8896 125.68C92.5189 125.68 92.9989 125.832 93.3296 126.136C93.6656 126.435 93.8336 126.888 93.8336 127.496V130H92.8896V129.48C92.7669 129.667 92.5909 129.811 92.3616 129.912C92.1376 130.008 91.8656 130.056 91.5456 130.056C91.2256 130.056 90.9456 130.003 90.7056 129.896C90.4656 129.784 90.2789 129.632 90.1456 129.44C90.0176 129.243 89.9536 129.021 89.9536 128.776C89.9536 128.392 90.0949 128.085 90.3776 127.856C90.6656 127.621 91.1162 127.504 91.7296 127.504H92.8336V127.44C92.8336 127.141 92.7429 126.912 92.5616 126.752C92.3856 126.592 92.1216 126.512 91.7696 126.512C91.5296 126.512 91.2922 126.549 91.0576 126.624C90.8282 126.699 90.6336 126.803 90.4736 126.936L90.0816 126.208C90.3056 126.037 90.5749 125.907 90.8896 125.816C91.2042 125.725 91.5376 125.68 91.8896 125.68ZM91.7536 129.328C92.0042 129.328 92.2256 129.272 92.4176 129.16C92.6149 129.043 92.7536 128.877 92.8336 128.664V128.168H91.8016C91.2256 128.168 90.9376 128.357 90.9376 128.736C90.9376 128.917 91.0096 129.061 91.1536 129.168C91.2976 129.275 91.4976 129.328 91.7536 129.328ZM96.0689 126.352C96.3569 125.904 96.8636 125.68 97.5889 125.68V126.632C97.5036 126.616 97.4263 126.608 97.3569 126.608C96.9676 126.608 96.6636 126.723 96.4449 126.952C96.2263 127.176 96.1169 127.501 96.1169 127.928V130H95.1169V125.728H96.0689V126.352ZM102.582 124.064V130H101.622V129.448C101.457 129.651 101.252 129.803 101.006 129.904C100.766 130.005 100.5 130.056 100.206 130.056C99.7955 130.056 99.4249 129.965 99.0942 129.784C98.7689 129.603 98.5129 129.347 98.3262 129.016C98.1395 128.68 98.0462 128.296 98.0462 127.864C98.0462 127.432 98.1395 127.051 98.3262 126.72C98.5129 126.389 98.7689 126.133 99.0942 125.952C99.4249 125.771 99.7955 125.68 100.206 125.68C100.489 125.68 100.748 125.728 100.982 125.824C101.217 125.92 101.417 126.064 101.582 126.256V124.064H102.582ZM100.326 129.2C100.566 129.2 100.782 129.147 100.974 129.04C101.166 128.928 101.318 128.771 101.43 128.568C101.542 128.365 101.598 128.131 101.598 127.864C101.598 127.597 101.542 127.363 101.43 127.16C101.318 126.957 101.166 126.803 100.974 126.696C100.782 126.584 100.566 126.528 100.326 126.528C100.086 126.528 99.8702 126.584 99.6782 126.696C99.4862 126.803 99.3342 126.957 99.2222 127.16C99.1102 127.363 99.0542 127.597 99.0542 127.864C99.0542 128.131 99.1102 128.365 99.2222 128.568C99.3342 128.771 99.4862 128.928 99.6782 129.04C99.8702 129.147 100.086 129.2 100.326 129.2Z" fill="#8181A5"/>
<path d="M56.03 156.1C55.5833 156.1 55.17 156.013 54.79 155.84C54.4167 155.66 54.11 155.41 53.87 155.09L54.61 154.2C54.9967 154.733 55.46 155 56 155C56.7267 155 57.09 154.57 57.09 153.71V150.09H54.6V149H58.39V153.64C58.39 154.46 58.19 155.077 57.79 155.49C57.39 155.897 56.8033 156.1 56.03 156.1ZM62.4934 156.07C61.9534 156.07 61.4668 155.953 61.0334 155.72C60.6001 155.487 60.2601 155.163 60.0134 154.75C59.7734 154.33 59.6534 153.857 59.6534 153.33C59.6534 152.803 59.7734 152.333 60.0134 151.92C60.2601 151.507 60.6001 151.183 61.0334 150.95C61.4668 150.717 61.9534 150.6 62.4934 150.6C63.0401 150.6 63.5301 150.717 63.9634 150.95C64.3968 151.183 64.7334 151.507 64.9734 151.92C65.2201 152.333 65.3434 152.803 65.3434 153.33C65.3434 153.857 65.2201 154.33 64.9734 154.75C64.7334 155.163 64.3968 155.487 63.9634 155.72C63.5301 155.953 63.0401 156.07 62.4934 156.07ZM62.4934 155C62.9534 155 63.3334 154.847 63.6334 154.54C63.9334 154.233 64.0834 153.83 64.0834 153.33C64.0834 152.83 63.9334 152.427 63.6334 152.12C63.3334 151.813 62.9534 151.66 62.4934 151.66C62.0334 151.66 61.6534 151.813 61.3534 152.12C61.0601 152.427 60.9134 152.83 60.9134 153.33C60.9134 153.83 61.0601 154.233 61.3534 154.54C61.6534 154.847 62.0334 155 62.4934 155ZM69.5688 150.6C70.2421 150.6 70.7821 150.797 71.1888 151.19C71.5954 151.583 71.7988 152.167 71.7988 152.94V156H70.5488V153.1C70.5488 152.633 70.4388 152.283 70.2188 152.05C69.9988 151.81 69.6854 151.69 69.2788 151.69C68.8188 151.69 68.4554 151.83 68.1888 152.11C67.9221 152.383 67.7888 152.78 67.7888 153.3V156H66.5388V148.58H67.7888V151.28C67.9954 151.06 68.2488 150.893 68.5488 150.78C68.8554 150.66 69.1954 150.6 69.5688 150.6ZM76.4145 150.6C77.0878 150.6 77.6278 150.797 78.0345 151.19C78.4411 151.583 78.6445 152.167 78.6445 152.94V156H77.3945V153.1C77.3945 152.633 77.2845 152.283 77.0645 152.05C76.8445 151.81 76.5311 151.69 76.1245 151.69C75.6645 151.69 75.3011 151.83 75.0345 152.11C74.7678 152.383 74.6345 152.78 74.6345 153.3V156H73.3845V150.66H74.5745V151.35C74.7811 151.103 75.0411 150.917 75.3545 150.79C75.6678 150.663 76.0211 150.6 76.4145 150.6ZM83.1138 149H86.1738C86.9205 149 87.5838 149.147 88.1638 149.44C88.7438 149.727 89.1938 150.137 89.5138 150.67C89.8338 151.197 89.9938 151.807 89.9938 152.5C89.9938 153.193 89.8338 153.807 89.5138 154.34C89.1938 154.867 88.7438 155.277 88.1638 155.57C87.5838 155.857 86.9205 156 86.1738 156H83.1138V149ZM86.1138 154.9C86.6272 154.9 87.0772 154.803 87.4638 154.61C87.8572 154.41 88.1572 154.13 88.3638 153.77C88.5772 153.403 88.6838 152.98 88.6838 152.5C88.6838 152.02 88.5772 151.6 88.3638 151.24C88.1572 150.873 87.8572 150.593 87.4638 150.4C87.0772 150.2 86.6272 150.1 86.1138 150.1H84.4138V154.9H86.1138ZM93.6555 156.07C93.1155 156.07 92.6289 155.953 92.1955 155.72C91.7622 155.487 91.4222 155.163 91.1755 154.75C90.9355 154.33 90.8155 153.857 90.8155 153.33C90.8155 152.803 90.9355 152.333 91.1755 151.92C91.4222 151.507 91.7622 151.183 92.1955 150.95C92.6289 150.717 93.1155 150.6 93.6555 150.6C94.2022 150.6 94.6922 150.717 95.1255 150.95C95.5589 151.183 95.8955 151.507 96.1355 151.92C96.3822 152.333 96.5055 152.803 96.5055 153.33C96.5055 153.857 96.3822 154.33 96.1355 154.75C95.8955 155.163 95.5589 155.487 95.1255 155.72C94.6922 155.953 94.2022 156.07 93.6555 156.07ZM93.6555 155C94.1155 155 94.4955 154.847 94.7955 154.54C95.0955 154.233 95.2455 153.83 95.2455 153.33C95.2455 152.83 95.0955 152.427 94.7955 152.12C94.4955 151.813 94.1155 151.66 93.6555 151.66C93.1955 151.66 92.8155 151.813 92.5155 152.12C92.2222 152.427 92.0755 152.83 92.0755 153.33C92.0755 153.83 92.2222 154.233 92.5155 154.54C92.8155 154.847 93.1955 155 93.6555 155ZM102.721 153.36C102.721 153.447 102.714 153.57 102.701 153.73H98.5109C98.5842 154.123 98.7742 154.437 99.0809 154.67C99.3942 154.897 99.7809 155.01 100.241 155.01C100.828 155.01 101.311 154.817 101.691 154.43L102.361 155.2C102.121 155.487 101.818 155.703 101.451 155.85C101.084 155.997 100.671 156.07 100.211 156.07C99.6242 156.07 99.1075 155.953 98.6609 155.72C98.2142 155.487 97.8675 155.163 97.6209 154.75C97.3809 154.33 97.2609 153.857 97.2609 153.33C97.2609 152.81 97.3775 152.343 97.6109 151.93C97.8509 151.51 98.1809 151.183 98.6009 150.95C99.0209 150.717 99.4942 150.6 100.021 150.6C100.541 150.6 101.004 150.717 101.411 150.95C101.824 151.177 102.144 151.5 102.371 151.92C102.604 152.333 102.721 152.813 102.721 153.36ZM100.021 151.6C99.6209 151.6 99.2809 151.72 99.0009 151.96C98.7275 152.193 98.5609 152.507 98.5009 152.9H101.531C101.478 152.513 101.314 152.2 101.041 151.96C100.768 151.72 100.428 151.6 100.021 151.6Z" fill="#495B6C"/>
<rect x="43.5" y="137.5" width="132" height="30" rx="2.5" stroke="#DBE3EB"/>
<path d="M192.344 130.08C191.779 130.08 191.267 129.957 190.808 129.712C190.355 129.461 189.997 129.117 189.736 128.68C189.48 128.243 189.352 127.749 189.352 127.2C189.352 126.651 189.483 126.157 189.744 125.72C190.005 125.283 190.363 124.941 190.816 124.696C191.275 124.445 191.787 124.32 192.352 124.32C192.811 124.32 193.229 124.4 193.608 124.56C193.987 124.72 194.307 124.952 194.568 125.256L193.896 125.888C193.491 125.451 192.992 125.232 192.4 125.232C192.016 125.232 191.672 125.317 191.368 125.488C191.064 125.653 190.827 125.885 190.656 126.184C190.485 126.483 190.4 126.821 190.4 127.2C190.4 127.579 190.485 127.917 190.656 128.216C190.827 128.515 191.064 128.749 191.368 128.92C191.672 129.085 192.016 129.168 192.4 129.168C192.992 129.168 193.491 128.947 193.896 128.504L194.568 129.144C194.307 129.448 193.984 129.68 193.6 129.84C193.221 130 192.803 130.08 192.344 130.08ZM197.061 125.68C197.691 125.68 198.171 125.832 198.501 126.136C198.837 126.435 199.005 126.888 199.005 127.496V130H198.061V129.48C197.939 129.667 197.763 129.811 197.533 129.912C197.309 130.008 197.037 130.056 196.717 130.056C196.397 130.056 196.117 130.003 195.877 129.896C195.637 129.784 195.451 129.632 195.317 129.44C195.189 129.243 195.125 129.021 195.125 128.776C195.125 128.392 195.267 128.085 195.549 127.856C195.837 127.621 196.288 127.504 196.901 127.504H198.005V127.44C198.005 127.141 197.915 126.912 197.733 126.752C197.557 126.592 197.293 126.512 196.941 126.512C196.701 126.512 196.464 126.549 196.229 126.624C196 126.699 195.805 126.803 195.645 126.936L195.253 126.208C195.477 126.037 195.747 125.907 196.061 125.816C196.376 125.725 196.709 125.68 197.061 125.68ZM196.925 129.328C197.176 129.328 197.397 129.272 197.589 129.16C197.787 129.043 197.925 128.877 198.005 128.664V128.168H196.973C196.397 128.168 196.109 128.357 196.109 128.736C196.109 128.917 196.181 129.061 196.325 129.168C196.469 129.275 196.669 129.328 196.925 129.328ZM201.241 126.352C201.529 125.904 202.035 125.68 202.761 125.68V126.632C202.675 126.616 202.598 126.608 202.529 126.608C202.139 126.608 201.835 126.723 201.617 126.952C201.398 127.176 201.289 127.501 201.289 127.928V130H200.289V125.728H201.241V126.352ZM207.754 124.064V130H206.794V129.448C206.629 129.651 206.423 129.803 206.178 129.904C205.938 130.005 205.671 130.056 205.378 130.056C204.967 130.056 204.597 129.965 204.266 129.784C203.941 129.603 203.685 129.347 203.498 129.016C203.311 128.68 203.218 128.296 203.218 127.864C203.218 127.432 203.311 127.051 203.498 126.72C203.685 126.389 203.941 126.133 204.266 125.952C204.597 125.771 204.967 125.68 205.378 125.68C205.661 125.68 205.919 125.728 206.154 125.824C206.389 125.92 206.589 126.064 206.754 126.256V124.064H207.754ZM205.498 129.2C205.738 129.2 205.954 129.147 206.146 129.04C206.338 128.928 206.49 128.771 206.602 128.568C206.714 128.365 206.77 128.131 206.77 127.864C206.77 127.597 206.714 127.363 206.602 127.16C206.49 126.957 206.338 126.803 206.146 126.696C205.954 126.584 205.738 126.528 205.498 126.528C205.258 126.528 205.042 126.584 204.85 126.696C204.658 126.803 204.506 126.957 204.394 127.16C204.282 127.363 204.226 127.597 204.226 127.864C204.226 128.131 204.282 128.365 204.394 128.568C204.506 128.771 204.658 128.928 204.85 129.04C205.042 129.147 205.258 129.2 205.498 129.2ZM216.345 124.4V130H215.489L212.401 126.208V130H211.369V124.4H212.225L215.313 128.192V124.4H216.345ZM221.886 125.728V130H220.934V129.456C220.774 129.648 220.574 129.797 220.334 129.904C220.094 130.005 219.835 130.056 219.558 130.056C218.987 130.056 218.536 129.899 218.206 129.584C217.88 129.264 217.718 128.792 217.718 128.168V125.728H218.718V128.032C218.718 128.416 218.803 128.704 218.974 128.896C219.15 129.083 219.398 129.176 219.718 129.176C220.075 129.176 220.358 129.067 220.566 128.848C220.779 128.624 220.886 128.304 220.886 127.888V125.728H221.886ZM228.587 125.68C229.126 125.68 229.552 125.837 229.867 126.152C230.182 126.461 230.339 126.928 230.339 127.552V130H229.339V127.68C229.339 127.307 229.256 127.027 229.091 126.84C228.926 126.648 228.688 126.552 228.379 126.552C228.043 126.552 227.774 126.664 227.571 126.888C227.368 127.107 227.267 127.421 227.267 127.832V130H226.267V127.68C226.267 127.307 226.184 127.027 226.019 126.84C225.854 126.648 225.616 126.552 225.307 126.552C224.966 126.552 224.694 126.661 224.491 126.88C224.294 127.099 224.195 127.416 224.195 127.832V130H223.195V125.728H224.147V126.272C224.307 126.08 224.507 125.933 224.747 125.832C224.987 125.731 225.254 125.68 225.547 125.68C225.867 125.68 226.15 125.741 226.395 125.864C226.646 125.981 226.843 126.157 226.987 126.392C227.163 126.168 227.39 125.995 227.667 125.872C227.944 125.744 228.251 125.68 228.587 125.68ZM233.985 125.68C234.401 125.68 234.772 125.771 235.097 125.952C235.428 126.133 235.686 126.389 235.873 126.72C236.06 127.051 236.153 127.432 236.153 127.864C236.153 128.296 236.06 128.68 235.873 129.016C235.686 129.347 235.428 129.603 235.097 129.784C234.772 129.965 234.401 130.056 233.985 130.056C233.692 130.056 233.422 130.005 233.177 129.904C232.937 129.803 232.734 129.651 232.569 129.448V130H231.617V124.064H232.617V126.248C232.788 126.061 232.988 125.92 233.217 125.824C233.452 125.728 233.708 125.68 233.985 125.68ZM233.873 129.2C234.241 129.2 234.542 129.077 234.777 128.832C235.017 128.587 235.137 128.264 235.137 127.864C235.137 127.464 235.017 127.141 234.777 126.896C234.542 126.651 234.241 126.528 233.873 126.528C233.633 126.528 233.417 126.584 233.225 126.696C233.033 126.803 232.881 126.957 232.769 127.16C232.657 127.363 232.601 127.597 232.601 127.864C232.601 128.131 232.657 128.365 232.769 128.568C232.881 128.771 233.033 128.928 233.225 129.04C233.417 129.147 233.633 129.2 233.873 129.2ZM241.117 127.888C241.117 127.957 241.112 128.056 241.101 128.184H237.749C237.808 128.499 237.96 128.749 238.205 128.936C238.456 129.117 238.765 129.208 239.133 129.208C239.603 129.208 239.989 129.053 240.293 128.744L240.829 129.36C240.637 129.589 240.395 129.763 240.101 129.88C239.808 129.997 239.477 130.056 239.109 130.056C238.64 130.056 238.227 129.963 237.869 129.776C237.512 129.589 237.235 129.331 237.037 129C236.845 128.664 236.749 128.285 236.749 127.864C236.749 127.448 236.843 127.075 237.029 126.744C237.221 126.408 237.485 126.147 237.821 125.96C238.157 125.773 238.536 125.68 238.957 125.68C239.373 125.68 239.744 125.773 240.069 125.96C240.4 126.141 240.656 126.4 240.837 126.736C241.024 127.067 241.117 127.451 241.117 127.888ZM238.957 126.48C238.637 126.48 238.365 126.576 238.141 126.768C237.923 126.955 237.789 127.205 237.741 127.52H240.165C240.123 127.211 239.992 126.96 239.773 126.768C239.555 126.576 239.283 126.48 238.957 126.48ZM243.03 126.352C243.318 125.904 243.825 125.68 244.55 125.68V126.632C244.465 126.616 244.387 126.608 244.318 126.608C243.929 126.608 243.625 126.723 243.406 126.952C243.187 127.176 243.078 127.501 243.078 127.928V130H242.078V125.728H243.03V126.352Z" fill="#8181A5"/>
<rect x="189.5" y="137.5" width="132" height="30" rx="2.5" stroke="#DBE3EB"/>
<circle cx="205.5" cy="152.5" r="2.5" fill="#495B6C"/>
<circle cx="215.5" cy="152.5" r="2.5" fill="#495B6C"/>
<circle cx="225.5" cy="152.5" r="2.5" fill="#495B6C"/>
<circle cx="246.5" cy="152.5" r="2.5" fill="#495B6C"/>
<circle cx="256.5" cy="152.5" r="2.5" fill="#495B6C"/>
<circle cx="266.5" cy="152.5" r="2.5" fill="#495B6C"/>
<circle cx="286.5" cy="152.5" r="2.5" fill="#495B6C"/>
<circle cx="296.5" cy="152.5" r="2.5" fill="#495B6C"/>
<circle cx="306.5" cy="152.5" r="2.5" fill="#495B6C"/>
<path d="M47.102 100.18H51.904V102H43.42V100.18H44.82V97.772H43.42V96.414H44.82V96.05C44.82 94.7993 45.2167 93.8193 46.01 93.11C46.8127 92.3913 47.9327 92.032 49.37 92.032C50.49 92.032 51.428 92.2467 52.184 92.676L51.498 94.468C50.938 94.132 50.238 93.964 49.398 93.964C48.6513 93.964 48.082 94.1367 47.69 94.482C47.298 94.8273 47.102 95.336 47.102 96.008V96.414H50.462V97.772H47.102V100.18ZM60.0828 100.152V102H52.6768V100.53L56.4568 96.96C56.8582 96.5773 57.1288 96.2507 57.2688 95.98C57.4088 95.7 57.4788 95.4247 57.4788 95.154C57.4788 94.762 57.3435 94.4633 57.0728 94.258C56.8115 94.0433 56.4242 93.936 55.9108 93.936C55.4815 93.936 55.0942 94.02 54.7488 94.188C54.4035 94.3467 54.1142 94.5893 53.8808 94.916L52.2288 93.852C52.6115 93.2827 53.1388 92.8393 53.8108 92.522C54.4828 92.1953 55.2528 92.032 56.1208 92.032C56.8488 92.032 57.4835 92.1533 58.0248 92.396C58.5755 92.6293 59.0002 92.9653 59.2988 93.404C59.6068 93.8333 59.7608 94.342 59.7608 94.93C59.7608 95.462 59.6488 95.9613 59.4248 96.428C59.2008 96.8947 58.7668 97.4267 58.1228 98.024L55.8688 100.152H60.0828ZM68.3407 100.152V102H60.9347V100.53L64.7147 96.96C65.116 96.5773 65.3867 96.2507 65.5267 95.98C65.6667 95.7 65.7367 95.4247 65.7367 95.154C65.7367 94.762 65.6013 94.4633 65.3307 94.258C65.0693 94.0433 64.682 93.936 64.1687 93.936C63.7393 93.936 63.352 94.02 63.0067 94.188C62.6613 94.3467 62.372 94.5893 62.1387 94.916L60.4867 93.852C60.8693 93.2827 61.3967 92.8393 62.0687 92.522C62.7407 92.1953 63.5107 92.032 64.3787 92.032C65.1067 92.032 65.7413 92.1533 66.2827 92.396C66.8333 92.6293 67.258 92.9653 67.5567 93.404C67.8647 93.8333 68.0187 94.342 68.0187 94.93C68.0187 95.462 67.9067 95.9613 67.6827 96.428C67.4587 96.8947 67.0247 97.4267 66.3807 98.024L64.1267 100.152H68.3407ZM70.7012 102.112C70.3185 102.112 69.9965 101.981 69.7352 101.72C69.4739 101.459 69.3432 101.132 69.3432 100.74C69.3432 100.339 69.4739 100.017 69.7352 99.774C69.9965 99.522 70.3185 99.396 70.7012 99.396C71.0839 99.396 71.4059 99.522 71.6672 99.774C71.9285 100.017 72.0592 100.339 72.0592 100.74C72.0592 101.132 71.9285 101.459 71.6672 101.72C71.4059 101.981 71.0839 102.112 70.7012 102.112ZM76.5213 92.032C77.8933 92.032 78.9666 92.452 79.7413 93.292C80.5159 94.1227 80.9033 95.322 80.9033 96.89C80.9033 98.0007 80.6933 98.9527 80.2733 99.746C79.8626 100.539 79.2793 101.141 78.5233 101.552C77.7673 101.963 76.8946 102.168 75.9053 102.168C75.3826 102.168 74.8833 102.112 74.4073 102C73.9313 101.879 73.5253 101.711 73.1893 101.496L74.0293 99.83C74.5053 100.157 75.1166 100.32 75.8633 100.32C76.6939 100.32 77.3519 100.077 77.8373 99.592C78.3226 99.0973 78.5839 98.388 78.6213 97.464C78.0333 98.052 77.2213 98.346 76.1853 98.346C75.5599 98.346 74.9906 98.22 74.4773 97.968C73.9639 97.716 73.5579 97.3613 73.2593 96.904C72.9606 96.4373 72.8113 95.9007 72.8113 95.294C72.8113 94.6407 72.9746 94.0667 73.3013 93.572C73.6279 93.0773 74.0713 92.6993 74.6313 92.438C75.2006 92.1673 75.8306 92.032 76.5213 92.032ZM76.6893 96.652C77.1839 96.652 77.5853 96.5167 77.8933 96.246C78.2106 95.966 78.3693 95.6113 78.3693 95.182C78.3693 94.7527 78.2153 94.4027 77.9073 94.132C77.6086 93.8613 77.1933 93.726 76.6613 93.726C76.1759 93.726 75.7793 93.8567 75.4713 94.118C75.1726 94.3793 75.0233 94.734 75.0233 95.182C75.0233 95.63 75.1726 95.9893 75.4713 96.26C75.7793 96.5213 76.1853 96.652 76.6893 96.652ZM85.3513 95.882C86.7326 95.882 87.75 96.1573 88.4033 96.708C89.066 97.2587 89.3973 97.996 89.3973 98.92C89.3973 99.5173 89.248 100.063 88.9493 100.558C88.6506 101.043 88.1933 101.435 87.5773 101.734C86.9706 102.023 86.2193 102.168 85.3233 102.168C84.6326 102.168 83.9513 102.079 83.2793 101.902C82.6166 101.715 82.052 101.454 81.5853 101.118L82.4813 99.382C82.8546 99.662 83.284 99.8813 83.7693 100.04C84.2546 100.189 84.754 100.264 85.2673 100.264C85.8366 100.264 86.2846 100.152 86.6113 99.928C86.938 99.704 87.1013 99.3913 87.1013 98.99C87.1013 98.57 86.9286 98.2527 86.5833 98.038C86.2473 97.8233 85.6593 97.716 84.8193 97.716H82.3133L82.8173 92.2H88.7953V94.02H84.7073L84.5533 95.882H85.3513Z" fill="#13273F"/>
<g filter="url(#filter1_d_1951_325)">
<circle cx="213" cy="62" r="4" fill="#2CD19E"/>
<circle cx="213" cy="62" r="3.5" stroke="white"/>
</g>
<g filter="url(#filter2_d_1951_325)">
<circle cx="213" cy="81" r="4" fill="#C2CEDB"/>
<circle cx="213" cy="81" r="3.5" stroke="white"/>
</g>
<defs>
<filter id="filter0_d_1951_325" x="0" y="0" width="367" height="203" filterUnits="userSpaceOnUse" color-interpolation-filters="sRGB">
<feFlood flood-opacity="0" result="BackgroundImageFix"/>
<feColorMatrix in="SourceAlpha" type="matrix" values="0 0 0 0 0 0 0 0 0 0 0 0 0 0 0 0 0 0 127 0" result="hardAlpha"/>
<feOffset dy="-4"/>
<feGaussianBlur stdDeviation="10.5"/>
<feComposite in2="hardAlpha" operator="out"/>
<feColorMatrix type="matrix" values="0 0 0 0 0.505882 0 0 0 0 0.505882 0 0 0 0 0.647059 0 0 0 0.2 0"/>
<feBlend mode="normal" in2="BackgroundImageFix" result="effect1_dropShadow_1951_325"/>
<feBlend mode="normal" in="SourceGraphic" in2="effect1_dropShadow_1951_325" result="shape"/>
</filter>
<filter id="filter1_d_1951_325" x="205" y="55" width="16" height="16" filterUnits="userSpaceOnUse" color-interpolation-filters="sRGB">
<feFlood flood-opacity="0" result="BackgroundImageFix"/>
<feColorMatrix in="SourceAlpha" type="matrix" values="0 0 0 0 0 0 0 0 0 0 0 0 0 0 0 0 0 0 127 0" result="hardAlpha"/>
<feOffset dy="1"/>
<feGaussianBlur stdDeviation="2"/>
<feComposite in2="hardAlpha" operator="out"/>
<feColorMatrix type="matrix" values="0 0 0 0 0 0 0 0 0 0 0 0 0 0 0 0 0 0 0.25 0"/>
<feBlend mode="normal" in2="BackgroundImageFix" result="effect1_dropShadow_1951_325"/>
<feBlend mode="normal" in="SourceGraphic" in2="effect1_dropShadow_1951_325" result="shape"/>
</filter>
<filter id="filter2_d_1951_325" x="205" y="74" width="16" height="16" filterUnits="userSpaceOnUse" color-interpolation-filters="sRGB">
<feFlood flood-opacity="0" result="BackgroundImageFix"/>
<feColorMatrix in="SourceAlpha" type="matrix" values="0 0 0 0 0 0 0 0 0 0 0 0 0 0 0 0 0 0 127 0" result="hardAlpha"/>
<feOffset dy="1"/>
<feGaussianBlur stdDeviation="2"/>
<feComposite in2="hardAlpha" operator="out"/>
<feColorMatrix type="matrix" values="0 0 0 0 0 0 0 0 0 0 0 0 0 0 0 0 0 0 0.25 0"/>
<feBlend mode="normal" in2="BackgroundImageFix" result="effect1_dropShadow_1951_325"/>
<feBlend mode="normal" in="SourceGraphic" in2="effect1_dropShadow_1951_325" result="shape"/>
</filter>
</defs>
</svg>
