<svg width="70" height="70" viewBox="0 0 70 70" fill="none" xmlns="http://www.w3.org/2000/svg">
<circle cx="35" cy="35" r="35" fill="#E5EBF0"/>
<g clip-path="url(#clip0_881_4400)">
<path d="M50.3282 18.3077H18.5948C17.2387 18.3077 16.1538 19.3897 16.1538 20.7422V50.3347C16.1538 51.6872 17.2387 52.7692 18.5948 52.7692H50.3282C51.6843 52.7692 52.7692 51.6872 52.7692 50.3347V20.7422C52.7692 19.3897 51.6843 18.3077 50.3282 18.3077ZM51.4131 50.3347C51.4131 50.9298 50.9249 51.4167 50.3282 51.4167H18.5948C17.9981 51.4167 17.5099 50.9298 17.5099 50.3347V25.4488C17.5642 25.4488 17.6727 25.5029 17.7269 25.5029H51.4131V50.3347ZM51.4131 24.1505H17.7269C17.6727 24.1505 17.5642 24.1505 17.5099 24.2046V20.7422C17.5099 20.1471 17.9981 19.6602 18.5948 19.6602H50.3282C50.9249 19.6602 51.4131 20.1471 51.4131 20.7422V24.1505Z" fill="#0E233E"/>
<path d="M21.0358 23.0685C21.605 23.0685 22.0664 22.6083 22.0664 22.0406C22.0664 21.4729 21.605 21.0127 21.0358 21.0127C20.4666 21.0127 20.0051 21.4729 20.0051 22.0406C20.0051 22.6083 20.4666 23.0685 21.0358 23.0685Z" fill="#0E233E"/>
<path d="M24.0193 23.0685C24.5885 23.0685 25.05 22.6083 25.05 22.0406C25.05 21.4729 24.5885 21.0127 24.0193 21.0127C23.4501 21.0127 22.9886 21.4729 22.9886 22.0406C22.9886 22.6083 23.4501 23.0685 24.0193 23.0685Z" fill="#0E233E"/>
<path d="M27.0027 23.0685C27.5719 23.0685 28.0334 22.6083 28.0334 22.0406C28.0334 21.4729 27.5719 21.0127 27.0027 21.0127C26.4335 21.0127 25.972 21.4729 25.972 22.0406C25.972 22.6083 26.4335 23.0685 27.0027 23.0685Z" fill="#0E233E"/>
<path d="M48.267 21.3373H39.5336C39.1538 21.3373 38.8284 21.6619 38.8284 22.0406C38.8284 22.4193 39.1538 22.7439 39.5336 22.7439H48.267C48.6467 22.7439 48.9722 22.4193 48.9722 22.0406C48.9722 21.6619 48.6467 21.3373 48.267 21.3373Z" fill="#0E233E"/>
<path d="M22.9888 30.0473H27.3826L30.2576 40.3804H27.5453C26.4604 40.3804 25.5383 41.3001 25.5383 42.3821C25.5383 43.4641 26.4604 44.3838 27.5453 44.3838H31.1798C30.2033 44.7084 29.4982 45.628 29.4982 46.71C29.4982 48.0625 30.6373 49.1986 31.9934 49.1986C33.3496 49.1986 34.4887 48.0625 34.4887 46.71C34.4887 45.628 33.7835 44.7084 32.8071 44.3838H38.1231C37.1467 44.7084 36.4415 45.628 36.4415 46.71C36.4415 48.0625 37.5807 49.1986 38.9368 49.1986C40.2929 49.1986 41.4321 48.0625 41.4321 46.71C41.4321 45.628 40.7269 44.7084 39.7505 44.3838H43.6561C44.0358 44.3838 44.3613 44.0592 44.3613 43.6805C44.3613 43.3018 44.0358 42.9772 43.6561 42.9772H27.5453C27.1656 42.9772 26.8944 42.7067 26.8944 42.328C26.8944 41.9493 27.1656 41.6788 27.5453 41.6788H31.1255H41.2151C41.4863 41.6788 41.7575 41.5165 41.866 41.1919L44.7952 32.2654C44.9037 31.8867 44.8495 31.508 44.6325 31.2375C44.4155 30.9129 44.0358 30.7506 43.6561 30.7506H31.9934C31.6137 30.7506 31.2882 31.0752 31.2882 31.4539C31.2882 31.8326 31.6137 32.1572 31.9934 32.1572H43.3849L40.6726 40.3804H31.6137L28.6302 29.5604C28.4675 29.0735 28.0335 28.6948 27.4911 28.6948H22.9888C22.609 28.6948 22.2836 29.0194 22.2836 29.3981C22.2836 29.7768 22.609 30.0473 22.9888 30.0473ZM38.991 45.5739C39.642 45.5739 40.1302 46.0608 40.1302 46.71C40.1302 47.3592 39.642 47.8461 38.991 47.8461C38.3401 47.8461 37.8519 47.3592 37.8519 46.71C37.8519 46.0608 38.3401 45.5739 38.991 45.5739ZM31.9934 45.5739C32.6444 45.5739 33.1326 46.0608 33.1326 46.71C33.1326 47.3592 32.6444 47.8461 31.9934 47.8461C31.3425 47.8461 30.8543 47.3592 30.8543 46.71C30.8543 46.0608 31.3967 45.5739 31.9934 45.5739Z" fill="#0E233E"/>
</g>
<defs>
<clipPath id="clip0_881_4400">
<rect width="36.6154" height="34.4615" fill="white" transform="translate(16.1538 18.3077)"/>
</clipPath>
</defs>
</svg>
