<svg width="70" height="70" viewBox="0 0 70 70" fill="none" xmlns="http://www.w3.org/2000/svg">
<circle cx="35" cy="35" r="35" fill="#38B6FF" fill-opacity="0.18"/>
<g clip-path="url(#clip0_901_381)">
<path d="M49.477 22.7539L44.4923 21.7388V17.8686C44.4923 16.3458 43.2616 15.0769 41.7846 15.0769H22.0923C20.6154 15.0769 19.3846 16.3458 19.3846 17.8686V53.2718C19.3846 54.7945 20.6154 56.0634 22.0923 56.0634H41.8462C43.3231 56.0634 44.5539 54.7945 44.5539 53.2718V38.0446L46.5846 38.4253C46.7693 38.4887 46.9539 38.4887 47.0769 38.4887C48.3077 38.4887 49.4769 37.6005 49.7231 36.2681L51.6923 26.0532C51.8769 24.467 50.9539 23.0077 49.477 22.7539ZM42.9539 53.2083C42.9539 53.8428 42.4616 54.4138 41.7846 54.4138H22.0923C21.477 54.4138 20.9231 53.9062 20.9231 53.2083V17.8686C20.9231 17.2341 21.4154 16.6631 22.0923 16.6631H41.8462C42.4616 16.6631 43.0154 17.1706 43.0154 17.8686V21.4216L31.9385 19.1375C31.2616 19.0106 30.5231 19.1375 29.9077 19.5816C29.2923 19.9623 28.9231 20.5968 28.8 21.3581L28.3693 23.5153H24.4308C23.5077 23.5153 22.7077 24.3401 22.7077 25.2918V35.7605C22.7077 36.7122 23.5077 37.537 24.4308 37.537H41.5385C41.6616 37.537 41.7846 37.4736 41.8462 37.4736L42.9539 37.7273V53.2083ZM27.2616 33.6668C27.6308 34.3012 28.2462 34.6819 28.9846 34.8088L34.4 35.8874H24.4308C24.3077 35.8874 24.2462 35.824 24.2462 35.6971V25.2918C24.2462 25.1649 24.3077 25.1015 24.4308 25.1015H28.0616L26.8308 31.6365C26.7077 32.3344 26.8308 33.0323 27.2616 33.6668ZM50.0923 25.6725L48.1231 35.8874C48 36.5219 47.3846 36.966 46.7693 36.8391L29.2308 33.2861C28.9231 33.2226 28.677 33.0323 28.4923 32.7785C28.3077 32.5247 28.2462 32.2075 28.3077 31.8903L30.277 21.6754C30.3385 21.3581 30.5231 21.1043 30.7693 20.914C31.0154 20.7237 31.3231 20.6602 31.6308 20.7237L49.2308 24.2767C49.8462 24.4036 50.2154 25.038 50.0923 25.6725Z" fill="#38B6FF"/>
<path d="M31.877 27.1952L36.3077 28.0835C36.3693 28.0835 36.4308 28.0835 36.4308 28.0835C36.8 28.0835 37.1077 27.8297 37.1693 27.449L37.6616 24.7842C37.7231 24.5939 37.6616 24.3401 37.5385 24.2132C37.4154 24.0229 37.2308 23.896 37.0462 23.896L32.6154 23.0077C32.4308 22.9443 32.1846 23.0077 32.0616 23.1346C31.9385 23.2615 31.7539 23.4519 31.7539 23.6422L31.2616 26.307C31.2 26.4973 31.2616 26.7511 31.3846 26.878C31.5077 27.0049 31.6308 27.1318 31.877 27.1952ZM33.1077 24.6574L36.0616 25.2284L35.8154 26.3704L32.9231 25.7359L33.1077 24.6574Z" fill="#38B6FF"/>
<path d="M39.3231 31.3827L31.3231 29.7965C30.8923 29.7331 30.5231 29.9869 30.4 30.431C30.3384 30.8751 30.5846 31.2558 31.0154 31.3827L39.0154 32.9688C39.0769 32.9688 39.1384 32.9688 39.1384 32.9688C39.5077 32.9688 39.8154 32.7151 39.8769 32.3344C40 31.8902 39.7538 31.4461 39.3231 31.3827Z" fill="#38B6FF"/>
<path d="M43.8155 32.271L41.477 31.8268C41.0462 31.7634 40.677 32.0172 40.5539 32.4613C40.4924 32.9054 40.7385 33.2861 41.1693 33.413L43.5078 33.8571C43.5693 33.8571 43.6308 33.8571 43.6308 33.8571C44.0001 33.8571 44.3078 33.6034 44.3693 33.2227C44.4924 32.7785 44.1847 32.3344 43.8155 32.271Z" fill="#38B6FF"/>
<path d="M26.8923 40.3921H23.8769C23.4461 40.3921 23.0769 40.7728 23.0769 41.2169C23.0769 41.661 23.4461 42.0417 23.8769 42.0417H26.8923C27.3231 42.0417 27.6923 41.661 27.6923 41.2169C27.6923 40.7728 27.3231 40.3921 26.8923 40.3921Z" fill="#38B6FF"/>
<path d="M33.4154 40.3921H30.4C29.9692 40.3921 29.6 40.7728 29.6 41.2169C29.6 41.661 29.9692 42.0417 30.4 42.0417H33.4154C33.8461 42.0417 34.2154 41.661 34.2154 41.2169C34.2154 40.7728 33.8461 40.3921 33.4154 40.3921Z" fill="#38B6FF"/>
<path d="M39.9383 40.3921H36.9229C36.4922 40.3921 36.1229 40.7728 36.1229 41.2169C36.1229 41.661 36.4922 42.0417 36.9229 42.0417H39.9383C40.3691 42.0417 40.7383 41.661 40.7383 41.2169C40.7383 40.7728 40.3691 40.3921 39.9383 40.3921Z" fill="#38B6FF"/>
<path d="M26.8923 44.8334H23.8769C23.4461 44.8334 23.0769 45.2141 23.0769 45.6582C23.0769 46.1023 23.4461 46.483 23.8769 46.483H26.8923C27.3231 46.483 27.6923 46.1023 27.6923 45.6582C27.6923 45.2141 27.3231 44.8334 26.8923 44.8334Z" fill="#38B6FF"/>
<path d="M33.4154 44.8334H30.4C29.9692 44.8334 29.6 45.2141 29.6 45.6582C29.6 46.1023 29.9692 46.483 30.4 46.483H33.4154C33.8461 46.483 34.2154 46.1023 34.2154 45.6582C34.2154 45.2141 33.8461 44.8334 33.4154 44.8334Z" fill="#38B6FF"/>
<path d="M39.9383 44.8334H36.9229C36.4922 44.8334 36.1229 45.2141 36.1229 45.6582C36.1229 46.1023 36.4922 46.483 36.9229 46.483H39.9383C40.3691 46.483 40.7383 46.1023 40.7383 45.6582C40.7383 45.2141 40.3691 44.8334 39.9383 44.8334Z" fill="#38B6FF"/>
<path d="M26.8923 49.2112H23.8769C23.4461 49.2112 23.0769 49.5919 23.0769 50.036C23.0769 50.4801 23.4461 50.8608 23.8769 50.8608H26.8923C27.3231 50.8608 27.6923 50.4801 27.6923 50.036C27.6923 49.5919 27.3231 49.2112 26.8923 49.2112Z" fill="#38B6FF"/>
<path d="M33.4154 49.2112H30.4C29.9692 49.2112 29.6 49.5919 29.6 50.036C29.6 50.4801 29.9692 50.8608 30.4 50.8608H33.4154C33.8461 50.8608 34.2154 50.4801 34.2154 50.036C34.2154 49.5919 33.8461 49.2112 33.4154 49.2112Z" fill="#38B6FF"/>
<path d="M39.9383 49.2112H36.9229C36.4922 49.2112 36.1229 49.5919 36.1229 50.036C36.1229 50.4801 36.4922 50.8608 36.9229 50.8608H39.9383C40.3691 50.8608 40.7383 50.4801 40.7383 50.036C40.7383 49.5919 40.3691 49.2112 39.9383 49.2112Z" fill="#38B6FF"/>
</g>
<defs>
<clipPath id="clip0_901_381">
<rect width="32.3077" height="40.9231" fill="white" transform="translate(19.3846 15.0769)"/>
</clipPath>
</defs>
</svg>
