<svg width="70" height="70" viewBox="0 0 70 70" fill="none" xmlns="http://www.w3.org/2000/svg">
<circle cx="35" cy="35" r="35" fill="#E5EBF0"/>
<g clip-path="url(#clip0_967_418)">
<path d="M43.0941 44.7943C43.0941 44.8564 43.0941 47.3392 43.0941 47.4013V48.3324H20.4431V19.5933C20.4431 18.7864 20.7569 17.9794 21.3843 17.3587C22.0118 16.738 22.7647 16.4276 23.6431 16.4276H39.9569C40.7726 16.4276 41.5882 16.738 42.2157 17.3587C42.8431 17.9794 43.1569 18.7243 43.1569 19.5933V23.1934H44.6V19.5933C44.6 18.3519 44.098 17.2346 43.2196 16.3656C42.3412 15.4966 41.149 15 39.8941 15H23.5804C22.3255 15 21.1961 15.4966 20.3176 16.3656C19.502 17.1725 19 18.3519 19 19.5933V50.9394C19 52.1808 19.502 53.2981 20.3804 54.1671C21.2588 55.0361 22.3882 55.5327 23.6431 55.5327H39.9569C41.2118 55.5327 42.3412 55.0361 43.2196 54.1671C44.098 53.2981 44.6 52.1808 44.6 50.9394V47.4013C44.6 47.3392 44.6 44.7943 44.6 44.7943H43.0941ZM30.1059 53.6084C30.2941 53.7947 30.5451 53.9188 30.7333 54.0429H23.6431C22.8275 54.0429 22.0118 53.7326 21.3843 53.1119C20.7569 52.4912 20.4431 51.7463 20.4431 50.8773V49.76H30.7961C30.5451 49.8842 30.2941 50.0083 30.1059 50.2566C29.6667 50.6911 29.4157 51.3118 29.4157 51.9325C29.4157 52.5532 29.6039 53.174 30.1059 53.6084ZM31.8 52.8636C31.4235 52.8636 31.0471 52.6153 30.9216 52.3049C30.7961 51.9325 30.8588 51.5601 31.1098 51.3118C31.298 51.1256 31.549 51.0635 31.8 51.0635C31.9255 51.0635 32.051 51.0635 32.1765 51.1256C32.5529 51.2497 32.7412 51.6222 32.7412 51.9946C32.6784 52.4291 32.302 52.8636 31.8 52.8636ZM43.0941 50.9394C43.0941 51.7463 42.7804 52.5532 42.1529 53.1739C41.5255 53.7947 40.7725 54.105 39.8941 54.105H32.8039C33.0549 53.9809 33.2431 53.8567 33.4314 53.6705C33.8706 53.236 34.1216 52.6153 34.1216 51.9946C34.1216 51.3739 33.8706 50.7532 33.4314 50.3187C33.2431 50.1324 32.9922 49.9462 32.7412 49.8221H43.0941V50.9394Z" fill="#13273F"/>
<path d="M37.5099 34.5526C36.3804 34.1181 35.8157 33.5594 35.9412 32.9387C36.0667 32.3801 36.6314 31.8835 37.1961 31.9456C38.3255 31.9456 38.5765 32.6283 38.5765 32.6283C38.702 33.0008 39.0785 33.2491 39.4549 33.1249C39.8314 33.0008 40.0824 32.6283 39.9569 32.2559C39.9569 32.1938 39.5804 30.8903 37.9491 30.58V29.8351C37.9491 29.6489 37.8863 29.4627 37.7608 29.3386C37.5099 29.0282 37.0079 29.0903 36.6942 29.3386C36.5687 29.4627 36.5059 29.6489 36.5059 29.8351V30.6421C35.502 30.8903 34.6863 31.7593 34.4981 32.6904C34.3726 33.3111 34.3726 34.925 36.9451 35.9181C38.0746 36.3526 38.6393 36.9113 38.5138 37.532C38.3883 38.0906 37.8236 38.5251 37.2589 38.5251C36.1295 38.5251 35.9412 37.9044 35.8785 37.8423C35.8157 37.6561 35.753 37.4699 35.5648 37.3458C35.3765 37.2216 35.1883 37.2216 35 37.2837C34.8118 37.3458 34.6236 37.4699 34.5608 37.5941C34.4353 37.7803 34.4353 37.9665 34.4981 38.1527C34.4981 38.2148 34.8746 39.5183 36.5059 39.8286V40.5735C36.5059 40.7597 36.5687 40.9459 36.6942 41.0701C36.8197 41.1942 37.0079 41.3183 37.1961 41.3183C37.3844 41.3183 37.5726 41.2563 37.6981 41.0701C37.8236 40.8838 37.8863 40.7597 37.8863 40.5735V39.7666C38.8902 39.5183 39.7059 38.6493 39.8942 37.7182C40.0824 37.1596 40.1451 35.5457 37.5099 34.5526Z" fill="#13273F"/>
<path d="M50.749 22.6347C50.6235 22.5106 50.4353 22.4485 50.2471 22.4485H28.851C28.1608 22.4485 27.4706 22.6968 27.0314 23.1933C26.5294 23.6899 26.2784 24.3727 26.2784 25.0555V42.3114C26.2784 43.1804 26.5922 43.9873 27.2196 44.608C27.8471 45.2287 28.6628 45.5391 29.5412 45.5391H47.1726C47.8 45.5391 48.302 45.0425 48.302 44.4218V42.6838H50.3098C50.6863 42.6838 51.0628 42.3734 51.0628 41.9389V23.1313C51 22.9451 50.9373 22.7588 50.749 22.6347ZM47.1098 26.1728H28.851C28.4118 26.1728 28.0353 25.9245 27.8471 25.6141C27.6588 25.2417 27.6588 24.8072 27.8471 24.4348C28.0353 24.0623 28.4745 23.8761 28.851 23.8761H49.5569V41.1941H48.302V27.2901C48.2392 26.6693 47.7373 26.1728 47.1098 26.1728ZM46.7961 37.0974H43.9726C43.5333 37.0974 43.1569 36.8491 42.9686 36.4766C42.7804 36.1042 42.7804 35.6697 42.9686 35.2973C43.1569 34.9249 43.5961 34.6766 43.9726 34.6766H46.7961V37.0974ZM41.7137 34.6145C41.2745 35.4214 41.2745 36.4146 41.7137 37.2215C42.153 38.0284 43.0314 38.525 43.9726 38.525H46.7961V44.0494H29.4784C28.9765 44.0494 28.5373 43.8631 28.2235 43.5528C27.9098 43.2424 27.7216 42.7459 27.7216 42.3114V27.2901C28.098 27.4763 28.4745 27.5383 28.851 27.5383H46.8588V33.2489H44.0353C43.0314 33.311 42.2157 33.8076 41.7137 34.6145Z" fill="#13273F"/>
</g>
<defs>
<clipPath id="clip0_967_418">
<rect width="32" height="40.4706" fill="white" transform="translate(19 15)"/>
</clipPath>
</defs>
</svg>
