<svg width="70" height="70" viewBox="0 0 70 70" fill="none" xmlns="http://www.w3.org/2000/svg">
<circle cx="35" cy="35" r="35" fill="#2CD19E" fill-opacity="0.18"/>
<g clip-path="url(#clip0_967_420)">
<path d="M54.7124 23.2507L52.4194 18.082V17.5806C52.4194 16.1576 51.2617 15 49.8387 15H20.1613C18.7382 15 17.5806 16.1576 17.5806 17.5806V18.0894L15.2876 23.2507C15.0959 23.6783 15 24.1281 15 24.6C15 26.1705 16.106 27.4903 17.5806 27.8221V43.3871H22.7419V51.7779C22.7419 53.5548 24.1871 55.0074 25.9714 55.0074H44.0359C45.8129 55.0074 47.2654 53.5622 47.2654 51.7779V43.3871H52.4267V27.8147C53.9014 27.4829 55.0074 26.1705 55.0074 24.5926C55 24.1281 54.9041 23.6783 54.7124 23.2507ZM20.1613 16.2903H49.8387C50.5539 16.2903 51.129 16.8654 51.129 17.5806H18.871C18.871 16.8654 19.4461 16.2903 20.1613 16.2903ZM47.9069 24.7401C47.8774 25.7797 47.0221 26.6129 45.9677 26.6129H45.6286C44.8912 26.6129 44.2276 26.2 43.8959 25.5438L43.365 24.4747L42.812 18.871H46.7346L47.9069 24.7401ZM42.0968 24.7253C42.0968 25.765 41.2488 26.6129 40.2092 26.6129C39.3392 26.6129 38.5871 26.023 38.3733 25.1825L38.2258 24.6V18.871H41.5143L42.0968 24.7253ZM36.9355 18.871V24.6811C36.9355 25.7502 36.0654 26.6203 34.9963 26.6203C33.9272 26.6203 33.0571 25.7502 33.0571 24.6811V18.871H36.9355ZM31.7742 18.871V24.6L31.6267 25.1825C31.4129 26.023 30.6608 26.6129 29.7908 26.6129C28.7512 26.6129 27.9032 25.765 27.8959 24.7401L28.4857 18.871H31.7742ZM27.188 18.871L26.6276 24.4968L26.1041 25.5438C25.7724 26.2074 25.1088 26.6129 24.3714 26.6129H24.0323C22.9631 26.6129 22.0931 25.7429 22.0931 24.6737H22.0783L23.2654 18.8636H27.188V18.871ZM18.3032 26.6129C17.1899 26.6129 16.2903 25.706 16.2903 24.6C16.2903 24.3124 16.3493 24.0396 16.4673 23.7816L18.6498 18.871H21.9604L20.8249 24.5189L20.6848 25.0866C20.4636 25.9862 19.6525 26.6129 18.7309 26.6129H18.3032ZM45.9677 51.7779C45.9677 52.847 45.0977 53.717 44.0286 53.717H25.9641C24.8949 53.717 24.0249 52.847 24.0249 51.7779V38.2258H45.9677V51.7779ZM41.5806 35.0037L44.4857 36.9429H25.5143L28.4194 35.0037L25.5143 33.0645H44.4783L41.5806 35.0037ZM45.9677 33.6249V36.3751L43.9032 34.9963L45.9677 33.6249ZM26.0968 35.0037L24.0323 36.3825V33.6323L26.0968 35.0037ZM51.129 42.0968H47.2581V31.7742H22.7419V42.0968H18.871V27.8885C19.9032 27.8442 20.8175 27.3281 21.4 26.5318C21.9825 27.3576 22.941 27.9032 24.0323 27.9032H24.3714C25.4922 27.9032 26.5097 27.3281 27.0995 26.3917C27.6599 27.2986 28.6553 27.9032 29.7982 27.9032C30.8599 27.9032 31.8111 27.3797 32.3935 26.5539C32.9834 27.365 33.9272 27.9032 35.0037 27.9032C36.0802 27.9032 37.0313 27.365 37.6138 26.5539C38.1963 27.3797 39.1475 27.9032 40.2092 27.9032C41.3521 27.9032 42.3401 27.2912 42.9078 26.3917C43.4977 27.3281 44.5078 27.9032 45.6359 27.9032H45.9751C47.0664 27.9032 48.0249 27.3576 48.6074 26.5318C49.1899 27.3355 50.1041 27.8442 51.1364 27.8885V42.0968H51.129ZM51.6968 26.6129H51.2765C50.3475 26.6129 49.5438 25.9862 49.3226 25.0866L48.0544 18.871H51.3576L53.5401 23.7816C53.6581 24.0396 53.717 24.3198 53.717 24.6C53.7097 25.706 52.8028 26.6129 51.6968 26.6129Z" fill="#2CD19E"/>
<path d="M30.4839 44.0286C30.4839 46.5207 32.5115 48.5484 35.0037 48.5484C37.4958 48.5484 39.5235 46.5207 39.5235 44.0286V40.8064H40.8064V39.5161H36.9355V40.8064H38.2258V44.0359C38.2258 45.8129 36.7806 47.2654 34.9963 47.2654C33.212 47.2654 31.7668 45.8203 31.7668 44.0359V40.8064H33.0645V39.5161H29.1935V40.8064H30.4839V44.0286Z" fill="#2CD19E"/>
</g>
<defs>
<clipPath id="clip0_967_420">
<rect width="40" height="40" fill="white" transform="translate(15 15)"/>
</clipPath>
</defs>
</svg>
