<svg width="70" height="70" viewBox="0 0 70 70" fill="none" xmlns="http://www.w3.org/2000/svg">
<circle cx="35" cy="35" r="35" fill="#38B6FF" fill-opacity="0.18"/>
<g clip-path="url(#clip0_1116_2138)">
<path d="M51.1744 18H19.441C18.0849 18 17 19.082 17 20.4345V50.0271C17 51.3795 18.0849 52.4615 19.441 52.4615H51.1744C52.5305 52.4615 53.6154 51.3795 53.6154 50.0271V20.4345C53.6154 19.082 52.5305 18 51.1744 18ZM52.2593 50.0271C52.2593 50.6222 51.7711 51.109 51.1744 51.109H19.441C18.8443 51.109 18.3561 50.6222 18.3561 50.0271V25.1412C18.4104 25.1412 18.5189 25.1953 18.5731 25.1953H52.2593V50.0271ZM52.2593 23.8428H18.5731C18.5189 23.8428 18.4104 23.8428 18.3561 23.8969V20.4345C18.3561 19.8394 18.8443 19.3525 19.441 19.3525H51.1744C51.7711 19.3525 52.2593 19.8394 52.2593 20.4345V23.8428Z" fill="#38B6FF"/>
<path d="M21.882 22.7609C22.4512 22.7609 22.9126 22.3007 22.9126 21.733C22.9126 21.1653 22.4512 20.7051 21.882 20.7051C21.3128 20.7051 20.8513 21.1653 20.8513 21.733C20.8513 22.3007 21.3128 22.7609 21.882 22.7609Z" fill="#38B6FF"/>
<path d="M24.8655 22.7609C25.4347 22.7609 25.8961 22.3007 25.8961 21.733C25.8961 21.1653 25.4347 20.7051 24.8655 20.7051C24.2963 20.7051 23.8348 21.1653 23.8348 21.733C23.8348 22.3007 24.2963 22.7609 24.8655 22.7609Z" fill="#38B6FF"/>
<path d="M27.8489 22.7609C28.4181 22.7609 28.8795 22.3007 28.8795 21.733C28.8795 21.1653 28.4181 20.7051 27.8489 20.7051C27.2797 20.7051 26.8182 21.1653 26.8182 21.733C26.8182 22.3007 27.2797 22.7609 27.8489 22.7609Z" fill="#38B6FF"/>
<path d="M49.1132 21.0295H40.3797C40 21.0295 39.6746 21.3541 39.6746 21.7328C39.6746 22.1115 40 22.4361 40.3797 22.4361H49.1132C49.4929 22.4361 49.8184 22.1115 49.8184 21.7328C49.8184 21.3541 49.4929 21.0295 49.1132 21.0295Z" fill="#38B6FF"/>
<path d="M23.8349 29.7397H28.2288L31.1038 40.0728H28.3915C27.3066 40.0728 26.3845 40.9924 26.3845 42.0744C26.3845 43.1564 27.3066 44.0761 28.3915 44.0761H32.0259C31.0495 44.4007 30.3443 45.3204 30.3443 46.4024C30.3443 47.7549 31.4835 48.891 32.8396 48.891C34.1957 48.891 35.3349 47.7549 35.3349 46.4024C35.3349 45.3204 34.6297 44.4007 33.6533 44.0761H38.9693C37.9929 44.4007 37.2877 45.3204 37.2877 46.4024C37.2877 47.7549 38.4269 48.891 39.783 48.891C41.1391 48.891 42.2782 47.7549 42.2782 46.4024C42.2782 45.3204 41.5731 44.4007 40.5967 44.0761H44.5023C44.882 44.0761 45.2075 43.7515 45.2075 43.3728C45.2075 42.9941 44.882 42.6695 44.5023 42.6695H28.3915C28.0118 42.6695 27.7406 42.399 27.7406 42.0203C27.7406 41.6416 28.0118 41.3711 28.3915 41.3711H31.9717H42.0613C42.3325 41.3711 42.6037 41.2088 42.7122 40.8842L45.6414 31.9578C45.7499 31.5791 45.6957 31.2004 45.4787 30.9299C45.2617 30.6053 44.882 30.443 44.5023 30.443H32.8396C32.4599 30.443 32.1344 30.7676 32.1344 31.1463C32.1344 31.525 32.4599 31.8496 32.8396 31.8496H44.2311L41.5188 40.0728H32.4599L29.4764 29.2528C29.3137 28.7659 28.8797 28.3872 28.3373 28.3872H23.8349C23.4552 28.3872 23.1298 28.7118 23.1298 29.0905C23.1298 29.4692 23.4552 29.7397 23.8349 29.7397ZM39.8372 45.2663C40.4882 45.2663 40.9764 45.7532 40.9764 46.4024C40.9764 47.0516 40.4882 47.5385 39.8372 47.5385C39.1863 47.5385 38.6981 47.0516 38.6981 46.4024C38.6981 45.7532 39.1863 45.2663 39.8372 45.2663ZM32.8396 45.2663C33.4906 45.2663 33.9788 45.7532 33.9788 46.4024C33.9788 47.0516 33.4906 47.5385 32.8396 47.5385C32.1887 47.5385 31.7005 47.0516 31.7005 46.4024C31.7005 45.7532 32.2429 45.2663 32.8396 45.2663Z" fill="#38B6FF"/>
</g>
<defs>
<clipPath id="clip0_1116_2138">
<rect width="36.6154" height="34.4615" fill="white" transform="translate(17 18)"/>
</clipPath>
</defs>
</svg>
