<svg width="70" height="70" viewBox="0 0 70 70" fill="none" xmlns="http://www.w3.org/2000/svg">
<circle cx="35" cy="35" r="35" fill="#FFCE00" fill-opacity="0.17"/>
<g clip-path="url(#clip0_967_419)">
<path d="M27.0577 24.2959C27.7308 24.0237 28.2693 23.5474 28.6058 22.8669C28.9424 22.1864 28.9424 21.4379 28.6731 20.7574C28.4039 20.0769 27.9327 19.5326 27.2597 19.1923C25.9135 18.5799 24.2981 19.1243 23.625 20.5533C23.2885 21.2338 23.2885 21.9823 23.5577 22.6628C23.827 23.3432 24.2981 23.8876 24.9712 24.2279C25.3077 24.432 25.7116 24.5001 26.1154 24.5001C26.452 24.5001 26.7212 24.432 27.0577 24.2959ZM27.327 22.3225C26.9904 23.003 26.1827 23.3432 25.5097 23.003C24.8366 22.6628 24.5 21.8462 24.8366 21.1657C24.9712 20.8255 25.2404 20.5533 25.577 20.4172C25.9135 20.2811 26.3174 20.2811 26.5866 20.4852C26.9231 20.6213 27.1924 20.8935 27.327 21.2338C27.5289 21.574 27.5289 21.9823 27.327 22.3225Z" fill="#FFCE00"/>
<path d="M33.1154 27.1539C33.7884 26.8817 34.3269 26.4054 34.6634 25.7249C35 25.0444 35 24.2959 34.7307 23.6154C34.4615 22.9349 33.9904 22.3905 33.3173 22.0503C32.6442 21.71 31.9038 21.71 31.2307 21.9822C30.5577 22.2544 30.0192 22.7308 29.6827 23.4112C29.3461 24.0917 29.3461 24.8403 29.6154 25.5207C29.8846 26.2012 30.3557 26.7456 31.0288 27.0858C31.3654 27.29 31.7692 27.358 32.173 27.358C32.4423 27.358 32.7788 27.29 33.1154 27.1539ZM30.8942 23.9556C31.0288 23.6154 31.298 23.3432 31.6346 23.2071C31.9711 23.071 32.375 23.071 32.7115 23.2751C33.048 23.4112 33.3173 23.6834 33.4519 24.0237C33.5865 24.3639 33.5865 24.7042 33.4519 24.9763H33.3846V25.1124C33.048 25.7929 32.2404 26.0651 31.5673 25.7249C30.8942 25.5207 30.5577 24.7042 30.8942 23.9556Z" fill="#FFCE00"/>
<path d="M37.0193 29.8759C37.3558 30.08 37.7596 30.1481 38.1635 30.1481C38.5 30.1481 38.7693 30.08 39.1058 30.012C39.7789 29.7398 40.25 29.3315 40.5866 28.651H40.6539V28.5149C41.2596 27.154 40.6539 25.5208 39.3077 24.9084C37.9616 24.296 36.3462 24.8403 35.6731 26.2693C35.0673 27.6303 35.6731 29.2635 37.0193 29.8759ZM36.952 26.8137C37.2885 26.1332 38.0962 25.793 38.7693 26.1332C39.4423 26.4735 39.7789 27.2901 39.4423 27.9705C39.3077 28.3108 39.0385 28.583 38.702 28.7191C38.3654 28.8552 37.9616 28.8552 37.625 28.651C37.2885 28.5149 37.0193 28.2427 36.8846 27.9025C36.75 27.5623 36.8173 27.154 36.952 26.8137Z" fill="#FFCE00"/>
<path d="M23.0193 28.5148C21.6732 27.9024 20.0578 28.4468 19.3847 29.8758C19.0482 30.5563 19.0482 31.3048 19.3174 31.9853C19.5866 32.6658 20.0578 33.2101 20.7308 33.5504C21.0674 33.7545 21.4712 33.8226 21.8751 33.8226C22.2116 33.8226 22.4808 33.7545 22.8174 33.6865C23.4905 33.4143 23.9616 33.006 24.2982 32.3255H24.3655V32.1894C24.9712 30.7604 24.3655 29.1273 23.0193 28.5148ZM23.0866 31.577C22.952 31.9172 22.6828 32.1894 22.3462 32.3255C22.0097 32.4616 21.6058 32.4616 21.2693 32.2575C20.9328 32.1214 20.6635 31.8492 20.5289 31.5089C20.3943 31.1687 20.3943 30.7604 20.5962 30.4202C20.7982 29.9438 21.3366 29.6036 21.8078 29.6036C22.0097 29.6036 22.2116 29.6716 22.4135 29.7397C23.0866 30.0799 23.4232 30.8965 23.0866 31.577Z" fill="#FFCE00"/>
<path d="M29.0097 31.3047C28.3366 30.9644 27.5962 30.9644 26.9231 31.2366C26.25 31.5088 25.7116 31.9852 25.375 32.6656C24.7693 34.0266 25.3077 35.6598 26.7212 36.3402C27.0577 36.5444 27.4616 36.6124 27.8654 36.6124C28.202 36.6124 28.4712 36.5444 28.8077 36.4763C29.4808 36.2041 30.0193 35.7278 30.3558 35.0473C30.6923 34.3668 30.6923 33.6183 30.4231 32.9378C30.2212 32.1893 29.6827 31.6449 29.0097 31.3047ZM26.6539 33.21C26.7885 32.8698 27.0577 32.5976 27.3943 32.4615C27.5289 32.3934 27.7308 32.3934 27.8654 32.3934C28.0673 32.3934 28.2693 32.4615 28.4712 32.5295C28.8077 32.6656 29.077 32.9378 29.2116 33.2781C29.3462 33.6183 29.3462 34.0266 29.1443 34.2988C28.8077 34.9793 28 35.3195 27.327 34.9793C26.9904 34.8432 26.7212 34.571 26.5866 34.2307C26.452 33.9586 26.5193 33.5503 26.6539 33.21Z" fill="#FFCE00"/>
<path d="M53.3114 31.8543H42.8787L45.8402 25.4578V25.3897C46.446 24.0288 45.8402 22.4637 44.4941 21.8513L26.2537 13.2772C25.5806 13.005 24.9075 12.937 24.2345 13.2092C23.5614 13.4814 23.0229 13.9577 22.7537 14.6382L14.2729 33.0111C13.6672 34.3721 14.2056 36.0052 15.5518 36.6177L30.5614 43.6266V54.8545C30.5614 56.3516 31.7729 57.5764 33.2537 57.5764H53.3114C54.7922 57.5764 56.0037 56.3516 56.0037 54.8545V34.5082C56.0037 33.0111 54.7922 31.8543 53.3114 31.8543ZM31.9075 34.5082C31.9075 33.7596 32.5133 33.1472 33.2537 33.1472H53.3114C54.0518 33.1472 54.6575 33.7596 54.6575 34.5082V54.7865C54.6575 55.535 54.0518 56.1474 53.3114 56.1474H33.2537C32.5133 56.1474 31.9075 55.535 31.9075 54.7865V34.5082ZM30.5614 34.5082V42.0615L16.0902 35.2567C15.4172 34.9165 15.1479 34.1679 15.4172 33.4875L23.9652 15.1826C24.0998 14.8423 24.3691 14.6382 24.7056 14.5021C25.0422 14.366 25.3787 14.366 25.7152 14.5701L43.9556 23.1442C44.6287 23.4844 44.8979 24.2329 44.6287 24.9134L41.3979 31.9223H33.321C31.7729 31.8543 30.5614 33.0111 30.5614 34.5082Z" fill="#FFCE00"/>
<path d="M36.6154 40.6954C38.0962 40.6954 39.3751 39.4705 39.3751 37.9054C39.3751 36.4084 38.1635 35.1155 36.6154 35.1155C35.1347 35.1155 33.8558 36.3403 33.8558 37.9054C33.9231 39.4705 35.1347 40.6954 36.6154 40.6954ZM35.2693 37.9735C35.2693 37.225 35.8751 36.6125 36.6154 36.6125C37.3558 36.6125 37.9616 37.225 37.9616 37.9735C37.9616 38.722 37.3558 39.3345 36.6154 39.3345C35.8751 39.3345 35.2693 38.722 35.2693 37.9735Z" fill="#FFCE00"/>
<path d="M49.9423 40.6954C51.4231 40.6954 52.702 39.4705 52.702 37.9054C52.702 36.4084 51.4904 35.1155 49.9423 35.1155C48.4616 35.1155 47.1827 36.3403 47.1827 37.9054C47.25 39.4705 48.4616 40.6954 49.9423 40.6954ZM48.5962 37.9735C48.5962 37.225 49.202 36.6125 49.9423 36.6125C50.6827 36.6125 51.2885 37.225 51.2885 37.9735C51.2885 38.722 50.6827 39.3345 49.9423 39.3345C49.202 39.3345 48.5962 38.722 48.5962 37.9735Z" fill="#FFCE00"/>
<path d="M36.6154 54.1688C38.0962 54.1688 39.3751 52.9439 39.3751 51.3788C39.3751 49.8818 38.1635 48.5889 36.6154 48.5889C35.1347 48.5889 33.8558 49.8137 33.8558 51.3788C33.9231 52.9439 35.1347 54.1688 36.6154 54.1688ZM35.2693 51.4469C35.2693 50.6984 35.8751 50.0859 36.6154 50.0859C37.3558 50.0859 37.9616 50.6984 37.9616 51.4469C37.9616 52.1954 37.3558 52.8078 36.6154 52.8078C35.8751 52.8078 35.2693 52.1954 35.2693 51.4469Z" fill="#FFCE00"/>
<path d="M49.9423 54.1688C51.4231 54.1688 52.702 52.9439 52.702 51.3788C52.702 49.8818 51.4904 48.5889 49.9423 48.5889C48.4616 48.5889 47.1827 49.8137 47.1827 51.3788C47.25 52.9439 48.4616 54.1688 49.9423 54.1688ZM48.5962 51.4469C48.5962 50.6984 49.202 50.0859 49.9423 50.0859C50.6827 50.0859 51.2885 50.6984 51.2885 51.4469C51.2885 52.1954 50.6827 52.8078 49.9423 52.8078C49.202 52.8078 48.5962 52.1954 48.5962 51.4469Z" fill="#FFCE00"/>
<path d="M43.2789 47.4322C44.7597 47.4322 46.0385 46.2074 46.0385 44.6423C46.0385 43.1452 44.827 41.8523 43.2789 41.8523C41.7981 41.8523 40.5193 43.0772 40.5193 44.6423C40.5866 46.2074 41.7981 47.4322 43.2789 47.4322ZM41.9327 44.7103C41.9327 43.9618 42.5385 43.3493 43.2789 43.3493C44.0193 43.3493 44.6251 43.9618 44.6251 44.7103C44.6251 45.4588 44.0193 46.0713 43.2789 46.0713C42.5385 46.0713 41.9327 45.4588 41.9327 44.7103Z" fill="#FFCE00"/>
</g>
<defs>
<clipPath id="clip0_967_419">
<rect width="42" height="44.5714" fill="white" transform="translate(14 13)"/>
</clipPath>
</defs>
</svg>
