<svg width="70" height="70" viewBox="0 0 70 70" fill="none" xmlns="http://www.w3.org/2000/svg">
<circle cx="35" cy="35" r="35" fill="#EF6355" fill-opacity="0.18"/>
<path d="M28.0139 36.2222C33.5836 36.2222 38.0752 31.7083 38.0752 26.1111C38.0752 20.5139 33.5836 16 28.0139 16C22.5042 16 17.9526 20.5139 17.9526 26.1111C17.9526 31.7083 22.5042 36.2222 28.0139 36.2222ZM19.4499 26.1111C19.4499 21.3565 23.3426 17.4444 28.0738 17.4444C32.805 17.4444 36.6978 21.3565 36.6978 26.1111C36.6978 30.8657 32.805 34.7778 28.0738 34.7778C23.2827 34.7778 19.4499 30.8657 19.4499 26.1111Z" fill="#EF6355"/>
<path d="M43.046 34.7778C37.4764 34.7778 32.9847 39.2917 32.9847 44.8889C32.9847 50.4862 37.4764 55.0001 43.046 55.0001C48.6157 55.0001 53.1073 50.4862 53.1073 44.8889C53.1073 39.2917 48.6157 34.7778 43.046 34.7778ZM51.67 44.8889C51.67 49.6436 47.7772 53.5556 43.046 53.5556C38.3148 53.5556 34.4221 49.6436 34.4221 44.8889C34.4221 40.1343 38.3148 36.2223 43.046 36.2223C47.8371 36.2223 51.67 40.1343 51.67 44.8889Z" fill="#EF6355"/>
<path d="M25.3189 30.2037C25.4387 30.2639 26.4568 30.7453 27.6546 30.8055V31.7083C27.6546 32.1296 27.954 32.4305 28.3732 32.4305C28.7924 32.4305 29.0919 32.1296 29.0919 31.7083V30.625C29.4512 30.5046 29.7507 30.3842 30.0501 30.1435C30.8286 29.5416 31.188 28.7592 31.0682 27.9166C30.8885 26.7731 29.8105 25.6898 28.3732 25.1481C27.5348 24.8472 27.1754 24.2453 27.1156 23.824C27.1156 23.4629 27.2353 23.2222 27.4749 23.0416C28.2534 22.6203 29.7507 22.9213 30.2298 23.1018C30.5891 23.2222 31.0083 23.0416 31.1281 22.6203C31.188 22.4398 31.188 22.2592 31.0682 22.0787C31.0083 21.8981 30.8286 21.7777 30.649 21.7176C30.5891 21.7176 29.9303 21.4768 29.0919 21.4166V20.4537C29.0919 20.0324 28.7924 19.7314 28.3732 19.7314C27.954 19.7314 27.6546 20.0324 27.6546 20.4537V21.4166C27.3551 21.4768 26.9958 21.5972 26.7562 21.7777C25.9777 22.199 25.5585 23.0416 25.6782 23.9444C25.798 25.0879 26.6364 26.0509 27.8941 26.5324C28.8523 26.8935 29.571 27.5555 29.6908 28.1574C29.7507 28.4583 29.571 28.699 29.2117 29C28.0139 29.9027 26.0376 28.9398 26.0376 28.9398C25.8579 28.8796 25.6782 28.8194 25.4986 28.8796C25.3189 28.9398 25.1392 29.0601 25.0793 29.2407C24.8398 29.6018 24.9596 30.0231 25.3189 30.2037Z" fill="#EF6355"/>
<path d="M55.8621 33.1529L54.1253 35.3797C53.4067 19.3704 38.9735 18.2871 38.8537 18.2871C38.6741 18.2871 38.4944 18.3473 38.3147 18.4677C38.195 18.588 38.0752 18.7686 38.0752 18.9491C38.0752 19.1297 38.1351 19.3103 38.2549 19.4908C38.3746 19.6112 38.5543 19.7316 38.734 19.7316C39.273 19.7917 52.0292 20.7547 52.688 35.5001L50.6518 33.1529L49.5738 34.1158L53.4666 38.6297L57 34.1158L55.8621 33.1529Z" fill="#EF6355"/>
<path d="M32.266 51.75C31.727 51.6898 18.9708 50.6666 18.312 35.9814L20.3482 38.3287L21.4262 37.3657L17.5334 32.8518L14 37.4259L15.1379 38.3287L16.8747 36.1018C17.6532 52.0509 32.0265 53.1944 32.1462 53.1944H32.2061C32.5655 53.1944 32.9248 52.8935 32.9248 52.5324C32.9248 52.3518 32.8649 52.1713 32.7451 51.9907C32.6253 51.8703 32.4457 51.75 32.266 51.75Z" fill="#EF6355"/>
<path d="M44.9624 40.2546V38.5093H43.5251V40.2546H42.6866V38.5093H41.2493V40.2546H39.7521V41.6991H40.1713V47.8982H39.7521V49.3426H41.1894V51.1482H42.6267V49.3426H43.4652V51.1482H44.9025V49.2222C45.7409 48.9815 46.6992 48.4398 46.759 46.9954C46.759 46.213 46.5794 45.4908 46.1602 44.9491C46.6393 44.4676 46.9387 43.7454 46.9387 42.8426C46.9387 40.7361 45.681 40.3148 44.9624 40.2546ZM44.9624 45.6713C45.2019 45.9121 45.3816 46.3935 45.3816 46.875C45.3816 47.3565 45.2618 47.7176 44.0042 47.838H41.6086V45.4908H44.4234H44.603C44.7228 45.4908 44.8426 45.5509 44.9624 45.6713ZM44.4833 44.0463H44.2437H41.5487V41.6389H44.4833C45.0822 41.6389 45.4415 41.6991 45.4415 42.7222C45.4415 43.2037 45.3217 43.625 45.0822 43.8056C45.0223 43.9861 44.7827 44.1065 44.4833 44.0463Z" fill="#EF6355"/>
</svg>
