<svg width="16" height="15" viewBox="0 0 16 15" fill="none" xmlns="http://www.w3.org/2000/svg">
<g clip-path="url(#clip0_2035_768)">
<path d="M15.1113 2.67924H10.6667V0.90156C10.6667 0.665697 10.5731 0.439655 10.4063 0.272988C10.2396 0.106322 10.0135 0.0125732 9.77785 0.0125732H6.22219C5.98647 0.0125732 5.76043 0.106322 5.59377 0.272988C5.42695 0.439655 5.33335 0.665712 5.33335 0.90156V2.67924H0.888774C0.653059 2.67924 0.427021 2.77298 0.260354 2.93965C0.0935388 3.10632 -6.10352e-05 3.33237 -6.10352e-05 3.56822V13.3457C-6.10352e-05 13.5816 0.0935388 13.8076 0.260354 13.9743C0.427021 14.141 0.653078 14.2347 0.888774 14.2347H15.1113C15.347 14.2347 15.573 14.141 15.7397 13.9743C15.9065 13.8076 16.0001 13.5816 16.0001 13.3457V3.56822C16.0001 3.33236 15.9065 3.10632 15.7397 2.93965C15.573 2.77298 15.347 2.67924 15.1113 2.67924H15.1113ZM6.22211 0.90156H9.77761L9.77776 2.67924H6.2221L6.22211 0.90156Z" fill="#8181A5"/>
</g>
<defs>
<clipPath id="clip0_2035_768">
<rect width="16" height="14.2476" fill="white"/>
</clipPath>
</defs>
</svg>
