<svg width="65" height="62" viewBox="0 0 65 62" fill="none" xmlns="http://www.w3.org/2000/svg">
<g clip-path="url(#clip0_1613_644)">
<path d="M23.4293 50.6926C23.186 50.6752 22.9426 50.762 22.7688 50.9354C22.595 51.0915 22.4734 51.3343 22.4734 51.5771L22.0041 61.0635C21.9868 61.3063 22.0737 61.5491 22.2475 61.7225C22.4039 61.8959 22.6472 62.0173 22.8905 62.0173H22.9426C23.4293 62.0173 23.8464 61.6358 23.8638 61.1502L24.333 51.6638C24.3504 51.421 24.2635 51.1782 24.0897 51.0047C23.8985 50.814 23.6726 50.6926 23.4293 50.6926Z" fill="#8181A5"/>
<path d="M41.5739 50.6926C41.3305 50.7099 41.1046 50.814 40.9308 50.9874C40.7744 51.1608 40.6875 51.4036 40.6875 51.6464L41.1567 61.1329C41.1741 61.6185 41.5912 62 42.0779 62H42.13C42.3733 61.9827 42.5993 61.8786 42.7731 61.7052C42.9295 61.5318 43.0164 61.289 43.0164 61.0462L42.5471 51.5597C42.5124 51.0568 42.0779 50.6579 41.5739 50.6926Z" fill="#8181A5"/>
<path d="M41.8166 33.2979C41.7993 33.5407 41.8862 33.7835 42.0599 33.9569C42.2164 34.1303 42.4597 34.2517 42.703 34.2517H42.7551C43.2418 34.2517 43.6415 33.8702 43.6763 33.3846L44.0934 25.1989C44.1107 24.6959 43.7284 24.2624 43.2244 24.245C42.7204 24.2277 42.2859 24.6092 42.2685 25.1122L41.8166 33.2979Z" fill="#8181A5"/>
<path d="M59.5253 24.4532C59.3515 24.2971 59.1082 24.2104 58.8649 24.2104C58.6216 24.2277 58.3956 24.3318 58.2218 24.5052C58.0654 24.6786 57.9785 24.9214 57.9785 25.1642L58.3782 33.3673C58.3956 33.8529 58.8127 34.2344 59.2994 34.2344H59.3515C59.5948 34.2171 59.8208 34.113 59.9946 33.9396C60.151 33.7662 60.2379 33.5234 60.2379 33.2806L59.8381 25.0775C59.8208 24.852 59.7165 24.6266 59.5253 24.4532Z" fill="#8181A5"/>
<path d="M22.9424 33.9569C23.0988 33.7835 23.1857 33.5407 23.1857 33.2979L22.786 25.0948C22.7686 24.5919 22.3341 24.193 21.8301 24.2277C21.3261 24.245 20.9263 24.6786 20.9611 25.1815L21.3608 33.3846C21.3782 33.8702 21.7953 34.2517 22.2819 34.2517H22.3341C22.5426 34.2517 22.786 34.1303 22.9424 33.9569Z" fill="#8181A5"/>
<path d="M6.13494 24.2277C5.89163 24.2103 5.64831 24.2971 5.47452 24.4705C5.30072 24.6266 5.17906 24.8694 5.17906 25.1122L4.76195 33.2979C4.74457 33.5407 4.83147 33.7835 5.00526 33.9569C5.16168 34.1303 5.405 34.2517 5.64831 34.2517H5.70045C6.18708 34.2517 6.58682 33.8702 6.62157 33.3846L7.02131 25.1989C7.03869 24.9561 6.95179 24.7133 6.77799 24.5399C6.6042 24.3491 6.37826 24.2277 6.13494 24.2277Z" fill="#8181A5"/>
<path d="M64.3923 25.5631C64.2359 23.534 63.4191 21.609 62.0808 20.0828C60.7774 18.6087 59.0394 17.5681 57.1276 17.1345C57.1276 17.1345 56.1717 16.9611 54.9725 16.7703C57.7185 15.2269 59.5782 12.3133 59.5782 8.94881C59.5608 4.0235 55.5287 0 50.5755 0C45.6223 0 41.5902 4.0235 41.5902 8.96615C41.5902 12.3827 43.5193 15.3656 46.3522 16.8744C45.518 17.0305 44.9097 17.1519 44.9097 17.1519C42.9806 17.6028 41.2426 18.6434 39.9565 20.1348C38.6183 21.661 37.8188 23.5687 37.6798 25.5978L37.5234 27.5401C36.0461 26.5169 34.2907 25.9793 32.5006 25.9793C30.7105 25.9793 28.9552 26.5169 27.4779 27.5401L27.3215 25.5978C27.1651 23.5687 26.3482 21.6436 25.01 20.1175C23.6718 18.5913 21.8643 17.5334 19.8656 17.1172L18.9097 16.9958H17.9365C20.8736 15.5217 22.8897 12.4867 22.8897 8.9835C22.8897 4.0235 18.8576 0 13.9044 0C8.96855 0 4.93646 4.0235 4.93646 8.96615C4.93646 12.4694 6.95251 15.5043 9.88967 16.9785H9.05545L7.99529 17.0999C6.014 17.5334 4.2239 18.5913 2.88566 20.1175C1.56481 21.6436 0.765342 23.5513 0.608925 25.5631L0.000636703 33.2632C-0.016743 33.506 0.0527757 33.7488 0.226572 33.9396C0.38299 34.1304 0.608925 34.2344 0.852241 34.2518H0.92176C1.40839 34.2518 1.80812 33.8876 1.84288 33.402L2.45117 25.7018C2.57283 24.089 3.1985 22.5628 4.25866 21.3315C5.31882 20.1001 6.74395 19.2504 8.30812 18.9035L11.645 18.4699C13.2439 18.2618 14.8603 18.2618 16.4766 18.4873L19.5354 18.8862C21.1343 19.233 22.5768 20.0828 23.637 21.3141C24.7145 22.5455 25.3576 24.089 25.4792 25.7018L25.7399 29.049C24.0889 30.9913 23.3589 33.5407 23.7239 36.038C24.0889 38.5527 25.5314 40.7726 27.6865 42.16L25.6009 42.4375C23.3415 42.9231 21.2907 44.1371 19.7787 45.8713C18.2667 47.6056 17.3456 49.7908 17.1718 52.0973L16.4592 60.9941C16.4244 61.4971 16.7894 61.948 17.3108 61.9827C17.8148 62.0173 18.2667 61.6531 18.3014 61.1329L19.014 52.2361C19.153 50.3457 19.9004 48.5421 21.1517 47.1027C22.403 45.6632 24.0715 44.6573 25.9311 44.2411L29.5635 43.7555C31.4231 43.5127 33.3175 43.4954 35.1771 43.7382L38.9659 44.2238C40.8429 44.6227 42.5287 45.6285 43.7974 47.068C45.0488 48.5074 45.8135 50.3284 45.9525 52.2361L46.6651 61.1329C46.6998 61.6185 47.0996 61.9827 47.5862 61.9827H47.6557C48.1597 61.948 48.5421 61.4971 48.5073 60.9941L47.7947 52.0973C47.4124 47.3628 44.0234 43.4607 39.2961 42.4201L37.28 42.16C39.4177 40.7899 40.8603 38.5527 41.2426 36.038C41.625 33.5234 40.8776 30.974 39.2439 29.0316L39.5046 25.6845C39.6263 24.0716 40.252 22.5455 41.3121 21.3141C42.3723 20.0828 43.7974 19.233 45.379 18.8862L48.5247 18.4699C50.1236 18.2618 51.7399 18.2445 53.3562 18.4526L56.6236 18.8688C58.2225 19.2157 59.6651 20.0655 60.7252 21.2968C61.8028 22.5281 62.4458 24.0716 62.5675 25.6845L63.1758 33.3846C63.2105 33.8702 63.6102 34.2344 64.0969 34.2344H64.1664C64.4097 34.2171 64.6357 34.0957 64.7921 33.9222C64.9485 33.7315 65.0354 33.4887 65.0006 33.2459L64.3923 25.5631ZM6.84823 8.96615C6.84823 5.06406 10.0113 1.90769 13.9044 1.90769C17.7974 1.90769 20.9779 5.06406 20.9779 8.96615C20.9779 12.8509 17.8148 16.0246 13.9044 16.0246C10.0113 16.0073 6.84823 12.8509 6.84823 8.96615ZM39.5046 34.772C39.5046 36.6277 38.7573 38.3966 37.4538 39.7147C36.133 41.0327 34.3603 41.7611 32.5006 41.7611C30.641 41.7611 28.8683 41.0327 27.5474 39.7147C26.2266 38.3966 25.4966 36.6277 25.4966 34.772C25.4966 32.9164 26.2266 31.1474 27.5474 29.8294C28.8683 28.5113 30.641 27.7829 32.5006 27.7829C34.3603 27.7829 36.133 28.5113 37.4538 29.8294C38.7573 31.1301 39.5046 32.9164 39.5046 34.772ZM43.5193 8.96615C43.5193 5.0814 46.6824 1.90769 50.5929 1.90769C54.4859 1.90769 57.6664 5.06406 57.6664 8.96615C57.6664 12.8509 54.5033 16.0246 50.5929 16.0246C46.6824 16.0073 43.5193 12.8509 43.5193 8.96615Z" fill="#8181A5"/>
</g>
<defs>
<clipPath id="clip0_1613_644">
<rect width="65" height="62" fill="white"/>
</clipPath>
</defs>
</svg>
