<svg width="70" height="70" viewBox="0 0 70 70" fill="none" xmlns="http://www.w3.org/2000/svg">
<path d="M35 70C54.33 70 70 54.33 70 35C70 15.67 54.33 0 35 0C15.67 0 0 15.67 0 35C0 54.33 15.67 70 35 70Z" fill="#2CD19E" fill-opacity="0.17"/>
<path d="M58.6895 39.7529C57.111 37.3578 54.3893 35.8337 51.3956 35.9426C51.9399 34.0375 50.0892 29.6829 47.8575 28.5942C47.2587 28.3221 46.8232 27.7778 46.6599 27.1246C46.4422 25.8182 46.1156 24.7295 45.8435 24.0219C45.5713 23.2054 44.7548 22.6611 43.9383 22.6611H39.6382C38.4407 22.6611 37.5697 23.6409 37.5697 24.7295C37.5697 25.9271 38.5495 26.798 39.6382 26.798H40.8357V40.0795C40.8357 40.5149 40.5091 40.7871 40.1281 40.7871H33.1607C32.8886 40.7871 32.6164 40.5694 32.4531 40.2972L30.9834 36.4869C31.5822 36.1603 32.0721 35.4527 32.0721 34.6907V34.6362C32.0721 33.5476 31.2012 32.5678 30.0036 32.5678H17.5931C16.5044 32.5678 15.5246 33.4387 15.5246 34.6362V34.6907C15.5246 35.3983 15.8512 35.9426 16.3411 36.2692L14.055 44.1619C13.8917 44.5973 14.2727 45.0328 14.7626 45.0328H19.1172C19.4438 47.3734 21.4578 49.2241 23.9617 49.2241C26.4655 49.2241 28.4251 47.3734 28.8061 45.0328H44.1016C44.5371 45.0328 44.8092 44.7606 44.8092 44.3252C44.8092 37.3578 53.8994 34.6907 57.7097 40.5149C57.9274 40.8415 58.3085 40.9504 58.6895 40.7326C58.8528 40.5149 58.9072 40.0795 58.6895 39.7529ZM16.9943 34.6907C16.9943 34.3641 17.2665 33.983 17.7019 33.983H30.2214C30.548 33.983 30.929 34.2552 30.929 34.6907V34.7451C30.929 35.0717 30.6568 35.4527 30.2214 35.4527H17.5931C17.2665 35.4527 16.8854 35.1805 16.8854 34.7451V34.6907H16.9943ZM23.9072 47.8633C22.0021 47.8633 20.3691 46.2847 20.3691 44.3252C20.3691 42.4201 21.9477 40.7871 23.9072 40.7871C25.8124 40.7871 27.4453 42.3656 27.4453 44.3252C27.3909 46.2847 25.8124 47.8633 23.9072 47.8633ZM43.3396 43.672H28.6973C28.3707 41.3314 26.3567 39.4807 23.8528 39.4807C21.3489 39.4807 19.3893 41.3314 19.0627 43.672H15.6335L17.7019 36.9224H29.677L31.2012 40.8959C31.4733 41.7124 32.2898 42.2568 33.1063 42.2568H40.0736C41.2711 42.2568 42.1421 41.277 42.1421 40.1883V26.1448C42.1421 25.7093 41.8699 25.4372 41.4344 25.4372H39.5837C39.1483 25.4372 38.8761 25.1106 38.8761 24.7295C38.8761 24.2941 39.2027 24.0219 39.5837 24.0219H43.8839C44.1561 24.0219 44.4282 24.2396 44.5915 24.5118C44.8092 25.1106 45.1358 26.1448 45.3536 27.3967C45.5713 28.4309 46.2245 29.4107 47.2587 29.9006C48.2929 30.3905 50.198 32.9488 50.0892 35.8337C50.0892 35.997 50.0892 36.1059 50.1436 36.1603C46.4966 36.7591 43.6662 39.8617 43.3396 43.672Z" fill="#2CD19E"/>
<path d="M51.6675 39.4805C49.0003 39.4805 46.7686 41.7122 46.7686 44.3794C46.7686 47.0466 49.0003 49.2783 51.6675 49.2783C54.3346 49.2783 56.5664 47.0466 56.5664 44.3794C56.5664 41.7122 54.4435 39.4805 51.6675 39.4805ZM51.6675 47.8631C49.7623 47.8631 48.1294 46.2845 48.1294 44.3249C48.1294 42.4198 49.7079 40.7868 51.6675 40.7868C53.627 40.7868 55.2056 42.3654 55.2056 44.3249C55.1511 46.2845 53.6815 47.8631 51.6675 47.8631Z" fill="#2CD19E"/>
<path d="M17.1574 31.2613H29.7857C30.5478 31.2613 31.1465 30.6625 31.1465 29.9005V18.3608C31.1465 17.5988 30.5478 17 29.7857 17H17.1574C16.3954 17 15.7422 17.5988 15.7422 18.3608V29.846C15.7422 30.6625 16.3954 31.2613 17.1574 31.2613ZM25.2134 18.3608V20.3748C25.159 20.3748 24.778 20.0482 24.3425 20.2115L23.4716 20.7014C22.764 20.3748 22.3829 19.8849 21.893 20.2115L21.6209 20.3748V18.3608H25.2134ZM17.1574 18.3608H20.3145V21.5179C20.3145 22.0622 20.8588 22.3888 21.3487 22.1166L22.2196 21.6267L23.0906 22.1166C23.3083 22.2799 23.5804 22.2799 23.7982 22.1166L24.6691 21.6267L25.54 22.1166C26.0299 22.3888 26.5742 22.0622 26.5742 21.5179V18.3608H29.7313V29.846H17.0486L17.1574 18.3608Z" fill="#2CD19E"/>
<path d="M52.1037 43.6719H51.3961C50.9606 43.6719 50.6885 43.944 50.6885 44.3795C50.6885 44.815 50.9606 45.0871 51.3961 45.0871H52.1037C52.5392 45.0871 52.8113 44.815 52.8113 44.3795C52.7569 43.944 52.4303 43.6719 52.1037 43.6719Z" fill="#2CD19E"/>
<path d="M24.2336 43.6719H23.526C23.0905 43.6719 22.8184 43.944 22.8184 44.3795C22.8184 44.815 23.0905 45.0871 23.526 45.0871H24.2336C24.6691 45.0871 24.9412 44.815 24.9412 44.3795C24.9412 43.944 24.6691 43.6719 24.2336 43.6719Z" fill="#2CD19E"/>
<path d="M21.6208 50.6392H17.484C17.0485 50.6392 16.7764 50.9113 16.7764 51.3468C16.7764 51.7822 17.0485 52.0544 17.484 52.0544H21.6208C22.0563 52.0544 22.3285 51.7822 22.3285 51.3468C22.3285 50.9113 22.0019 50.6392 21.6208 50.6392Z" fill="#2CD19E"/>
<path d="M32.8337 50.6392H28.6969C28.2614 50.6392 27.9893 50.9113 27.9893 51.3468C27.9893 51.7822 28.2614 52.0544 28.6969 52.0544H32.8337C33.2692 52.0544 33.5414 51.7822 33.5414 51.3468C33.5414 50.9113 33.2692 50.6392 32.8337 50.6392Z" fill="#2CD19E"/>
<path d="M44.156 50.6392H40.0191C39.5837 50.6392 39.3115 50.9113 39.3115 51.3468C39.3115 51.7822 39.5837 52.0544 40.0191 52.0544H44.156C44.5915 52.0544 44.8636 51.7822 44.8636 51.3468C44.8636 50.9113 44.4826 50.6392 44.156 50.6392Z" fill="#2CD19E"/>
<path d="M55.3689 50.6392H51.232C50.7966 50.6392 50.5244 50.9113 50.5244 51.3468C50.5244 51.7822 50.7966 52.0544 51.232 52.0544H55.3689C55.8043 52.0544 56.0765 51.7822 56.0765 51.3468C56.0765 50.9113 55.8043 50.6392 55.3689 50.6392Z" fill="#2CD19E"/>
</svg>
