<svg width="16" height="17" viewBox="0 0 16 17" fill="none" xmlns="http://www.w3.org/2000/svg">
<g clip-path="url(#clip0_2035_765)">
<path d="M7.65747 -0.0106812C3.42338 -0.0106812 -0.00918579 3.45477 -0.00918579 7.72975C-0.00918579 12.0044 3.42338 15.4702 7.65747 15.4702C8.79753 15.4702 9.87846 15.2168 10.8508 14.7666L10.8452 14.7709L15.3241 16.2697L13.818 12.3375L13.8164 12.3388C14.7632 11.0511 15.3241 9.45676 15.3241 7.72977C15.3241 3.45479 11.8918 -0.0106641 7.65749 -0.0106641L7.65747 -0.0106812ZM7.57175 11.8331C7.05274 11.8331 6.70271 11.5516 6.70271 11.1491C6.70271 10.7465 7.05273 10.4747 7.57175 10.4747C8.09044 10.4747 8.45373 10.7465 8.45373 11.1491C8.45342 11.5516 8.09045 11.8331 7.57175 11.8331ZM8.32389 9.53915V9.80067C8.32389 9.91119 8.23292 9.97159 8.09045 9.97159H7.04007C6.8976 9.97159 6.80663 9.91119 6.80663 9.80067V9.54911C6.80663 7.64718 8.42778 7.54692 8.42778 6.3694C8.42778 5.98707 8.20728 5.65519 7.66269 5.65519C7.16989 5.65519 6.91054 5.94692 6.85839 6.44007C6.85839 6.56056 6.76772 6.62096 6.62525 6.62096H5.61348C5.4707 6.62096 5.38004 6.56056 5.39299 6.44007C5.4707 5.30304 6.35265 4.56835 7.61057 4.56835C8.98534 4.56835 9.91879 5.26263 9.91879 6.29908C9.9191 7.93919 8.32385 8.12044 8.32385 9.53914L8.32389 9.53915Z" fill="#fff"/>
</g>
</svg>
