<svg width="65" height="65" viewBox="0 0 65 65" fill="none" xmlns="http://www.w3.org/2000/svg">
<path d="M32.5 64.5C50.1731 64.5 64.5 50.1731 64.5 32.5C64.5 14.8269 50.1731 0.5 32.5 0.5C14.8269 0.5 0.5 14.8269 0.5 32.5C0.5 50.1731 14.8269 64.5 32.5 64.5Z" stroke="#DBE3EB"/>
<path d="M33 17C24.1724 17 17 24.1724 17 33C17 41.8276 24.1724 49 33 49C41.8276 49 49 41.8276 49 33C49 24.1724 41.8276 17 33 17ZM33.8276 38.8851V39.8046C33.8276 40.2644 33.4598 40.6322 33 40.6322C32.5402 40.6322 32.1724 40.2644 32.1724 39.8046V38.8851C31.3448 38.7011 30.5172 38.4253 29.8736 37.8736C29.5057 37.5977 29.5057 37.046 29.7816 36.6782C30.0575 36.3103 30.6092 36.3103 30.977 36.5862C31.4368 37.046 32.1724 37.2299 33 37.2299C34.3793 37.2299 35.5747 36.4943 35.5747 35.5747C35.5747 34.6552 34.3793 33.9195 33 33.9195C30.7011 33.9195 28.7701 32.3563 28.7701 30.5172C28.7701 28.8621 30.2414 27.4828 32.1724 27.2069V26.2874C32.1724 25.8276 32.5402 25.4598 33 25.4598C33.4598 25.4598 33.8276 25.8276 33.8276 26.2874V27.2069C34.6552 27.3908 35.4828 27.6667 36.1264 28.2184C36.4943 28.4943 36.4943 29.046 36.2184 29.4138C35.9425 29.7816 35.3908 29.7816 35.023 29.5057C34.5632 29.046 33.8276 28.8621 33 28.8621C31.6207 28.8621 30.4253 29.5977 30.4253 30.5172C30.4253 31.4368 31.6207 32.1724 33 32.1724C35.2989 32.1724 37.2299 33.7356 37.2299 35.5747C37.2299 37.2299 35.7586 38.6092 33.8276 38.8851Z" fill="#FFCE00"/>
</svg>
