<svg width="16" height="16" viewBox="0 0 16 16" fill="none" xmlns="http://www.w3.org/2000/svg">
<g clip-path="url(#clip0_2035_770)">
<path d="M5.33331 7.21247H6.12251C6.16689 6.55342 6.29615 5.98971 6.51029 5.52133C6.72442 5.05295 7.00535 4.67491 7.35307 4.3872C7.70804 4.09461 8.11761 3.87932 8.55667 3.75452C9.03574 3.61824 9.53103 3.55112 10.0282 3.5551V5.56871C9.80515 5.57091 9.58305 5.59904 9.36617 5.65257C9.13377 5.70636 8.9121 5.80056 8.71078 5.93108C8.50969 6.06139 8.33856 6.23479 8.20917 6.43934C8.07603 6.64819 8.00469 6.91056 7.99515 7.22644L9.82751 7.21247L9.80088 9.07541H7.99615V13.4592H6.02898L6.04229 9.08939H5.33331V7.21247Z" fill="white"/>
</g>
</svg>
