<svg width="70" height="70" viewBox="0 0 70 70" fill="none" xmlns="http://www.w3.org/2000/svg">
<path d="M35 70C54.33 70 70 54.33 70 35C70 15.67 54.33 0 35 0C15.67 0 0 15.67 0 35C0 54.33 15.67 70 35 70Z" fill="#2CD19E" fill-opacity="0.17"/>
<path d="M54.731 20H18.181C16.398 20 14.912 21.486 14.912 23.269V38.721C13.07 40.801 12 43.475 12 46.447C12 52.925 17.289 58.155 23.708 58.155C29.592 58.155 34.465 53.817 35.297 48.171H54.731C56.574 48.171 58 46.685 58 44.902V23.269C58 21.486 56.574 20 54.731 20ZM23.708 56.729C18.003 56.729 13.426 52.093 13.426 46.447C13.426 40.742 18.062 36.165 23.708 36.165C29.354 36.165 33.99 40.801 33.99 46.447C34.049 52.093 29.413 56.729 23.708 56.729ZM56.574 44.902C56.574 45.912 55.742 46.744 54.731 46.744H35.475C35.475 46.625 35.475 46.506 35.475 46.388C35.475 39.91 30.186 34.68 23.767 34.68C20.974 34.68 18.359 35.69 16.339 37.354V23.269C16.339 22.258 17.171 21.426 18.181 21.426H54.731C55.742 21.426 56.574 22.258 56.574 23.269V44.902Z" fill="#2CD19E"/>
<path d="M47.837 35.452C47.124 35.452 46.471 35.631 45.876 35.868C45.282 35.571 44.628 35.452 43.915 35.452C41.359 35.452 39.2791 37.532 39.2791 40.088C39.2791 42.643 41.359 44.724 43.915 44.724C44.628 44.724 45.282 44.545 45.876 44.308C46.471 44.605 47.124 44.724 47.837 44.724C50.393 44.724 52.4731 42.643 52.4731 40.088C52.4731 37.532 50.393 35.452 47.837 35.452ZM47.1241 40.088C47.1241 41.098 46.649 42.049 45.876 42.643C45.104 42.049 44.6281 41.158 44.6281 40.088C44.6281 39.078 45.104 38.127 45.876 37.532C46.649 38.127 47.1241 39.018 47.1241 40.088ZM40.7061 40.088C40.7061 38.305 42.132 36.879 43.915 36.879C44.093 36.879 44.2721 36.879 44.4501 36.938C43.6771 37.77 43.2021 38.899 43.2021 40.088C43.2021 41.336 43.6771 42.406 44.4501 43.238C44.2721 43.297 44.093 43.297 43.915 43.297C42.132 43.297 40.7061 41.871 40.7061 40.088ZM47.837 43.297C47.659 43.297 47.481 43.297 47.303 43.238C48.075 42.406 48.5511 41.276 48.5511 40.088C48.5511 38.84 48.075 37.77 47.303 36.938C47.481 36.879 47.659 36.879 47.837 36.879C49.62 36.879 51.0471 38.305 51.0471 40.088C51.0471 41.871 49.62 43.297 47.837 43.297Z" fill="#2CD19E"/>
<path d="M26.0859 40.028C25.0159 40.028 24.0059 40.444 23.2329 41.217L22.1629 42.287C21.8659 42.584 21.8659 43 22.1629 43.297C22.4599 43.594 22.8759 43.594 23.1739 43.297L24.2429 42.227C25.2539 41.217 26.9179 41.217 27.9879 42.227C28.4629 42.703 28.7599 43.357 28.7599 44.07C28.7599 44.783 28.4629 45.437 27.9879 45.912L26.8579 47.041C26.5609 47.339 26.5609 47.755 26.8579 48.052C26.9769 48.171 27.1559 48.289 27.3929 48.289C27.6309 48.289 27.7499 48.23 27.9279 48.052L28.9979 46.982C29.7709 46.209 30.1869 45.199 30.1869 44.129C30.1869 43.059 29.7709 42.049 28.9979 41.277C28.2249 40.444 27.2149 40.028 26.0859 40.028Z" fill="#2CD19E"/>
<path d="M24.3021 49.537L23.2321 50.607C22.2221 51.618 20.558 51.618 19.488 50.607C18.478 49.597 18.478 47.933 19.488 46.863L20.558 45.793C20.855 45.496 20.855 45.08 20.558 44.783C20.261 44.486 19.8451 44.486 19.5471 44.783L18.4781 45.853C17.7051 46.625 17.2891 47.636 17.2891 48.705C17.2891 49.775 17.7051 50.786 18.4781 51.558C19.2501 52.331 20.2611 52.747 21.3301 52.747C22.4001 52.747 23.411 52.331 24.183 51.558L25.2531 50.488C25.5501 50.191 25.5501 49.775 25.2531 49.478C24.9561 49.181 24.5991 49.3 24.3021 49.537Z" fill="#2CD19E"/>
<path d="M25.3719 43.773L21.1529 47.992C20.8549 48.289 20.8549 48.705 21.1529 49.003C21.2709 49.121 21.4499 49.24 21.6869 49.24C21.8659 49.24 22.0439 49.181 22.2219 49.003L26.4419 44.783C26.7389 44.486 26.7389 44.07 26.4419 43.773C26.1449 43.475 25.6099 43.535 25.3719 43.773Z" fill="#2CD19E"/>
<path d="M20.142 26.954H34.2269C34.6429 26.954 34.9399 26.656 34.9399 26.24C34.9399 25.824 34.6429 25.527 34.2269 25.527H20.142C19.726 25.527 19.429 25.824 19.429 26.24C19.429 26.656 19.726 26.954 20.142 26.954Z" fill="#2CD19E"/>
<path d="M39.754 28.796C39.754 28.38 39.457 28.083 39.041 28.083H19.785C19.369 28.083 19.072 28.38 19.072 28.796C19.072 29.212 19.369 29.509 19.785 29.509H39.041C39.457 29.509 39.754 29.152 39.754 28.796Z" fill="#2CD19E"/>
<path d="M36.4259 26.954H39.0409C39.4569 26.954 39.7539 26.656 39.7539 26.24C39.7539 25.824 39.4569 25.527 39.0409 25.527H36.4259C36.0099 25.527 35.7129 25.824 35.7129 26.24C35.7129 26.656 36.0689 26.954 36.4259 26.954Z" fill="#2CD19E"/>
</svg>
