<svg width="75" height="75" viewBox="0 0 75 75" fill="none" xmlns="http://www.w3.org/2000/svg">
<path d="M37.5 74.5C57.9345 74.5 74.5 57.9345 74.5 37.5C74.5 17.0655 57.9345 0.5 37.5 0.5C17.0655 0.5 0.5 17.0655 0.5 37.5C0.5 57.9345 17.0655 74.5 37.5 74.5Z" stroke="#DBE3EB"/>
<path d="M45.6046 50.1919C40.2674 49.1977 36.1337 44.4884 36.1337 38.8372C36.1337 33.186 40.2151 28.4767 45.6046 27.4826C45.8663 27.4302 46.1279 27.3779 46.3895 27.3779C46.6512 27.3779 46.9128 27.3256 47.1744 27.3256V24.6047C47.1744 22.093 45.2907 20 42.936 20H27.2384C24.8837 20 23 22.0407 23 24.6047V51.3953C23 53.907 24.8837 56 27.2384 56H42.936C45.2907 56 47.1744 53.9593 47.1744 51.3953V50.3488C46.9128 50.3488 46.6512 50.2965 46.3895 50.2965C46.1279 50.2442 45.8663 50.2442 45.6046 50.1919ZM30.9012 26.1221C30.9012 25.5465 31.3721 25.0756 31.9477 25.0756H38.2267C38.8023 25.0756 39.2733 25.5465 39.2733 26.1221C39.2733 26.6977 38.8023 27.1686 38.2267 27.1686H31.9477C31.3721 27.1686 30.9012 26.6977 30.9012 26.1221ZM35.0872 51.657C33.7791 51.657 32.7326 50.6105 32.7326 49.3023C32.7326 47.9942 33.7791 46.9477 35.0872 46.9477C36.3953 46.9477 37.4419 47.9942 37.4419 49.3023C37.4419 50.6105 36.3953 51.657 35.0872 51.657Z" fill="#2CD19E"/>
<path d="M47.6979 29.4187C47.2793 29.4187 46.8607 29.471 46.4421 29.5234C41.8374 30.1513 38.2793 34.0757 38.2793 38.8373C38.2793 43.5989 41.8374 47.5757 46.4421 48.2036C46.8607 48.2559 47.2793 48.3082 47.6979 48.3082C52.8781 48.3082 57.1165 44.0699 57.1165 38.8896C57.1165 33.6571 52.8781 29.4187 47.6979 29.4187ZM49.2677 43.7036H46.3898H44.3491V41.9768C45.2909 41.6629 45.8665 41.035 45.8665 40.1978C45.8665 40.0408 45.8142 39.8838 45.8142 39.7268H44.4537V38.1048H45.2909C45.1863 37.7385 45.0816 37.3722 45.0816 36.9013C45.0816 36.0117 45.5526 35.0699 46.3898 34.5466C46.913 34.2327 47.5409 34.0234 48.2735 34.0234C50.6281 34.0234 51.413 35.6455 51.413 36.8489L49.477 37.1106C49.477 36.3257 49.0584 35.8024 48.3258 35.8024C47.7502 35.8024 47.1746 36.1687 47.1746 36.9536C47.1746 37.3722 47.2793 37.7385 47.4363 38.1048H50.0002V39.7268H47.9595C47.9595 39.8315 47.9595 39.8838 47.9595 39.9885C47.9595 40.6687 47.6979 41.4013 47.07 41.8199H49.006C49.6339 41.8199 50.1049 41.4013 50.1049 40.721L52.0409 40.8257C51.9886 42.5001 50.8898 43.7036 49.2677 43.7036Z" fill="#2CD19E"/>
</svg>
