<svg width="75" height="71" viewBox="0 0 75 71" fill="none" xmlns="http://www.w3.org/2000/svg">
<g clip-path="url(#clip0_1613_639)">
<path d="M0.5 61.5C0.2 62.3 0 63.2 0 64.1C0 67.7 2.9 70.7 6.6 70.7H68.2C71.8 70.7 74.8 67.8 74.8 64.1C74.8 63.2 74.6 62.3 74.3 61.5C74 61.2 73.7 61 73.3 61H67.6V19.3C67.6 18.8 67.2 18.3 66.6 18.3H57V12.4C57 11.9 56.6 11.4 56 11.4H46.3V9C46.3 4.1 42.3 0 37.3 0C32.4 0 28.3 4 28.3 9V11.5H18.6C18.1 11.5 17.6 11.9 17.6 12.5V18.4H8.1C7.6 18.4 7.1 18.8 7.1 19.4V61H1.4C1 61 0.7 61.2 0.5 61.5ZM30.3 9C30.3 5.1 33.5 2 37.4 2C41.3 2 44.4 5.2 44.4 9V11.5H30.3V9ZM19.6 13.4H28.4V17.9H27.4C26.9 17.9 26.4 18.3 26.4 18.9C26.4 19.4 26.8 19.9 27.4 19.9H31.4C31.9 19.9 32.4 19.5 32.4 18.9C32.4 18.4 32 17.9 31.4 17.9H30.4V13.4H44.5V17.9H43.5C43 17.9 42.5 18.3 42.5 18.9C42.5 19.4 42.9 19.9 43.5 19.9H47.5C48 19.9 48.5 19.5 48.5 18.9C48.5 18.4 48.1 17.9 47.5 17.9H46.5V13.4H55.3V47.8C55.3 49.7 53.8 51.2 51.9 51.2H23C21.1 51.2 19.6 49.7 19.6 47.8V13.4ZM9.1 20.2H17.7V47.7C17.7 50.6 20.1 53 23 53H51.7C54.6 53 57 50.6 57 47.7V20.2H65.6V61H9.1V20.2ZM2.1 62.9H72.6C72.7 63.3 72.8 63.7 72.8 64.1C72.8 66.7 70.7 68.7 68.2 68.7H6.6C4 68.7 2 66.6 2 64.1C1.9 63.7 2 63.3 2.1 62.9Z" fill="#2CD19E"/>
<path d="M36.0996 66.8H38.5996C39.0996 66.8 39.5996 66.4 39.5996 65.8C39.5996 65.3 39.1996 64.8 38.5996 64.8H36.0996C35.5996 64.8 35.0996 65.2 35.0996 65.8C35.1996 66.3 35.5996 66.8 36.0996 66.8Z" fill="#2CD19E"/>
<path d="M34.6001 41.2C34.7001 41.5 35.0001 41.7 35.4001 41.8C35.7001 41.8 36.1001 41.7 36.3001 41.4L37.6001 39.6L41.8001 42.5C42.0001 42.6 42.2001 42.7 42.4001 42.7C42.5001 42.7 42.5001 42.7 42.6001 42.7C42.9001 42.7 43.1001 42.5 43.2001 42.3L46.6001 37.5C46.9001 37.1 46.8001 36.5 46.4001 36.2L42.0001 33.2L43.3001 31.4C43.5001 31.1 43.5001 30.7 43.4001 30.4C43.3001 30.1 42.9001 29.9 42.6001 29.9L30.8001 29C30.5001 29 30.1001 29.1 29.9001 29.4C29.7001 29.7 29.7001 30 29.8001 30.3L34.6001 41.2ZM40.8001 31.7L40.0001 32.9C39.7001 33.3 39.8001 33.9 40.2001 34.2L44.4001 37.1L42.1001 40.3L37.9001 37.4C37.7001 37.3 37.5001 37.2 37.3001 37.2C37.2001 37.2 37.2001 37.2 37.1001 37.2C36.8001 37.2 36.6001 37.4 36.5001 37.6L35.7001 38.8L32.3001 31L40.8001 31.7Z" fill="#2CD19E"/>
</g>
<defs>
<clipPath id="clip0_1613_639">
<rect width="74.7" height="70.7" fill="white"/>
</clipPath>
</defs>
</svg>
