<svg width="70" height="70" viewBox="0 0 70 70" fill="none" xmlns="http://www.w3.org/2000/svg">
<path d="M35 70C54.33 70 70 54.33 70 35C70 15.67 54.33 0 35 0C15.67 0 0 15.67 0 35C0 54.33 15.67 70 35 70Z" fill="#2CD19E" fill-opacity="0.18"/>
<path d="M23.1261 44.5193H29.8575C30.2898 44.5193 30.6603 44.1487 30.6603 43.7164C30.6603 43.2842 30.2898 42.9136 29.8575 42.9136H23.1261C22.6938 42.9136 22.3232 43.2842 22.3232 43.7164C22.3232 44.1487 22.6938 44.5193 23.1261 44.5193Z" fill="#2CD19E"/>
<path d="M31.6484 46.9897H23.1261C22.6938 46.9897 22.3232 47.2985 22.3232 47.7308C22.3232 48.1631 22.6938 48.5337 23.1261 48.5337H31.7102C32.1425 48.5337 32.513 48.1631 32.513 47.7308C32.513 47.2985 32.0807 46.9897 31.6484 46.9897Z" fill="#2CD19E"/>
<path d="M52.46 41.864C52.46 38.8379 50.9778 36.1824 48.6929 34.5767V23.5224C48.6929 23.3371 48.6311 23.1518 48.5076 22.9666L41.0968 15.247C40.9733 15.0618 40.7263 15 40.541 15H21.2731C19.4822 15 18 16.4822 18 18.2731V51.9302C18 53.7212 19.4822 55.1416 21.2731 55.1416H45.5433C47.3342 55.1416 48.8164 53.6594 48.8164 51.8685V49.0895C50.9778 47.4838 52.46 44.8283 52.46 41.864ZM46.4696 23.0901H42.7025C41.7762 23.0901 40.9733 22.349 40.9733 21.3609V17.3467L46.4696 23.0901ZM47.2107 51.9302C47.2107 52.8566 46.4696 53.6594 45.4815 53.6594H21.2731C20.3467 53.6594 19.5439 52.9183 19.5439 51.9302V18.2731C19.5439 17.3467 20.285 16.5439 21.2731 16.5439H39.4912V21.4227C39.4912 23.2136 40.9733 24.6957 42.7643 24.6957H47.2107V33.7121C46.1609 33.2181 44.9875 32.9711 43.7524 32.9093V28.2158C43.7524 27.1042 42.826 26.1779 41.7144 26.1779H24.3609C23.2493 26.1779 22.3229 27.1042 22.3229 28.2158V36.9852C22.3229 38.0968 23.2493 39.0232 24.3609 39.0232H35.0447C34.736 39.9495 34.5507 40.9376 34.5507 41.9257C34.5507 46.8662 38.5648 50.8804 43.5053 50.8804C44.8022 50.8804 46.0373 50.5716 47.2107 50.0776V51.9302ZM35.7241 37.4175H30.7835V33.3416H36.4034C36.8357 33.3416 37.2062 32.9711 37.2062 32.5388V27.7218H41.7762C42.0232 27.7218 42.2702 27.9071 42.2702 28.2158V33.0328C39.4294 33.3416 37.0209 35.0708 35.7241 37.4175ZM24.3609 37.4175C24.1139 37.4175 23.8668 37.2323 23.8668 36.9235V33.3416H29.2396V37.4175H24.3609ZM35.6005 27.7218V31.7977H30.7835V27.7218H35.6005ZM29.2396 31.7977H23.8668V28.2158C23.8668 27.9688 24.0521 27.7218 24.3609 27.7218H29.2396V31.7977ZM43.5053 49.2747C39.4294 49.2747 36.0946 45.9399 36.0946 41.864C36.0946 37.7881 39.4294 34.4532 43.5053 34.4532C47.5813 34.4532 50.9161 37.7881 50.9161 41.864C50.9161 45.9399 47.5813 49.2747 43.5053 49.2747Z" fill="#2CD19E"/>
<path d="M43.7527 41.1228C42.9498 41.1228 42.2705 40.6905 42.2705 40.1964C42.2705 39.7024 42.9498 39.2701 43.7527 39.2701C44.185 39.2701 44.6172 39.3936 44.926 39.6406C45.0495 39.7641 45.2348 39.8259 45.4201 39.8259C45.6054 39.8259 45.7906 39.7024 45.9141 39.5789C46.0376 39.4553 46.0994 39.2701 46.0994 39.0848C46.0994 38.8995 45.9759 38.7143 45.8524 38.5908C45.4818 38.282 44.9878 38.035 44.4937 37.9114V37.4791C44.4937 37.1086 44.185 36.7998 43.8144 36.7998C43.4439 36.7998 43.1351 37.1086 43.1351 37.4791V37.9114C41.9 38.1585 40.9736 39.0848 40.9736 40.1347C40.9736 41.4315 42.2705 42.4196 43.8144 42.4196C44.6173 42.4196 45.2966 42.8519 45.2966 43.346C45.2966 43.84 44.6173 44.2723 43.8144 44.2723C43.3821 44.2723 42.9498 44.1488 42.6411 43.9018C42.5175 43.7783 42.3323 43.7165 42.147 43.7165C41.9617 43.7165 41.7765 43.84 41.653 43.9636C41.5294 44.0871 41.4677 44.2723 41.4677 44.4576C41.4677 44.6429 41.5912 44.8281 41.7147 44.9517C42.0852 45.2604 42.5793 45.5075 43.0733 45.631V46.0633C43.0733 46.4338 43.3821 46.7426 43.7527 46.7426C44.1232 46.7426 44.432 46.4338 44.432 46.0633V45.631C45.6671 45.3839 46.5935 44.4576 46.5935 43.4077C46.5935 42.1726 45.3583 41.1228 43.7527 41.1228Z" fill="#2CD19E"/>
</svg>
