<svg width="65" height="65" viewBox="0 0 65 65" fill="none" xmlns="http://www.w3.org/2000/svg">
<path d="M32.5 64.5C50.1731 64.5 64.5 50.1731 64.5 32.5C64.5 14.8269 50.1731 0.5 32.5 0.5C14.8269 0.5 0.5 14.8269 0.5 32.5C0.5 50.1731 14.8269 64.5 32.5 64.5Z" stroke="#DBE3EB"/>
<path d="M45.5996 21.3188L32.9917 17.0521C32.7867 17.0001 32.5304 17.0001 32.3254 17.0521L19.7175 21.3188C19.3075 21.4748 19 21.8911 19 22.3074V32.974C19 44.6814 32.2229 48.896 32.3254 48.896C32.4279 48.948 32.5304 48.948 32.6329 48.948C32.7354 48.948 32.8379 48.948 32.9404 48.896C33.0942 48.844 46.2658 44.6814 46.2658 32.974V22.3074C46.3171 21.8911 46.0096 21.4748 45.5996 21.3188ZM39.1419 30.0082L31.8129 37.4488C31.6079 37.657 31.3516 37.761 31.0954 37.761C30.8391 37.761 30.5829 37.657 30.3778 37.4488L26.1752 33.1822C25.7652 32.7659 25.7652 32.0895 26.1752 31.6732C26.5852 31.257 27.2515 31.257 27.6615 31.6732L31.0954 35.1594L37.7068 28.4472C38.1168 28.0309 38.7831 28.0309 39.1931 28.4472C39.5519 28.9155 39.5519 29.5919 39.1419 30.0082Z" fill="#2CD19E"/>
</svg>
