<svg width="36" height="36" viewBox="0 0 36 36" fill="none" xmlns="http://www.w3.org/2000/svg">
<circle cx="18" cy="18" r="18" fill="#13273F"/>
<g clip-path="url(#clip0_1699_948)">
<path d="M23.6768 9.39301H12.3581C11.2576 9.39301 10.393 10.2576 10.393 11.3581V24.6419C10.393 25.7424 11.2576 26.607 12.3581 26.607H23.6768C24.7773 26.607 25.6419 25.7424 25.6419 24.6419V11.3581C25.6419 10.2576 24.7773 9.39301 23.6768 9.39301ZM24.7773 24.6419C24.7773 25.1921 24.3057 25.6637 23.7555 25.6637H12.3581C11.8079 25.6637 11.3362 25.1921 11.3362 24.6419V11.3581C11.3362 10.8079 11.8079 10.3362 12.3581 10.3362H23.6768C24.2271 10.3362 24.6987 10.8079 24.6987 11.3581V24.6419H24.7773Z" fill="white"/>
<path d="M23.6769 27H12.3581C11.0218 27 10 25.9782 10 24.6419V11.3581C10 10.0218 11.0218 9 12.3581 9H23.6769C25.0131 9 26.0349 10.0218 26.0349 11.3581V24.6419C26.0349 25.8996 25.0131 27 23.6769 27ZM12.3581 9.78603C11.4934 9.78603 10.786 10.4934 10.786 11.3581V24.6419C10.786 25.5065 11.4934 26.214 12.3581 26.214H23.6769C24.5415 26.214 25.2489 25.5065 25.2489 24.6419V11.3581C25.2489 10.4934 24.5415 9.78603 23.6769 9.78603H12.3581ZM23.6769 26.0568H12.3581C11.5721 26.0568 10.9432 25.4279 10.9432 24.6419V11.3581C10.9432 10.5721 11.5721 9.94323 12.3581 9.94323H23.6769C24.4629 9.94323 25.0917 10.5721 25.0917 11.3581V24.6419C25.1703 25.4279 24.4629 26.0568 23.6769 26.0568ZM12.3581 10.7293C11.9651 10.7293 11.7293 10.9651 11.7293 11.3581V24.6419C11.7293 25.0349 12.0437 25.2707 12.3581 25.2707H23.6769C24.0699 25.2707 24.3057 24.9563 24.3057 24.6419V11.3581C24.3057 10.9651 23.9913 10.7293 23.6769 10.7293H12.3581Z" fill="white"/>
<path d="M14.0087 15.8384H17.8603C18.0961 15.8384 18.3319 15.6026 18.3319 15.3668C18.3319 15.131 18.0961 14.8952 17.8603 14.8952H14.0087C13.7729 14.8952 13.5371 15.131 13.5371 15.3668C13.6157 15.6026 13.7729 15.8384 14.0087 15.8384Z" fill="white"/>
<path d="M17.8603 16.2315H14.0087C13.5371 16.2315 13.1441 15.8384 13.1441 15.3668C13.2227 14.8952 13.5371 14.5022 14.0087 14.5022H17.8603C18.2533 14.5022 18.6463 14.8952 18.6463 15.3668C18.6463 15.8384 18.2533 16.2315 17.8603 16.2315ZM14.0087 15.2882C14.0087 15.2882 14.0087 15.3668 14.0087 15.2882C13.9301 15.3668 14.0087 15.4454 14.0087 15.4454H17.8603C17.8603 15.4454 17.9389 15.4454 17.9389 15.3668C17.9389 15.2882 17.8603 15.2882 17.8603 15.2882H14.0087Z" fill="white"/>
<path d="M21.7904 18.4323H14.0087C13.7729 18.4323 13.5371 18.6681 13.5371 18.9039C13.5371 19.1397 13.7729 19.3755 14.0087 19.3755H21.7904C22.0262 19.3755 22.262 19.1397 22.262 18.9039C22.262 18.5895 22.0262 18.4323 21.7904 18.4323Z" fill="white"/>
<path d="M21.7904 19.69H14.0087C13.5371 19.69 13.1441 19.2969 13.1441 18.8253C13.1441 18.3537 13.5371 17.9607 14.0087 17.9607H21.7904C22.262 17.9607 22.655 18.3537 22.655 18.8253C22.655 19.2969 22.262 19.69 21.7904 19.69ZM14.0087 18.8253C13.9301 18.9039 14.0087 18.9825 14.0087 18.9825H21.7904C21.7904 18.9825 21.869 18.9825 21.869 18.9039C21.869 18.8253 21.869 18.8253 21.7904 18.8253H14.0087Z" fill="white"/>
<path d="M21.7904 21.8908H14.0087C13.7729 21.8908 13.5371 22.1266 13.5371 22.3624C13.5371 22.5982 13.7729 22.834 14.0087 22.834H21.7904C22.0262 22.834 22.262 22.5982 22.262 22.3624C22.262 22.1266 22.0262 21.8908 21.7904 21.8908Z" fill="white"/>
<path d="M21.7904 23.2271H14.0087C13.5371 23.2271 13.1441 22.834 13.1441 22.3624C13.1441 21.8908 13.5371 21.4978 14.0087 21.4978H21.7904C22.262 21.4978 22.655 21.8908 22.655 22.3624C22.655 22.834 22.262 23.2271 21.7904 23.2271ZM14.0087 22.2838C13.9301 22.3624 14.0087 22.441 14.0087 22.441H21.7904C21.7904 22.441 21.869 22.441 21.869 22.3624C21.869 22.2838 21.869 22.2838 21.7904 22.2838H14.0087Z" fill="white"/>
</g>
<defs>
<clipPath id="clip0_1699_948">
<rect width="16.0349" height="18" fill="white" transform="translate(10 9)"/>
</clipPath>
</defs>
</svg>
