<svg width="70" height="70" viewBox="0 0 70 70" fill="none" xmlns="http://www.w3.org/2000/svg">
<path d="M35 70C54.33 70 70 54.33 70 35C70 15.67 54.33 0 35 0C15.67 0 0 15.67 0 35C0 54.33 15.67 70 35 70Z" fill="#38B6FF" fill-opacity="0.18"/>
<path d="M24.126 44.5195H30.858C31.29 44.5195 31.66 44.1489 31.66 43.7166C31.66 43.2844 31.29 42.9138 30.858 42.9138H24.126C23.694 42.9138 23.323 43.2844 23.323 43.7166C23.323 44.1489 23.694 44.5195 24.126 44.5195Z" fill="#38B6FF"/>
<path d="M32.648 46.9897H24.126C23.694 46.9897 23.323 47.2985 23.323 47.7308C23.323 48.1631 23.694 48.5337 24.126 48.5337H32.71C33.142 48.5337 33.513 48.1631 33.513 47.7308C33.513 47.2985 33.081 46.9897 32.648 46.9897Z" fill="#38B6FF"/>
<path d="M53.46 41.864C53.46 38.8379 51.978 36.1824 49.693 34.5767V23.5224C49.693 23.3371 49.631 23.1518 49.508 22.9666L42.097 15.247C41.973 15.0618 41.726 15 41.541 15H22.273C20.482 15 19 16.4822 19 18.2731V51.9302C19 53.7212 20.482 55.1416 22.273 55.1416H46.543C48.334 55.1416 49.816 53.6594 49.816 51.8685V49.0895C51.978 47.4838 53.46 44.8283 53.46 41.864ZM47.47 23.0901H43.703C42.776 23.0901 41.973 22.349 41.973 21.3609V17.3467L47.47 23.0901ZM48.211 51.9302C48.211 52.8566 47.47 53.6594 46.482 53.6594H22.273C21.347 53.6594 20.544 52.9183 20.544 51.9302V18.2731C20.544 17.3467 21.285 16.5439 22.273 16.5439H40.491V21.4227C40.491 23.2136 41.973 24.6957 43.764 24.6957H48.211V33.7121C47.161 33.2181 45.987 32.9711 44.752 32.9093V28.2158C44.752 27.1042 43.826 26.1779 42.714 26.1779H25.361C24.249 26.1779 23.323 27.1042 23.323 28.2158V36.9852C23.323 38.0968 24.249 39.0232 25.361 39.0232H36.045C35.736 39.9495 35.551 40.9376 35.551 41.9257C35.551 46.8662 39.565 50.8804 44.505 50.8804C45.802 50.8804 47.037 50.5716 48.211 50.0776V51.9302ZM36.724 37.4175H31.784V33.3416H37.403C37.836 33.3416 38.206 32.9711 38.206 32.5388V27.7218H42.776C43.023 27.7218 43.27 27.9071 43.27 28.2158V33.0328C40.429 33.3416 38.021 35.0708 36.724 37.4175ZM25.361 37.4175C25.114 37.4175 24.867 37.2323 24.867 36.9235V33.3416H30.24V37.4175H25.361ZM36.601 27.7218V31.7977H31.784V27.7218H36.601ZM30.24 31.7977H24.867V28.2158C24.867 27.9688 25.052 27.7218 25.361 27.7218H30.24V31.7977ZM44.505 49.2747C40.429 49.2747 37.095 45.9399 37.095 41.864C37.095 37.7881 40.429 34.4532 44.505 34.4532C48.581 34.4532 51.916 37.7881 51.916 41.864C51.916 45.9399 48.581 49.2747 44.505 49.2747Z" fill="#38B6FF"/>
<path d="M44.7531 41.1229C43.9501 41.1229 43.2711 40.6906 43.2711 40.1966C43.2711 39.7025 43.9501 39.2702 44.7531 39.2702C45.1851 39.2702 45.6171 39.3937 45.9261 39.6407C46.0501 39.7643 46.2351 39.826 46.4201 39.826C46.6051 39.826 46.7911 39.7025 46.9141 39.579C47.0381 39.4555 47.0991 39.2702 47.0991 39.0849C47.0991 38.8997 46.9761 38.7144 46.8521 38.5909C46.4821 38.2821 45.9881 38.0351 45.4941 37.9116V37.4793C45.4941 37.1087 45.1851 36.8 44.8141 36.8C44.4441 36.8 44.1351 37.1087 44.1351 37.4793V37.9116C42.9001 38.1586 41.9741 39.0849 41.9741 40.1348C41.9741 41.4317 43.2711 42.4198 44.8141 42.4198C45.6171 42.4198 46.2971 42.8521 46.2971 43.3461C46.2971 43.8402 45.6171 44.2725 44.8141 44.2725C44.3821 44.2725 43.9501 44.149 43.6411 43.9019C43.5181 43.7784 43.3321 43.7167 43.1471 43.7167C42.9621 43.7167 42.7761 43.8402 42.6531 43.9637C42.5291 44.0872 42.4681 44.2725 42.4681 44.4577C42.4681 44.643 42.5911 44.8283 42.7151 44.9518C43.0851 45.2606 43.5791 45.5076 44.0731 45.6311V46.0634C44.0731 46.4339 44.3821 46.7427 44.7531 46.7427C45.1231 46.7427 45.4321 46.4339 45.4321 46.0634V45.6311C46.6671 45.3841 47.5931 44.4577 47.5931 43.4079C47.5931 42.1728 46.3581 41.1229 44.7531 41.1229Z" fill="#38B6FF"/>
</svg>
