<svg width="36" height="36" viewBox="0 0 36 36" fill="none" xmlns="http://www.w3.org/2000/svg">
<circle cx="18" cy="18" r="18" fill="#13273F"/>
<path d="M20.967 10C19.6332 10 18.2993 10.5187 17.4101 11.482L16.0022 12.8159C15.6317 13.1864 15.6317 13.7051 16.0022 14.0756C16.3727 14.4461 16.8914 14.4461 17.2619 14.0756L18.5957 12.7418C19.8555 11.482 21.9303 11.482 23.2641 12.7418C23.8569 13.3346 24.2274 14.1497 24.2274 15.0389C24.2274 15.9281 23.8569 16.7432 23.2641 17.336L21.9303 18.6699C21.5598 19.0404 21.5598 19.5591 21.9303 19.9296C22.0785 20.0778 22.3008 20.226 22.5972 20.226C22.8936 20.226 23.0418 20.1519 23.2641 19.9296L24.5979 18.5958C25.5613 17.6324 26.08 16.3727 26.08 15.0389C26.08 13.7051 25.5613 12.4453 24.5979 11.482C23.5605 10.5187 22.3008 10 20.967 10Z" fill="white"/>
<path d="M18.744 21.9303L17.4101 23.2642C16.1504 24.5239 14.0756 24.5239 12.7418 23.2642C11.482 22.0044 11.482 19.9296 12.7418 18.5958L14.0756 17.262C14.4461 16.8914 14.4461 16.3727 14.0756 16.0022C13.7051 15.6317 13.1864 15.6317 12.8159 16.0022L11.482 17.4102C10.5187 18.3735 10 19.6332 10 20.967C10 22.3008 10.5187 23.5606 11.482 24.5239C12.4453 25.4872 13.7051 26.0059 15.0389 26.0059C16.3727 26.0059 17.6324 25.4872 18.5958 24.5239L19.9296 23.1901C20.3001 22.8196 20.3001 22.3008 19.9296 21.9303C19.5591 21.5598 19.1145 21.5598 18.744 21.9303Z" fill="white"/>
<path d="M20.0037 14.7425L14.7425 20.0037C14.372 20.3742 14.372 20.8929 14.7425 21.2634C14.8907 21.4116 15.113 21.5598 15.4095 21.5598C15.6318 21.5598 15.8541 21.4857 16.0764 21.2634L21.3376 16.0022C21.7081 15.6317 21.7081 15.113 21.3376 14.7425C20.893 14.372 20.3742 14.372 20.0037 14.7425Z" fill="white"/>
</svg>
