<svg width="70" height="70" viewBox="0 0 70 70" fill="none" xmlns="http://www.w3.org/2000/svg">
<path d="M35 70C54.33 70 70 54.33 70 35C70 15.67 54.33 0 35 0C15.67 0 0 15.67 0 35C0 54.33 15.67 70 35 70Z" fill="#FCCF0B" fill-opacity="0.17"/>
<path d="M45.5122 42.8639C45.0781 42.802 44.644 43.0496 44.5819 43.4831C44.5199 43.6688 44.5819 43.9165 44.706 44.1023C44.83 44.288 45.0161 44.4119 45.2021 44.4119C46.7525 44.7215 47.9928 45.836 48.4269 47.384C48.5509 47.7555 48.861 48.0032 49.1711 48.0032C49.2331 48.0032 49.2951 48.0032 49.3571 48.0032C49.7912 47.8794 50.0393 47.4459 49.9153 47.0125C49.4191 44.8453 47.6827 43.2354 45.5122 42.8639Z" fill="#FFCE00"/>
<path d="M54.5044 49.4272C54.5044 44.7214 51.3416 40.6347 46.8764 39.4582C47.4346 38.839 47.7447 38.0341 47.7447 37.1672C47.7447 35.5573 46.6284 34.1331 45.078 33.7616V19.7059C45.078 19.2724 44.7059 18.9009 44.2718 18.9009H42.4113V15.805C42.4113 15.5573 42.2873 15.3715 42.1013 15.1858C41.8532 15.0619 41.6671 15 41.4191 15L15.6827 18.9009H15.6206C15.5586 18.9009 15.4966 18.9009 15.4966 18.9628C15.4346 18.9628 15.3726 19.0248 15.3726 19.0248C15.2485 19.0867 15.2485 19.1486 15.1865 19.1486C15.1865 19.2105 15.1245 19.2724 15.1245 19.2724C15.1245 19.3344 15.0625 19.3344 15.0625 19.3963C15.0625 19.4582 15.0625 19.5201 15.0625 19.5201V19.582V54.1331C15.0625 54.3189 15.1245 54.5666 15.3106 54.6904C15.4346 54.8142 15.6827 54.9381 15.8687 54.9381H54.3183C54.5044 54.9381 54.7524 54.8762 54.8764 54.6904C55.0005 54.5666 55.1245 54.3189 55.1245 54.1331V50.1084C55.0005 49.8607 54.8144 49.5511 54.5044 49.4272ZM26.4734 18.9009L40.7369 16.7337V18.9009H26.4734ZM53.4501 50.9752V53.3901H35.0935V50.9752H53.4501ZM35.5276 49.3653C35.5276 44.5975 39.4346 40.6966 44.2098 40.6966C48.985 40.6966 52.8919 44.5975 52.8919 49.3653H35.5276ZM44.2098 39.0248C43.1555 39.0248 42.3493 38.1579 42.3493 37.1672C42.3493 36.1145 43.2175 35.3096 44.2098 35.3096C45.264 35.3096 46.0702 36.1765 46.0702 37.1672C46.0702 38.2198 45.264 39.0248 44.2098 39.0248ZM43.4036 33.8235C41.8532 34.195 40.7369 35.6192 40.7369 37.2291C40.7369 38.096 41.047 38.9009 41.6051 39.5201C37.14 40.6966 33.9772 44.7833 33.9772 49.4272V49.4892C33.6671 49.613 33.4811 49.9226 33.4811 50.2322V53.3901H16.6129V20.5108H43.4036V33.8235Z" fill="#FFCE00"/>
</svg>
