<svg width="359" height="183" viewBox="0 0 359 183" fill="none" xmlns="http://www.w3.org/2000/svg">
<g filter="url(#filter0_d_1951_324)">
<rect x="224" y="115" width="114" height="43" rx="21.5" fill="#0249E3"/>
</g>
<path d="M248.292 132.2H244.47V142H245.87V139.032H248.292C250.84 139.032 252.38 137.744 252.38 135.616C252.38 133.488 250.84 132.2 248.292 132.2ZM248.25 137.814H245.87V133.418H248.25C250.042 133.418 250.98 134.216 250.98 135.616C250.98 137.016 250.042 137.814 248.25 137.814ZM256.874 134.51C255.684 134.51 254.578 134.846 253.808 135.462L254.368 136.47C254.942 135.98 255.838 135.672 256.72 135.672C258.05 135.672 258.708 136.33 258.708 137.464V137.73H256.58C254.368 137.73 253.598 138.71 253.598 139.9C253.598 141.188 254.662 142.084 256.342 142.084C257.504 142.084 258.33 141.692 258.778 141.02V142H260.052V137.52C260.052 135.49 258.904 134.51 256.874 134.51ZM256.566 141.048C255.544 141.048 254.928 140.586 254.928 139.844C254.928 139.214 255.306 138.696 256.636 138.696H258.708V139.732C258.372 140.586 257.574 141.048 256.566 141.048ZM263.212 133.152C263.744 133.152 264.122 132.76 264.122 132.256C264.122 131.78 263.73 131.402 263.212 131.402C262.694 131.402 262.302 131.794 262.302 132.284C262.302 132.774 262.694 133.152 263.212 133.152ZM262.54 142H263.884V134.58H262.54V142ZM272.106 131.612V135.7C271.49 134.902 270.566 134.51 269.516 134.51C267.346 134.51 265.764 136.022 265.764 138.29C265.764 140.558 267.346 142.084 269.516 142.084C270.608 142.084 271.56 141.664 272.162 140.824V142H273.45V131.612H272.106ZM269.628 140.908C268.2 140.908 267.122 139.872 267.122 138.29C267.122 136.708 268.2 135.686 269.628 135.686C271.042 135.686 272.12 136.708 272.12 138.29C272.12 139.872 271.042 140.908 269.628 140.908ZM280.075 136.428C280.579 136.428 280.999 136.022 280.999 135.462C280.999 134.902 280.579 134.51 280.075 134.51C279.557 134.51 279.123 134.902 279.123 135.462C279.123 136.022 279.557 136.428 280.075 136.428ZM280.075 142.084C280.579 142.084 280.999 141.678 280.999 141.118C280.999 140.558 280.579 140.166 280.075 140.166C279.557 140.166 279.123 140.558 279.123 141.118C279.123 141.678 279.557 142.084 280.075 142.084ZM283.372 144.716C284.45 143.022 285.052 140.74 285.052 138.164C285.052 135.588 284.45 133.278 283.372 131.612H282.098C283.232 133.6 283.736 135.714 283.736 138.164C283.736 140.614 283.232 142.728 282.098 144.716H283.372Z" fill="white"/>
<path d="M332.5 136C333.3 148.4 342.5 156.833 347 159.5C332.6 159.5 321 154.167 317 151.5L332.5 136Z" fill="#0149E3"/>
<circle cx="309.5" cy="136.5" r="12.5" fill="#38B6FF"/>
<g clip-path="url(#clip0_1951_324)">
<path d="M308.414 137.976L312.633 133.89C313.016 133.52 313.639 133.52 314.022 133.89C314.404 134.261 314.404 134.864 314.022 135.235L309.106 139.991C308.723 140.362 308.1 140.362 307.718 139.991L304.98 137.34C304.593 136.964 304.593 136.366 304.98 135.995C305.368 135.624 305.986 135.624 306.368 135.995L308.414 137.976Z" fill="white"/>
</g>
<g filter="url(#filter1_d_1951_324)">
<rect x="21" y="17" width="281" height="72" rx="22" fill="white"/>
</g>
<path d="M87.891 63.9V67.813H82.665V63.9H81.365V73H82.665V68.944H87.891V73H89.191V63.9H87.891ZM97.9598 69.594C97.9598 67.475 96.5428 66.045 94.5538 66.045C92.5648 66.045 91.0958 67.514 91.0958 69.555C91.0958 71.609 92.5778 73.078 94.8008 73.078C95.9448 73.078 96.8938 72.688 97.5178 71.96L96.8288 71.154C96.3218 71.713 95.6458 71.986 94.8398 71.986C93.4748 71.986 92.4998 71.18 92.3438 69.971H97.9338C97.9468 69.854 97.9598 69.698 97.9598 69.594ZM94.5538 67.098C95.7628 67.098 96.6338 67.917 96.7638 69.074H92.3438C92.4738 67.904 93.3578 67.098 94.5538 67.098ZM100.889 67.267V66.11H99.6928V73H100.941V69.568C100.941 68.06 101.773 67.241 103.112 67.241C103.203 67.241 103.294 67.241 103.398 67.254V66.045C102.189 66.045 101.331 66.461 100.889 67.267ZM111.099 69.594C111.099 67.475 109.682 66.045 107.693 66.045C105.704 66.045 104.235 67.514 104.235 69.555C104.235 71.609 105.717 73.078 107.94 73.078C109.084 73.078 110.033 72.688 110.657 71.96L109.968 71.154C109.461 71.713 108.785 71.986 107.979 71.986C106.614 71.986 105.639 71.18 105.483 69.971H111.073C111.086 69.854 111.099 69.698 111.099 69.594ZM107.693 67.098C108.902 67.098 109.773 67.917 109.903 69.074H105.483C105.613 67.904 106.497 67.098 107.693 67.098ZM113.119 63.276C112.625 63.276 112.248 63.64 112.248 64.16C112.248 64.55 112.469 64.849 112.794 64.966L112.313 66.903H113.132L113.756 65.083C113.925 64.602 113.964 64.407 113.964 64.16C113.964 63.653 113.613 63.276 113.119 63.276ZM117.513 73.078C119.346 73.078 120.49 72.285 120.49 71.037C120.49 68.359 116.122 69.685 116.122 68.06C116.122 67.514 116.655 67.111 117.747 67.111C118.423 67.111 119.112 67.254 119.736 67.657L120.269 66.669C119.671 66.279 118.657 66.045 117.76 66.045C115.992 66.045 114.887 66.877 114.887 68.112C114.887 70.855 119.242 69.516 119.242 71.063C119.242 71.648 118.761 71.999 117.604 71.999C116.707 71.999 115.771 71.7 115.186 71.284L114.666 72.272C115.238 72.727 116.369 73.078 117.513 73.078ZM129.024 71.7C128.764 71.908 128.413 72.025 128.049 72.025C127.36 72.025 126.97 71.609 126.97 70.868V67.137H128.946V66.11H126.97V64.602H125.722V66.11H124.552V67.137H125.722V70.92C125.722 72.311 126.515 73.078 127.906 73.078C128.465 73.078 129.037 72.922 129.414 72.597L129.024 71.7ZM134.602 66.045C133.549 66.045 132.691 66.422 132.171 67.085V63.354H130.923V73H132.171V69.451C132.171 67.956 133.029 67.163 134.355 67.163C135.538 67.163 136.214 67.826 136.214 69.178V73H137.462V69.035C137.462 67.007 136.279 66.045 134.602 66.045ZM146.037 69.594C146.037 67.475 144.62 66.045 142.631 66.045C140.642 66.045 139.173 67.514 139.173 69.555C139.173 71.609 140.655 73.078 142.878 73.078C144.022 73.078 144.971 72.688 145.595 71.96L144.906 71.154C144.399 71.713 143.723 71.986 142.917 71.986C141.552 71.986 140.577 71.18 140.421 69.971H146.011C146.024 69.854 146.037 69.698 146.037 69.594ZM142.631 67.098C143.84 67.098 144.711 67.917 144.841 69.074H140.421C140.551 67.904 141.435 67.098 142.631 67.098ZM151.261 73H152.509V63.354H151.261V73ZM155.516 64.784C156.01 64.784 156.361 64.42 156.361 63.952C156.361 63.51 155.997 63.159 155.516 63.159C155.035 63.159 154.671 63.523 154.671 63.978C154.671 64.433 155.035 64.784 155.516 64.784ZM154.892 73H156.14V66.11H154.892V73ZM162.202 66.045C161.11 66.045 160.226 66.448 159.719 67.15V66.11H158.523V73H159.771V69.451C159.771 67.956 160.629 67.163 161.955 67.163C163.138 67.163 163.814 67.826 163.814 69.178V73H165.062V69.035C165.062 67.007 163.879 66.045 162.202 66.045ZM172.636 73H174.17L170.985 68.957L173.884 66.11H172.376L168.619 69.542V63.354H167.371V73H168.619V71.115L170.049 69.789L172.636 73ZM182.357 71.7C182.097 71.908 181.746 72.025 181.382 72.025C180.693 72.025 180.303 71.609 180.303 70.868V67.137H182.279V66.11H180.303V64.602H179.055V66.11H177.885V67.137H179.055V70.92C179.055 72.311 179.848 73.078 181.239 73.078C181.798 73.078 182.37 72.922 182.747 72.597L182.357 71.7ZM186.979 73.078C189.046 73.078 190.554 71.609 190.554 69.555C190.554 67.501 189.046 66.045 186.979 66.045C184.912 66.045 183.391 67.501 183.391 69.555C183.391 71.609 184.912 73.078 186.979 73.078ZM186.979 71.986C185.653 71.986 184.652 71.024 184.652 69.555C184.652 68.086 185.653 67.137 186.979 67.137C188.305 67.137 189.293 68.086 189.293 69.555C189.293 71.024 188.305 71.986 186.979 71.986ZM199.424 66.045C198.41 66.045 197.526 66.435 196.967 67.202V66.11H195.771V75.522H197.019V71.96C197.591 72.701 198.449 73.078 199.424 73.078C201.439 73.078 202.908 71.674 202.908 69.555C202.908 67.449 201.439 66.045 199.424 66.045ZM199.32 71.986C198.007 71.986 197.006 71.024 197.006 69.555C197.006 68.099 198.007 67.137 199.32 67.137C200.646 67.137 201.647 68.099 201.647 69.555C201.647 71.024 200.646 71.986 199.32 71.986ZM207.078 66.045C205.973 66.045 204.946 66.357 204.231 66.929L204.751 67.865C205.284 67.41 206.116 67.124 206.935 67.124C208.17 67.124 208.781 67.735 208.781 68.788V69.035H206.805C204.751 69.035 204.036 69.945 204.036 71.05C204.036 72.246 205.024 73.078 206.584 73.078C207.663 73.078 208.43 72.714 208.846 72.09V73H210.029V68.84C210.029 66.955 208.963 66.045 207.078 66.045ZM206.792 72.116C205.843 72.116 205.271 71.687 205.271 70.998C205.271 70.413 205.622 69.932 206.857 69.932H208.781V70.894C208.469 71.687 207.728 72.116 206.792 72.116ZM217.086 66.11L214.707 71.622L212.302 66.11H211.002L214.044 72.987L213.823 73.468C213.485 74.261 213.108 74.534 212.51 74.534C212.042 74.534 211.613 74.352 211.275 74.027L210.742 74.963C211.171 75.379 211.847 75.6 212.51 75.6C213.563 75.6 214.356 75.145 214.967 73.689L218.308 66.11H217.086ZM219.353 71.297C218.859 71.297 218.482 71.661 218.482 72.181C218.482 72.571 218.703 72.87 219.028 72.987L218.547 74.924H219.366L219.977 73.117C220.146 72.636 220.198 72.441 220.198 72.181C220.198 71.674 219.847 71.297 219.353 71.297ZM228.962 71.7C228.702 71.908 228.351 72.025 227.987 72.025C227.298 72.025 226.908 71.609 226.908 70.868V67.137H228.884V66.11H226.908V64.602H225.66V66.11H224.49V67.137H225.66V70.92C225.66 72.311 226.453 73.078 227.844 73.078C228.403 73.078 228.975 72.922 229.352 72.597L228.962 71.7ZM234.54 66.045C233.487 66.045 232.629 66.422 232.109 67.085V63.354H230.861V73H232.109V69.451C232.109 67.956 232.967 67.163 234.293 67.163C235.476 67.163 236.152 67.826 236.152 69.178V73H237.4V69.035C237.4 67.007 236.217 66.045 234.54 66.045ZM242.218 66.045C241.113 66.045 240.086 66.357 239.371 66.929L239.891 67.865C240.424 67.41 241.256 67.124 242.075 67.124C243.31 67.124 243.921 67.735 243.921 68.788V69.035H241.945C239.891 69.035 239.176 69.945 239.176 71.05C239.176 72.246 240.164 73.078 241.724 73.078C242.803 73.078 243.57 72.714 243.986 72.09V73H245.169V68.84C245.169 66.955 244.103 66.045 242.218 66.045ZM241.932 72.116C240.983 72.116 240.411 71.687 240.411 70.998C240.411 70.413 240.762 69.932 241.997 69.932H243.921V70.894C243.609 71.687 242.868 72.116 241.932 72.116ZM251.158 66.045C250.066 66.045 249.182 66.448 248.675 67.15V66.11H247.479V73H248.727V69.451C248.727 67.956 249.585 67.163 250.911 67.163C252.094 67.163 252.77 67.826 252.77 69.178V73H254.018V69.035C254.018 67.007 252.835 66.045 251.158 66.045ZM261.593 73H263.127L259.942 68.957L262.841 66.11H261.333L257.576 69.542V63.354H256.328V73H257.576V71.115L259.006 69.789L261.593 73ZM266.098 73.078C267.931 73.078 269.075 72.285 269.075 71.037C269.075 68.359 264.707 69.685 264.707 68.06C264.707 67.514 265.24 67.111 266.332 67.111C267.008 67.111 267.697 67.254 268.321 67.657L268.854 66.669C268.256 66.279 267.242 66.045 266.345 66.045C264.577 66.045 263.472 66.877 263.472 68.112C263.472 70.855 267.827 69.516 267.827 71.063C267.827 71.648 267.346 71.999 266.189 71.999C265.292 71.999 264.356 71.7 263.771 71.284L263.251 72.272C263.823 72.727 264.954 73.078 266.098 73.078ZM270.7 70.127H271.688L271.935 63.9H270.466L270.7 70.127ZM271.207 73.078C271.688 73.078 272.039 72.701 272.039 72.246C272.039 71.778 271.688 71.414 271.207 71.414C270.713 71.414 270.349 71.778 270.349 72.246C270.349 72.701 270.713 73.078 271.207 73.078Z" fill="#13273F"/>
<path d="M25.5 68C24.7 80.4 15.5 88.8333 11 91.5C25.4 91.5 37 86.1667 41 83.5L25.5 68Z" fill="white"/>
<path d="M85.39 39.44C84.354 39.44 83.472 39.776 82.898 40.392V36.612H81.148V47H82.898V43.22C82.898 41.722 83.738 40.966 84.984 40.966C86.104 40.966 86.762 41.61 86.762 42.94V47H88.512V42.716C88.512 40.462 87.182 39.44 85.39 39.44ZM94.736 45.348C94.47 45.558 94.12 45.656 93.756 45.656C93.084 45.656 92.72 45.264 92.72 44.536V40.98H94.722V39.58H92.72V37.872H90.97V39.58H89.738V40.98H90.97V44.578C90.97 46.23 91.908 47.098 93.546 47.098C94.176 47.098 94.806 46.93 95.226 46.594L94.736 45.348ZM100.492 45.348C100.226 45.558 99.8758 45.656 99.5118 45.656C98.8398 45.656 98.4758 45.264 98.4758 44.536V40.98H100.478V39.58H98.4758V37.872H96.7258V39.58H95.4938V40.98H96.7258V44.578C96.7258 46.23 97.6638 47.098 99.3018 47.098C99.9318 47.098 100.562 46.93 100.982 46.594L100.492 45.348ZM106.565 39.44C105.543 39.44 104.675 39.79 104.087 40.504V39.524H102.421V49.716H104.171V46.09C104.773 46.776 105.613 47.098 106.565 47.098C108.749 47.098 110.359 45.586 110.359 43.262C110.359 40.952 108.749 39.44 106.565 39.44ZM106.369 45.6C105.109 45.6 104.143 44.69 104.143 43.262C104.143 41.834 105.109 40.924 106.369 40.924C107.629 40.924 108.581 41.834 108.581 43.262C108.581 44.69 107.629 45.6 106.369 45.6ZM114.329 47.098C116.429 47.098 117.717 46.188 117.717 44.788C117.717 41.862 113.097 43.206 113.097 41.694C113.097 41.204 113.601 40.854 114.665 40.854C115.379 40.854 116.093 40.994 116.807 41.414L117.479 40.084C116.807 39.678 115.673 39.44 114.679 39.44C112.663 39.44 111.389 40.364 111.389 41.778C111.389 44.76 116.009 43.416 116.009 44.844C116.009 45.362 115.547 45.67 114.441 45.67C113.503 45.67 112.495 45.362 111.837 44.928L111.165 46.258C111.837 46.734 113.083 47.098 114.329 47.098ZM119.784 41.764C120.414 41.764 120.932 41.274 120.932 40.602C120.932 39.902 120.414 39.44 119.784 39.44C119.154 39.44 118.636 39.902 118.636 40.602C118.636 41.274 119.154 41.764 119.784 41.764ZM119.784 47.098C120.414 47.098 120.932 46.608 120.932 45.936C120.932 45.236 120.414 44.774 119.784 44.774C119.154 44.774 118.636 45.236 118.636 45.936C118.636 46.608 119.154 47.098 119.784 47.098ZM121.771 48.4H123.339L127.959 35.212H126.391L121.771 48.4ZM125.982 48.4H127.55L132.17 35.212H130.602L125.982 48.4ZM134.686 39.44C133.482 39.44 132.32 39.748 131.522 40.364L132.208 41.638C132.768 41.176 133.636 40.896 134.476 40.896C135.722 40.896 136.338 41.498 136.338 42.52V42.632H134.406C132.138 42.632 131.298 43.612 131.298 44.858C131.298 46.16 132.376 47.098 134.084 47.098C135.204 47.098 136.016 46.734 136.436 46.09V47H138.088V42.618C138.088 40.462 136.842 39.44 134.686 39.44ZM134.448 45.824C133.552 45.824 133.02 45.418 133.02 44.788C133.02 44.242 133.342 43.794 134.532 43.794H136.338V44.662C136.044 45.432 135.302 45.824 134.448 45.824ZM144.478 39.44C143.456 39.44 142.588 39.79 142 40.504V39.524H140.334V49.716H142.084V46.09C142.686 46.776 143.526 47.098 144.478 47.098C146.662 47.098 148.272 45.586 148.272 43.262C148.272 40.952 146.662 39.44 144.478 39.44ZM144.282 45.6C143.022 45.6 142.056 44.69 142.056 43.262C142.056 41.834 143.022 40.924 144.282 40.924C145.542 40.924 146.494 41.834 146.494 43.262C146.494 44.69 145.542 45.6 144.282 45.6ZM154.075 39.44C153.053 39.44 152.185 39.79 151.597 40.504V39.524H149.931V49.716H151.681V46.09C152.283 46.776 153.123 47.098 154.075 47.098C156.259 47.098 157.869 45.586 157.869 43.262C157.869 40.952 156.259 39.44 154.075 39.44ZM153.879 45.6C152.619 45.6 151.653 44.69 151.653 43.262C151.653 41.834 152.619 40.924 153.879 40.924C155.139 40.924 156.091 41.834 156.091 43.262C156.091 44.69 155.139 45.6 153.879 45.6ZM159.952 47.098C160.582 47.098 161.1 46.608 161.1 45.936C161.1 45.236 160.582 44.774 159.952 44.774C159.322 44.774 158.804 45.236 158.804 45.936C158.804 46.608 159.322 47.098 159.952 47.098ZM165.848 37.928C166.212 37.928 166.548 38.054 166.814 38.236L167.304 36.92C166.912 36.64 166.324 36.514 165.722 36.514C163.986 36.514 163.048 37.536 163.048 39.104V39.58H161.816V40.98H163.048V47H164.798V40.98H166.8V39.58H164.742V39.132C164.742 38.334 165.12 37.928 165.848 37.928ZM174.897 43.304C174.897 40.966 173.301 39.44 171.117 39.44C168.891 39.44 167.253 41.036 167.253 43.262C167.253 45.488 168.877 47.098 171.383 47.098C172.671 47.098 173.721 46.678 174.393 45.88L173.455 44.802C172.923 45.348 172.265 45.614 171.425 45.614C170.123 45.614 169.213 44.914 169.003 43.822H174.869C174.883 43.654 174.897 43.444 174.897 43.304ZM171.117 40.84C172.265 40.84 173.091 41.582 173.231 42.66H168.989C169.157 41.568 169.983 40.84 171.117 40.84ZM180.82 39.44C179.728 39.44 178.818 39.804 178.244 40.49V39.524H176.578V47H178.328V43.22C178.328 41.722 179.168 40.966 180.414 40.966C181.534 40.966 182.192 41.61 182.192 42.94V47H183.942V42.716C183.942 40.462 182.612 39.44 180.82 39.44ZM189.018 39.44C187.814 39.44 186.652 39.748 185.854 40.364L186.54 41.638C187.1 41.176 187.968 40.896 188.808 40.896C190.054 40.896 190.67 41.498 190.67 42.52V42.632H188.738C186.47 42.632 185.63 43.612 185.63 44.858C185.63 46.16 186.708 47.098 188.416 47.098C189.536 47.098 190.348 46.734 190.768 46.09V47H192.42V42.618C192.42 40.462 191.174 39.44 189.018 39.44ZM188.78 45.824C187.884 45.824 187.352 45.418 187.352 44.788C187.352 44.242 187.674 43.794 188.864 43.794H190.67V44.662C190.376 45.432 189.634 45.824 188.78 45.824ZM195.226 47.098C195.856 47.098 196.374 46.608 196.374 45.936C196.374 45.236 195.856 44.774 195.226 44.774C194.596 44.774 194.078 45.236 194.078 45.936C194.078 46.608 194.596 47.098 195.226 47.098ZM201.377 47.098C202.833 47.098 203.995 46.468 204.569 45.348L203.225 44.564C202.777 45.278 202.105 45.6 201.363 45.6C200.075 45.6 199.095 44.718 199.095 43.262C199.095 41.82 200.075 40.924 201.363 40.924C202.105 40.924 202.777 41.246 203.225 41.96L204.569 41.176C203.995 40.042 202.833 39.44 201.377 39.44C199.011 39.44 197.331 41.022 197.331 43.262C197.331 45.502 199.011 47.098 201.377 47.098ZM209.332 47.098C211.656 47.098 213.322 45.502 213.322 43.262C213.322 41.022 211.656 39.44 209.332 39.44C207.036 39.44 205.356 41.022 205.356 43.262C205.356 45.502 207.036 47.098 209.332 47.098ZM209.332 45.6C208.072 45.6 207.12 44.69 207.12 43.262C207.12 41.834 208.072 40.924 209.332 40.924C210.606 40.924 211.558 41.834 211.558 43.262C211.558 44.69 210.606 45.6 209.332 45.6ZM213.428 48.4H214.996L219.616 35.212H218.048L213.428 48.4ZM220.941 40.616V39.524H219.275V47H221.025V43.374C221.025 41.848 221.865 41.064 223.195 41.064C223.321 41.064 223.447 41.078 223.601 41.106V39.44C222.355 39.44 221.445 39.832 220.941 40.616ZM223.025 48.4H224.593L229.213 35.212H227.645L223.025 48.4ZM237.52 37.2L234.23 44.76L230.968 37.2H228.994L233.278 47H235.07L239.34 37.2H237.52ZM244.843 47.14C247.881 47.14 250.121 45.012 250.121 42.1C250.121 39.188 247.881 37.06 244.843 37.06C241.805 37.06 239.565 39.202 239.565 42.1C239.565 44.998 241.805 47.14 244.843 47.14ZM244.843 45.544C242.869 45.544 241.399 44.102 241.399 42.1C241.399 40.098 242.869 38.656 244.843 38.656C246.817 38.656 248.287 40.098 248.287 42.1C248.287 44.102 246.817 45.544 244.843 45.544ZM262.774 47L262.76 37.2H261.262L257.44 43.696L253.548 37.2H252.05V47H253.786V40.588L257.006 45.88H257.818L261.038 40.504L261.052 47H262.774Z" fill="#07A4FF"/>
<path d="M80 48.4H264.104V49.1H80V48.4Z" fill="#07A4FF"/>
<circle cx="47.5" cy="43.5" r="14" fill="#F4F7F9" stroke="#DBE3EB"/>
<path d="M45.5299 47.9281L44.7847 48.6365C44.1397 49.2481 43.0891 49.2481 42.4432 48.6365C42.1342 48.3426 41.9638 47.951 41.9638 47.5348C41.9638 47.1186 42.1349 46.7287 42.4432 46.433L45.1849 43.8327C45.7525 43.2932 46.8215 42.4994 47.6007 43.2387C47.9586 43.5785 48.5355 43.5767 48.8915 43.2343C49.2458 42.892 49.2439 42.3393 48.886 42.0005C47.563 40.7439 45.6053 40.9761 43.9006 42.5944L41.159 45.1958C40.5012 45.8197 40.1396 46.6513 40.1396 47.5349C40.1396 48.4202 40.5021 49.2499 41.159 49.874C41.8361 50.5164 42.7248 50.8385 43.6144 50.8385C44.504 50.8385 45.3937 50.5173 46.0698 49.874L46.8159 49.1656C47.1737 48.8268 47.1756 48.2751 46.8205 47.9337C46.4654 47.5922 45.8877 47.5904 45.5297 47.9284L45.5299 47.9281ZM53.8395 37.8223C52.4162 36.4723 50.4273 36.3993 49.1117 37.6489L48.1833 38.5306C47.8255 38.8703 47.8226 39.422 48.1778 39.7635C48.5329 40.1058 49.1097 40.1076 49.4677 39.7679L50.3969 38.8871C51.0777 38.2393 51.971 38.5078 52.5552 39.0604C52.8643 39.3552 53.0355 39.7459 53.0355 40.1621C53.0355 40.5783 52.8644 40.9691 52.5552 41.263L49.6297 44.0385C48.292 45.3066 47.6645 44.7126 47.3968 44.4582C47.039 44.1185 46.4621 44.1212 46.1079 44.4626C45.7537 44.8041 45.7546 45.3576 46.1125 45.6955C46.7271 46.278 47.4281 46.5667 48.1623 46.5667C49.0611 46.5667 50.0115 46.1337 50.9159 45.2758L53.8414 42.5011C54.4965 41.8763 54.8599 41.0456 54.8599 40.162C54.8599 39.2784 54.4965 38.4469 53.8396 37.822L53.8395 37.8223Z" fill="#07A4FF"/>
<g filter="url(#filter2_d_1951_324)">
<rect x="156.82" y="112" width="38.8469" height="38.8469" rx="13" fill="white"/>
</g>
<path d="M186.481 127.417L184.121 128.716L181.76 130.958V138.653H185.065C185.847 138.653 186.481 138.019 186.481 137.237V127.417Z" fill="#4CAF50"/>
<path d="M166.653 127.417L168.359 128.225L171.374 130.958V138.653H168.07C167.287 138.653 166.653 138.019 166.653 137.237V127.417Z" fill="#1E88E5"/>
<path d="M181.761 125.057L176.568 128.952L171.374 125.057L170.902 127.795L171.374 130.958L176.568 134.853L181.761 130.958L182.233 127.795L181.761 125.057Z" fill="#E53935"/>
<path d="M166.653 125.575V127.417L171.374 130.958V125.057L169.899 123.952C169.548 123.688 169.121 123.546 168.682 123.546C167.562 123.546 166.653 124.454 166.653 125.575Z" fill="#C62828"/>
<path d="M186.481 125.575V127.417L181.76 130.958V125.057L183.235 123.952C183.586 123.688 184.013 123.546 184.452 123.546C185.573 123.546 186.481 124.454 186.481 125.575Z" fill="#FBC02D"/>
<g filter="url(#filter3_d_1951_324)">
<rect x="109.879" y="112" width="38.8469" height="38.8469" rx="13" fill="white"/>
</g>
<path d="M129.304 120.633C123.638 120.633 119.052 125.003 119.052 130.344C119.052 133.15 120.293 135.632 122.289 137.412V142.214L126.498 139.678C127.361 139.894 128.332 140.056 129.304 140.056C134.969 140.056 139.555 135.686 139.555 130.344C139.555 125.003 134.969 120.633 129.304 120.633Z" fill="#448AFF"/>
<path d="M122.829 133.582L128.225 127.647L130.922 130.344L135.778 127.647L130.383 133.582L127.685 130.884L122.829 133.582Z" fill="white"/>
<g filter="url(#filter4_d_1951_324)">
<rect x="16" y="112" width="38.8469" height="38.8469" rx="13" fill="white"/>
</g>
<path d="M35.4236 120.361C29.3143 120.361 24.3613 125.314 24.3613 131.423C24.3613 133.659 25.026 135.744 26.1686 137.483L24.7437 142.308L29.7559 140.92C31.413 141.912 33.3523 142.481 35.4236 142.481C41.5329 142.481 46.4859 137.528 46.4859 131.419C46.4859 125.314 41.5329 120.361 35.4236 120.361Z" fill="#25D366"/>
<path d="M41.5007 134.46C41.487 134.314 41.4005 134.187 41.2685 134.127C40.3762 133.718 39.4794 133.308 38.5871 132.898C38.487 132.853 38.3641 132.876 38.2912 132.962L37.0803 134.328C36.9847 134.437 36.8345 134.473 36.7025 134.419C36.0742 134.159 35.2275 133.722 34.3716 132.985C33.3474 132.106 32.7464 131.164 32.4096 130.549C32.578 130.435 33.0378 130.094 33.2427 129.461C33.2427 129.457 33.2472 129.452 33.2472 129.452C33.3747 129.061 33.3474 128.637 33.2062 128.25C32.965 127.608 32.4824 126.366 32.2958 126.174C32.2639 126.143 32.2275 126.111 32.2275 126.111C32.0909 125.988 31.9134 125.92 31.7267 125.91C31.663 125.906 31.5947 125.906 31.5219 125.906C31.3124 125.901 31.1258 125.901 30.9892 125.92C30.6023 125.974 30.32 126.234 30.1425 126.452C29.9285 126.712 29.6736 127.099 29.5052 127.608C29.4915 127.654 29.4778 127.695 29.4642 127.74C29.2775 128.387 29.314 129.079 29.537 129.716C29.7464 130.313 30.0514 131.023 30.5112 131.774C31.2897 133.053 32.1364 133.845 32.71 134.369C33.3565 134.965 34.1577 135.698 35.4278 136.308C36.6023 136.873 37.6676 137.082 38.3823 137.168C38.6736 137.196 39.2108 137.2 39.8254 136.968C40.1076 136.859 40.3443 136.727 40.5355 136.586C41.0409 136.226 41.3959 135.684 41.487 135.074C41.487 135.07 41.487 135.065 41.487 135.061C41.5189 134.829 41.5143 134.628 41.5007 134.46Z" fill="white"/>
<g filter="url(#filter5_d_1951_324)">
<rect x="63" y="112" width="38.8469" height="38.8469" rx="13" fill="white"/>
</g>
<path d="M82.0038 119C76.9925 119 75.5269 119.005 75.242 119.029C74.2136 119.114 73.5737 119.276 72.8765 119.623C72.3393 119.89 71.9155 120.199 71.4973 120.633C70.7357 121.423 70.2742 122.396 70.1071 123.552C70.0258 124.114 70.0022 124.228 69.9974 127.095C69.9956 128.051 69.9974 129.308 69.9974 130.995C69.9974 136.002 70.0029 137.467 70.0269 137.751C70.11 138.752 70.267 139.381 70.5993 140.07C71.2344 141.388 72.4475 142.378 73.8765 142.747C74.3713 142.874 74.9178 142.945 75.6194 142.978C75.9167 142.991 78.9465 143 81.9781 143C85.0098 143 88.0414 142.996 88.3313 142.982C89.1436 142.943 89.6154 142.88 90.137 142.745C90.8455 142.564 91.5059 142.229 92.072 141.766C92.638 141.303 93.0961 140.721 93.4142 140.063C93.74 139.39 93.9053 138.737 93.9801 137.788C93.9963 137.582 94.0031 134.285 94.0031 130.992C94.0031 127.699 93.9958 124.408 93.9795 124.201C93.9038 123.238 93.7386 122.59 93.4022 121.905C93.1261 121.344 92.8197 120.925 92.3747 120.497C91.5808 119.739 90.6096 119.277 89.4522 119.11C88.8914 119.029 88.7797 119.005 85.9106 119H82.0038Z" fill="url(#paint0_radial_1951_324)"/>
<path d="M82.0038 119C76.9925 119 75.5269 119.005 75.242 119.029C74.2136 119.114 73.5737 119.276 72.8765 119.623C72.3393 119.89 71.9155 120.199 71.4973 120.633C70.7357 121.423 70.2742 122.396 70.1071 123.552C70.0258 124.114 70.0022 124.228 69.9974 127.095C69.9956 128.051 69.9974 129.308 69.9974 130.995C69.9974 136.002 70.0029 137.467 70.0269 137.751C70.11 138.752 70.267 139.381 70.5993 140.07C71.2344 141.388 72.4475 142.378 73.8765 142.747C74.3713 142.874 74.9178 142.945 75.6194 142.978C75.9167 142.991 78.9465 143 81.9781 143C85.0098 143 88.0414 142.996 88.3313 142.982C89.1436 142.943 89.6154 142.88 90.137 142.745C90.8455 142.564 91.5059 142.229 92.072 141.766C92.638 141.303 93.0961 140.721 93.4142 140.063C93.74 139.39 93.9053 138.737 93.9801 137.788C93.9963 137.582 94.0031 134.285 94.0031 130.992C94.0031 127.699 93.9958 124.408 93.9795 124.201C93.9038 123.238 93.7386 122.59 93.4022 121.905C93.1261 121.344 92.8197 120.925 92.3747 120.497C91.5808 119.739 90.6096 119.277 89.4522 119.11C88.8914 119.029 88.7797 119.005 85.9106 119H82.0038Z" fill="url(#paint1_radial_1951_324)"/>
<path d="M81.9981 122.139C79.5912 122.139 79.2892 122.149 78.3439 122.192C77.4004 122.235 76.7564 122.385 76.1929 122.604C75.61 122.83 75.1156 123.133 74.623 123.626C74.13 124.119 73.8273 124.613 73.6002 125.196C73.3804 125.759 73.2309 126.404 73.1884 127.347C73.1463 128.292 73.1353 128.594 73.1353 131.001C73.1353 133.408 73.146 133.709 73.1888 134.654C73.2322 135.598 73.3816 136.242 73.6005 136.805C73.8271 137.388 74.1299 137.883 74.6226 138.375C75.1151 138.868 75.6095 139.172 76.192 139.398C76.7559 139.617 77.4 139.767 78.3433 139.81C79.2886 139.853 79.5905 139.863 81.9972 139.863C84.4042 139.863 84.7053 139.853 85.6507 139.81C86.5941 139.767 87.2388 139.617 87.8027 139.398C88.3854 139.172 88.8791 138.868 89.3715 138.375C89.8645 137.883 90.1673 137.388 90.3944 136.805C90.6122 136.242 90.7618 135.598 90.8061 134.654C90.8486 133.709 90.8596 133.408 90.8596 131.001C90.8596 128.594 90.8486 128.292 90.8061 127.347C90.7618 126.403 90.6122 125.759 90.3944 125.196C90.1673 124.613 89.8645 124.119 89.3715 123.626C88.8786 123.133 88.3856 122.83 87.8022 122.604C87.2372 122.385 86.5928 122.235 85.6494 122.192C84.704 122.149 84.4031 122.139 81.9955 122.139H81.9981ZM81.2031 123.736C81.439 123.735 81.7023 123.736 81.9981 123.736C84.3643 123.736 84.6448 123.744 85.5792 123.787C86.4433 123.826 86.9122 123.971 87.2246 124.092C87.6382 124.253 87.9331 124.445 88.2431 124.755C88.5532 125.065 88.7453 125.36 88.9063 125.774C89.0276 126.086 89.1721 126.555 89.2114 127.419C89.2539 128.353 89.2631 128.634 89.2631 130.999C89.2631 133.364 89.2539 133.645 89.2114 134.579C89.1719 135.443 89.0276 135.912 88.9063 136.224C88.7456 136.638 88.5532 136.932 88.2431 137.242C87.9329 137.552 87.6384 137.744 87.2246 137.905C86.9126 138.027 86.4433 138.171 85.5792 138.21C84.645 138.253 84.3643 138.262 81.9981 138.262C79.6317 138.262 79.3512 138.253 78.417 138.21C77.5529 138.17 77.084 138.026 76.7714 137.905C76.3578 137.744 76.0624 137.552 75.7522 137.242C75.442 136.932 75.25 136.637 75.089 136.223C74.9677 135.911 74.8232 135.442 74.7838 134.578C74.7414 133.644 74.7329 133.363 74.7329 130.997C74.7329 128.63 74.7414 128.351 74.7838 127.417C74.8233 126.553 74.9677 126.084 75.089 125.771C75.2496 125.358 75.442 125.062 75.7522 124.752C76.0624 124.442 76.3578 124.25 76.7714 124.089C77.0838 123.967 77.5529 123.823 78.417 123.783C79.2345 123.746 79.5514 123.735 81.2031 123.734V123.736ZM86.7287 125.207C86.5184 125.207 86.3127 125.27 86.1378 125.387C85.9629 125.503 85.8266 125.67 85.7462 125.864C85.6657 126.058 85.6446 126.272 85.6857 126.478C85.7268 126.685 85.8281 126.874 85.9769 127.023C86.1256 127.172 86.3151 127.273 86.5215 127.314C86.7278 127.355 86.9416 127.334 87.1359 127.253C87.3303 127.173 87.4963 127.036 87.6131 126.861C87.73 126.686 87.7923 126.481 87.7922 126.27C87.7922 125.683 87.3158 125.207 86.7287 125.207V125.207ZM81.9981 126.45C79.4847 126.45 77.4469 128.488 77.4469 131.001C77.4469 133.514 79.4847 135.551 81.9981 135.551C84.5115 135.551 86.5487 133.514 86.5487 131.001C86.5487 128.488 84.5113 126.45 81.9979 126.45H81.9981ZM81.9981 128.047C83.6295 128.047 84.9522 129.369 84.9522 131.001C84.9522 132.632 83.6295 133.955 81.9981 133.955C80.3665 133.955 79.044 132.632 79.044 131.001C79.044 129.369 80.3665 128.047 81.9981 128.047Z" fill="white"/>
<defs>
<filter id="filter0_d_1951_324" x="203" y="98" width="156" height="85" filterUnits="userSpaceOnUse" color-interpolation-filters="sRGB">
<feFlood flood-opacity="0" result="BackgroundImageFix"/>
<feColorMatrix in="SourceAlpha" type="matrix" values="0 0 0 0 0 0 0 0 0 0 0 0 0 0 0 0 0 0 127 0" result="hardAlpha"/>
<feOffset dy="4"/>
<feGaussianBlur stdDeviation="10.5"/>
<feComposite in2="hardAlpha" operator="out"/>
<feColorMatrix type="matrix" values="0 0 0 0 0.505882 0 0 0 0 0.505882 0 0 0 0 0.647059 0 0 0 0.2 0"/>
<feBlend mode="normal" in2="BackgroundImageFix" result="effect1_dropShadow_1951_324"/>
<feBlend mode="normal" in="SourceGraphic" in2="effect1_dropShadow_1951_324" result="shape"/>
</filter>
<filter id="filter1_d_1951_324" x="0" y="0" width="323" height="114" filterUnits="userSpaceOnUse" color-interpolation-filters="sRGB">
<feFlood flood-opacity="0" result="BackgroundImageFix"/>
<feColorMatrix in="SourceAlpha" type="matrix" values="0 0 0 0 0 0 0 0 0 0 0 0 0 0 0 0 0 0 127 0" result="hardAlpha"/>
<feOffset dy="4"/>
<feGaussianBlur stdDeviation="10.5"/>
<feComposite in2="hardAlpha" operator="out"/>
<feColorMatrix type="matrix" values="0 0 0 0 0.505882 0 0 0 0 0.505882 0 0 0 0 0.647059 0 0 0 0.2 0"/>
<feBlend mode="normal" in2="BackgroundImageFix" result="effect1_dropShadow_1951_324"/>
<feBlend mode="normal" in="SourceGraphic" in2="effect1_dropShadow_1951_324" result="shape"/>
</filter>
<filter id="filter2_d_1951_324" x="150.82" y="106" width="50.8467" height="50.8469" filterUnits="userSpaceOnUse" color-interpolation-filters="sRGB">
<feFlood flood-opacity="0" result="BackgroundImageFix"/>
<feColorMatrix in="SourceAlpha" type="matrix" values="0 0 0 0 0 0 0 0 0 0 0 0 0 0 0 0 0 0 127 0" result="hardAlpha"/>
<feOffset/>
<feGaussianBlur stdDeviation="3"/>
<feComposite in2="hardAlpha" operator="out"/>
<feColorMatrix type="matrix" values="0 0 0 0 0 0 0 0 0 0 0 0 0 0 0 0 0 0 0.05 0"/>
<feBlend mode="normal" in2="BackgroundImageFix" result="effect1_dropShadow_1951_324"/>
<feBlend mode="normal" in="SourceGraphic" in2="effect1_dropShadow_1951_324" result="shape"/>
</filter>
<filter id="filter3_d_1951_324" x="103.879" y="106" width="50.8467" height="50.8469" filterUnits="userSpaceOnUse" color-interpolation-filters="sRGB">
<feFlood flood-opacity="0" result="BackgroundImageFix"/>
<feColorMatrix in="SourceAlpha" type="matrix" values="0 0 0 0 0 0 0 0 0 0 0 0 0 0 0 0 0 0 127 0" result="hardAlpha"/>
<feOffset/>
<feGaussianBlur stdDeviation="3"/>
<feComposite in2="hardAlpha" operator="out"/>
<feColorMatrix type="matrix" values="0 0 0 0 0 0 0 0 0 0 0 0 0 0 0 0 0 0 0.05 0"/>
<feBlend mode="normal" in2="BackgroundImageFix" result="effect1_dropShadow_1951_324"/>
<feBlend mode="normal" in="SourceGraphic" in2="effect1_dropShadow_1951_324" result="shape"/>
</filter>
<filter id="filter4_d_1951_324" x="10" y="106" width="50.8467" height="50.8469" filterUnits="userSpaceOnUse" color-interpolation-filters="sRGB">
<feFlood flood-opacity="0" result="BackgroundImageFix"/>
<feColorMatrix in="SourceAlpha" type="matrix" values="0 0 0 0 0 0 0 0 0 0 0 0 0 0 0 0 0 0 127 0" result="hardAlpha"/>
<feOffset/>
<feGaussianBlur stdDeviation="3"/>
<feComposite in2="hardAlpha" operator="out"/>
<feColorMatrix type="matrix" values="0 0 0 0 0 0 0 0 0 0 0 0 0 0 0 0 0 0 0.05 0"/>
<feBlend mode="normal" in2="BackgroundImageFix" result="effect1_dropShadow_1951_324"/>
<feBlend mode="normal" in="SourceGraphic" in2="effect1_dropShadow_1951_324" result="shape"/>
</filter>
<filter id="filter5_d_1951_324" x="57" y="106" width="50.8467" height="50.8469" filterUnits="userSpaceOnUse" color-interpolation-filters="sRGB">
<feFlood flood-opacity="0" result="BackgroundImageFix"/>
<feColorMatrix in="SourceAlpha" type="matrix" values="0 0 0 0 0 0 0 0 0 0 0 0 0 0 0 0 0 0 127 0" result="hardAlpha"/>
<feOffset/>
<feGaussianBlur stdDeviation="3"/>
<feComposite in2="hardAlpha" operator="out"/>
<feColorMatrix type="matrix" values="0 0 0 0 0 0 0 0 0 0 0 0 0 0 0 0 0 0 0.05 0"/>
<feBlend mode="normal" in2="BackgroundImageFix" result="effect1_dropShadow_1951_324"/>
<feBlend mode="normal" in="SourceGraphic" in2="effect1_dropShadow_1951_324" result="shape"/>
</filter>
<radialGradient id="paint0_radial_1951_324" cx="0" cy="0" r="1" gradientUnits="userSpaceOnUse" gradientTransform="translate(76.3734 144.849) rotate(-90) scale(23.7858 22.1287)">
<stop stop-color="#FFDD55"/>
<stop offset="0.1" stop-color="#FFDD55"/>
<stop offset="0.5" stop-color="#FF543E"/>
<stop offset="1" stop-color="#C837AB"/>
</radialGradient>
<radialGradient id="paint1_radial_1951_324" cx="0" cy="0" r="1" gradientUnits="userSpaceOnUse" gradientTransform="translate(65.9754 120.729) rotate(78.6776) scale(10.6325 43.8385)">
<stop stop-color="#3771C8"/>
<stop offset="0.128" stop-color="#3771C8"/>
<stop offset="1" stop-color="#6600FF" stop-opacity="0"/>
</radialGradient>
<clipPath id="clip0_1951_324">
<rect width="9.61538" height="6.6568" fill="white" transform="translate(304.691 133.615)"/>
</clipPath>
</defs>
</svg>
