<svg width="70" height="70" viewBox="0 0 70 70" fill="none" xmlns="http://www.w3.org/2000/svg">
<path d="M35 70C54.33 70 70 54.33 70 35C70 15.67 54.33 0 35 0C15.67 0 0 15.67 0 35C0 54.33 15.67 70 35 70Z" fill="#2CD19E" fill-opacity="0.18"/>
<path d="M30.4115 37.7477H29.9665C29.9109 37.7477 29.7996 37.7477 29.744 37.6921C29.6884 37.6365 29.6327 37.5808 29.6884 37.4696C29.6884 37.4139 29.6884 37.3027 29.744 37.2471C29.7996 37.1914 29.8552 37.1914 29.9665 37.1914H31.2459C31.6909 37.1914 32.0803 36.802 32.0803 36.357C32.0803 35.912 31.7466 35.5782 31.3016 35.5782V35.1888C31.3016 34.7438 30.9122 34.3544 30.4671 34.3544C30.0221 34.3544 29.6327 34.7438 29.6327 35.1888V35.5782C29.1877 35.6339 28.7983 35.8564 28.5202 36.1345C28.1864 36.4683 28.0195 36.9689 28.0195 37.4139C28.0195 37.9146 28.1864 38.4152 28.5758 38.8046C28.9652 39.194 29.4102 39.3609 29.9665 39.3609H30.4671C30.5228 39.3609 30.634 39.3609 30.6896 39.4165C30.7453 39.4722 30.8009 39.5278 30.7453 39.639C30.7453 39.6947 30.7453 39.8059 30.6896 39.8615C30.634 39.9172 30.5784 39.9728 30.4671 39.9728H29.1321C28.6871 39.9728 28.2977 40.3622 28.2977 40.8072C28.2977 41.2522 28.6871 41.6416 29.1321 41.6416H29.6327V41.9198C29.6327 42.3648 30.0221 42.7542 30.4671 42.7542C30.9122 42.7542 31.3016 42.3648 31.3016 41.9198V41.4747C31.5241 41.3635 31.7466 41.1966 31.8578 41.0297C32.1916 40.6403 32.3585 40.1953 32.3585 39.7503C32.3585 39.2496 32.1916 38.749 31.8022 38.3596C31.4128 37.9146 30.9122 37.7477 30.4115 37.7477Z" fill="#2CD19E"/>
<path d="M55.944 49.8745L55.7772 50.0414C55.3321 50.4864 54.7759 50.8202 54.2196 51.1539L54.164 51.2096C53.3852 52.2665 50.7707 53.4347 46.8768 53.4347C42.9828 53.4347 40.3684 52.2665 39.5896 51.2096L39.5339 51.1539C38.9777 50.8758 38.4214 50.4864 37.9764 50.0414L37.8095 49.8745L37.7539 50.1526C37.7539 50.2639 37.6982 50.4308 37.6982 50.542C37.6982 53.1009 41.6478 55.0479 46.8768 55.0479C52.1057 55.0479 56.0553 53.1009 56.0553 50.542C56.0553 50.4308 56.0553 50.2639 55.9997 50.1526L55.944 49.8745Z" fill="#2CD19E"/>
<path d="M36.8642 28.458L36.8085 28.3467H14.3907C14.0013 28.3467 13.6675 28.5136 13.3894 28.7361C13.1669 29.0142 13 29.4036 13 29.7374V47.26C13 47.6494 13.1669 47.9832 13.3894 48.2613C13.6675 48.5395 14.0013 48.6507 14.3907 48.6507H36.9198L36.8642 48.4838C36.6973 48.0944 36.6417 47.6494 36.6417 47.2044V47.0375H19.5084C19.1746 45.8693 18.5627 44.8124 17.6727 43.9224C16.8383 43.088 15.7814 42.4761 14.6132 42.1423V34.8551C15.7814 34.5214 16.8383 33.9095 17.7283 33.0194C18.5627 32.185 19.2303 31.0725 19.564 29.9043H36.7529V29.793C36.8085 29.4593 36.9198 29.1255 37.0867 28.8474L37.1423 28.7917L37.0867 28.7361C36.9754 28.6805 36.9198 28.5692 36.8642 28.458ZM17.8396 47.0375H14.6132V43.8111C16.1151 44.3674 17.2833 45.5912 17.8396 47.0375ZM14.6132 33.1863V29.9599H17.8396C17.2833 31.4618 16.1151 32.63 14.6132 33.1863Z" fill="#2CD19E"/>
<path d="M55.944 46.5369L55.7772 46.7037C55.3321 47.1488 54.7759 47.4825 54.2196 47.8163L54.164 47.8719C53.3852 48.9288 50.7707 50.097 46.8768 50.097C42.9828 50.097 40.3684 48.9288 39.5896 47.8719L39.5339 47.8163C38.9777 47.5382 38.4214 47.1488 37.9764 46.7037L37.8095 46.5369L37.7539 46.815C37.7539 46.9263 37.6982 47.0931 37.6982 47.2044C37.6982 49.7633 41.6478 51.7102 46.8768 51.7102C52.1057 51.7102 56.0553 49.7633 56.0553 47.2044C56.0553 47.0931 56.0553 46.9263 55.9997 46.815L55.944 46.5369Z" fill="#2CD19E"/>
<path d="M36.6416 37.1914C36.6416 37.0246 36.6416 36.8021 36.6973 36.6352V36.5795V36.5239C36.0854 34.4101 34.4722 32.7413 32.414 32.0181C30.3557 31.2949 28.0194 31.6287 26.2393 32.9081C24.4592 34.1876 23.3467 36.2458 23.3467 38.4153C23.3467 40.5847 24.348 42.6986 26.1281 43.978C27.2962 44.868 28.7425 45.3131 30.1889 45.3131C30.912 45.3131 31.5795 45.2018 32.2471 44.9793C34.3053 44.3118 35.9741 42.6429 36.6416 40.5847V40.4735C36.6416 39.9728 36.7529 39.5278 36.9198 39.0828V38.9159C36.9198 38.8603 36.9198 38.749 36.9198 38.6934V38.6378V38.5821C36.7529 38.1927 36.6416 37.6921 36.6416 37.1914ZM35.3622 38.5265C35.3622 39.9172 34.8059 41.1966 33.8603 42.1979C32.859 43.1992 31.5795 43.6999 30.1889 43.6999C28.7982 43.6999 27.5187 43.1436 26.5174 42.1979C25.5161 41.2522 25.0155 39.9172 25.0155 38.5265C25.0155 37.1358 25.5718 35.8564 26.5174 34.8551C27.4631 33.8538 28.7982 33.3532 30.1889 33.3532C31.5795 33.3532 32.859 33.9094 33.8603 34.8551C34.8059 35.8008 35.3622 37.1358 35.3622 38.5265Z" fill="#2CD19E"/>
<path d="M55.944 43.1992L55.7772 43.3661C55.3321 43.8111 54.7759 44.1449 54.2196 44.4786L54.164 44.5343C53.3852 45.5912 50.7707 46.7594 46.8768 46.7594C42.9828 46.7594 40.3684 45.5912 39.5896 44.5343L39.5339 44.4786C38.9777 44.2005 38.4214 43.8111 37.9764 43.3661L37.8095 43.1992L37.7539 43.4774C37.7539 43.5886 37.6982 43.7555 37.6982 43.8667C37.6982 46.4256 41.6478 48.3726 46.8768 48.3726C52.1057 48.3726 56.0553 46.4256 56.0553 43.8667C56.0553 43.7555 56.0553 43.5886 55.9997 43.4774L55.944 43.1992Z" fill="#2CD19E"/>
<path d="M55.944 39.8616L55.7772 40.0285C55.3321 40.4735 54.7759 40.8072 54.2196 41.141L54.164 41.1966C53.3852 42.2536 50.7707 43.4217 46.8768 43.4217C42.9828 43.4217 40.3684 42.2536 39.5896 41.1966L39.5339 41.141C38.9777 40.8629 38.4214 40.4735 37.9764 40.0285L37.8095 39.8616L37.7539 40.1397C37.7539 40.251 37.6982 40.4178 37.6982 40.5291C37.6982 43.088 41.6478 45.0349 46.8768 45.0349C52.1057 45.0349 56.0553 43.088 56.0553 40.5291C56.0553 40.4178 56.0553 40.251 55.9997 40.1397L55.944 39.8616Z" fill="#2CD19E"/>
<path d="M55.944 36.5239L55.7772 36.6908C55.3321 37.1358 54.7759 37.4696 54.2196 37.8034L54.164 37.859C53.3852 38.9159 50.7707 40.0841 46.8768 40.0841C42.9828 40.0841 40.3684 38.9159 39.5896 37.859L39.5339 37.8034C38.9777 37.5252 38.4214 37.1358 37.9764 36.6908L37.8095 36.5239L37.7539 36.8021C37.7539 36.9133 37.6982 37.0802 37.6982 37.1915C37.6982 39.7503 41.6478 41.6973 46.8768 41.6973C52.1057 41.6973 56.0553 39.7503 56.0553 37.1915C56.0553 37.0802 56.0553 36.9133 55.9997 36.8021L55.944 36.5239Z" fill="#2CD19E"/>
<path d="M55.944 33.1863L55.7772 33.3532C55.3321 33.7982 54.7759 34.1319 54.2196 34.4657L54.164 34.5213C53.3852 35.5783 50.7707 36.7464 46.8768 36.7464C42.9828 36.7464 40.3684 35.5783 39.5896 34.5213L39.5339 34.4657C38.9777 34.1876 38.4214 33.7982 37.9764 33.3532L37.8095 33.1863L37.7539 33.4644C37.7539 33.5757 37.6982 33.7426 37.6982 33.8538C37.6982 36.4127 41.6478 38.3596 46.8768 38.3596C52.1057 38.3596 56.0553 36.4127 56.0553 33.8538C56.0553 33.7426 56.0553 33.5757 55.9997 33.4644L55.944 33.1863Z" fill="#2CD19E"/>
<path d="M55.944 29.8486L55.7772 30.0155C55.3321 30.4605 54.7759 30.7943 54.2196 31.1281L54.164 31.1837C53.3852 32.2406 50.7707 33.4088 46.8768 33.4088C42.9828 33.4088 40.3684 32.2406 39.5896 31.1837L39.5339 31.1281C38.9777 30.8499 38.4214 30.4605 37.9764 30.0155L37.8095 29.8486L37.7539 30.1268C37.7539 30.238 37.6982 30.4049 37.6982 30.5162C37.6982 33.075 41.6478 35.022 46.8768 35.022C52.1057 35.022 56.0553 33.075 56.0553 30.5162C56.0553 30.4049 56.0553 30.238 55.9997 30.1268L55.944 29.8486Z" fill="#2CD19E"/>
<path d="M38.8667 23.6184L39.2561 23.3402H18.7296C18.3402 23.3402 18.0064 23.5071 17.7283 23.7296C17.4501 24.0078 17.3389 24.3415 17.3389 24.7309V27.2898H18.9521V24.9534H22.1785C21.9003 25.7322 21.3997 26.4554 20.7878 27.0673L20.5096 27.2898H22.6791L22.7347 27.2342C23.2354 26.5666 23.6248 25.7878 23.8473 24.9534H37.3647L37.4204 24.8978C37.8098 24.3972 38.3104 23.9521 38.8667 23.6184Z" fill="#2CD19E"/>
<path d="M55.6105 18.3894C55.3323 18.1669 54.9986 18 54.6092 18H23.0684C22.679 18 22.3453 18.1669 22.0671 18.3894C21.789 18.6675 21.6777 19.0013 21.6777 19.3907V22.2833H23.2909V19.6132H26.5173C26.2392 20.5032 25.7385 21.3376 25.071 22.0608L24.8485 22.2833H27.018L27.0736 22.2277C27.5742 21.4489 27.9636 20.5589 28.1861 19.6132H49.4914C49.714 20.392 49.9921 21.1708 50.3815 21.8939L50.4371 21.9495H50.4927C51.2715 22.1164 52.0503 22.2833 52.8291 22.5614L53.6079 22.8396L52.9403 22.3389C52.2172 21.7827 51.6053 20.7814 51.2159 19.6132H54.4423V23.2846L54.4979 23.3402C54.6648 23.4515 54.8317 23.5071 54.9429 23.6184C55.1098 23.7296 55.2211 23.8409 55.3323 23.8965C55.4992 24.0078 55.6661 24.1746 55.7773 24.2859L55.9999 24.5084V19.3907C55.9999 19.0569 55.8886 18.6675 55.6105 18.3894Z" fill="#2CD19E"/>
<path d="M46.8768 22.6727C41.6478 22.6727 37.6982 24.6197 37.6982 27.1785C37.6982 29.7374 41.6478 31.6843 46.8768 31.6843C52.1057 31.6843 56.0553 29.7374 56.0553 27.1785C55.9997 24.6197 52.1057 22.6727 46.8768 22.6727ZM54.3865 27.1785C54.3865 28.5136 51.1601 30.0711 46.8211 30.0711C42.4822 30.0711 39.2558 28.5692 39.2558 27.1785C39.2558 25.7878 42.4822 24.2859 46.8211 24.2859C51.1601 24.2859 54.3865 25.7878 54.3865 27.1785Z" fill="#2CD19E"/>
</svg>
