<svg width="212" height="41" viewBox="0 0 212 41" fill="none" xmlns="http://www.w3.org/2000/svg">
<g clip-path="url(#clip0_1154_995)">
<path d="M21.063 21.4648C21.063 24.6005 20.122 27.2417 18.2333 29.3798C16.2622 31.6201 13.7011 32.7447 10.566 32.7447C7.42255 32.7447 4.86967 31.6201 2.89863 29.3798C1.00911 27.2417 0.0610352 24.6005 0.0610352 21.4648C0.0610352 18.3205 1.00911 15.6801 2.89863 13.5497C4.8916 11.3304 7.45276 10.2214 10.566 10.2214C13.7011 10.2214 16.2622 11.3304 18.2333 13.5497C20.122 15.6801 21.063 18.3205 21.063 21.4648ZM14.8209 21.4648C14.8209 20.0446 14.4778 18.8457 13.7909 17.8765C13.0224 16.7748 11.9469 16.2275 10.566 16.2275C9.18461 16.2275 8.1095 16.7748 7.3402 17.8765C6.64622 18.8457 6.30274 20.0446 6.30274 21.4648C6.30274 22.8772 6.64622 24.0904 7.3402 25.0888C8.1095 26.1905 9.18461 26.7386 10.566 26.7386C11.9469 26.7386 13.0224 26.1905 13.7909 25.0888C14.4778 24.0904 14.8209 22.8772 14.8209 21.4648ZM43.6326 21.4648C43.6326 24.3938 42.7813 26.9531 41.0714 29.1425C39.2423 31.5389 36.8831 32.7447 34.0161 32.7447C31.9925 32.7447 30.276 32.1605 28.8723 31.0067C28.8723 31.2724 28.9021 31.9161 28.9621 32.9452C29.0217 33.9796 29.0511 34.823 29.0511 35.4888C29.0511 39.1661 27.9461 41.0001 25.7367 41.0001C24.833 41.0001 24.0943 40.6819 23.5042 40.053C22.9219 39.4175 22.6306 38.654 22.6306 37.7529V13.8384C22.6306 12.9655 22.9294 12.2107 23.5265 11.5752C24.1237 10.9462 24.8632 10.6289 25.7442 10.6289C27.0726 10.6289 28.0434 11.2857 28.6559 12.5961C29.9623 11.0131 31.7467 10.2214 34.0087 10.2214C36.8831 10.2214 39.2349 11.4042 41.0714 13.7793C42.7739 15.9765 43.6326 18.5358 43.6326 21.4648ZM37.3904 21.4648C37.3904 20.0446 37.0403 18.8457 36.3534 17.8765C35.5837 16.7748 34.509 16.2275 33.1276 16.2275C31.7467 16.2275 30.6716 16.7748 29.9023 17.8765C29.2153 18.8457 28.8723 20.0446 28.8723 21.4648C28.8723 22.8772 29.2153 24.0904 29.9023 25.0888C30.6716 26.1905 31.7467 26.7386 33.1276 26.7386C34.509 26.7386 35.5837 26.1905 36.3534 25.0888C37.0403 24.0904 37.3904 22.8772 37.3904 21.4648ZM66.3436 20.7998C66.3436 21.8342 66.097 22.5443 65.6041 22.9445C65.1117 23.336 64.3428 23.5357 63.3049 23.5357H52.0386C52.0386 24.7194 52.5989 25.6288 53.7187 26.2643C54.6221 26.7608 55.727 27.0129 57.0334 27.0129C58.0494 27.0129 59.266 26.6788 60.692 26.0215C62.1181 25.3553 63.0359 25.0293 63.4324 25.0293C64.1562 25.0293 64.7682 25.2885 65.276 25.821C65.7759 26.3467 66.0304 26.9826 66.0304 27.7152C66.0304 29.4081 64.7537 30.7263 62.1996 31.6726C60.2513 32.3823 58.2728 32.7447 56.2501 32.7447C52.9949 32.7447 50.3667 31.6726 48.3584 29.5352C46.3497 27.3971 45.3425 24.712 45.3425 21.4648C45.3425 18.3722 46.3874 15.7318 48.4776 13.5284C50.5604 11.323 53.1518 10.2214 56.2422 10.2214C59.1166 10.2214 61.5205 11.2644 63.4473 13.3501C65.3728 15.4366 66.3436 17.9216 66.3436 20.7998ZM60.1023 19.2455C60.0721 18.2984 59.6318 17.4406 58.7806 16.6633C57.9294 15.8872 57.0264 15.503 56.0705 15.503C55.0851 15.503 54.1665 15.8872 53.3156 16.6633C52.4648 17.4406 52.0386 18.2984 52.0386 19.2455H60.1023ZM87.3154 29.09C87.3154 29.9932 87.0241 30.7546 86.4422 31.3909C85.8521 32.0203 85.113 32.3384 84.2097 32.3384C82.0296 32.3384 80.9392 30.6221 80.9392 27.1974C80.9392 26.539 80.9843 25.5037 81.0737 24.0761C81.171 22.6554 81.2161 21.6128 81.2161 20.9543C81.2161 17.3217 80.0288 15.503 77.6621 15.503C75.2951 15.503 74.1157 17.3217 74.1157 20.9543C74.1157 21.6128 74.1529 22.6554 74.2199 24.0761C74.2949 25.5037 74.3321 26.539 74.3321 27.1974C74.3321 30.6221 73.257 32.3384 71.1072 32.3384C70.2034 32.3384 69.4647 32.0203 68.882 31.3909C68.2923 30.7546 68.001 29.9932 68.001 29.09V13.8318C68.001 12.9352 68.2923 12.1746 68.882 11.5604C69.4647 10.9389 70.2112 10.6289 71.1146 10.6289C72.6077 10.6289 73.6451 11.2857 74.2274 12.5961C75.2355 11.0131 77.0195 10.2214 79.5732 10.2214C81.9398 10.2214 83.8215 10.8421 85.2024 12.0774C86.6136 13.4026 87.3154 15.2213 87.3154 17.537V29.09ZM106.898 28.4327C106.898 29.8304 105.981 30.9395 104.144 31.7542C102.688 32.4116 101.107 32.7495 99.5075 32.7447C96.3637 32.7447 93.8108 31.6201 91.8397 29.3798C89.9511 27.2417 89.003 24.6005 89.003 21.4648C89.003 18.3205 89.966 15.6658 91.8993 13.4907C93.8331 11.3091 96.3637 10.2214 99.5075 10.2214C101.322 10.2214 102.882 10.4875 104.182 11.0131C105.995 11.7232 106.898 12.8322 106.898 14.3415C106.898 15.1028 106.66 15.776 106.181 16.3607C105.704 16.9376 105.091 17.2336 104.345 17.2336C103.837 17.2336 103.105 17.0634 102.15 16.7313C101.195 16.3902 100.434 16.2275 99.8737 16.2275C98.3877 16.2275 97.2302 16.7527 96.4017 17.8027C95.632 18.7498 95.2443 19.963 95.2443 21.4648C95.2443 22.8772 95.5878 24.0761 96.2826 25.0449C97.0506 26.1769 98.1336 26.7386 99.5145 26.7386C100.127 26.7386 100.963 26.5611 102.03 26.1978C103.099 25.844 103.868 25.6591 104.345 25.6591C105.04 25.6591 105.636 25.9543 106.145 26.5316C106.645 27.1158 106.898 27.7439 106.898 28.4327ZM129.587 29.09C129.587 29.9932 129.297 30.7546 128.714 31.3909C128.124 32.0203 127.378 32.3384 126.473 32.3384C125.115 32.3384 124.145 31.6795 123.562 30.3704C122.256 31.9538 120.471 32.7447 118.209 32.7447C115.313 32.7447 112.939 31.5389 111.101 29.1425C109.429 26.9531 108.587 24.3938 108.587 21.4648C108.587 18.5358 109.429 15.9765 111.101 13.7793C112.969 11.4042 115.335 10.2214 118.209 10.2214C120.471 10.2214 122.256 11.0131 123.562 12.5961C124.145 11.2857 125.115 10.6289 126.473 10.6289C127.355 10.6289 128.094 10.9462 128.692 11.5752C129.288 12.2107 129.587 12.9581 129.587 13.8318V29.09ZM123.346 21.4648C123.346 20.0446 123.003 18.8457 122.316 17.8765C121.517 16.7748 120.442 16.2275 119.091 16.2275C117.709 16.2275 116.634 16.7748 115.865 17.8765C115.172 18.8457 114.828 20.0446 114.828 21.4648C114.828 22.8772 115.163 24.0904 115.827 25.0888C116.62 26.1905 117.709 26.7386 119.091 26.7386C120.471 26.7386 121.546 26.1905 122.316 25.0888C123.003 24.0904 123.346 22.8772 123.346 21.4648ZM145.512 13.4239C145.512 14.7478 144.863 15.6576 143.564 16.1528C142.362 16.553 141.166 16.9605 139.973 17.3808C138.665 18.1212 138.016 19.4968 138.016 21.4943V29.09C138.016 29.9932 137.717 30.7546 137.136 31.3909C136.545 32.0203 135.799 32.3384 134.896 32.3384C133.986 32.3384 133.238 32.0203 132.656 31.3909C132.066 30.7546 131.775 29.9932 131.775 29.09V13.8318C131.775 12.9352 132.066 12.1746 132.648 11.5604C133.238 10.9389 133.986 10.6289 134.889 10.6289C136.381 10.6289 137.418 11.2857 138.001 12.5961C139.338 11.0131 140.772 10.2214 142.317 10.2214C143.197 10.2214 143.952 10.5387 144.579 11.1676C145.198 11.804 145.512 12.5584 145.512 13.4239ZM161.795 13.7051C161.795 15.0807 161.25 15.9462 160.169 16.3168C159.637 16.5013 158.525 16.5973 156.83 16.5973V29.09C156.83 29.9932 156.532 30.7546 155.951 31.3909C155.359 32.0203 154.613 32.3384 153.71 32.3384C152.83 32.3384 152.082 32.0203 151.484 31.3909C150.888 30.7546 150.589 29.9932 150.589 29.09V16.5973C149.305 16.5973 148.372 16.4345 147.783 16.1172C146.977 15.6731 146.579 14.8667 146.579 13.7051C146.579 12.5444 146.99 11.7527 147.819 11.3304C148.378 11.0196 149.305 10.8577 150.589 10.8577V8.2095C150.589 5.09555 151.626 3.54247 153.71 3.54247C155.785 3.54247 156.83 5.09555 156.83 8.2095V10.8577C158.525 10.8577 159.637 10.9536 160.169 11.1381C161.25 11.5079 161.795 12.3669 161.795 13.7051ZM211.939 9.94913C211.922 8.05042 208.381 7.1886 199.214 7.1886C177.705 7.1886 172.249 6.2784 166.409 0.190308C168.865 3.84587 170.209 10.7023 192.944 10.3612C216.663 9.99915 202.193 16.4206 197.983 23.6755C205.575 16.9614 211.916 12.5358 211.939 9.9766V9.94913ZM181.714 29.4459C181.714 30.2991 181.372 31.1173 180.763 31.7206C180.154 32.3239 179.328 32.6629 178.467 32.6631C176.667 32.6631 175.212 31.2216 175.212 29.4459C175.212 29.0223 175.296 28.6028 175.459 28.2114C175.623 27.82 175.862 27.4644 176.165 27.1648C176.467 26.8653 176.826 26.6277 177.221 26.4658C177.616 26.3038 178.039 26.2205 178.467 26.2208C180.26 26.2208 181.714 27.6628 181.714 29.4459ZM196.526 29.4459C196.526 30.2991 196.184 31.1173 195.575 31.7206C194.966 32.3239 194.14 32.6629 193.279 32.6631C191.481 32.6631 190.024 31.2216 190.024 29.4459C190.024 29.0223 190.108 28.6029 190.271 28.2115C190.435 27.8201 190.675 27.4645 190.977 27.165C191.279 26.8654 191.638 26.6279 192.033 26.4659C192.428 26.3039 192.851 26.2206 193.279 26.2208C195.072 26.2208 196.526 27.6628 196.526 29.4459Z" fill="url(#paint0_linear_1154_995)"/>
</g>
<defs>
<linearGradient id="paint0_linear_1154_995" x1="106" y1="32.4725" x2="106" y2="0.190308" gradientUnits="userSpaceOnUse">
<stop stop-color="#04B6F0"/>
<stop offset="1" stop-color="#3ECAF0"/>
</linearGradient>
<clipPath id="clip0_1154_995">
<rect width="212" height="41" fill="white"/>
</clipPath>
</defs>
</svg>
