<svg width="347" height="200" viewBox="0 0 347 200" fill="none" xmlns="http://www.w3.org/2000/svg">
<g filter="url(#filter0_d_1951_326)">
<rect x="21" y="25" width="305" height="74" rx="10" fill="#F4F7F9"/>
</g>
<path d="M44.756 57.156C46.901 57.156 48.032 56.051 48.032 53.802V47.9H42.741V49.59H45.939V53.919C45.939 54.92 45.497 55.427 44.652 55.427C44.002 55.427 43.456 55.089 42.962 54.426L41.792 55.83C42.455 56.688 43.534 57.156 44.756 57.156ZM53.2972 57.104C55.5202 57.104 57.1322 55.609 57.1322 53.503C57.1322 51.397 55.5202 49.902 53.2972 49.902C51.0742 49.902 49.4492 51.397 49.4492 53.503C49.4492 55.609 51.0742 57.104 53.2972 57.104ZM53.2972 55.44C52.2832 55.44 51.5032 54.712 51.5032 53.503C51.5032 52.294 52.2832 51.566 53.2972 51.566C54.3112 51.566 55.0782 52.294 55.0782 53.503C55.0782 54.712 54.3112 55.44 53.2972 55.44ZM62.7388 49.902C61.7898 49.902 60.9708 50.227 60.4248 50.825V50.006H58.4878V57H60.5158V53.542C60.5158 52.255 61.2178 51.657 62.1928 51.657C63.0898 51.657 63.6098 52.177 63.6098 53.308V57H65.6378V52.996C65.6378 50.864 64.3898 49.902 62.7388 49.902ZM70.297 49.902C69.179 49.902 68.048 50.201 67.281 50.747L68.009 52.164C68.516 51.761 69.283 51.514 70.024 51.514C71.116 51.514 71.636 52.021 71.636 52.892H70.024C67.892 52.892 67.021 53.75 67.021 54.985C67.021 56.194 67.996 57.104 69.634 57.104C70.661 57.104 71.389 56.766 71.766 56.129V57H73.664V53.009C73.664 50.89 72.429 49.902 70.297 49.902ZM70.141 55.739C69.426 55.739 68.997 55.401 68.997 54.894C68.997 54.426 69.296 54.075 70.245 54.075H71.636V54.79C71.402 55.427 70.817 55.739 70.141 55.739ZM79.4645 55.232C79.2435 55.401 78.9445 55.492 78.6455 55.492C78.0995 55.492 77.7745 55.167 77.7745 54.569V51.722H79.5165V50.162H77.7745V48.459H75.7465V50.162H74.6675V51.722H75.7465V54.595C75.7465 56.259 76.7085 57.104 78.3595 57.104C78.9835 57.104 79.5945 56.961 80.0105 56.662L79.4645 55.232ZM85.3999 49.902C84.5029 49.902 83.7229 50.188 83.1769 50.734V47.354H81.1489V57H83.1769V53.542C83.1769 52.255 83.8789 51.657 84.8539 51.657C85.7509 51.657 86.2709 52.177 86.2709 53.308V57H88.2989V52.996C88.2989 50.864 87.0509 49.902 85.3999 49.902ZM92.9582 49.902C91.8402 49.902 90.7092 50.201 89.9422 50.747L90.6702 52.164C91.1772 51.761 91.9442 51.514 92.6852 51.514C93.7772 51.514 94.2972 52.021 94.2972 52.892H92.6852C90.5532 52.892 89.6822 53.75 89.6822 54.985C89.6822 56.194 90.6572 57.104 92.2952 57.104C93.3222 57.104 94.0502 56.766 94.4272 56.129V57H96.3252V53.009C96.3252 50.89 95.0902 49.902 92.9582 49.902ZM92.8022 55.739C92.0872 55.739 91.6582 55.401 91.6582 54.894C91.6582 54.426 91.9572 54.075 92.9062 54.075H94.2972V54.79C94.0632 55.427 93.4782 55.739 92.8022 55.739ZM102.412 49.902C101.463 49.902 100.644 50.227 100.098 50.825V50.006H98.1606V57H100.189V53.542C100.189 52.255 100.891 51.657 101.866 51.657C102.763 51.657 103.283 52.177 103.283 53.308V57H105.311V52.996C105.311 50.864 104.063 49.902 102.412 49.902Z" fill="#13273F"/>
<path d="M45.631 77.088C47.974 77.088 49.712 75.416 49.712 73.15C49.712 70.884 47.974 69.212 45.631 69.212C43.266 69.212 41.528 70.895 41.528 73.15C41.528 75.405 43.266 77.088 45.631 77.088ZM45.631 76.109C43.904 76.109 42.628 74.855 42.628 73.15C42.628 71.445 43.904 70.191 45.631 70.191C47.336 70.191 48.612 71.445 48.612 73.15C48.612 74.855 47.336 76.109 45.631 76.109ZM52.2513 72.149V71.17H51.2393V77H52.2953V74.096C52.2953 72.82 52.9993 72.127 54.1323 72.127C54.2093 72.127 54.2863 72.127 54.3743 72.138V71.115C53.3513 71.115 52.6253 71.467 52.2513 72.149ZM60.0661 68.838V72.05C59.5821 71.423 58.8561 71.115 58.0311 71.115C56.3261 71.115 55.0831 72.303 55.0831 74.085C55.0831 75.867 56.3261 77.066 58.0311 77.066C58.8891 77.066 59.6371 76.736 60.1101 76.076V77H61.1221V68.838H60.0661ZM58.1191 76.142C56.9971 76.142 56.1501 75.328 56.1501 74.085C56.1501 72.842 56.9971 72.039 58.1191 72.039C59.2301 72.039 60.0771 72.842 60.0771 74.085C60.0771 75.328 59.2301 76.142 58.1191 76.142ZM68.3891 74.118C68.3891 72.325 67.1901 71.115 65.5071 71.115C63.8241 71.115 62.5811 72.358 62.5811 74.085C62.5811 75.823 63.8351 77.066 65.7161 77.066C66.6841 77.066 67.4871 76.736 68.0151 76.12L67.4321 75.438C67.0031 75.911 66.4311 76.142 65.7491 76.142C64.5941 76.142 63.7691 75.46 63.6371 74.437H68.3671C68.3781 74.338 68.3891 74.206 68.3891 74.118ZM65.5071 72.006C66.5301 72.006 67.2671 72.699 67.3771 73.678H63.6371C63.7471 72.688 64.4951 72.006 65.5071 72.006ZM70.8675 72.149V71.17H69.8555V77H70.9115V74.096C70.9115 72.82 71.6155 72.127 72.7485 72.127C72.8255 72.127 72.9025 72.127 72.9905 72.138V71.115C71.9675 71.115 71.2415 71.467 70.8675 72.149Z" fill="#8181A5"/>
<path d="M80.3023 72.248C79.4443 72.248 78.7073 72.512 78.2453 73.051V73.04C78.2453 71.291 79.1583 70.389 80.6103 70.389C81.1493 70.389 81.6553 70.488 82.0733 70.763L82.6013 69.685C82.0843 69.355 81.3473 69.19 80.5773 69.19C78.3443 69.19 76.8043 70.642 76.8043 73.282C76.8043 75.757 78.0363 77.11 80.1373 77.11C81.7103 77.11 82.9533 76.142 82.9533 74.613C82.9533 73.172 81.8203 72.248 80.3023 72.248ZM80.0603 75.988C79.0373 75.988 78.4653 75.416 78.4653 74.69C78.4653 73.931 79.1033 73.37 80.0273 73.37C80.9623 73.37 81.5673 73.876 81.5673 74.679C81.5673 75.482 80.9513 75.988 80.0603 75.988ZM83.4711 69.3V71.819H84.8021V70.51H87.8271L84.9341 77H86.4631L89.4551 70.257V69.3H83.4711ZM95.1401 72.952C95.7671 72.611 96.1191 72.061 96.1191 71.335C96.1191 70.015 94.9531 69.19 93.2371 69.19C91.5321 69.19 90.3771 70.015 90.3771 71.335C90.3771 72.061 90.7181 72.611 91.3341 72.952C90.5421 73.315 90.1021 73.942 90.1021 74.789C90.1021 76.219 91.3231 77.11 93.2371 77.11C95.1511 77.11 96.3941 76.219 96.3941 74.789C96.3941 73.942 95.9431 73.315 95.1401 72.952ZM93.2371 70.312C94.1171 70.312 94.7111 70.708 94.7111 71.401C94.7111 72.061 94.1501 72.479 93.2371 72.479C92.3351 72.479 91.7851 72.061 91.7851 71.401C91.7851 70.708 92.3571 70.312 93.2371 70.312ZM93.2371 75.988C92.1811 75.988 91.5431 75.526 91.5431 74.745C91.5431 73.986 92.1811 73.513 93.2371 73.513C94.2931 73.513 94.9531 73.986 94.9531 74.745C94.9531 75.526 94.2931 75.988 93.2371 75.988Z" fill="#495B6C"/>
<path d="M149.908 56H151.063L147.565 48.3H146.476L142.989 56H144.122L144.969 54.075H149.061L149.908 56ZM145.354 53.195L147.015 49.422L148.676 53.195H145.354ZM159.351 50.115C158.361 50.115 157.547 50.533 157.107 51.193C156.722 50.467 155.974 50.115 155.083 50.115C154.203 50.115 153.488 50.445 153.07 51.039V50.17H152.058V56H153.114V52.997C153.114 51.732 153.807 51.061 154.863 51.061C155.82 51.061 156.37 51.622 156.37 52.766V56H157.426V52.997C157.426 51.732 158.119 51.061 159.175 51.061C160.132 51.061 160.682 51.622 160.682 52.766V56H161.738V52.645C161.738 50.929 160.77 50.115 159.351 50.115ZM166.21 56.066C167.959 56.066 169.235 54.823 169.235 53.085C169.235 51.347 167.959 50.115 166.21 50.115C164.461 50.115 163.174 51.347 163.174 53.085C163.174 54.823 164.461 56.066 166.21 56.066ZM166.21 55.142C165.088 55.142 164.241 54.328 164.241 53.085C164.241 51.842 165.088 51.039 166.21 51.039C167.332 51.039 168.168 51.842 168.168 53.085C168.168 54.328 167.332 55.142 166.21 55.142ZM175.073 50.17V53.184C175.073 54.438 174.369 55.12 173.269 55.12C172.268 55.12 171.696 54.548 171.696 53.404V50.17H170.64V53.525C170.64 55.241 171.641 56.066 173.148 56.066C173.973 56.066 174.699 55.725 175.128 55.12V56H176.129V50.17H175.073ZM181.253 50.115C180.329 50.115 179.581 50.456 179.152 51.05V50.17H178.14V56H179.196V52.997C179.196 51.732 179.922 51.061 181.044 51.061C182.045 51.061 182.617 51.622 182.617 52.766V56H183.673V52.645C183.673 50.929 182.672 50.115 181.253 50.115ZM188.575 54.9C188.355 55.076 188.058 55.175 187.75 55.175C187.167 55.175 186.837 54.823 186.837 54.196V51.039H188.509V50.17H186.837V48.894H185.781V50.17H184.791V51.039H185.781V54.24C185.781 55.417 186.452 56.066 187.629 56.066C188.102 56.066 188.586 55.934 188.905 55.659L188.575 54.9Z" fill="#8181A5"/>
<path d="M146.627 72.319C147.91 72.319 148.854 72.5747 149.461 73.086C150.076 73.5973 150.384 74.282 150.384 75.14C150.384 75.6947 150.245 76.2017 149.968 76.661C149.691 77.1117 149.266 77.4757 148.694 77.753C148.131 78.0217 147.433 78.156 146.601 78.156C145.96 78.156 145.327 78.0737 144.703 77.909C144.088 77.7357 143.563 77.493 143.13 77.181L143.962 75.569C144.309 75.829 144.707 76.0327 145.158 76.18C145.609 76.3187 146.072 76.388 146.549 76.388C147.078 76.388 147.494 76.284 147.797 76.076C148.1 75.868 148.252 75.5777 148.252 75.205C148.252 74.815 148.092 74.5203 147.771 74.321C147.459 74.1217 146.913 74.022 146.133 74.022H143.806L144.274 68.9H149.825V70.59H146.029L145.886 72.319H146.627ZM155.619 72.293C156.2 72.293 156.729 72.41 157.205 72.644C157.682 72.878 158.059 73.2117 158.336 73.645C158.614 74.0697 158.752 74.5637 158.752 75.127C158.752 75.7337 158.601 76.2667 158.297 76.726C157.994 77.1853 157.578 77.5407 157.049 77.792C156.529 78.0347 155.949 78.156 155.307 78.156C154.033 78.156 153.037 77.766 152.317 76.986C151.598 76.206 151.238 75.0923 151.238 73.645C151.238 72.6137 151.433 71.7297 151.823 70.993C152.213 70.2563 152.755 69.6973 153.448 69.316C154.15 68.9347 154.961 68.744 155.879 68.744C156.365 68.744 156.828 68.8003 157.27 68.913C157.721 69.017 158.102 69.1687 158.414 69.368L157.634 70.915C157.184 70.6117 156.616 70.46 155.931 70.46C155.16 70.46 154.549 70.6853 154.098 71.136C153.648 71.5867 153.405 72.241 153.37 73.099C153.908 72.5617 154.657 72.293 155.619 72.293ZM155.19 76.583C155.641 76.583 156.005 76.4617 156.282 76.219C156.568 75.9763 156.711 75.647 156.711 75.231C156.711 74.815 156.568 74.4857 156.282 74.243C156.005 73.9917 155.632 73.866 155.164 73.866C154.705 73.866 154.328 73.996 154.033 74.256C153.739 74.5073 153.591 74.8323 153.591 75.231C153.591 75.6297 153.734 75.9547 154.02 76.206C154.306 76.4573 154.696 76.583 155.19 76.583ZM160.839 78.104C160.483 78.104 160.184 77.9827 159.942 77.74C159.699 77.4973 159.578 77.194 159.578 76.83C159.578 76.4573 159.699 76.1583 159.942 75.933C160.184 75.699 160.483 75.582 160.839 75.582C161.194 75.582 161.493 75.699 161.736 75.933C161.978 76.1583 162.1 76.4573 162.1 76.83C162.1 77.194 161.978 77.4973 161.736 77.74C161.493 77.9827 161.194 78.104 160.839 78.104ZM169.966 68.9V70.265L166.586 78H164.298L167.561 70.616H164.545V72.098H162.673V68.9H169.966ZM174.55 78.156C173.796 78.156 173.124 77.9697 172.535 77.597C171.945 77.2243 171.482 76.687 171.144 75.985C170.814 75.2743 170.65 74.4293 170.65 73.45C170.65 72.4707 170.814 71.63 171.144 70.928C171.482 70.2173 171.945 69.6757 172.535 69.303C173.124 68.9303 173.796 68.744 174.55 68.744C175.304 68.744 175.975 68.9303 176.565 69.303C177.154 69.6757 177.613 70.2173 177.943 70.928C178.281 71.63 178.45 72.4707 178.45 73.45C178.45 74.4293 178.281 75.2743 177.943 75.985C177.613 76.687 177.154 77.2243 176.565 77.597C175.975 77.9697 175.304 78.156 174.55 78.156ZM174.55 76.375C175.104 76.375 175.538 76.1367 175.85 75.66C176.17 75.1833 176.331 74.4467 176.331 73.45C176.331 72.4533 176.17 71.7167 175.85 71.24C175.538 70.7633 175.104 70.525 174.55 70.525C174.004 70.525 173.57 70.7633 173.25 71.24C172.938 71.7167 172.782 72.4533 172.782 73.45C172.782 74.4467 172.938 75.1833 173.25 75.66C173.57 76.1367 174.004 76.375 174.55 76.375Z" fill="#13273F"/>
<rect x="237" y="47" width="67" height="31" rx="15.5" fill="#0E233E"/>
<path d="M258.11 68.089C260.798 68.089 262.072 66.745 262.072 65.177C262.072 61.579 256.262 62.937 256.262 60.851C256.262 60.109 256.878 59.521 258.39 59.521C259.244 59.521 260.21 59.773 261.092 60.291L261.666 58.877C260.812 58.317 259.58 58.009 258.404 58.009C255.716 58.009 254.456 59.353 254.456 60.935C254.456 64.575 260.28 63.189 260.28 65.303C260.28 66.031 259.636 66.577 258.11 66.577C256.906 66.577 255.66 66.129 254.876 65.499L254.246 66.913C255.058 67.613 256.584 68.089 258.11 68.089ZM270.737 64.253C270.737 61.915 269.141 60.389 266.957 60.389C264.731 60.389 263.093 61.985 263.093 64.211C263.093 66.437 264.717 68.047 267.223 68.047C268.511 68.047 269.561 67.627 270.233 66.829L269.295 65.751C268.763 66.297 268.105 66.563 267.265 66.563C265.963 66.563 265.053 65.863 264.843 64.771H270.709C270.723 64.603 270.737 64.393 270.737 64.253ZM266.957 61.789C268.105 61.789 268.931 62.531 269.071 63.609H264.829C264.997 62.517 265.823 61.789 266.957 61.789ZM276.66 60.389C275.568 60.389 274.658 60.753 274.084 61.439V60.473H272.418V67.949H274.168V64.169C274.168 62.671 275.008 61.915 276.254 61.915C277.374 61.915 278.032 62.559 278.032 63.889V67.949H279.782V63.665C279.782 61.411 278.452 60.389 276.66 60.389ZM286.006 66.297C285.74 66.507 285.39 66.605 285.026 66.605C284.354 66.605 283.99 66.213 283.99 65.485V61.929H285.992V60.529H283.99V58.821H282.24V60.529H281.008V61.929H282.24V65.527C282.24 67.179 283.178 68.047 284.816 68.047C285.446 68.047 286.076 67.879 286.496 67.543L286.006 66.297Z" fill="white"/>
<g filter="url(#filter1_d_1951_326)">
<rect x="21" y="109" width="305" height="74" rx="10" fill="#F4F7F9"/>
</g>
<path d="M49.228 138.972C48.695 139.258 48.162 139.362 47.59 139.362C45.848 139.362 44.639 138.153 44.639 136.45C44.639 134.721 45.848 133.538 47.616 133.538C48.539 133.538 49.306 133.863 49.969 134.565L51.321 133.317C50.437 132.29 49.111 131.744 47.512 131.744C44.613 131.744 42.507 133.707 42.507 136.45C42.507 139.193 44.613 141.156 47.473 141.156C48.773 141.156 50.151 140.753 51.152 139.999V136.307H49.228V138.972ZM55.7863 133.902C54.6683 133.902 53.5373 134.201 52.7703 134.747L53.4983 136.164C54.0053 135.761 54.7723 135.514 55.5133 135.514C56.6053 135.514 57.1253 136.021 57.1253 136.892H55.5133C53.3813 136.892 52.5103 137.75 52.5103 138.985C52.5103 140.194 53.4853 141.104 55.1233 141.104C56.1503 141.104 56.8783 140.766 57.2553 140.129V141H59.1533V137.009C59.1533 134.89 57.9183 133.902 55.7863 133.902ZM55.6303 139.739C54.9153 139.739 54.4863 139.401 54.4863 138.894C54.4863 138.426 54.7853 138.075 55.7343 138.075H57.1253V138.79C56.8913 139.427 56.3063 139.739 55.6303 139.739ZM65.1227 133.902C64.2517 133.902 63.5367 134.175 63.0167 134.747V131.354H60.9887V141H62.9257V140.194C63.4327 140.805 64.1867 141.104 65.1227 141.104C67.0857 141.104 68.6067 139.7 68.6067 137.503C68.6067 135.306 67.0857 133.902 65.1227 133.902ZM64.7717 139.44C63.7577 139.44 62.9907 138.712 62.9907 137.503C62.9907 136.294 63.7577 135.566 64.7717 135.566C65.7857 135.566 66.5527 136.294 66.5527 137.503C66.5527 138.712 65.7857 139.44 64.7717 139.44ZM71.9013 134.929V134.006H69.9643V141H71.9923V137.698C71.9923 136.359 72.7333 135.748 73.8513 135.748C74.0073 135.748 74.1373 135.761 74.3063 135.774V133.902C73.2273 133.902 72.3953 134.253 71.9013 134.929ZM76.5262 133.031C77.2802 133.031 77.7872 132.537 77.7872 131.861C77.7872 131.237 77.2802 130.769 76.5262 130.769C75.7722 130.769 75.2652 131.263 75.2652 131.9C75.2652 132.537 75.7722 133.031 76.5262 133.031ZM75.5122 141H77.5402V134.006H75.5122V141ZM86.2733 137.529C86.2733 135.28 84.6873 133.902 82.6333 133.902C80.5013 133.902 78.9023 135.41 78.9023 137.503C78.9023 139.583 80.4753 141.104 82.8933 141.104C84.1543 141.104 85.1293 140.714 85.7793 139.973L84.7003 138.803C84.2193 139.258 83.6863 139.479 82.9453 139.479C81.8793 139.479 81.1383 138.946 80.9433 138.075H86.2343C86.2473 137.906 86.2733 137.685 86.2733 137.529ZM82.6463 135.436C83.5563 135.436 84.2193 136.008 84.3623 136.892H80.9173C81.0603 135.995 81.7233 135.436 82.6463 135.436ZM87.6235 141H89.6515V131.354H87.6235V141ZM91.5337 141H93.5617V131.354H91.5337V141ZM102.295 137.529C102.295 135.28 100.709 133.902 98.6548 133.902C96.5228 133.902 94.9238 135.41 94.9238 137.503C94.9238 139.583 96.4968 141.104 98.9148 141.104C100.176 141.104 101.151 140.714 101.801 139.973L100.722 138.803C100.241 139.258 99.7078 139.479 98.9668 139.479C97.9008 139.479 97.1598 138.946 96.9648 138.075H102.256C102.269 137.906 102.295 137.685 102.295 137.529ZM98.6678 135.436C99.5778 135.436 100.241 136.008 100.384 136.892H96.9388C97.0818 135.995 97.7448 135.436 98.6678 135.436Z" fill="#13273F"/>
<path d="M45.631 161.088C47.974 161.088 49.712 159.416 49.712 157.15C49.712 154.884 47.974 153.212 45.631 153.212C43.266 153.212 41.528 154.895 41.528 157.15C41.528 159.405 43.266 161.088 45.631 161.088ZM45.631 160.109C43.904 160.109 42.628 158.855 42.628 157.15C42.628 155.445 43.904 154.191 45.631 154.191C47.336 154.191 48.612 155.445 48.612 157.15C48.612 158.855 47.336 160.109 45.631 160.109ZM52.2513 156.149V155.17H51.2393V161H52.2953V158.096C52.2953 156.82 52.9993 156.127 54.1323 156.127C54.2093 156.127 54.2863 156.127 54.3743 156.138V155.115C53.3513 155.115 52.6253 155.467 52.2513 156.149ZM60.0661 152.838V156.05C59.5821 155.423 58.8561 155.115 58.0311 155.115C56.3261 155.115 55.0831 156.303 55.0831 158.085C55.0831 159.867 56.3261 161.066 58.0311 161.066C58.8891 161.066 59.6371 160.736 60.1101 160.076V161H61.1221V152.838H60.0661ZM58.1191 160.142C56.9971 160.142 56.1501 159.328 56.1501 158.085C56.1501 156.842 56.9971 156.039 58.1191 156.039C59.2301 156.039 60.0771 156.842 60.0771 158.085C60.0771 159.328 59.2301 160.142 58.1191 160.142ZM68.3891 158.118C68.3891 156.325 67.1901 155.115 65.5071 155.115C63.8241 155.115 62.5811 156.358 62.5811 158.085C62.5811 159.823 63.8351 161.066 65.7161 161.066C66.6841 161.066 67.4871 160.736 68.0151 160.12L67.4321 159.438C67.0031 159.911 66.4311 160.142 65.7491 160.142C64.5941 160.142 63.7691 159.46 63.6371 158.437H68.3671C68.3781 158.338 68.3891 158.206 68.3891 158.118ZM65.5071 156.006C66.5301 156.006 67.2671 156.699 67.3771 157.678H63.6371C63.7471 156.688 64.4951 156.006 65.5071 156.006ZM70.8675 156.149V155.17H69.8555V161H70.9115V158.096C70.9115 156.82 71.6155 156.127 72.7485 156.127C72.8255 156.127 72.9025 156.127 72.9905 156.138V155.115C71.9675 155.115 71.2415 155.467 70.8675 156.149Z" fill="#8181A5"/>
<path d="M79.3453 153.212C77.8163 153.212 76.6283 154.158 76.6283 155.643C76.6283 157.062 77.7283 157.975 79.2573 157.975C80.2143 157.975 81.0283 157.634 81.4793 156.963V157.238C81.4793 159.163 80.4893 160.142 78.9273 160.142C78.3663 160.142 77.8493 160.043 77.4423 159.779L77.0243 160.637C77.5193 160.945 78.2123 161.088 78.9383 161.088C81.0943 161.088 82.5793 159.68 82.5793 157.051C82.5793 154.598 81.4133 153.212 79.3453 153.212ZM79.4443 157.084C78.3663 157.084 77.6953 156.501 77.6953 155.599C77.6953 154.686 78.3883 154.103 79.3893 154.103C80.5883 154.103 81.2263 154.796 81.2263 155.588C81.2263 156.435 80.5003 157.084 79.4443 157.084ZM85.0681 160.043L87.4221 157.777C88.4671 156.776 88.6871 156.105 88.6871 155.357C88.6871 154.037 87.6531 153.212 86.0471 153.212C84.8481 153.212 83.8251 153.641 83.2311 154.378L83.9791 155.027C84.4521 154.455 85.1231 154.191 85.9481 154.191C87.0261 154.191 87.5871 154.675 87.5871 155.467C87.5871 155.951 87.4331 156.435 86.6191 157.227L83.4841 160.252V161H89.0171V160.043H85.0681ZM91.3846 160.043L93.7386 157.777C94.7836 156.776 95.0036 156.105 95.0036 155.357C95.0036 154.037 93.9696 153.212 92.3636 153.212C91.1646 153.212 90.1416 153.641 89.5476 154.378L90.2956 155.027C90.7686 154.455 91.4396 154.191 92.2646 154.191C93.3426 154.191 93.9036 154.675 93.9036 155.467C93.9036 155.951 93.7496 156.435 92.9356 157.227L89.8006 160.252V161H95.3336V160.043H91.3846Z" fill="#495B6C"/>
<path d="M149.908 140H151.063L147.565 132.3H146.476L142.989 140H144.122L144.969 138.075H149.061L149.908 140ZM145.354 137.195L147.015 133.422L148.676 137.195H145.354ZM159.351 134.115C158.361 134.115 157.547 134.533 157.107 135.193C156.722 134.467 155.974 134.115 155.083 134.115C154.203 134.115 153.488 134.445 153.07 135.039V134.17H152.058V140H153.114V136.997C153.114 135.732 153.807 135.061 154.863 135.061C155.82 135.061 156.37 135.622 156.37 136.766V140H157.426V136.997C157.426 135.732 158.119 135.061 159.175 135.061C160.132 135.061 160.682 135.622 160.682 136.766V140H161.738V136.645C161.738 134.929 160.77 134.115 159.351 134.115ZM166.21 140.066C167.959 140.066 169.235 138.823 169.235 137.085C169.235 135.347 167.959 134.115 166.21 134.115C164.461 134.115 163.174 135.347 163.174 137.085C163.174 138.823 164.461 140.066 166.21 140.066ZM166.21 139.142C165.088 139.142 164.241 138.328 164.241 137.085C164.241 135.842 165.088 135.039 166.21 135.039C167.332 135.039 168.168 135.842 168.168 137.085C168.168 138.328 167.332 139.142 166.21 139.142ZM175.073 134.17V137.184C175.073 138.438 174.369 139.12 173.269 139.12C172.268 139.12 171.696 138.548 171.696 137.404V134.17H170.64V137.525C170.64 139.241 171.641 140.066 173.148 140.066C173.973 140.066 174.699 139.725 175.128 139.12V140H176.129V134.17H175.073ZM181.253 134.115C180.329 134.115 179.581 134.456 179.152 135.05V134.17H178.14V140H179.196V136.997C179.196 135.732 179.922 135.061 181.044 135.061C182.045 135.061 182.617 135.622 182.617 136.766V140H183.673V136.645C183.673 134.929 182.672 134.115 181.253 134.115ZM188.575 138.9C188.355 139.076 188.058 139.175 187.75 139.175C187.167 139.175 186.837 138.823 186.837 138.196V135.039H188.509V134.17H186.837V132.894H185.781V134.17H184.791V135.039H185.781V138.24C185.781 139.417 186.452 140.066 187.629 140.066C188.102 140.066 188.586 139.934 188.905 139.659L188.575 138.9Z" fill="#8181A5"/>
<path d="M146.975 157.365H150.77V156.135H146.975V155.43C146.975 153.885 147.875 153.06 149.585 153.06C150.53 153.06 151.355 153.21 152.03 153.645L152.645 152.055C151.85 151.575 150.905 151.35 149.69 151.35C146.72 151.35 145.025 152.955 145.025 155.445V156.135H143.45V157.365H145.025V160.365H143.45V162H152.39V160.365H146.975V157.365ZM153.198 151.5V153.135H155.418V162H157.368V151.5H153.198ZM159.211 151.5V154.935H161.026V153.15H165.151L161.206 162H163.291L167.371 152.805V151.5H159.211ZM169 162.105C169.675 162.105 170.23 161.58 170.23 160.86C170.23 160.11 169.675 159.615 169 159.615C168.325 159.615 167.77 160.11 167.77 160.86C167.77 161.58 168.325 162.105 169 162.105ZM174.777 155.565H173.772L173.997 153.135H178.512V151.5H172.347L171.807 157.215H174.342C176.517 157.215 177.162 157.845 177.162 158.85C177.162 159.84 176.337 160.455 174.942 160.455C173.757 160.455 172.617 160.05 171.852 159.42L171.027 160.935C171.987 161.7 173.487 162.15 174.972 162.15C177.792 162.15 179.127 160.62 179.127 158.775C179.127 156.915 177.882 155.565 174.777 155.565ZM184.632 162.15C187.137 162.15 189.027 160.2 189.027 156.75C189.027 153.3 187.137 151.35 184.632 151.35C182.142 151.35 180.252 153.3 180.252 156.75C180.252 160.2 182.142 162.15 184.632 162.15ZM184.632 160.455C183.207 160.455 182.217 159.285 182.217 156.75C182.217 154.215 183.207 153.045 184.632 153.045C186.072 153.045 187.062 154.215 187.062 156.75C187.062 159.285 186.072 160.455 184.632 160.455Z" fill="#13273F"/>
<rect x="237" y="131" width="67" height="31" rx="15.5" fill="#2CD19E"/>
<path d="M259.562 142.149H255.53V151.949H257.35V149.121H259.562C262.138 149.121 263.734 147.791 263.734 145.635C263.734 143.465 262.138 142.149 259.562 142.149ZM259.478 147.581H257.35V143.689H259.478C261.074 143.689 261.9 144.403 261.9 145.635C261.9 146.867 261.074 147.581 259.478 147.581ZM268.171 144.389C266.967 144.389 265.805 144.697 265.007 145.313L265.693 146.587C266.253 146.125 267.121 145.845 267.961 145.845C269.207 145.845 269.823 146.447 269.823 147.469V147.581H267.891C265.623 147.581 264.783 148.561 264.783 149.807C264.783 151.109 265.861 152.047 267.569 152.047C268.689 152.047 269.501 151.683 269.921 151.039V151.949H271.573V147.567C271.573 145.411 270.327 144.389 268.171 144.389ZM267.933 150.773C267.037 150.773 266.505 150.367 266.505 149.737C266.505 149.191 266.827 148.743 268.017 148.743H269.823V149.611C269.529 150.381 268.787 150.773 267.933 150.773ZM274.701 143.241C275.359 143.241 275.821 142.765 275.821 142.149C275.821 141.575 275.345 141.141 274.701 141.141C274.057 141.141 273.581 141.603 273.581 142.191C273.581 142.779 274.057 143.241 274.701 143.241ZM273.819 151.949H275.569V144.473H273.819V151.949ZM283.438 141.561V145.397C282.85 144.711 281.996 144.389 281.03 144.389C278.86 144.389 277.25 145.887 277.25 148.211C277.25 150.535 278.86 152.047 281.03 152.047C282.052 152.047 282.92 151.697 283.508 150.983V151.949H285.188V141.561H283.438ZM281.24 150.549C279.98 150.549 279.014 149.639 279.014 148.211C279.014 146.783 279.98 145.873 281.24 145.873C282.5 145.873 283.466 146.783 283.466 148.211C283.466 149.639 282.5 150.549 281.24 150.549Z" fill="white"/>
<line x1="341.5" y1="10.5" x2="341.5" y2="194.5" stroke="white" stroke-linecap="square" stroke-dasharray="5 5"/>
<circle cx="341.5" cy="145.5" r="5" fill="#DBE3EB" stroke="white"/>
<circle cx="341.5" cy="61.5" r="5" fill="#DBE3EB" stroke="white"/>
<defs>
<filter id="filter0_d_1951_326" x="0" y="0" width="347" height="116" filterUnits="userSpaceOnUse" color-interpolation-filters="sRGB">
<feFlood flood-opacity="0" result="BackgroundImageFix"/>
<feColorMatrix in="SourceAlpha" type="matrix" values="0 0 0 0 0 0 0 0 0 0 0 0 0 0 0 0 0 0 127 0" result="hardAlpha"/>
<feOffset dy="-4"/>
<feGaussianBlur stdDeviation="10.5"/>
<feComposite in2="hardAlpha" operator="out"/>
<feColorMatrix type="matrix" values="0 0 0 0 0.505882 0 0 0 0 0.505882 0 0 0 0 0.647059 0 0 0 0.2 0"/>
<feBlend mode="normal" in2="BackgroundImageFix" result="effect1_dropShadow_1951_326"/>
<feBlend mode="normal" in="SourceGraphic" in2="effect1_dropShadow_1951_326" result="shape"/>
</filter>
<filter id="filter1_d_1951_326" x="0" y="84" width="347" height="116" filterUnits="userSpaceOnUse" color-interpolation-filters="sRGB">
<feFlood flood-opacity="0" result="BackgroundImageFix"/>
<feColorMatrix in="SourceAlpha" type="matrix" values="0 0 0 0 0 0 0 0 0 0 0 0 0 0 0 0 0 0 127 0" result="hardAlpha"/>
<feOffset dy="-4"/>
<feGaussianBlur stdDeviation="10.5"/>
<feComposite in2="hardAlpha" operator="out"/>
<feColorMatrix type="matrix" values="0 0 0 0 0.505882 0 0 0 0 0.505882 0 0 0 0 0.647059 0 0 0 0.2 0"/>
<feBlend mode="normal" in2="BackgroundImageFix" result="effect1_dropShadow_1951_326"/>
<feBlend mode="normal" in="SourceGraphic" in2="effect1_dropShadow_1951_326" result="shape"/>
</filter>
</defs>
</svg>
