<svg width="65" height="65" viewBox="0 0 65 65" fill="none" xmlns="http://www.w3.org/2000/svg">
<path d="M32.5 64.5C50.1731 64.5 64.5 50.1731 64.5 32.5C64.5 14.8269 50.1731 0.5 32.5 0.5C14.8269 0.5 0.5 14.8269 0.5 32.5C0.5 50.1731 14.8269 64.5 32.5 64.5Z" stroke="#DBE3EB"/>
<path d="M33.4239 33.0737C29.0529 33.0737 25.459 29.4854 25.459 25.0122C25.459 20.5883 29.0043 16.9508 33.4239 16.9508C37.8435 16.9508 41.3403 20.5883 41.3403 25.0614C41.3403 29.4854 37.7949 33.0737 33.4239 33.0737Z" fill="#13273F"/>
<path d="M46.2458 49C47.3142 49 48.0913 47.9186 47.7028 46.9355C45.5658 41.0369 39.9807 36.8096 33.3756 36.8096C26.7706 36.8096 21.234 40.9878 19.097 46.9355C18.7571 47.9678 19.4856 49 20.554 49H46.2458Z" fill="#13273F"/>
</svg>
