<svg width="70" height="70" viewBox="0 0 70 70" fill="none" xmlns="http://www.w3.org/2000/svg">
<path d="M35 70C54.33 70 70 54.33 70 35C70 15.67 54.33 0 35 0C15.67 0 0 15.67 0 35C0 54.33 15.67 70 35 70Z" fill="#38B6FF" fill-opacity="0.18"/>
<path d="M47.9477 25.6466V17.1058C47.9477 15.4235 46.5956 14 44.8571 14H25.0905C23.3521 14 22 15.4235 22 17.1058V52.9514C22 54.6337 23.3521 56.0571 25.0905 56.0571H44.8571C46.5956 56.0571 47.9477 54.6337 47.9477 52.9514V45.7046C51.5533 43.7635 53.9356 40.0107 53.9356 35.6756C53.9356 31.3405 51.5533 27.523 47.9477 25.6466ZM40.3501 15.6176C40.0926 16.7175 39.1268 17.494 37.9678 17.494H31.9799C30.8209 17.494 29.8551 16.6528 29.5976 15.6176H40.3501ZM44.8571 54.4396H25.0905C24.3179 54.4396 23.674 53.8572 23.6097 53.0808H46.338C46.2736 53.8572 45.6298 54.4396 44.8571 54.4396ZM46.338 51.4632H23.6097V17.1058C23.6097 16.2646 24.2535 15.6176 25.0905 15.6176H28.0523C28.3099 17.5587 29.9839 19.1116 32.0443 19.1116H38.0322C40.0926 19.1116 41.7666 17.5587 42.0241 15.6176H44.9859C45.8229 15.6176 46.4668 16.2646 46.4668 17.1058V24.9349C45.3078 24.5466 44.0845 24.2878 42.7968 24.2878C36.5513 24.2878 31.5292 29.3994 31.5292 35.6109C31.5292 41.8224 36.4225 46.9987 42.668 46.9987C43.9557 46.9987 45.1791 46.8046 46.338 46.3517V51.4632ZM47.9477 43.8282C47.4326 44.1517 46.9175 44.4753 46.338 44.6694C45.1791 45.1223 43.9557 45.3811 42.668 45.3811C37.3239 45.3811 33.0101 40.9813 33.0101 35.6109C33.0101 30.2405 37.3883 25.9054 42.668 25.9054C43.9557 25.9054 45.2435 26.1642 46.338 26.6171C46.9175 26.876 47.4326 27.1348 47.9477 27.4583C50.5875 29.2053 52.326 32.1816 52.326 35.6109C52.326 39.0402 50.6519 42.0812 47.9477 43.8282Z" fill="#38B6FF"/>
<path d="M47.755 30.5641C47.3687 30.1759 46.8536 29.8523 46.3385 29.6582C45.8878 29.4641 45.4371 29.3994 44.922 29.3994C43.8274 29.3994 42.8616 29.7876 42.089 30.5641L41.0588 31.5993C40.7369 31.9228 40.7369 32.4405 41.0588 32.764C41.3808 33.0875 41.8959 33.0875 42.2178 32.764L43.248 31.7287C44.085 30.8876 45.4371 30.8229 46.3385 31.5346C46.4029 31.5993 46.5317 31.664 46.5961 31.7287C47.4975 32.6346 47.4975 34.1875 46.5961 35.0933L46.3385 35.3521L45.5659 36.1286C45.2439 36.4521 45.2439 36.9697 45.5659 37.2932C45.759 37.4226 45.9522 37.552 46.1454 37.552C46.2097 37.552 46.2741 37.552 46.3385 37.552C46.4673 37.4873 46.5961 37.4226 46.6604 37.3579L47.6906 36.3227C47.755 36.258 47.8194 36.1933 47.8838 36.0639C49.1715 34.5757 49.1715 32.3758 47.8838 30.8876C47.8838 30.6935 47.8194 30.6288 47.755 30.5641Z" fill="#38B6FF"/>
<path d="M43.119 38.5873L42.0888 39.6226C41.1874 40.5284 39.6422 40.5284 38.7408 39.6226C37.8394 38.7167 37.8394 37.1638 38.7408 36.258L39.7709 35.2227C40.0929 34.8992 40.0929 34.3816 39.7709 34.0581C39.449 33.7346 38.9339 33.7346 38.612 34.0581L37.5818 35.0933C36.0365 36.6462 36.0365 39.1696 37.5818 40.7872C38.3544 41.5637 39.3202 41.9519 40.4148 41.9519C41.5094 41.9519 42.4752 41.5637 43.2478 40.7872L44.278 39.752C44.5999 39.4284 44.5999 38.9108 44.278 38.5873C43.956 38.2638 43.441 38.2638 43.119 38.5873Z" fill="#38B6FF"/>
<path d="M45.2438 33.0874C44.9219 32.7639 44.4068 32.7639 44.0849 33.0874L40.0286 37.1636C39.7066 37.4871 39.7066 38.0047 40.0286 38.3283C40.1573 38.4577 40.4149 38.5871 40.608 38.5871C40.8012 38.5871 40.9944 38.5224 41.1875 38.3283L45.2438 34.252C45.5658 33.9285 45.5658 33.4109 45.2438 33.0874Z" fill="#38B6FF"/>
</svg>
