<svg width="70" height="70" viewBox="0 0 70 70" fill="none" xmlns="http://www.w3.org/2000/svg">
<circle cx="35" cy="35" r="35" fill="#E5EBF0"/>
<g clip-path="url(#clip0_1559_832)">
<path d="M55.3732 24.6803C54.9248 24.5121 54.4763 24.7924 54.3081 25.1848L52.6263 30.2864C52.6263 30.2303 52.6263 30.2303 52.6263 30.1742C50.2717 22.4379 42.9838 17 34.8551 17C26.7263 17 19.4384 22.4379 17.1399 30.2303C17.0278 30.6788 17.252 31.1273 17.7005 31.2955C17.7566 31.2955 17.8687 31.3515 17.9247 31.3515C18.2611 31.3515 18.5975 31.1273 18.7096 30.7348C20.8399 23.6152 27.5111 18.6818 34.8551 18.6818C42.199 18.6818 48.7581 23.5591 50.9444 30.5106L46.6278 29.053C46.1793 28.8848 45.7308 29.1652 45.5626 29.5576C45.3944 29.95 45.6747 30.4545 46.0672 30.6227L52.6823 32.8652C52.7944 32.9212 52.8505 32.9212 52.9626 32.9212C53.299 32.9212 53.6354 32.697 53.7475 32.3606L55.9338 25.8015C56.102 25.353 55.8217 24.8485 55.3732 24.6803Z" fill="#13273F"/>
<path d="M51.8971 40.2091C51.4486 40.0409 51.0001 40.3212 50.8319 40.7697C48.5895 47.6652 42.1425 52.3182 34.8546 52.3182C27.5668 52.3182 21.1198 47.6652 18.8774 40.7697C18.8774 40.7697 18.8774 40.7137 18.8213 40.7137L23.5865 42.7318C24.035 42.9 24.4834 42.7318 24.7077 42.2833C24.8759 41.8349 24.7077 41.3864 24.2592 41.1621L17.8683 38.4152C17.4198 38.247 16.9713 38.4152 16.7471 38.8637L14.0562 45.2546C13.888 45.703 14.0562 46.1515 14.5046 46.3758C14.6168 46.4318 14.7289 46.4318 14.841 46.4318C15.1774 46.4318 15.4577 46.2637 15.6259 45.9273L17.4198 41.6667C19.9986 49.0667 26.9501 54 34.8546 54C42.8713 54 49.935 48.8985 52.4577 41.2743C52.6259 40.8258 52.3456 40.3773 51.8971 40.2091Z" fill="#13273F"/>
<path d="M28.6318 35.2197C28.6318 35.7243 29.0243 36.1167 29.5288 36.1167H31.9394C32.0515 37.6864 31.8273 39.5364 30.5379 40.7136C30.4818 40.7697 30.4258 40.7697 30.4258 40.8258C30.0894 41.1621 30.0334 41.6667 30.3697 42.0591C30.7061 42.3955 31.2106 42.4515 31.603 42.1152L31.6591 42.0591C32.0515 41.7227 34.0697 40.2091 36.5924 41.7227C37.4334 42.2273 38.2182 42.3955 38.947 42.3955C40.5727 42.3955 41.9182 41.4424 42.5349 40.7697C42.8712 40.4333 42.8152 39.8727 42.4788 39.5364C42.1424 39.2 41.5818 39.2561 41.2455 39.5924C41.1894 39.6485 39.5637 41.4424 37.5455 40.2091C36.0318 39.3121 34.6303 39.2 33.397 39.4243C33.7334 38.3591 33.8455 37.1818 33.7334 36.1167H37.7137C38.2182 36.1167 38.6106 35.7243 38.6106 35.2197C38.6106 34.7152 38.2182 34.3227 37.7137 34.3227H33.453C33.397 34.0985 33.3409 33.8743 33.2849 33.65C32.9485 32.4727 33.0046 31.2394 33.453 30.4546C33.7894 29.894 34.294 29.4455 35.0227 29.2773C36.5364 28.8849 38.2743 29.4455 38.7788 31.2955C38.8909 31.744 39.3955 32.0243 39.844 31.9121C40.2924 31.8 40.5727 31.2955 40.4606 30.847C39.7879 28.2682 37.2091 26.9227 34.5743 27.5955C33.397 27.9318 32.5 28.6046 31.9394 29.6136C31.2667 30.847 31.0985 32.5288 31.603 34.1546C31.603 34.2106 31.6591 34.2667 31.6591 34.3227H29.5288C29.0243 34.3788 28.6318 34.7712 28.6318 35.2197Z" fill="#13273F"/>
</g>
<defs>
<clipPath id="clip0_1559_832">
<rect width="41.9894" height="37" fill="white" transform="translate(14 17)"/>
</clipPath>
</defs>
</svg>
