<svg width="70" height="70" viewBox="0 0 70 70" fill="none" xmlns="http://www.w3.org/2000/svg">
<path d="M35 70C54.33 70 70 54.33 70 35C70 15.67 54.33 0 35 0C15.67 0 0 15.67 0 35C0 54.33 15.67 70 35 70Z" fill="#2CD19E" fill-opacity="0.17"/>
<path d="M40.1362 26.4546C40.1362 25.0455 39.318 23.8636 38.6817 23.3182C38.3635 23.0455 37.8635 23.0909 37.5908 23.4091C37.318 23.7273 37.3635 24.2273 37.6817 24.5C37.7271 24.5455 39.318 25.9546 38.2271 27.7727C37.4544 29.0909 37.3635 30.3182 37.5453 31.4091C36.6362 31.0909 35.5908 31.0455 34.6362 31.0909V27.5909C34.6362 27.1818 34.318 26.8182 33.8635 26.8182C33.4544 26.8182 33.0908 27.1364 33.0908 27.5909V31.3182C32.9089 31.3636 32.7271 31.4091 32.5453 31.4546C31.4998 31.7727 30.4544 31.6818 29.7271 31.2727C29.2271 31 28.8635 30.5 28.6817 29.9091C28.318 28.5909 28.818 27.0909 30.4544 26.6364C30.8635 26.5455 31.0908 26.0909 30.9998 25.6818C30.9089 25.2727 30.4544 25.0455 30.0453 25.1364C27.818 25.7273 26.5908 27.9546 27.2271 30.2727C27.4998 31.2727 28.0908 32.0909 28.9544 32.5909C30.0908 33.1364 31.5453 33.2727 32.9998 32.8182C33.0453 32.8182 33.0908 32.7727 33.1362 32.7727V34.5909C33.1362 35 33.4544 35.3636 33.9089 35.3636C34.318 35.3636 34.6817 35.0455 34.6817 34.5909V32.5C36.0453 32.4091 37.6817 32.6364 38.6817 33.7273C38.7271 33.7727 38.7726 33.8182 38.7726 33.8636C39.0453 34.1818 39.5453 34.1818 39.818 33.9091C40.1362 33.6364 40.1362 33.1818 39.8635 32.8636C39.8635 32.8182 39.818 32.8182 39.818 32.7727C39.5453 32.4546 38.2271 30.6818 39.4998 28.4546C39.9544 27.7727 40.1362 27.0909 40.1362 26.4546Z" fill="#2CD19E"/>
<path d="M23 12.7717V45.7263C23 46.1354 23.3182 46.499 23.7727 46.499H32.5455C32.6364 48.6354 32.8182 50.499 33.1364 51.4536C33.8182 53.6808 36.3182 60.2263 36.4091 60.499C36.5455 60.9081 37 61.0899 37.4091 60.9536C37.8182 60.8172 38 60.3626 37.8636 59.9536C37.8182 59.9081 35.2727 53.1354 34.5909 50.999C34.0909 49.4536 34 44.2717 33.9091 40.8172C33.9091 39.8627 33.8636 39.0445 33.8636 38.3172C34.3182 38.2263 35.0455 38.2263 35.7727 38.6354C36.7273 39.1808 37.4091 40.3172 37.7273 42.0899C38.8636 48.0445 40.5909 50.2263 40.6364 50.3172C40.9091 50.6354 41.3636 50.6808 41.6818 50.4536C41.8636 50.3172 41.9545 50.0899 41.9545 49.8626C41.9545 49.6808 41.9091 49.5445 41.7727 49.4081C41.7727 49.4081 41.1364 48.5445 40.4091 46.5445H44.0455C44.4545 46.5445 44.8182 46.2263 44.8182 45.7717V31.2263C45.1818 31.8627 45.5909 32.499 46 33.1808C48.2727 36.8172 51.0909 41.3626 51 44.2263C50.9545 47.3172 50.4545 49.6808 49.9091 52.4081C49.4545 54.5899 48.9545 57.0445 48.6364 60.1808C48.5909 60.5899 48.9091 60.9536 49.3182 60.999C49.7273 61.0445 50.0909 60.7263 50.1364 60.3172C50.4545 57.2717 50.9091 54.9536 51.3636 52.6808C51.9091 49.999 52.4091 47.4536 52.5 44.2263C52.5 44.1808 52.5 44.1354 52.5 44.0899C52.5 40.7717 49.7273 36.2717 47.2727 32.3172C46.2727 30.6808 45.3182 29.1808 44.7727 28.0445V12.7717C44.7727 12.3627 44.4545 11.999 44 11.999H23.7273C23.3182 11.999 23 12.3627 23 12.7717ZM28.1364 13.5445L24.5455 17.1354V13.5445H28.1364ZM24.5 41.3627L28.0909 44.9536H24.5V41.3627ZM39.9091 44.999C39.6364 44.0899 39.3636 43.0445 39.1364 41.8172C38.7273 39.5899 37.8182 38.0899 36.4545 37.3172C34.6818 36.3172 32.8636 36.999 32.7727 37.0445C32.4545 37.1808 32.2727 37.4536 32.2727 37.7717C32.3182 38.5445 32.3182 39.6354 32.3636 40.8627C32.4091 42.1808 32.4091 43.5899 32.4545 44.999H30.2727L24.5 39.2263V19.2717L30.2727 13.5445H37.5455L43.2727 19.2717V28.2263V44.999H39.9091ZM43.2727 17.1354L39.6818 13.5445H43.2727V17.1354Z" fill="#2CD19E"/>
</svg>
