<svg width="63" height="71" viewBox="0 0 63 71" fill="none" xmlns="http://www.w3.org/2000/svg">
<rect width="63" height="71" fill="white"/>
<path d="M7.55343 49.5506H19.8262C20.3926 49.5506 20.7702 49.1739 20.7702 48.6088C20.7702 48.0436 20.3926 47.6669 19.8262 47.6669H7.55343C6.987 47.6669 6.60938 48.0436 6.60938 48.6088C6.60938 49.1739 6.987 49.5506 7.55343 49.5506Z" fill="#8181A5"/>
<path d="M23.2248 53.7888H7.55343C6.987 53.7888 6.60938 54.1656 6.60938 54.7307C6.60938 55.2958 6.987 55.6726 7.55343 55.6726H23.2248C23.7912 55.6726 24.1688 55.2958 24.1688 54.7307C24.1688 54.1656 23.7912 53.7888 23.2248 53.7888Z" fill="#8181A5"/>
<path d="M52.6783 31.7492L46.542 29.677V17.7153C46.542 17.4327 46.4476 17.2443 46.2587 17.056L34.9301 5.28256C34.7413 5.09419 34.458 5 34.2692 5H4.72028C2.07692 5 0 7.07212 0 9.70936V61.0414C0 63.6786 2.07692 65.7507 4.72028 65.7507H41.8217C44.465 65.7507 46.542 63.6786 46.542 61.0414V56.1437C46.542 55.6727 46.2587 55.3902 45.8811 55.296C49.4685 53.2239 54 49.1738 54 42.6749V33.5387C53.9056 32.7852 53.4336 32.0317 52.6783 31.7492ZM43.8986 17.3385H37.5734C35.9685 17.3385 34.7413 16.0199 34.7413 14.5129V7.82562L43.8986 17.3385ZM44.6538 56.2378V61.1356C44.6538 62.7368 43.4266 63.9612 41.8217 63.9612H4.72028C3.11538 63.9612 1.88811 62.7368 1.88811 61.1356V9.70936C1.88811 8.10818 3.11538 6.88374 4.72028 6.88374H32.8531V14.5129C32.8531 17.1502 35.0245 19.2223 37.5734 19.2223H44.6538V29.1119L41.7273 28.1701C41.3497 28.0759 40.972 28.0759 40.5944 28.1701L29.549 31.8434C28.7937 32.1259 28.3217 32.7852 28.3217 33.6329V42.6749C28.3217 53.318 40.5 57.1797 40.6888 57.2739C40.8776 57.3681 41.0664 57.3681 41.2552 57.3681C41.4441 57.3681 41.6329 57.3681 41.8217 57.2739C41.8217 57.2739 43.1434 56.8971 44.8427 55.9553C44.6538 56.0495 44.6538 56.1437 44.6538 56.2378ZM52.0175 42.6749C52.0175 51.9994 41.1608 55.3902 41.0664 55.4843C40.972 55.4843 30.1154 51.9994 30.1154 42.6749V33.5387L41.0664 29.8654L52.0175 33.5387V42.6749Z" fill="#8181A5"/>
<path d="M36.9135 41.7332C36.5359 41.3564 35.9694 41.3564 35.5918 41.7332C35.2142 42.1099 35.2142 42.675 35.5918 43.0518L39.368 46.8193C39.5568 47.0076 39.8401 47.1018 40.0289 47.1018C40.3121 47.1018 40.5009 47.0076 40.6897 46.8193L47.2981 40.2262C47.6757 39.8494 47.6757 39.2843 47.2981 38.9075C46.9205 38.5308 46.354 38.5308 45.9764 38.9075L40.0289 44.8413L36.9135 41.7332Z" fill="#8181A5"/>
<path d="M21.7141 25.6269L19.4484 25.2502C19.4484 26.5688 18.7876 27.7932 17.0883 27.7932H12.1792C13.5953 27.0397 14.5393 25.6269 14.5393 23.9315C14.5393 23.7432 14.5393 23.4606 14.4449 23.2722H18.5043V21.2001H13.7841C13.4064 20.2582 12.9344 19.3164 12.9344 18.3745C12.9344 16.7733 14.1617 15.9256 15.389 15.9256C16.8994 15.9256 17.9379 16.7733 17.9379 18.5629L20.298 18.1861C20.2036 16.2082 19.0708 13.8535 15.2946 13.8535C12.5568 13.8535 10.4799 15.7372 10.4799 18.3745C10.4799 19.5047 10.8575 20.4466 11.2351 21.2001H9.53581V23.2722H11.9904C12.0848 23.5548 12.0848 23.8373 12.0848 24.2141C12.0848 25.5327 11.0463 26.9455 9.44141 27.6048V29.9595H17.6547C20.2036 29.9595 21.7141 28.17 21.7141 25.6269Z" fill="#8181A5"/>
</svg>
