<svg width="70" height="70" viewBox="0 0 70 70" fill="none" xmlns="http://www.w3.org/2000/svg">
<path d="M35 70C54.33 70 70 54.33 70 35C70 15.67 54.33 0 35 0C15.67 0 0 15.67 0 35C0 54.33 15.67 70 35 70Z" fill="#EF6355" fill-opacity="0.18"/>
<path d="M32.0533 15C31.6771 15 31.3636 15.313 31.3636 15.69V19.389C29.6708 19.765 28.0408 20.455 26.536 21.395L23.9655 18.762C23.8401 18.636 23.652 18.574 23.464 18.574C23.2759 18.574 23.0878 18.636 22.9624 18.762L18.7618 22.9C18.511 23.15 18.511 23.652 18.7618 23.903L21.3323 26.473C20.3918 27.978 19.7022 29.608 19.326 31.301H15.6897C15.3135 31.301 15 31.614 15 31.991V37.884C15 38.26 15.3135 38.574 15.6897 38.574H19.3887C19.7649 40.266 20.4545 41.897 21.395 43.401L18.7618 46.034C18.511 46.285 18.511 46.787 18.7618 47.038L22.8997 51.176C23.0251 51.301 23.2132 51.364 23.4013 51.364C23.5893 51.364 23.7774 51.301 23.9028 51.176L26.4734 48.605C27.9781 49.545 29.6082 50.172 31.3009 50.611V54.248C31.3009 54.624 31.6144 54.937 31.9906 54.937H37.884C38.0721 54.937 38.2602 54.875 38.3856 54.749C38.511 54.624 38.5737 54.436 38.5737 54.248V50.549C40.2665 50.172 41.8966 49.483 43.4013 48.542L45.9718 51.113C46.0972 51.238 46.2853 51.301 46.4734 51.301C46.6614 51.301 46.8495 51.238 46.9749 51.113L51.1129 46.975C51.3636 46.724 51.3636 46.223 51.1129 45.972L48.5423 43.401C49.4828 41.897 50.1097 40.266 50.5486 38.574H54.185C54.5611 38.574 54.8746 38.26 54.8746 37.884V31.991C54.8746 31.614 54.5611 31.301 54.185 31.301H50.4859C50.1097 29.608 49.4201 27.978 48.4796 26.473L51.0502 23.903C51.3009 23.652 51.3009 23.15 51.0502 22.9L47.0376 18.762C46.9122 18.636 46.7241 18.574 46.5361 18.574C46.348 18.574 46.1599 18.636 46.0345 18.762L43.464 21.332C41.9592 20.455 40.3292 19.765 38.6364 19.389V15.69C38.6364 15.502 38.5737 15.313 38.4483 15.188C38.3229 15.063 38.1348 15 37.9467 15H32.0533ZM32.7429 16.442H37.1944V19.828C37.1944 20.141 37.4451 20.455 37.7586 20.517C39.7022 20.893 41.5831 21.646 43.2132 22.774C43.464 22.962 43.8401 22.9 44.0909 22.712L46.5361 20.329L49.6708 23.464L47.2257 25.909C46.9749 26.16 46.9749 26.536 47.163 26.787C48.2915 28.417 49.0439 30.298 49.4201 32.241C49.4828 32.555 49.7962 32.806 50.1097 32.806H53.4953V37.257H50.1097C49.7962 37.257 49.4828 37.508 49.4201 37.821C49.0439 39.765 48.2915 41.646 47.163 43.276C46.9749 43.589 47.0376 43.966 47.2257 44.154L49.6082 46.536L46.4734 49.671L44.0282 47.226C43.7774 46.975 43.4013 46.975 43.1505 47.163C41.5204 48.292 39.6395 49.044 37.6959 49.42C37.3824 49.483 37.1317 49.796 37.1317 50.11V53.558H32.6803V50.11C32.6803 49.796 32.4295 49.483 32.116 49.42C30.1724 49.044 28.2915 48.292 26.6614 47.163C26.348 46.975 25.9718 46.975 25.7837 47.226L23.4013 49.671L20.2665 46.536L22.7116 44.091C22.9624 43.84 22.9624 43.464 22.7743 43.213C21.6458 41.583 20.8934 39.702 20.5172 37.759C20.4545 37.445 20.1411 37.194 19.8276 37.194H16.442V32.743H19.8276C20.1411 32.743 20.4545 32.492 20.5172 32.179C20.8934 30.235 21.6458 28.354 22.7743 26.724C22.9624 26.473 22.8997 26.034 22.7116 25.846L20.3292 23.401L23.464 20.266L25.9091 22.712C26.1599 22.962 26.536 22.962 26.7868 22.774C28.4169 21.646 30.2978 20.893 32.2414 20.517C32.5549 20.455 32.8056 20.141 32.8056 19.828L32.7429 16.442ZM35 25.031C29.4828 25.031 25.0313 29.483 25.0313 35C25.0313 40.517 29.4828 44.969 35 44.969C40.5172 44.969 44.9687 40.517 44.9687 35C44.9687 29.483 40.4545 25.031 35 25.031ZM35 26.473C39.7022 26.473 43.5266 30.298 43.5266 35C43.5266 39.702 39.7022 43.527 35 43.527C30.4859 43.527 26.8495 40.078 26.4734 35.69H34.2477L32.5549 37.32C32.4295 37.445 32.3041 37.633 32.3041 37.821C32.3041 38.009 32.3668 38.197 32.4922 38.386C32.6176 38.511 32.8056 38.636 32.9937 38.636C33.1818 38.636 33.3699 38.574 33.4953 38.386L36.5047 35.564C36.5047 35.564 36.5047 35.564 36.5047 35.502C36.5047 35.502 36.5047 35.502 36.5047 35.439C36.5047 35.376 36.5674 35.376 36.5674 35.313C36.5674 35.251 36.6301 35.188 36.6301 35.125C36.6301 34.875 36.5047 34.687 36.3793 34.561L33.3699 31.74C33.2445 31.614 33.0564 31.552 32.8683 31.552C32.5549 31.552 32.3041 31.74 32.2414 31.991C32.116 32.241 32.2414 32.555 32.4295 32.743L34.185 34.373H26.4734C26.8495 29.859 30.4859 26.473 35 26.473Z" fill="#EF6355"/>
</svg>
