<svg width="65" height="65" viewBox="0 0 65 65" fill="none" xmlns="http://www.w3.org/2000/svg">
<path d="M32.5 64.5C50.1731 64.5 64.5 50.1731 64.5 32.5C64.5 14.8269 50.1731 0.5 32.5 0.5C14.8269 0.5 0.5 14.8269 0.5 32.5C0.5 50.1731 14.8269 64.5 32.5 64.5Z" stroke="#DBE3EB"/>
<path d="M47.7259 33.0246H34.1516C33.5145 33.0246 32.9265 32.4855 32.9265 31.7994V18.2252C32.9265 17.5391 32.3384 16.951 31.6524 17.0001C29.3492 17.1961 27.193 17.8331 25.2818 18.9112C25.2328 18.9602 25.1348 18.9602 25.0858 19.0092C25.0368 19.0092 25.0368 19.0582 24.9877 19.0582C23.4196 19.9893 21.9985 21.1164 20.8224 22.4886C18.4701 25.3308 17 28.9572 17 32.9755C17 37.0429 18.5191 40.7183 20.9694 43.5605C23.9096 46.8929 28.2221 49.0491 33.0245 49.0491C38.023 49.0491 42.4824 46.7948 45.4227 43.2175C47.4319 40.7673 48.706 37.729 48.951 34.3477C49.049 33.5636 48.4119 33.0246 47.7259 33.0246Z" fill="#38B6FF"/>
<path d="M47.53 28.6141H38.5132C37.8271 28.6141 37.2881 28.0751 37.2881 27.389V18.4702C37.2881 17.9801 37.7781 17.6371 38.2192 17.7841C42.8746 19.3522 46.55 23.0276 48.1671 27.683C48.3631 28.1241 48.0201 28.6141 47.53 28.6141Z" fill="#38B6FF"/>
</svg>
