<svg width="70" height="70" viewBox="0 0 70 70" fill="none" xmlns="http://www.w3.org/2000/svg">
<path d="M35 70C54.33 70 70 54.33 70 35C70 15.67 54.33 0 35 0C15.67 0 0 15.67 0 35C0 54.33 15.67 70 35 70Z" fill="#EF6355" fill-opacity="0.18"/>
<path d="M51 27.6022V27.532V27.4618L48.5221 21.2839V16.3697C48.5221 15.4571 48.1681 14.6147 47.531 13.9828C46.8938 13.351 46.0442 13 45.1239 13H41.2301C41.1593 13 41.0885 13 41.0177 13H29.0531C28.9823 13 28.9115 13 28.8407 13H24.8761C23.9558 13 23.1062 13.351 22.469 13.9828C21.8319 14.6147 21.4779 15.4571 21.4779 16.3697V21.0733C21.4779 21.1435 21.4779 21.2137 21.4779 21.2839L19 27.4618C19 27.4618 19 27.4618 19 27.532V27.6022V30.4103C19 31.1825 19.2124 31.9548 19.708 32.5866C20.1327 33.2184 20.7699 33.7098 21.4779 33.9204V54.6303C21.4779 55.5429 21.8319 56.3853 22.469 57.0172C23.1062 57.649 23.9558 58 24.8761 58H45.1239C46.0442 58 46.8938 57.649 47.531 57.0172C48.1681 56.3853 48.5221 55.5429 48.5221 54.6303V33.9204C49.2301 33.6396 49.8673 33.2184 50.292 32.5866C50.7876 31.9548 51 31.1825 51 30.4103V27.7426V27.6022ZM49.5133 28.4446V30.4103C49.5133 31.2527 49.0885 31.9548 48.3805 32.376C47.6726 32.7972 46.823 32.7972 46.0442 32.376C45.3363 31.9548 44.9115 31.1825 44.9115 30.4103V28.4446H49.5133ZM26.9292 22.1966L25.3009 27.0406H20.8407L22.7522 22.1966H26.9292ZM32.8053 26.9704L33.3009 22.1264H36.6991L37.1947 26.9704H32.8053ZM31.177 30.4103C31.177 31.1825 30.6814 31.9548 30.0442 32.376C29.3363 32.7972 28.4867 32.7972 27.7788 32.376C27.0708 31.9548 26.646 31.2527 26.646 30.4103V28.4446H31.2478V30.4103H31.177ZM26.8584 26.9704L28.4867 22.1264H31.7434L31.2478 26.9704H26.8584ZM38.7522 26.9704L38.2566 22.1264H41.5133L43.1416 26.9704H38.7522ZM43.4248 30.4103C43.4248 31.1825 42.9292 31.9548 42.292 32.376C41.5841 32.7972 40.7345 32.7972 40.0265 32.376C39.3186 31.9548 38.8938 31.2527 38.8938 30.4103V28.4446H43.4956V30.4103H43.4248ZM37.2655 30.4103C37.2655 31.2527 36.8407 31.9548 36.1327 32.376C35.4248 32.7972 34.5044 32.7972 33.7965 32.376C33.0885 31.9548 32.6637 31.1825 32.6637 30.4103V28.4446H37.2655V30.4103ZM20.4867 28.4446H25.0885V30.4103C25.0885 31.1825 24.6637 31.9548 23.9558 32.376C23.2478 32.7972 22.3982 32.7972 21.6195 32.376C20.9115 31.9548 20.4867 31.1825 20.4867 30.4103V28.4446ZM22.9646 34.2012C24.0973 34.131 25.1593 33.5694 25.7965 32.6568C26.5044 33.6396 27.6372 34.2012 28.8407 34.2012C30.0442 34.2012 31.177 33.6396 31.885 32.6568C32.5929 33.6396 33.7257 34.2012 34.9292 34.2012C36.1327 34.2012 37.2655 33.6396 37.9735 32.6568C38.6814 33.6396 39.8142 34.2012 41.0177 34.2012C42.2212 34.2012 43.354 33.6396 44.0619 32.6568C44.7699 33.5694 45.7611 34.131 46.8938 34.2012V54.7005C46.8938 55.1919 46.6814 55.6833 46.3274 56.0343C45.9734 56.3853 45.4779 56.5959 44.9823 56.5959H24.8761C24.3805 56.5959 23.885 56.3853 23.531 56.0343C23.177 55.6833 22.9646 55.1919 22.9646 54.7005V34.2012ZM44.6991 26.9704L43.0708 22.1966H47.2478L49.1593 27.0406H44.6991V26.9704ZM38.6106 17.493C39.0354 17.493 39.4602 17.3526 39.8142 17.142C40.1681 16.9314 40.4513 16.5803 40.6637 16.2293L41.5841 14.4743H45.1947C45.6903 14.4743 46.1858 14.6849 46.5398 15.0359C46.8938 15.3869 47.1062 15.8783 47.1062 16.3697V20.6521H22.9646V16.3697C22.9646 15.8783 23.177 15.3869 23.531 15.0359C23.885 14.6849 24.3805 14.4743 24.8761 14.4743H28.4867L29.4071 16.2293C29.6195 16.5803 29.9027 16.9314 30.2566 17.142C30.6106 17.3526 31.0354 17.493 31.4602 17.493H38.6106ZM39.3186 15.5975C39.177 15.8783 38.8938 16.0187 38.6106 16.0187H31.3894C31.1062 16.0187 30.823 15.8783 30.6814 15.5975L30.115 14.5445H39.8142L39.3186 15.5975Z" fill="#EF6355"/>
<path d="M26.8584 52.7348H31.8141C32.5221 52.7348 33.23 52.454 33.7256 51.9626C34.2212 51.4712 34.5044 50.7691 34.5044 50.0671C34.5044 49.3651 34.2212 48.6631 33.7256 48.1716C33.23 47.6802 32.5221 47.3994 31.8141 47.3994H26.8584C25.8672 47.3994 24.9469 47.8908 24.5221 48.7333C24.0265 49.5757 24.0265 50.6287 24.5221 51.4712C25.0176 52.3136 25.938 52.7348 26.8584 52.7348ZM25.6548 50.0671C25.6548 49.7161 25.7964 49.4353 26.0088 49.2247C26.2212 49.0141 26.5752 48.8737 26.8584 48.8737H31.8141C32.2389 48.8737 32.6637 49.0843 32.8761 49.5055C33.0884 49.8565 33.0884 50.3479 32.8761 50.6989C32.6637 51.05 32.2389 51.3308 31.8141 51.3308H26.8584C26.5044 51.3308 26.2212 51.1904 26.0088 50.9798C25.7964 50.6989 25.6548 50.3479 25.6548 50.0671Z" fill="#EF6355"/>
<path d="M45.1239 37.9922H36.4868C36.062 37.9922 35.708 38.3432 35.708 38.7644C35.708 39.1856 36.062 39.5367 36.4868 39.5367H45.1239C45.5487 39.5367 45.9027 39.1856 45.9027 38.7644C45.9027 38.3432 45.5487 37.9922 45.1239 37.9922Z" fill="#EF6355"/>
<path d="M36.4868 36.7988H45.1239C45.5487 36.7988 45.9027 36.4478 45.9027 36.0266C45.9027 35.6054 45.5487 35.2544 45.1239 35.2544H36.4868C36.062 35.2544 35.708 35.6054 35.708 36.0266C35.708 36.4478 36.062 36.7988 36.4868 36.7988Z" fill="#EF6355"/>
<path d="M28.2031 54.6302C28.2031 55.0514 28.5571 55.4024 28.9819 55.4024H41.0881C41.5129 55.4024 41.8668 55.0514 41.8668 54.6302C41.8668 54.2089 41.5129 53.8579 41.0881 53.8579H28.9819C28.5571 53.9281 28.2031 54.2089 28.2031 54.6302Z" fill="#EF6355"/>
<path d="M36.4868 42.064H42.5045C42.9292 42.064 43.2832 41.713 43.2832 41.2918C43.2832 40.8705 42.9292 40.5195 42.5045 40.5195H36.4868C36.062 40.5195 35.708 40.8705 35.708 41.2918C35.708 41.713 36.062 42.064 36.4868 42.064Z" fill="#EF6355"/>
<path d="M24.8764 45.9252H33.7968C34.0092 45.9252 34.1508 45.855 34.3631 45.7146C34.5047 45.5742 34.5755 45.3636 34.5755 45.153V36.0266C34.5755 35.816 34.5047 35.6756 34.3631 35.465C34.2216 35.3246 34.0092 35.2544 33.8676 35.2544H24.8764C24.4516 35.2544 24.0977 35.6054 24.0977 36.0266V45.153C24.1685 45.5742 24.4516 45.9252 24.8764 45.9252ZM31.1065 44.4509H25.6552V42.2044L27.2127 40.66L31.1065 44.4509ZM30.6817 39.0453L29.195 40.5196L27.7083 39.0453C27.5667 38.9049 27.3543 38.8347 27.1419 38.8347C26.9295 38.8347 26.7879 38.9049 26.5755 39.0453L25.5136 40.0984V36.869H32.9472V40.3792L31.7437 39.0453C31.6021 38.9049 31.3897 38.8347 31.1773 38.8347C31.0357 38.7645 30.8233 38.9049 30.6817 39.0453ZM33.0888 42.4151V44.2403L30.3277 41.5024L31.2481 40.5898L33.0888 42.4151Z" fill="#EF6355"/>
<path d="M43.1413 47.3291H38.4687C37.4776 47.3291 36.5572 47.8205 36.1324 48.663C35.6368 49.5054 35.6368 50.5585 36.1324 51.4009C36.628 52.2433 37.5484 52.7347 38.4687 52.7347H43.1413C44.1324 52.7347 45.0528 52.2433 45.4776 51.4009C45.9731 50.5585 45.9731 49.5054 45.4776 48.663C44.982 47.8205 44.1324 47.3291 43.1413 47.3291ZM44.2032 50.6287C43.9908 50.9797 43.5661 51.2605 43.1413 51.2605H38.4687C38.0439 51.2605 37.6191 51.0499 37.4068 50.6287C37.1944 50.2776 37.1944 49.7862 37.4068 49.4352C37.6191 49.0842 38.0439 48.8034 38.4687 48.8034H43.1413C43.5661 48.8034 43.9908 49.014 44.2032 49.4352C44.4156 49.7862 44.4156 50.2776 44.2032 50.6287Z" fill="#EF6355"/>
</svg>
