<svg width="36" height="36" viewBox="0 0 36 36" fill="none" xmlns="http://www.w3.org/2000/svg">
<path d="M18 36C27.9411 36 36 27.9411 36 18C36 8.05887 27.9411 0 18 0C8.05887 0 0 8.05887 0 18C0 27.9411 8.05887 36 18 36Z" fill="url(#paint0_linear_102_2)"/>
<path d="M9.31193 17.7524L13.2752 14.4496C13.4404 14.2845 13.5229 14.0368 13.6055 13.7891C13.6055 13.5414 13.5229 13.3762 13.3578 13.1285C13.0275 12.7983 12.4495 12.7157 12.1193 13.046L7.33028 17.0093C7.08257 17.1744 7 17.4221 7 17.7524C7 18.0827 7.08257 18.2478 7.33028 18.4955L12.1193 22.4588C12.2844 22.624 12.4495 22.7065 12.6972 22.7065C12.945 22.7065 13.1927 22.624 13.4404 22.3762C13.7706 21.9634 13.6881 21.3854 13.2752 21.1377L9.31193 17.7524Z" fill="white"/>
<path d="M29.2936 17.2568L24.5046 13.2935C24.1743 12.9632 23.5138 13.0458 23.1835 13.3761C23.0184 13.5412 22.9358 13.7889 22.9358 14.0366C22.9358 14.2843 23.1009 14.4494 23.2661 14.6146L27.2294 17.9173L23.2661 21.2201C23.1009 21.3852 22.9358 21.6329 22.9358 21.7981C22.9358 22.0458 23.0184 22.2935 23.1835 22.4586C23.3486 22.7063 23.5963 22.7889 23.844 22.7889C24.0092 22.7889 24.2569 22.7063 24.422 22.5412L29.211 18.5779C29.3762 18.4127 29.5413 18.165 29.5413 17.9173C29.6239 17.7522 29.4587 17.4219 29.2936 17.2568Z" fill="white"/>
<path d="M20.789 9C20.7064 9 20.6239 9 20.5413 9C20.1285 9 19.7982 9.24771 19.7156 9.66055L14.5963 25.844C14.4312 26.3395 14.7615 26.8349 15.1743 27C15.2569 27 15.3395 27 15.422 27C15.8349 27 16.1652 26.7523 16.2477 26.3395L21.2844 10.156C21.367 9.90826 21.367 9.74312 21.2844 9.49541C21.2018 9.24771 21.0367 9.08257 20.789 9Z" fill="white"/>
<defs>
<linearGradient id="paint0_linear_102_2" x1="18" y1="41" x2="-7.2444" y2="17.311" gradientUnits="userSpaceOnUse">
<stop stop-color="#2CD19E"/>
<stop offset="1" stop-color="#00F3A8"/>
</linearGradient>
</defs>
</svg>
