<svg width="70" height="70" viewBox="0 0 70 70" fill="none" xmlns="http://www.w3.org/2000/svg">
<path d="M35 70C54.33 70 70 54.33 70 35C70 15.67 54.33 0 35 0C15.67 0 0 15.67 0 35C0 54.33 15.67 70 35 70Z" fill="#E5EBF0"/>
<path d="M50.1941 33.9139C50.5015 34.2249 50.9318 34.2249 51.2392 33.9139L57.387 27.6938C57.5099 27.5694 57.6329 27.3828 57.6329 27.1962C57.6329 27.0096 57.5714 26.823 57.387 26.6986L48.1653 17.7416C48.0424 17.6172 47.9809 17.555 47.7965 17.555L41.0954 16H29.6605H29.4146L22.652 17.555C22.5291 17.6172 22.4061 17.6794 22.3446 17.7416L13.2459 26.6364C13.0615 26.823 13 26.9474 13 27.1962C13 27.3828 13.0615 27.5694 13.2459 27.6938L19.4552 33.8517C19.7626 34.1627 20.1929 34.1627 20.5003 33.8517L22.8365 31.2392V54.2536C22.8365 54.689 23.1438 55 23.5742 55H47.1817C47.4276 55 47.612 54.9378 47.735 54.7512C47.7965 54.6268 47.9194 54.4402 47.8579 54.1914V49.3397L49.7023 51.2057C50.0097 51.5167 50.44 51.5167 50.7474 51.2057L53.5139 48.4067C53.6368 48.2823 53.7598 48.0957 53.7598 47.9091C53.7598 47.7225 53.6983 47.5359 53.5139 47.4115L46.9972 40.8804L53.3295 38.2679C53.5754 38.1435 53.7598 37.8947 53.7598 37.5837C53.7598 37.2727 53.5139 36.9617 53.268 36.8995L47.8579 35.0335V31.2392L50.1941 33.9139ZM45.3988 39.8852C45.2144 39.9474 45.0299 40.134 44.9685 40.3828V40.445C44.9685 40.6316 45.0299 40.8804 45.2144 41.067L51.854 47.7847L50.0711 49.5885L43.4315 42.8708C43.3086 42.7464 43.1241 42.622 42.9397 42.622H42.7553H42.6938C42.4479 42.6842 42.2634 42.8708 42.202 43.0574L39.9273 48.6555L34.2099 31.799L50.8703 37.5837L45.3988 39.8852ZM31.3204 17.4928H39.251C38.1444 18.3636 36.7304 18.8612 35.3165 18.8612C33.9025 18.8612 32.4885 18.3636 31.3204 17.4928ZM33.3492 29.9952C33.1032 29.8708 32.7959 29.933 32.6114 30.1196C32.427 30.3062 32.3655 30.555 32.427 30.866L39.251 50.9569C39.3125 51.2679 39.6199 51.4545 39.9273 51.4545C40.2347 51.4545 40.5421 51.2679 40.6035 51.0191L43.1241 44.6746L46.3825 47.9713C46.321 48.0957 46.2595 48.2201 46.2595 48.3445V53.445H24.066V29.2488C24.066 28.9378 23.8816 28.6268 23.5742 28.5646C23.2668 28.5024 23.0209 28.5646 22.775 28.8134L19.7011 32.2967L14.7214 27.1962L23.2668 18.9234L29.2916 17.4928C30.8286 19.2344 32.9803 20.2297 35.255 20.2297C37.5297 20.2297 39.6814 19.2344 41.2183 17.4928L47.2431 18.9234L55.7271 27.2584L50.6859 32.3589L47.612 28.8756C47.4276 28.689 47.1202 28.5646 46.8128 28.689C46.5669 28.7512 46.3825 29.0622 46.3825 29.3732V34.5359L33.3492 29.9952Z" fill="#13273F"/>
</svg>
