<svg width="36" height="36" viewBox="0 0 36 36" fill="none" xmlns="http://www.w3.org/2000/svg">
<g clip-path="url(#clip0_1699_978)">
  <path d="M26 15.8592C26 15.784 26 15.6338 25.9249 15.5587C25.8498 15.4836 25.8498 15.3333 25.7746 15.2582C25.6995 15.1831 25.6244 15.108 25.4742 15.108L25.3991 15.3333L25.4742 15.108C25.3991 15.0329 25.2488 15.0329 25.1737 15.0329H20.1408C20.0657 15.0329 19.9155 15.0329 19.8404 15.108C19.7652 15.1831 19.615 15.1831 19.5399 15.2582C19.4648 15.3333 19.3897 15.4085 19.3897 15.5587C19.3145 15.6338 19.3145 15.784 19.3145 15.8592C19.3145 15.9343 19.3145 16.0845 19.3897 16.1596C19.4648 16.2347 19.4648 16.385 19.5399 16.4601C19.615 16.5352 19.6901 16.6103 19.8404 16.6103C19.9155 16.6854 19.9906 16.7606 20.1408 16.7606H23.2206L15.3333 24.5728C15.1831 24.723 15.108 24.9484 15.108 25.1737C15.108 25.3991 15.1831 25.6244 15.3333 25.7747C15.4836 25.9249 15.7089 26 15.9343 26C16.1596 26 16.385 25.9249 16.5352 25.7747L24.4225 17.8873V20.9671C24.4225 21.1925 24.4976 21.4178 24.6479 21.5681C24.7981 21.7183 25.0235 21.7934 25.2488 21.7934C25.4742 21.7934 25.6995 21.7183 25.8498 21.5681C26 21.4178 26.0751 21.1925 26.0751 20.9671L26 15.8592Z" fill="white"/>
  <path d="M16.2347 20.892C16.3099 20.8169 16.4601 20.8169 16.5352 20.7418C16.6103 20.6667 16.6854 20.5915 16.6854 20.4413C16.6854 20.2911 16.7606 20.216 16.7606 20.1408C16.7606 20.0657 16.7606 19.9155 16.6854 19.8404C16.6103 19.7653 16.6103 19.615 16.5352 19.5399C16.4601 19.4648 16.385 19.3897 16.2347 19.3897C16.1596 19.3146 16.0094 19.3146 15.9343 19.3146V19.5399V19.3146H12.8545L20.6667 11.4272C20.8169 11.277 20.892 11.0516 20.892 10.8263C20.892 10.6009 20.8169 10.3756 20.6667 10.2254C20.5164 10.0751 20.3662 10 20.1408 10C19.9155 10 19.6901 10.0751 19.5399 10.2254L11.6526 18.1127V15.0329C11.6526 14.9577 11.6526 14.8075 11.5775 14.7324C11.5775 14.6573 11.5023 14.507 11.4272 14.4319C11.3521 14.3568 11.277 14.3568 11.1268 14.2817C11.0516 14.2066 10.9765 14.2066 10.8263 14.2066C10.7512 14.2066 10.6009 14.2066 10.5258 14.2817C10.4507 14.3568 10.3005 14.3568 10.2254 14.4319C10.1502 14.507 10.0751 14.6573 10.0751 14.7324C10 14.8075 10 14.9577 10 15.0329V20.0657C10 20.1408 10 20.2911 10.0751 20.3662C10.1502 20.4413 10.1502 20.5915 10.2254 20.6667C10.3005 20.7418 10.3756 20.8169 10.5258 20.8169C10.6009 20.892 10.7512 20.892 10.8263 20.892H15.8592C16.0094 20.9671 16.0845 20.892 16.2347 20.892Z" fill="white"/>
</g>
</svg>
