<svg width="175" height="34" viewBox="0 0 175 34" fill="none" xmlns="http://www.w3.org/2000/svg">
<g clip-path="url(#clip0_1154_983)">
<path d="M0.466589 3.22971C1.28312 1.34706 3.32445 -0.00169587 5.45326 -0.00169587C21.5214 -0.00169587 37.5896 -0.00169587 53.6869 -0.00169587C55.0867 -0.029795 56.4864 0.47599 57.5071 1.37516C58.6735 2.38673 59.3443 3.90409 59.3151 5.42144C59.3151 11.3504 59.3151 17.2793 59.3151 23.2363C59.2859 25.9057 56.8655 28.3223 54.0951 28.3785C48.2336 28.4066 42.3721 28.3785 36.5106 28.3785C37.2979 30.2611 38.0853 32.1157 38.8727 33.9983C35.3733 32.1438 31.9322 30.233 28.4036 28.4066C20.7049 28.3504 12.977 28.4066 5.24913 28.3785C2.47875 28.2942 0.0583236 25.9057 0.0291618 23.2363C0 17.4198 0.0291618 11.6033 0 5.81483C0 4.94376 0.0874854 4.04458 0.466589 3.22971Z" fill="#7F54B3"/>
<path d="M24.0295 3.65279C24.9043 2.75362 26.5957 3.03461 27.2664 4.07428C27.6164 4.60817 27.6455 5.33874 27.3539 5.90073C26.1291 8.26106 25.6042 10.8743 25.1376 13.4313C24.5835 16.7751 24.117 20.1751 24.2919 23.5751C24.3503 24.4462 23.9128 25.4859 22.9505 25.7106C22.0465 25.9073 21.2008 25.3173 20.6175 24.6991C17.993 21.9735 16.5057 18.4611 15.4267 14.9487C14.3478 16.9999 13.2688 19.0792 12.2189 21.1305C11.4899 22.5354 10.7025 23.9685 9.53605 25.0925C9.0403 25.5702 8.19461 25.9916 7.55305 25.514C6.59071 24.6991 6.35741 23.4065 5.94915 22.3106C4.40357 17.1685 3.52872 11.8578 2.6247 6.57511C2.42057 5.70403 2.79967 4.63627 3.70369 4.29908C4.43273 4.04618 5.39507 3.98998 6.00747 4.52387C6.4449 4.88916 6.56155 5.47924 6.64903 6.01312C7.29059 10.1156 8.01964 14.19 9.06946 18.2082C10.8192 15.0049 12.5689 11.8016 14.3186 8.57015C14.581 8.09246 14.9018 7.61478 15.3684 7.33379C16.01 6.9404 16.9432 6.9685 17.4972 7.53048C17.9347 7.98007 18.1096 8.62635 18.2263 9.21643C18.7512 11.8578 19.4511 14.4991 20.4717 16.9999C20.9092 13.2065 21.4632 9.35693 22.8922 5.78833C23.2129 5.02965 23.5046 4.27098 24.0295 3.65279ZM33.9153 5.70403C35.8108 5.47924 37.8522 6.09742 39.1353 7.47428C40.1851 8.62635 40.7683 10.1156 40.9725 11.6049C41.2933 14.1619 40.7975 16.8594 39.5144 19.1354C38.7853 20.428 37.8522 21.6925 36.5107 22.4511C34.5569 23.6032 31.9323 23.4627 30.0368 22.2544C28.5204 21.2429 27.6747 19.5569 27.3248 17.871C26.6249 14.0214 27.8205 9.75032 30.8242 7.08089C31.699 6.32222 32.778 5.84453 33.9153 5.70403ZM34.2944 9.63792C33.3904 9.91891 32.8072 10.7338 32.3114 11.4644C31.0866 13.3751 30.7367 15.8759 31.7282 17.9272C31.9906 18.4611 32.3989 19.0511 33.0696 19.1635C33.7695 19.2759 34.4111 18.8825 34.9068 18.4611C36.015 17.5338 36.569 16.1569 36.8607 14.7801C37.1523 13.2346 37.0065 11.5206 36.0733 10.1718C35.6942 9.66602 34.936 9.44122 34.2944 9.63792ZM49.0503 5.70403C50.8875 5.47924 52.8997 6.04122 54.1828 7.36189C55.3493 8.57015 55.9617 10.1718 56.1366 11.8016C56.3991 14.2743 55.9325 16.8594 54.7077 19.0511C53.9787 20.3718 53.0163 21.6644 51.6165 22.4511C49.7502 23.547 47.2423 23.4346 45.3759 22.3668C44.122 21.6363 43.2763 20.3999 42.7805 19.0792C41.4682 15.0611 42.5764 10.3404 45.6092 7.30569C46.6007 6.46271 47.7963 5.84453 49.0503 5.70403ZM49.4586 9.63792C48.4671 9.97511 47.8838 10.9024 47.3589 11.7173C46.2508 13.5999 45.9592 16.0445 46.9798 18.0396C47.2423 18.6016 47.738 19.1354 48.4087 19.1635C49.1378 19.1916 49.7794 18.7421 50.3043 18.2644C51.4416 17.1966 51.9373 15.6792 52.1123 14.19C52.2873 12.8131 52.054 11.3239 51.2083 10.1437C50.8583 9.66602 50.1001 9.44122 49.4586 9.63792Z" fill="white"/>
<path d="M69.2884 6.23798C70.8923 5.90079 72.5837 5.92889 74.1876 6.29418C74.1876 7.55865 74.1876 8.82311 74.1876 10.0876C72.8753 9.77848 71.3881 9.49749 70.1341 10.0876C68.6177 10.8182 67.772 12.476 67.772 14.0496C67.6845 15.6231 68.2386 17.3934 69.6967 18.2925C71.0381 19.1355 72.7587 18.9669 74.2168 18.5735C74.2168 19.838 74.2168 21.1024 74.2168 22.3669C72.2629 22.9008 70.1341 22.8446 68.2386 22.1702C65.964 21.3553 64.156 19.4446 63.4561 17.1967C62.9312 15.4826 62.8728 13.6562 63.2811 11.914C63.9518 9.1322 66.4014 6.85617 69.2884 6.23798ZM81.1281 6.04129C83.1111 5.8165 85.2691 6.12559 86.873 7.33385C88.4186 8.48592 89.1768 10.3686 89.4684 12.1669C89.7309 14.162 89.6725 16.2413 89.031 18.152C88.4769 19.7818 87.3396 21.2991 85.7065 22.0578C84.0443 22.8165 82.0905 22.8727 80.3116 22.4793C78.6785 22.114 77.2205 21.0743 76.4039 19.6413C75.2666 17.7305 75.0625 15.4545 75.15 13.2909C75.2375 11.4363 75.7332 9.49749 77.0163 8.06443C78.0661 6.91236 79.5826 6.20989 81.1281 6.04129ZM81.7405 9.66608C80.8948 9.86278 80.3991 10.6777 80.195 11.4363C79.7867 12.9537 79.845 14.5272 79.9617 16.0727C80.0783 16.9157 80.1658 17.8148 80.7782 18.4892C81.5947 19.3884 83.2569 19.276 83.986 18.3487C84.4817 17.7586 84.6276 17 84.715 16.2694C84.89 14.9768 84.9192 13.6562 84.715 12.3636C84.5692 11.5768 84.3359 10.762 83.7527 10.1719C83.2278 9.66608 82.4404 9.49749 81.7405 9.66608ZM159.515 6.29418C161.206 5.8727 162.985 5.92889 164.677 6.26608C164.706 7.53055 164.677 8.79501 164.706 10.0876C163.423 9.77848 161.994 9.49749 160.74 10.0314C159.282 10.6777 158.407 12.1669 158.29 13.6562C158.115 15.3421 158.582 17.2529 160.127 18.2363C161.469 19.1355 163.219 18.9669 164.706 18.5454C164.677 19.8099 164.735 21.1024 164.677 22.3669C162.606 22.8727 160.332 22.8165 158.378 22.0016C156.22 21.1024 154.528 19.1917 153.916 17C153.449 15.314 153.391 13.5157 153.829 11.8016C154.47 9.1603 156.774 6.99666 159.515 6.29418ZM92.0638 6.40658C93.9302 6.40658 95.8257 6.40658 97.692 6.40658C98.3628 9.32889 99.0043 12.2793 99.5876 15.2297C100.112 12.2512 100.842 9.32889 101.571 6.40658C103.495 6.40658 105.42 6.40658 107.345 6.40658C108.103 11.7173 108.832 17.0281 109.561 22.3107C108.103 22.3107 106.616 22.3107 105.157 22.3107C104.749 18.6859 104.399 15.033 103.962 11.4082C103.058 15.033 102.125 18.6859 101.221 22.3107C100.229 22.3107 99.2085 22.3107 98.2169 22.3107C97.2546 18.6859 96.3214 15.033 95.3299 11.3801C94.9508 15.0049 94.5717 18.6578 94.1926 22.3107C92.7929 22.3107 91.3931 22.3107 89.9642 22.3107C90.664 17.0281 91.3639 11.7173 92.0638 6.40658ZM112.244 6.40658C114.11 6.40658 116.006 6.40658 117.872 6.40658C118.543 9.32889 119.184 12.2793 119.768 15.2297C120.322 12.2793 121.021 9.32889 121.751 6.40658H127.495C128.254 11.7173 128.983 17.0281 129.712 22.3107C128.254 22.3107 126.766 22.3107 125.308 22.3107C124.9 18.6859 124.521 15.033 124.113 11.4082C123.209 15.033 122.305 18.6859 121.371 22.3107C120.38 22.3107 119.359 22.3107 118.368 22.3107C117.405 18.6578 116.443 15.033 115.481 11.3801C115.102 15.033 114.723 18.6578 114.343 22.3107C112.944 22.3107 111.544 22.3107 110.115 22.3107C110.844 17.0281 111.544 11.7173 112.244 6.40658ZM130.995 6.46278C133.998 6.40658 137.031 6.46278 140.035 6.43468C140.035 7.55865 140.035 8.68261 140.035 9.83468C138.519 9.86278 137.002 9.83468 135.486 9.83468C135.486 10.8181 135.486 11.7735 135.486 12.757C136.798 12.757 138.11 12.757 139.423 12.757C139.423 13.8529 139.423 14.9487 139.423 16.0446C138.11 16.0446 136.798 16.0446 135.486 16.0446C135.486 17 135.486 17.9834 135.486 18.9669C137.002 18.9669 138.548 18.9669 140.064 18.9669C140.064 20.0909 140.064 21.2148 140.064 22.3669C137.06 22.3669 134.028 22.3669 131.024 22.3669C130.995 17.0562 131.053 11.7735 130.995 6.46278ZM141.318 6.40658C143.214 6.40658 145.08 6.37848 146.976 6.40658C148.754 6.46278 150.65 6.88427 151.962 8.09253C153.158 9.1603 153.566 10.9305 153.099 12.4198C152.72 13.6281 151.787 14.6115 150.621 15.1454C151.787 17.5339 152.983 19.9223 154.178 22.3107C152.604 22.3107 151.029 22.3107 149.483 22.3107C148.259 19.8661 147.063 17.4215 145.809 15.0049C145.78 17.4496 145.809 19.8942 145.809 22.3107C144.322 22.3107 142.835 22.3107 141.347 22.3107C141.318 17.0281 141.318 11.7173 141.318 6.40658ZM145.78 9.46939C145.78 10.7339 145.78 11.9983 145.78 13.2628C146.596 13.2066 147.471 13.1785 148.142 12.7008C148.929 12.1388 148.842 10.9867 148.346 10.2562C147.734 9.55369 146.655 9.55369 145.78 9.46939ZM165.96 6.43468C168.963 6.43468 171.967 6.43468 174.971 6.43468C174.971 7.55865 174.971 8.71071 174.971 9.83468C173.454 9.83468 171.909 9.83468 170.392 9.83468C170.392 10.8181 170.392 11.7735 170.392 12.757C171.705 12.757 173.017 12.757 174.329 12.757C174.329 13.8529 174.329 14.9487 174.329 16.0446H170.392C170.392 17.0281 170.392 17.9834 170.392 18.9669C171.938 18.9669 173.454 18.9669 175 18.9669C175 20.0909 175 21.2148 175 22.3669C171.996 22.3669 168.963 22.3669 165.96 22.3669C165.931 17.0281 165.96 11.7173 165.96 6.43468Z" fill="black"/>
</g>
<defs>
<clipPath id="clip0_1154_983">
<rect width="175" height="34" fill="white"/>
</clipPath>
</defs>
</svg>
