<svg width="70" height="70" viewBox="0 0 70 70" fill="none" xmlns="http://www.w3.org/2000/svg">
<path d="M35 70C54.33 70 70 54.33 70 35C70 15.67 54.33 0 35 0C15.67 0 0 15.67 0 35C0 54.33 15.67 70 35 70Z" fill="#FFCE00" fill-opacity="0.17"/>
<path d="M35.0321 34.401C31.9371 34.401 29.4741 31.922 29.4741 28.808C29.4741 25.694 31.9371 23.215 35.0321 23.215C38.1261 23.215 40.5891 25.694 40.5891 28.808C40.5261 31.859 38.0631 34.401 35.0321 34.401ZM35.0321 24.804C32.8211 24.804 31.0531 26.584 31.0531 28.808C31.0531 31.032 32.8211 32.812 35.0321 32.812C37.2421 32.812 39.0101 31.032 39.0101 28.808C38.9471 26.584 37.1791 24.804 35.0321 24.804Z" fill="#FFCE00"/>
<path d="M42.485 43.171H27.5161C27.0741 43.171 26.6951 42.79 26.6951 42.345V40.057C26.6951 37.578 28.8431 35.545 31.4951 35.545H38.4431C41.0951 35.545 43.2431 37.578 43.2431 40.057V42.408C43.2431 42.853 42.927 43.171 42.485 43.171ZM28.3371 41.582H41.6641V40.057C41.6641 38.468 40.2111 37.133 38.4431 37.133H31.4951C29.7271 37.133 28.274 38.405 28.274 40.057V41.582H28.3371Z" fill="#FFCE00"/>
<path d="M45.453 55.818H24.611C22.084 55.818 20 53.721 20 51.179V18.639C20 16.097 22.084 14 24.611 14H45.453C47.979 14 50.063 16.097 50.063 18.639V51.242C50 53.721 47.916 55.818 45.453 55.818ZM24.611 15.589C22.968 15.589 21.579 16.923 21.579 18.639V51.242C21.579 52.895 22.905 54.293 24.611 54.293H45.453C47.095 54.293 48.484 52.958 48.484 51.242V18.639C48.484 16.987 47.158 15.589 45.453 15.589H24.611Z" fill="#FFCE00"/>
<path d="M49.242 48.446H20.821C20.379 48.446 20 48.065 20 47.62C20 47.175 20.379 46.794 20.821 46.794H49.242C49.684 46.794 50.063 47.175 50.063 47.62C50.063 48.065 49.621 48.446 49.242 48.446Z" fill="#FFCE00"/>
<path d="M37.4321 19.529H32.5061C32.0641 19.529 31.6851 19.148 31.6851 18.703C31.6851 18.258 32.0641 17.877 32.5061 17.877H37.4321C37.8741 17.877 38.2531 18.258 38.2531 18.703C38.2531 19.148 37.8741 19.529 37.4321 19.529Z" fill="#FFCE00"/>
<path d="M35.032 52.831C35.729 52.831 36.295 52.262 36.295 51.56C36.295 50.858 35.729 50.289 35.032 50.289C34.334 50.289 33.769 50.858 33.769 51.56C33.769 52.262 34.334 52.831 35.032 52.831Z" fill="#FFCE00"/>
</svg>
