<svg width="75" height="75" viewBox="0 0 75 75" fill="none" xmlns="http://www.w3.org/2000/svg">
<path d="M37.5 74.5C57.9345 74.5 74.5 57.9345 74.5 37.5C74.5 17.0655 57.9345 0.5 37.5 0.5C17.0655 0.5 0.5 17.0655 0.5 37.5C0.5 57.9345 17.0655 74.5 37.5 74.5Z" stroke="#DBE3EB"/>
<path d="M54.7354 35.9277H34.3137C33.892 35.9277 33.5908 36.2892 33.5908 36.6506V41.7108C33.5908 42.1325 33.9523 42.4337 34.3137 42.4337H54.7354C55.1571 42.4337 55.4583 42.0723 55.4583 41.7108V36.6506C55.4583 36.2892 55.1571 35.9277 54.7354 35.9277Z" fill="#FFCE00"/>
<path d="M28.1688 35.9277L25.0363 39.1807L23.5905 37.6747C22.9881 37.0723 22.0845 37.0723 21.4821 37.6145C20.8797 38.2169 20.8797 39.1205 21.4219 39.7229L23.952 42.3132C24.2532 42.6145 24.6146 42.7952 25.0363 42.7952C25.458 42.7952 25.8194 42.6145 26.1207 42.3132L30.3375 37.9157C30.9399 37.3132 30.8797 36.3494 30.2773 35.8072C29.6749 35.2651 28.711 35.3253 28.1688 35.9277Z" fill="#FFCE00"/>
<path d="M54.8558 24.4216H34.4944C34.0727 24.4216 33.7715 24.783 33.7715 25.1445V30.2047C33.7715 30.6264 34.1329 30.9276 34.4944 30.9276H54.9161C55.3378 30.9276 55.639 30.5662 55.639 30.2047V25.2047C55.639 24.783 55.2775 24.4216 54.8558 24.4216Z" fill="#FFCE00"/>
<path d="M28.2893 24.4818L25.1567 27.7348L23.7712 26.289C23.1688 25.6866 22.2652 25.6866 21.6628 26.2288C21.0604 26.8312 21.0604 27.7348 21.6025 28.3372L24.1326 30.9276C24.4338 31.2288 24.7953 31.4095 25.217 31.4095C25.6387 31.4095 26.0001 31.2288 26.3013 30.9276L30.5182 26.53C31.1206 25.9276 31.0604 24.9637 30.4579 24.4216C29.8555 23.8794 28.8917 23.8794 28.2893 24.4818Z" fill="#FFCE00"/>
<path d="M54.7354 47.1926H34.3137C33.892 47.1926 33.5908 47.5541 33.5908 47.9155V52.9758C33.5908 53.3975 33.9523 53.6987 34.3137 53.6987H54.7354C55.1571 53.6987 55.4583 53.3372 55.4583 52.9758V47.9155C55.4583 47.5541 55.1571 47.1926 54.7354 47.1926Z" fill="#FFCE00"/>
<path d="M28.1687 47.4337C27.5662 46.8313 26.6024 46.8313 26.0602 47.4337L25.0964 48.3976L24.1325 47.4337C23.5301 46.8313 22.5662 46.8313 22.0241 47.4337C21.4217 48.0362 21.4217 49 22.0241 49.5422L22.9879 50.506L22.0241 51.4699C21.4217 52.0723 21.4217 53.0361 22.0241 53.5783C22.3253 53.8795 22.6867 54 23.1084 54C23.5301 54 23.8915 53.8795 24.1927 53.5783L25.1566 52.6145L26 53.5181C26.3012 53.8193 26.6626 53.9398 27.0843 53.9398C27.506 53.9398 27.8674 53.8193 28.1687 53.5181C28.7711 52.9157 28.7711 51.9518 28.1687 51.4096L27.2048 50.4458L28.1687 49.4819C28.7108 48.9398 28.7108 47.9759 28.1687 47.4337Z" fill="#FFCE00"/>
</svg>
